<?xml version="1.0" standalone="no"?><!DOCTYPE svg PUBLIC "-//W3C//DTD SVG 1.1//EN" "http://www.w3.org/Graphics/SVG/1.1/DTD/svg11.dtd"><svg id="fig1" width="700" height="400" version="1.1" xmlns="http://www.w3.org/2000/svg" xmlns:xlink="http://www.w3.org/1999/xlink" style="height:400px;width:700px;perspective-origin:350px 200px;transform-origin:350px 200px;"><g class="graphics" style="height:auto;overflow-x:visible;overflow-y:visible;width:auto;perspective-origin:0px 0px;transform-origin:0px 0px;"><g class="paper" width="620" height="310" transform="translate(60,30)" style="font-family:sans;font-style:italic;height:auto;overflow-x:visible;overflow-y:visible;width:auto;perspective-origin:0px 0px;transform:matrix(1, 0, 0, 1, 60, 30);transform-origin:0px 0px;stroke-linecap:round;stroke-linejoin:round;stroke-width:1.5px;"><g class="above" style="font-family:sans;font-style:italic;height:auto;overflow-x:visible;overflow-y:visible;width:auto;perspective-origin:0px 0px;transform-origin:0px 0px;stroke:rgb(255, 0, 0);stroke-linecap:round;stroke-linejoin:round;stroke-width:1.5px;"><path class="line" fill="none" d="M0,184.82946442427465L1.7032967032967035,184.82946442427465L3.406593406593407,169.60840948084007L5.10989010989011,181.44365295061797L6.813186813186814,184.49088327690896L8.516483516483516,184.79560630953807L10.21978021978022,184.82607861280098L11.923076923076923,184.82912584312726L13.626373626373628,184.82943056615989L15.329670329670328,184.82946442427465L17.032967032967033,184.82946442427465L18.736263736263737,184.82946442427465L20.43956043956044,184.82946442427465L22.142857142857142,184.82946442427465L23.846153846153847,184.82946442427465L25.549450549450547,184.82946442427465L27.252747252747255,184.82946442427465L28.956043956043956,184.82946442427465L30.659340659340657,184.82946442427465L32.362637362637365,184.82946442427465L34.065934065934066,184.82946442427465L35.769230769230774,184.82946442427465L37.472527472527474,184.82946442427465L39.175824175824175,184.82946442427465L40.87912087912088,184.82946442427465L42.582417582417584,184.82946442427465L44.285714285714285,184.82946442427465L45.98901098901099,184.82946442427465L47.69230769230769,184.82946442427465L49.395604395604394,181.66987373737905L51.098901098901095,184.51350535558507L52.8021978021978,184.79786851740567L54.50549450549451,184.82630483358776L56.208791208791204,184.82914846520595L57.91208791208791,184.82943282836777L59.61538461538462,184.82946442427465L61.318681318681314,184.82946442427465L63.02197802197802,184.82946442427465L64.72527472527473,184.82946442427465L66.42857142857143,184.82946442427465L68.13186813186813,184.82946442427465L69.83516483516483,184.82946442427465L71.53846153846155,184.82946442427465L73.24175824175823,184.82946442427465L74.94505494505495,184.82946442427465L76.64835164835165,184.82946442427465L78.35164835164835,184.82946442427465L80.05494505494507,184.82946442427465L81.75824175824177,184.82946442427465L83.46153846153845,152.01245710646717L85.16483516483517,181.5477636924939L86.86813186813187,184.50129435109656L88.57142857142857,184.79664741695683L90.27472527472528,184.82618272354284L91.97802197802199,184.82913625420147L93.68131868131867,184.82943160726734L95.38461538461539,184.8294611425739L97.08791208791209,184.82946442427465L98.79120879120879,184.82946442427465L100.4945054945055,184.82946442427465L102.19780219780219,184.82946442427465L103.90109890109889,184.82946442427465L105.6043956043956,184.82946442427465L107.3076923076923,184.82946442427465L109.01098901098902,152.45622494613534L110.71428571428572,181.5921404764607L112.41758241758241,184.50573202949323L114.12087912087912,184.7970911847965L115.82417582417582,184.82622710032683L117.52747252747253,184.82914069187984L119.23076923076924,177.31069892774957L120.93406593406594,160.57939634318376L122.63736263736263,182.40445761616553L124.34065934065934,184.58696374346374L126.04395604395604,184.80521435619355L127.74725274725274,184.82703941746652L129.45054945054946,184.82922192359382L131.15384615384616,179.74325212810845L132.85714285714286,184.32084319465804L134.56043956043956,184.77860230131296L136.26373626373626,184.82437821197848L137.96703296703296,184.828955803045L139.67032967032966,184.82941356215167L141.37362637362637,184.82945933806235L143.0769230769231,184.8294639156534L144.7802197802198,184.82946437341252L146.48351648351647,184.8294644191884L148.1868131868132,184.82946442427465L149.8901098901099,184.82946442427465L151.5934065934066,133.58807532501675L153.2967032967033,179.70532551434886L155,184.31705053328204L156.7032967032967,184.7782230351754L158.4065934065934,184.8243402853647L160.10989010989013,184.82895201038366L161.81318681318683,184.82941318288556L163.51648351648353,184.82945930013574L165.2197802197802,184.82946391186073L166.9230769230769,184.82946437303326L168.6263736263736,184.8294644191505L170.32967032967034,184.8294644237622L172.03296703296704,172.5719337237611L173.73626373626374,183.6037113542233L175.43956043956044,184.7068891172695L177.14285714285714,184.81720689357414L178.84615384615384,184.8282386712046L180.54945054945057,184.82934184896766L182.25274725274727,184.82945216674395L183.95604395604397,184.82946319852158L185.65934065934064,153.93890705214892L187.36263736263734,181.74040868706206L189.06593406593407,183.7142207132983L190.76923076923077,184.71794005317702L192.47252747252747,184.81831198716486L194.17582417582418,184.82834918056366L195.87912087912088,184.82935289990354L197.58241758241758,184.8294532718375L199.2857142857143,182.51060446533882L200.989010989011,82.30975518077997L202.6923076923077,174.57749349992517L204.39560439560438,183.8042673318397L206.09890109890108,184.72694471503115L207.80219780219778,184.8192124533503L209.5054945054945,184.8284392271822L211.2087912087912,184.82936190456542L212.9120879120879,184.8294541723037L214.6153846153846,184.82946339907755L216.3186813186813,138.89363982762248L218.02197802197804,180.2358819646094L219.72527472527474,184.31863352979053L221.42857142857144,184.77838133482624L223.13186813186812,169.86137540913086L224.83516483516482,183.33265552276026L226.53846153846152,184.6797835341232L228.24175824175825,184.8144963352595L229.94505494505495,184.82796761537313L231.64835164835165,184.8293147433845L233.35164835164835,184.8294494561856L235.05494505494505,184.82946292746573L236.75824175824175,184.82946427459376L238.46153846153848,184.82946440930652L240.16483516483518,184.82946442277785L241.86813186813188,184.82946442427465L243.57142857142856,184.82946442427465L245.27472527472526,184.82946442427465L246.97802197802196,184.82946442427465L248.6813186813187,184.82946442427465L250.3846153846154,184.82946442427465L252.0879120879121,184.82946442427465L253.7912087912088,184.82946442427465L255.4945054945055,152.2405706658098L257.1978021978022,181.57057504842814L258.9010989010989,184.50357548668998L260.6043956043956,154.77510704631055L262.3076923076923,180.6604627319795L264.010989010989,184.41256425504514L265.7142857142857,184.78777440735166L267.4175824175824,184.82946442427465L269.1208791208791,184.82946442427465L270.8241758241758,184.82946442427465L272.5274725274725,184.82946442427465L274.2307692307692,184.82946442427465L275.9340659340659,184.82946442427465L277.6373626373626,184.82946442427465L279.34065934065933,184.82946442427465L281.04395604395603,168.82030428402402L282.74725274725273,183.22854841024957L284.45054945054943,167.34441106453713L286.1538461538462,183.0809590883009L287.8571428571429,184.65461389067724L289.5604395604396,184.8119793709149L291.26373626373623,184.82771591893868L292.96703296703294,184.82946442427465L294.67032967032964,184.82946442427465L296.3736263736264,184.82946442427465L298.0769230769231,184.82946442427465L299.7802197802198,184.82946442427465L301.4835164835165,184.82946442427465L303.1868131868132,184.82946442427465L304.8901098901099,184.82946442427465L306.5934065934066,184.82946442427465L308.2967032967033,184.82946442427465L310,184.82946442427465L311.7032967032967,184.82946442427465L313.4065934065934,184.82946442427465L315.1098901098901,176.7318561735219L316.8131868131868,184.01970359919937L318.5164835164835,184.74848834176709L320.21978021978026,184.82136681602387L321.92307692307696,184.82865466344956L323.62637362637366,184.82938344819215L325.32967032967036,184.8294563266664L327.03296703296706,184.82946361451383L328.73626373626377,184.82946434329855L330.4395604395604,184.82946441617702L332.1428571428571,184.82946442346488L333.8461538461538,184.82946442419365L335.5494505494505,184.82946442426652L337.2527472527472,184.82946442427385L338.9560439560439,184.82946442427456L340.65934065934067,184.82946442427465L342.3626373626374,184.82946442427465L344.0659340659341,184.82946442427465L345.7692307692308,184.82946442427465L347.4725274725275,184.82946442427465L349.1758241758242,184.82946442427465L350.8791208791209,169.9962426286346L352.5824175824176,183.34614224471065L354.2857142857143,184.68113220631824L355.989010989011,184.814631202479L357.6923076923077,184.82798110209507L359.39560439560444,184.82931609205667L361.09890109890114,184.82944959105282L362.80219780219784,184.82946294095245L364.50549450549454,184.82946427594243L366.20879120879124,169.46200076530414L367.91208791208794,172.47340572620845L369.6153846153846,183.593858554468L371.3186813186813,184.705903837294L373.021978021978,184.8171083655766L374.7252747252747,184.82822881840482L376.4285714285714,184.82934086368766L378.13186813186815,184.82945206821594L379.83516483516485,184.82946318866877L381.53846153846155,184.82946442427465L383.24175824175825,184.82946442427465L384.94505494505495,173.87257697000845L386.64835164835165,183.73377567884802L388.35164835164835,184.71989554973197L390.05494505494505,184.8185075368204L391.75824175824175,184.82836873552924L393.46153846153845,184.82935485540008L395.16483516483515,184.82946442427465L396.86813186813185,184.82946442427465L398.5714285714286,184.82946442427465L400.2747252747253,184.82946442427465L401.978021978022,158.9342624934979L403.6813186813187,164.46581463568344L405.3846153846154,182.79309944541552L407.08791208791206,184.62582792638872L408.79120879120876,184.80910077448607L410.49450549450546,184.82742805929576L412.19780219780216,184.82926078777675L413.90109890109886,184.82944406062484L415.60439560439556,184.82946238790964L417.3076923076923,174.34722979402096L419.010989010989,183.7812409612493L420.7142857142857,184.72464207797208L422.4175824175824,184.81898218964437L424.1208791208791,184.8284162008116L425.8241758241758,184.82946442427465L427.5274725274725,184.82946442427465L429.2307692307692,184.82946442427465L430.9340659340659,184.82946442427465L432.6373626373626,184.82946442427465L434.34065934065933,182.45629328437514L436.0439560439561,184.5921473102847L437.7472527472528,184.80573271287565L439.4505494505495,184.82709125313477L441.1538461538462,184.82922710716065L442.8571428571429,184.82944069256325L444.5604395604396,158.04038012218777L446.26373626373623,182.15055599406594L447.96703296703294,184.82946442427465L449.67032967032964,184.82946442427465L451.37362637362634,184.82946442427465L453.07692307692304,184.82946442427465L454.78021978021974,184.82946442427465L456.4835164835165,184.82946442427465L458.1868131868132,184.82946442427465L459.8901098901099,184.82946442427465L461.5934065934066,184.82946442427465L463.2967032967033,184.82946442427465L465,184.82946442427465L466.7032967032967,184.82946442427465L468.4065934065934,184.82946442427465L470.1098901098901,184.82946442427465L471.8131868131868,184.82946442427465L473.5164835164835,184.82946442427465L475.21978021978026,184.82946442427465L476.92307692307696,184.82946442427465L478.62637362637366,184.82946442427465L480.32967032967036,184.82946442427465L482.03296703296706,184.82946442427465L483.73626373626377,170.96332470376703L485.4395604395604,183.44285045222387L487.1428571428571,184.69080302706956L488.8461538461538,184.81559828455414L490.5494505494505,184.8280778103026L492.2527472527472,184.82932576287743L493.9560439560439,184.82945055813494L495.65934065934067,184.82946303766067L497.3626373626374,184.82946442427465L499.0659340659341,184.82946442427465L500.7692307692308,184.82946442427465L502.4725274725275,184.82946442427465L504.1758241758242,184.82946442427465L505.8791208791209,184.82946442427465L507.5824175824176,184.82946442427465L509.2857142857143,184.82946442427465L510.989010989011,184.82946442427465L512.6923076923076,184.82946442427465L514.3956043956044,184.82946442427465L516.0989010989011,184.82946442427465L517.8021978021978,184.82946442427465L519.5054945054945,160.71298530916863L521.2087912087912,182.41781651276403L522.9120879120879,184.58829963312357L524.6153846153846,184.82946442427465L526.3186813186813,160.6496232398337L528.021978021978,182.41148030583054L529.7252747252747,184.58766601243022L531.4285714285714,184.8052845830902L533.1318681318681,184.8270464401562L534.8351648351648,183.38173766164925L536.5384615384615,184.6846917480121L538.2417582417582,184.81498715664839L539.945054945055,184.82801669751203L541.6483516483516,141.49123515562133L543.3516483516484,180.4956414974093L545.054945054945,166.1747651228357L546.7582417582418,182.33731343467753L548.4615384615385,79.33844808877757L550.1648351648352,174.28036279072492L551.8681318681319,183.77455426091967L553.5714285714286,184.72397340793913L555.2747252747253,184.8189153226411L556.978021978022,184.82840951411129L558.6813186813187,181.08947502488053L560.3846153846154,184.4554654843352L562.0879120879121,184.7920645302807L563.7912087912088,184.82572443487527L565.4945054945055,184.8290904253347L567.1978021978022,184.82946442427465L568.9010989010989,184.82946442427465L570.6043956043956,184.82946442427465L572.3076923076924,184.82946442427465L574.0109890109891,184.82946442427465L575.7142857142858,184.82946442427465L577.4175824175825,184.82946442427465L579.1208791208792,0L580.8241758241759,166.34651798184717L582.5274725274725,182.98116978003188L584.2307692307692,184.64463495985035L585.9340659340659,184.81098147783223L587.6373626373626,161.742793494826L589.3406593406593,182.5207973313298L591.0439560439561,59.148792427660226L592.7472527472528,172.2613972246132L594.4505494505495,183.5726577043085L596.1538461538462,184.703783752278L597.8571428571429,184.816896357075L599.5604395604396,178.3975185073539L601.2637362637363,184.18626983258255L602.967032967033,184.82946442427465L604.6703296703297,184.82946442427465L606.3736263736264,184.82946442427465L608.0769230769231,184.82946442427465L609.7802197802198,184.82946442427465L611.4835164835165,184.82946442427465L613.1868131868132,184.82946442427465L614.8901098901099,184.82946442427465L616.5934065934066,177.3435177787442L618.2967032967033,184.08086975972157L620,180.36183509876156" style="font-family:sans;font-style:italic;height:auto;overflow-x:visible;overflow-y:visible;width:auto;perspective-origin:0px 0px;transform-origin:0px 0px;fill:none;stroke:rgb(255, 0, 0);stroke-linecap:round;stroke-linejoin:round;stroke-width:1.5px;d:path('M 0 184.829 L 1.7033 184.829 L 3.40659 169.608 L 5.10989 181.444 L 6.81319 184.491 L 8.51648 184.796 L 10.2198 184.826 L 11.9231 184.829 L 13.6264 184.829 L 15.3297 184.829 L 17.033 184.829 L 18.7363 184.829 L 20.4396 184.829 L 22.1429 184.829 L 23.8462 184.829 L 25.5494 184.829 L 27.2527 184.829 L 28.956 184.829 L 30.6593 184.829 L 32.3626 184.829 L 34.0659 184.829 L 35.7692 184.829 L 37.4725 184.829 L 39.1758 184.829 L 40.8791 184.829 L 42.5824 184.829 L 44.2857 184.829 L 45.989 184.829 L 47.6923 184.829 L 49.3956 181.67 L 51.0989 184.514 L 52.8022 184.798 L 54.5055 184.826 L 56.2088 184.829 L 57.9121 184.829 L 59.6154 184.829 L 61.3187 184.829 L 63.022 184.829 L 64.7253 184.829 L 66.4286 184.829 L 68.1319 184.829 L 69.8352 184.829 L 71.5385 184.829 L 73.2418 184.829 L 74.9451 184.829 L 76.6484 184.829 L 78.3516 184.829 L 80.0549 184.829 L 81.7582 184.829 L 83.4615 152.012 L 85.1648 181.548 L 86.8681 184.501 L 88.5714 184.797 L 90.2747 184.826 L 91.978 184.829 L 93.6813 184.829 L 95.3846 184.829 L 97.0879 184.829 L 98.7912 184.829 L 100.495 184.829 L 102.198 184.829 L 103.901 184.829 L 105.604 184.829 L 107.308 184.829 L 109.011 152.456 L 110.714 181.592 L 112.418 184.506 L 114.121 184.797 L 115.824 184.826 L 117.527 184.829 L 119.231 177.311 L 120.934 160.579 L 122.637 182.404 L 124.341 184.587 L 126.044 184.805 L 127.747 184.827 L 129.451 184.829 L 131.154 179.743 L 132.857 184.321 L 134.56 184.779 L 136.264 184.824 L 137.967 184.829 L 139.67 184.829 L 141.374 184.829 L 143.077 184.829 L 144.78 184.829 L 146.484 184.829 L 148.187 184.829 L 149.89 184.829 L 151.593 133.588 L 153.297 179.705 L 155 184.317 L 156.703 184.778 L 158.407 184.824 L 160.11 184.829 L 161.813 184.829 L 163.516 184.829 L 165.22 184.829 L 166.923 184.829 L 168.626 184.829 L 170.33 184.829 L 172.033 172.572 L 173.736 183.604 L 175.44 184.707 L 177.143 184.817 L 178.846 184.828 L 180.549 184.829 L 182.253 184.829 L 183.956 184.829 L 185.659 153.939 L 187.363 181.74 L 189.066 183.714 L 190.769 184.718 L 192.473 184.818 L 194.176 184.828 L 195.879 184.829 L 197.582 184.829 L 199.286 182.511 L 200.989 82.3098 L 202.692 174.577 L 204.396 183.804 L 206.099 184.727 L 207.802 184.819 L 209.505 184.828 L 211.209 184.829 L 212.912 184.829 L 214.615 184.829 L 216.319 138.894 L 218.022 180.236 L 219.725 184.319 L 221.429 184.778 L 223.132 169.861 L 224.835 183.333 L 226.538 184.68 L 228.242 184.814 L 229.945 184.828 L 231.648 184.829 L 233.352 184.829 L 235.055 184.829 L 236.758 184.829 L 238.462 184.829 L 240.165 184.829 L 241.868 184.829 L 243.571 184.829 L 245.275 184.829 L 246.978 184.829 L 248.681 184.829 L 250.385 184.829 L 252.088 184.829 L 253.791 184.829 L 255.495 152.241 L 257.198 181.571 L 258.901 184.504 L 260.604 154.775 L 262.308 180.66 L 264.011 184.413 L 265.714 184.788 L 267.418 184.829 L 269.121 184.829 L 270.824 184.829 L 272.527 184.829 L 274.231 184.829 L 275.934 184.829 L 277.637 184.829 L 279.341 184.829 L 281.044 168.82 L 282.747 183.229 L 284.451 167.344 L 286.154 183.081 L 287.857 184.655 L 289.56 184.812 L 291.264 184.828 L 292.967 184.829 L 294.67 184.829 L 296.374 184.829 L 298.077 184.829 L 299.78 184.829 L 301.484 184.829 L 303.187 184.829 L 304.89 184.829 L 306.593 184.829 L 308.297 184.829 L 310 184.829 L 311.703 184.829 L 313.407 184.829 L 315.11 176.732 L 316.813 184.02 L 318.516 184.748 L 320.22 184.821 L 321.923 184.829 L 323.626 184.829 L 325.33 184.829 L 327.033 184.829 L 328.736 184.829 L 330.44 184.829 L 332.143 184.829 L 333.846 184.829 L 335.549 184.829 L 337.253 184.829 L 338.956 184.829 L 340.659 184.829 L 342.363 184.829 L 344.066 184.829 L 345.769 184.829 L 347.473 184.829 L 349.176 184.829 L 350.879 169.996 L 352.582 183.346 L 354.286 184.681 L 355.989 184.815 L 357.692 184.828 L 359.396 184.829 L 361.099 184.829 L 362.802 184.829 L 364.505 184.829 L 366.209 169.462 L 367.912 172.473 L 369.615 183.594 L 371.319 184.706 L 373.022 184.817 L 374.725 184.828 L 376.429 184.829 L 378.132 184.829 L 379.835 184.829 L 381.538 184.829 L 383.242 184.829 L 384.945 173.873 L 386.648 183.734 L 388.352 184.72 L 390.055 184.819 L 391.758 184.828 L 393.462 184.829 L 395.165 184.829 L 396.868 184.829 L 398.571 184.829 L 400.275 184.829 L 401.978 158.934 L 403.681 164.466 L 405.385 182.793 L 407.088 184.626 L 408.791 184.809 L 410.495 184.827 L 412.198 184.829 L 413.901 184.829 L 415.604 184.829 L 417.308 174.347 L 419.011 183.781 L 420.714 184.725 L 422.418 184.819 L 424.121 184.828 L 425.824 184.829 L 427.527 184.829 L 429.231 184.829 L 430.934 184.829 L 432.637 184.829 L 434.341 182.456 L 436.044 184.592 L 437.747 184.806 L 439.451 184.827 L 441.154 184.829 L 442.857 184.829 L 444.56 158.04 L 446.264 182.151 L 447.967 184.829 L 449.67 184.829 L 451.374 184.829 L 453.077 184.829 L 454.78 184.829 L 456.484 184.829 L 458.187 184.829 L 459.89 184.829 L 461.593 184.829 L 463.297 184.829 L 465 184.829 L 466.703 184.829 L 468.407 184.829 L 470.11 184.829 L 471.813 184.829 L 473.516 184.829 L 475.22 184.829 L 476.923 184.829 L 478.626 184.829 L 480.33 184.829 L 482.033 184.829 L 483.736 170.963 L 485.44 183.443 L 487.143 184.691 L 488.846 184.816 L 490.549 184.828 L 492.253 184.829 L 493.956 184.829 L 495.659 184.829 L 497.363 184.829 L 499.066 184.829 L 500.769 184.829 L 502.473 184.829 L 504.176 184.829 L 505.879 184.829 L 507.582 184.829 L 509.286 184.829 L 510.989 184.829 L 512.692 184.829 L 514.396 184.829 L 516.099 184.829 L 517.802 184.829 L 519.505 160.713 L 521.209 182.418 L 522.912 184.588 L 524.615 184.829 L 526.319 160.65 L 528.022 182.411 L 529.725 184.588 L 531.429 184.805 L 533.132 184.827 L 534.835 183.382 L 536.538 184.685 L 538.242 184.815 L 539.945 184.828 L 541.648 141.491 L 543.352 180.496 L 545.055 166.175 L 546.758 182.337 L 548.462 79.3384 L 550.165 174.28 L 551.868 183.775 L 553.571 184.724 L 555.275 184.819 L 556.978 184.828 L 558.681 181.089 L 560.385 184.455 L 562.088 184.792 L 563.791 184.826 L 565.495 184.829 L 567.198 184.829 L 568.901 184.829 L 570.604 184.829 L 572.308 184.829 L 574.011 184.829 L 575.714 184.829 L 577.418 184.829 L 579.121 0 L 580.824 166.347 L 582.527 182.981 L 584.231 184.645 L 585.934 184.811 L 587.637 161.743 L 589.341 182.521 L 591.044 59.1488 L 592.747 172.261 L 594.451 183.573 L 596.154 184.704 L 597.857 184.817 L 599.56 178.398 L 601.264 184.186 L 602.967 184.829 L 604.67 184.829 L 606.374 184.829 L 608.077 184.829 L 609.78 184.829 L 611.484 184.829 L 613.187 184.829 L 614.89 184.829 L 616.593 177.344 L 618.297 184.081 L 620 180.362');"/></g><g class="below" style="font-family:sans;font-style:italic;height:auto;overflow-x:visible;overflow-y:visible;width:auto;perspective-origin:0px 0px;transform-origin:0px 0px;stroke:rgb(0, 0, 255);stroke-linecap:round;stroke-linejoin:round;stroke-width:1.5px;"><path class="line" fill="none" d="M0,184.82946442427465L1.7032967032967035,184.82946442427465L3.406593406593407,184.82946442427465L5.10989010989011,184.82946442427465L6.813186813186814,184.82946442427465L8.516483516483516,184.82946442427465L10.21978021978022,184.82946442427465L11.923076923076923,184.82946442427465L13.626373626373628,184.82946442427465L15.329670329670328,201.79769475234656L17.032967032967033,186.52628745708182L18.736263736263737,184.99914672755534L20.43956043956044,201.60929600317337L22.142857142857142,193.6607910670338L23.846153846153847,230.52962266261258L25.549450549450547,193.40542535849596L27.252747252747255,185.68706051769678L28.956043956043956,184.91522403361685L30.659340659340657,184.83804038520884L32.362637362637365,184.83032202036807L34.065934065934066,184.829550183884L35.769230769230774,184.82947300023557L37.472527472527474,184.82946528187074L39.175824175824175,184.82946451003426L40.87912087912088,184.8294644328506L42.582417582417584,220.5471637246129L44.285714285714285,188.40123435430846L45.98901098901099,185.18664141727803L47.69230769230769,184.86518212357498L49.395604395604394,184.82946442427465L51.098901098901095,184.82946442427465L52.8021978021978,184.82946442427465L54.50549450549451,184.82946442427465L56.208791208791204,184.82946442427465L57.91208791208791,184.82946442427465L59.61538461538462,233.6210502243869L61.318681318681314,189.70862300428587L63.02197802197802,185.31738028227574L64.72527472527473,184.87825601007475L66.42857142857143,184.83434358285461L68.13186813186813,184.82995234013262L69.83516483516483,184.82951321586046L71.53846153846155,201.6929725297623L73.24175824175823,186.5158152348234L74.94505494505495,193.02834474096724L76.64835164835165,197.26818586111762L78.35164835164835,197.9329648014047L80.05494505494507,186.13981446198767L81.75824175824177,184.96049942804592L83.46153846153845,184.82946442427465L85.16483516483517,184.82946442427465L86.86813186813187,184.82946442427465L88.57142857142857,184.82946442427465L90.27472527472528,184.82946442427465L91.97802197802199,184.82946442427465L93.68131868131867,184.82946442427465L95.38461538461539,184.82946442427465L97.08791208791209,204.77761335008685L98.79120879120879,200.13948462055018L100.4945054945055,186.3604664439022L102.19780219780219,184.98256462623738L103.90109890109889,184.84477444447094L105.6043956043956,184.83099542629427L107.3076923076923,184.8296175244766L109.01098901098902,184.82946442427465L110.71428571428572,184.82946442427465L112.41758241758241,184.82946442427465L114.12087912087912,184.82946442427465L115.82417582417582,184.82946442427465L117.52747252747253,184.82946442427465L119.23076923076924,184.82946442427465L120.93406593406594,184.82946442427465L122.63736263736263,184.82946442427465L124.34065934065934,184.82946442427465L126.04395604395604,184.82946442427465L127.74725274725274,184.82946442427465L129.45054945054946,184.82946442427465L131.15384615384616,184.82946442427465L132.85714285714286,184.82946442427465L134.56043956043956,184.82946442427465L136.26373626373626,184.82946442427465L137.96703296703296,184.82946442427465L139.67032967032966,184.82946442427465L141.37362637362637,184.82946442427465L143.0769230769231,184.82946442427465L144.7802197802198,184.82946442427465L146.48351648351647,184.82946442427465L148.1868131868132,189.76248837750506L149.8901098901099,268.6645986855443L151.5934065934066,184.82946442427465L153.2967032967033,184.82946442427465L155,184.82946442427465L156.7032967032967,184.82946442427465L158.4065934065934,184.82946442427465L160.10989010989013,184.82946442427465L161.81318681318683,184.82946442427465L163.51648351648353,184.82946442427465L165.2197802197802,184.82946442427465L166.9230769230769,184.82946442427465L168.6263736263736,184.82946442427465L170.32967032967034,184.82946442427465L172.03296703296704,184.82946442427465L173.73626373626374,184.82946442427465L175.43956043956044,184.82946442427465L177.14285714285714,184.82946442427465L178.84615384615384,184.82946442427465L180.54945054945057,184.82946442427465L182.25274725274727,184.82946442427465L183.95604395604397,184.82946442427465L185.65934065934064,184.82946442427465L187.36263736263734,184.82946442427465L189.06593406593407,184.82946442427465L190.76923076923077,184.82946442427465L192.47252747252747,184.82946442427465L194.17582417582418,184.82946442427465L195.87912087912088,184.82946442427465L197.58241758241758,184.82946442427465L199.2857142857143,184.82946442427465L200.989010989011,184.82946442427465L202.6923076923077,184.82946442427465L204.39560439560438,184.82946442427465L206.09890109890108,184.82946442427465L207.80219780219778,184.82946442427465L209.5054945054945,184.82946442427465L211.2087912087912,184.82946442427465L212.9120879120879,184.82946442427465L214.6153846153846,184.82946442427465L216.3186813186813,184.82946442427465L218.02197802197804,184.82946442427465L219.72527472527474,184.82946442427465L221.42857142857144,184.82946442427465L223.13186813186812,184.82946442427465L224.83516483516482,184.82946442427465L226.53846153846152,184.82946442427465L228.24175824175825,184.82946442427465L229.94505494505495,184.82946442427465L231.64835164835165,184.82946442427465L233.35164835164835,184.82946442427465L235.05494505494505,184.82946442427465L236.75824175824175,184.82946442427465L238.46153846153848,184.82946442427465L240.16483516483518,184.82946442427465L241.86813186813188,205.9235431066614L243.57142857142856,186.93887229251334L245.27472527472526,185.04040521109852L246.97802197802196,184.85055850295703L248.6813186813187,184.83157383214288L250.3846153846154,264.5722787431489L252.0879120879121,192.80374585616207L253.7912087912088,185.6268925674634L255.4945054945055,184.82946442427465L257.1978021978022,184.82946442427465L258.9010989010989,184.82946442427465L260.6043956043956,184.82946442427465L262.3076923076923,184.82946442427465L264.010989010989,184.82946442427465L265.7142857142857,184.82946442427465L267.4175824175824,184.91876984690424L269.1208791208791,184.83839496653758L270.8241758241758,184.83035747850096L272.5274725274725,198.60625306538236L274.2307692307692,186.20714328838542L275.9340659340659,184.9672323106857L277.6373626373626,184.84324121291576L279.34065934065933,184.83084210313876L281.04395604395603,184.82946442427465L282.74725274725273,184.82946442427465L284.45054945054943,184.82946442427465L286.1538461538462,184.82946442427465L287.8571428571429,184.82946442427465L289.5604395604396,184.82946442427465L291.26373626373623,184.82946442427465L292.96703296703294,310L294.67032967032964,197.34651798184717L296.3736263736264,186.08116978003187L298.0769230769231,184.95463495985035L299.7802197802198,196.58151715622716L301.4835164835165,199.29344965612188L303.1868131868132,186.27586294745936L304.8901098901099,184.9741042765931L306.5934065934066,184.84392840950647L308.2967032967033,184.83091082279782L310,184.82960906412694L311.7032967032967,184.82947888825987L313.4065934065934,184.82946587067318L315.1098901098901,184.82946442427465L316.8131868131868,184.82946442427465L318.5164835164835,184.82946442427465L320.21978021978026,184.82946442427465L321.92307692307696,184.82946442427465L323.62637362637366,184.82946442427465L325.32967032967036,184.82946442427465L327.03296703296706,184.82946442427465L328.73626373626377,184.82946442427465L330.4395604395604,184.82946442427465L332.1428571428571,184.82946442427465L333.8461538461538,184.82946442427465L335.5494505494505,184.82946442427465L337.2527472527472,184.82946442427465L338.9560439560439,184.82946442427465L340.65934065934067,184.82946442427465L342.3626373626374,184.82946442427465L344.0659340659341,184.82946442427465L345.7692307692308,184.82946442427465L347.4725274725275,184.82946442427465L349.1758241758242,184.82946442427465L350.8791208791209,184.82946442427465L352.5824175824176,184.82946442427465L354.2857142857143,184.82946442427465L355.989010989011,184.82946442427465L357.6923076923077,184.82946442427465L359.39560439560444,184.82946442427465L361.09890109890114,184.82946442427465L362.80219780219784,184.82946442427465L364.50549450549454,184.82946442427465L366.20879120879124,184.82946442427465L367.91208791208794,184.82946442427465L369.6153846153846,184.82946442427465L371.3186813186813,184.82946442427465L373.021978021978,184.82946442427465L374.7252747252747,184.82946442427465L376.4285714285714,184.82946442427465L378.13186813186815,184.82946442427465L379.83516483516485,184.82946442427465L381.53846153846155,199.88973120806259L383.24175824175825,186.33549110265344L384.94505494505495,184.82946442427465L386.64835164835165,184.82946442427465L388.35164835164835,184.82946442427465L390.05494505494505,184.82946442427465L391.75824175824175,184.82946442427465L393.46153846153845,184.82946442427465L395.16483516483515,214.47559708366333L396.86813186813185,187.7940776902135L398.5714285714286,196.70809478059056L400.2747252747253,210.23078913905596L401.978021978022,184.82946442427465L403.6813186813187,184.82946442427465L405.3846153846154,184.82946442427465L407.08791208791206,184.82946442427465L408.79120879120876,184.82946442427465L410.49450549450546,184.82946442427465L412.19780219780216,184.82946442427465L413.90109890109886,184.82946442427465L415.60439560439556,184.82946442427465L417.3076923076923,184.82946442427465L419.010989010989,184.82946442427465L420.7142857142857,184.82946442427465L422.4175824175824,184.82946442427465L424.1208791208791,184.82946442427465L425.8241758241758,213.15746829875246L427.5274725274725,187.66226481172242L429.2307692307692,185.1127444630194L430.9340659340659,184.85779242814914L432.6373626373626,184.8322972246621L434.34065934065933,184.82946442427465L436.0439560439561,184.82946442427465L437.7472527472528,184.82946442427465L439.4505494505495,184.82946442427465L441.1538461538462,184.82946442427465L442.8571428571429,184.82946442427465L444.5604395604396,184.82946442427465L446.26373626373623,184.82946442427465L447.96703296703294,264.6899248395658L449.67032967032964,192.81551046580375L451.37362637362634,185.62806902842755L453.07692307692304,184.9093248846899L454.78021978021974,184.83745047031616L456.4835164835165,184.8302630288788L458.1868131868132,184.82954428473505L459.8901098901099,184.82947241032068L461.5934065934066,184.82946522287924L463.2967032967033,184.8294645041351L465,184.8294644322607L466.7032967032967,184.82946442507324L468.4065934065934,224.62664127772763L470.1098901098901,209.66242445075352L471.8131868131868,187.31276042692252L473.5164835164835,185.07779402453946L475.21978021978026,184.85429738430113L476.92307692307696,184.8319477202773L478.62637362637366,220.0773396741822L480.32967032967036,272.88808216162806L482.03296703296706,193.63532619800998L483.73626373626377,184.82946442427465L485.4395604395604,184.82946442427465L487.1428571428571,184.82946442427465L488.8461538461538,184.82946442427465L490.5494505494505,184.82946442427465L492.2527472527472,184.82946442427465L493.9560439560439,184.82946442427465L495.65934065934067,184.82946442427465L497.3626373626374,195.0676248721885L499.0659340659341,185.85328046906602L500.7692307692308,195.50174031988166L502.4725274725275,185.89669201383532L504.1758241758242,184.93618718323071L505.8791208791209,211.31128294426918L507.5824175824176,202.02902657576743L509.2857142857143,186.54942063942391L510.989010989011,185.00146004578957L512.6923076923076,184.84666398642614L514.3956043956044,184.8311843804898L516.0989010989011,184.82963641989616L517.8021978021978,184.82948162383678L519.5054945054945,184.82946442427465L521.2087912087912,184.82946442427465L522.9120879120879,184.82946442427465L524.6153846153846,189.59648444893438L526.3186813186813,184.82946442427465L528.021978021978,184.82946442427465L529.7252747252747,184.82946442427465L531.4285714285714,184.82946442427465L533.1318681318681,184.82946442427465L534.8351648351648,184.82946442427465L536.5384615384615,184.82946442427465L538.2417582417582,184.82946442427465L539.945054945055,184.82946442427465L541.6483516483516,184.82946442427465L543.3516483516484,184.82946442427465L545.054945054945,184.82946442427465L546.7582417582418,184.82946442427465L548.4615384615385,184.82946442427465L550.1648351648352,184.82946442427465L551.8681318681319,184.82946442427465L553.5714285714286,184.82946442427465L555.2747252747253,184.82946442427465L556.978021978022,184.82946442427465L558.6813186813187,184.82946442427465L560.3846153846154,184.82946442427465L562.0879120879121,184.82946442427465L563.7912087912088,184.82946442427465L565.4945054945055,184.82946442427465L567.1978021978022,245.35794071194346L568.9010989010989,190.88231205304152L570.6043956043956,185.4347491871513L572.3076923076924,184.88999290056233L574.0109890109891,184.83551727190343L575.7142857142858,184.8300697090375L577.4175824175825,184.82952495275094L579.1208791208792,184.82946442427465L580.8241758241759,184.82946442427465L582.5274725274725,184.82946442427465L584.2307692307692,184.82946442427465L585.9340659340659,184.82946442427465L587.6373626373626,184.82946442427465L589.3406593406593,184.82946442427465L591.0439560439561,184.82946442427465L592.7472527472528,184.82946442427465L594.4505494505495,184.82946442427465L596.1538461538462,184.82946442427465L597.8571428571429,184.82946442427465L599.5604395604396,184.82946442427465L601.2637362637363,184.82946442427465L602.967032967033,209.8998903867764L604.6703296703297,201.79299053767983L606.3736263736264,186.52581703561515L608.0769230769231,184.99909968540868L609.7802197802198,207.81106936379726L611.4835164835165,229.77568893286946L613.1868131868132,189.32408687513413L614.8901098901099,185.27892666936057L616.5934065934066,184.82946442427465L618.2967032967033,184.82946442427465L620,184.82946442427465" style="font-family:sans;font-style:italic;height:auto;overflow-x:visible;overflow-y:visible;width:auto;perspective-origin:0px 0px;transform-origin:0px 0px;fill:none;stroke:rgb(0, 0, 255);stroke-linecap:round;stroke-linejoin:round;stroke-width:1.5px;d:path('M 0 184.829 L 1.7033 184.829 L 3.40659 184.829 L 5.10989 184.829 L 6.81319 184.829 L 8.51648 184.829 L 10.2198 184.829 L 11.9231 184.829 L 13.6264 184.829 L 15.3297 201.798 L 17.033 186.526 L 18.7363 184.999 L 20.4396 201.609 L 22.1429 193.661 L 23.8462 230.53 L 25.5494 193.405 L 27.2527 185.687 L 28.956 184.915 L 30.6593 184.838 L 32.3626 184.83 L 34.0659 184.83 L 35.7692 184.829 L 37.4725 184.829 L 39.1758 184.829 L 40.8791 184.829 L 42.5824 220.547 L 44.2857 188.401 L 45.989 185.187 L 47.6923 184.865 L 49.3956 184.829 L 51.0989 184.829 L 52.8022 184.829 L 54.5055 184.829 L 56.2088 184.829 L 57.9121 184.829 L 59.6154 233.621 L 61.3187 189.709 L 63.022 185.317 L 64.7253 184.878 L 66.4286 184.834 L 68.1319 184.83 L 69.8352 184.83 L 71.5385 201.693 L 73.2418 186.516 L 74.9451 193.028 L 76.6484 197.268 L 78.3516 197.933 L 80.0549 186.14 L 81.7582 184.96 L 83.4615 184.829 L 85.1648 184.829 L 86.8681 184.829 L 88.5714 184.829 L 90.2747 184.829 L 91.978 184.829 L 93.6813 184.829 L 95.3846 184.829 L 97.0879 204.778 L 98.7912 200.139 L 100.495 186.36 L 102.198 184.983 L 103.901 184.845 L 105.604 184.831 L 107.308 184.83 L 109.011 184.829 L 110.714 184.829 L 112.418 184.829 L 114.121 184.829 L 115.824 184.829 L 117.527 184.829 L 119.231 184.829 L 120.934 184.829 L 122.637 184.829 L 124.341 184.829 L 126.044 184.829 L 127.747 184.829 L 129.451 184.829 L 131.154 184.829 L 132.857 184.829 L 134.56 184.829 L 136.264 184.829 L 137.967 184.829 L 139.67 184.829 L 141.374 184.829 L 143.077 184.829 L 144.78 184.829 L 146.484 184.829 L 148.187 189.762 L 149.89 268.665 L 151.593 184.829 L 153.297 184.829 L 155 184.829 L 156.703 184.829 L 158.407 184.829 L 160.11 184.829 L 161.813 184.829 L 163.516 184.829 L 165.22 184.829 L 166.923 184.829 L 168.626 184.829 L 170.33 184.829 L 172.033 184.829 L 173.736 184.829 L 175.44 184.829 L 177.143 184.829 L 178.846 184.829 L 180.549 184.829 L 182.253 184.829 L 183.956 184.829 L 185.659 184.829 L 187.363 184.829 L 189.066 184.829 L 190.769 184.829 L 192.473 184.829 L 194.176 184.829 L 195.879 184.829 L 197.582 184.829 L 199.286 184.829 L 200.989 184.829 L 202.692 184.829 L 204.396 184.829 L 206.099 184.829 L 207.802 184.829 L 209.505 184.829 L 211.209 184.829 L 212.912 184.829 L 214.615 184.829 L 216.319 184.829 L 218.022 184.829 L 219.725 184.829 L 221.429 184.829 L 223.132 184.829 L 224.835 184.829 L 226.538 184.829 L 228.242 184.829 L 229.945 184.829 L 231.648 184.829 L 233.352 184.829 L 235.055 184.829 L 236.758 184.829 L 238.462 184.829 L 240.165 184.829 L 241.868 205.924 L 243.571 186.939 L 245.275 185.04 L 246.978 184.851 L 248.681 184.832 L 250.385 264.572 L 252.088 192.804 L 253.791 185.627 L 255.495 184.829 L 257.198 184.829 L 258.901 184.829 L 260.604 184.829 L 262.308 184.829 L 264.011 184.829 L 265.714 184.829 L 267.418 184.919 L 269.121 184.838 L 270.824 184.83 L 272.527 198.606 L 274.231 186.207 L 275.934 184.967 L 277.637 184.843 L 279.341 184.831 L 281.044 184.829 L 282.747 184.829 L 284.451 184.829 L 286.154 184.829 L 287.857 184.829 L 289.56 184.829 L 291.264 184.829 L 292.967 310 L 294.67 197.347 L 296.374 186.081 L 298.077 184.955 L 299.78 196.582 L 301.484 199.293 L 303.187 186.276 L 304.89 184.974 L 306.593 184.844 L 308.297 184.831 L 310 184.83 L 311.703 184.829 L 313.407 184.829 L 315.11 184.829 L 316.813 184.829 L 318.516 184.829 L 320.22 184.829 L 321.923 184.829 L 323.626 184.829 L 325.33 184.829 L 327.033 184.829 L 328.736 184.829 L 330.44 184.829 L 332.143 184.829 L 333.846 184.829 L 335.549 184.829 L 337.253 184.829 L 338.956 184.829 L 340.659 184.829 L 342.363 184.829 L 344.066 184.829 L 345.769 184.829 L 347.473 184.829 L 349.176 184.829 L 350.879 184.829 L 352.582 184.829 L 354.286 184.829 L 355.989 184.829 L 357.692 184.829 L 359.396 184.829 L 361.099 184.829 L 362.802 184.829 L 364.505 184.829 L 366.209 184.829 L 367.912 184.829 L 369.615 184.829 L 371.319 184.829 L 373.022 184.829 L 374.725 184.829 L 376.429 184.829 L 378.132 184.829 L 379.835 184.829 L 381.538 199.89 L 383.242 186.335 L 384.945 184.829 L 386.648 184.829 L 388.352 184.829 L 390.055 184.829 L 391.758 184.829 L 393.462 184.829 L 395.165 214.476 L 396.868 187.794 L 398.571 196.708 L 400.275 210.231 L 401.978 184.829 L 403.681 184.829 L 405.385 184.829 L 407.088 184.829 L 408.791 184.829 L 410.495 184.829 L 412.198 184.829 L 413.901 184.829 L 415.604 184.829 L 417.308 184.829 L 419.011 184.829 L 420.714 184.829 L 422.418 184.829 L 424.121 184.829 L 425.824 213.157 L 427.527 187.662 L 429.231 185.113 L 430.934 184.858 L 432.637 184.832 L 434.341 184.829 L 436.044 184.829 L 437.747 184.829 L 439.451 184.829 L 441.154 184.829 L 442.857 184.829 L 444.56 184.829 L 446.264 184.829 L 447.967 264.69 L 449.67 192.816 L 451.374 185.628 L 453.077 184.909 L 454.78 184.837 L 456.484 184.83 L 458.187 184.83 L 459.89 184.829 L 461.593 184.829 L 463.297 184.829 L 465 184.829 L 466.703 184.829 L 468.407 224.627 L 470.11 209.662 L 471.813 187.313 L 473.516 185.078 L 475.22 184.854 L 476.923 184.832 L 478.626 220.077 L 480.33 272.888 L 482.033 193.635 L 483.736 184.829 L 485.44 184.829 L 487.143 184.829 L 488.846 184.829 L 490.549 184.829 L 492.253 184.829 L 493.956 184.829 L 495.659 184.829 L 497.363 195.068 L 499.066 185.853 L 500.769 195.502 L 502.473 185.897 L 504.176 184.936 L 505.879 211.311 L 507.582 202.029 L 509.286 186.549 L 510.989 185.001 L 512.692 184.847 L 514.396 184.831 L 516.099 184.83 L 517.802 184.829 L 519.505 184.829 L 521.209 184.829 L 522.912 184.829 L 524.615 189.596 L 526.319 184.829 L 528.022 184.829 L 529.725 184.829 L 531.429 184.829 L 533.132 184.829 L 534.835 184.829 L 536.538 184.829 L 538.242 184.829 L 539.945 184.829 L 541.648 184.829 L 543.352 184.829 L 545.055 184.829 L 546.758 184.829 L 548.462 184.829 L 550.165 184.829 L 551.868 184.829 L 553.571 184.829 L 555.275 184.829 L 556.978 184.829 L 558.681 184.829 L 560.385 184.829 L 562.088 184.829 L 563.791 184.829 L 565.495 184.829 L 567.198 245.358 L 568.901 190.882 L 570.604 185.435 L 572.308 184.89 L 574.011 184.836 L 575.714 184.83 L 577.418 184.83 L 579.121 184.829 L 580.824 184.829 L 582.527 184.829 L 584.231 184.829 L 585.934 184.829 L 587.637 184.829 L 589.341 184.829 L 591.044 184.829 L 592.747 184.829 L 594.451 184.829 L 596.154 184.829 L 597.857 184.829 L 599.56 184.829 L 601.264 184.829 L 602.967 209.9 L 604.67 201.793 L 606.374 186.526 L 608.077 184.999 L 609.78 207.811 L 611.484 229.776 L 613.187 189.324 L 614.89 185.279 L 616.593 184.829 L 618.297 184.829 L 620 184.829');"/></g><g class="zero" style="font-family:sans;font-style:italic;height:auto;overflow-x:visible;overflow-y:visible;width:auto;perspective-origin:0px 0px;transform-origin:0px 0px;stroke:rgb(0, 0, 0);stroke-linecap:round;stroke-linejoin:round;stroke-width:1.5px;"><path class="line" fill="none" d="M0,184.82946442427465L621.7032967032967,184.82946442427465" style="font-family:sans;font-style:italic;height:auto;overflow-x:visible;overflow-y:visible;width:auto;perspective-origin:0px 0px;transform-origin:0px 0px;fill:none;stroke:rgb(0, 0, 0);stroke-linecap:round;stroke-linejoin:round;stroke-width:1.5px;d:path('M 0 184.829 L 621.703 184.829');"/></g></g><g class="axis" style="font-family:sans;font-size:14px;font-style:italic;height:auto;overflow-x:visible;overflow-y:visible;width:auto;perspective-origin:0px 0px;transform-origin:0px 0px;stroke-width:1.25px;"><g class="x" fill="none" font-size="10" font-family="sans-serif" text-anchor="middle" transform="translate(60,341)" style="font-family:sans-serif;font-size:10px;font-style:italic;height:auto;overflow-x:visible;overflow-y:visible;width:auto;perspective-origin:0px 0px;transform:matrix(1, 0, 0, 1, 60, 341);transform-origin:0px 0px;fill:none;stroke-width:1.25px;text-anchor:middle;"><path class="domain" stroke="#000" d="M0.5,6V0.5H620.5V6" style="font-family:sans-serif;font-size:10px;font-style:italic;height:auto;overflow-x:visible;overflow-y:visible;width:auto;perspective-origin:0px 0px;transform-origin:0px 0px;fill:none;stroke:rgb(0, 0, 0);stroke-width:1.25px;text-anchor:middle;d:path('M 0.5 6 V 0.5 H 620.5 V 6');"/><g class="tick" opacity="1" transform="translate(0.5,0)" style="font-family:sans;font-size:13px;font-style:italic;height:auto;overflow-x:visible;overflow-y:visible;width:auto;perspective-origin:0px 0px;transform:matrix(1, 0, 0, 1, 0.5, 0);transform-origin:0px 0px;fill:none;stroke-width:1.25px;text-anchor:middle;"><line stroke="#000" y2="6" style="font-family:sans;font-size:13px;font-style:italic;height:auto;overflow-x:visible;overflow-y:visible;width:auto;perspective-origin:0px 0px;transform-origin:0px 0px;fill:none;stroke:rgb(0, 0, 0);stroke-width:1.25px;text-anchor:middle;"/><text fill="#000" y="9" dy="0.71em" style="display:block;font-family:sans;font-size:13px;font-style:italic;height:auto;overflow-x:visible;overflow-y:visible;white-space:nowrap;width:auto;perspective-origin:-0.125px 0px;transform-origin:0px 0px;stroke-width:1.25px;text-anchor:middle;">0</text></g><g class="tick" opacity="1" transform="translate(85.66483516483517,0)" style="font-family:sans;font-size:13px;font-style:italic;height:auto;overflow-x:visible;overflow-y:visible;width:auto;perspective-origin:0px 0px;transform:matrix(1, 0, 0, 1, 85.6648, 0);transform-origin:0px 0px;fill:none;stroke-width:1.25px;text-anchor:middle;"><line stroke="#000" y2="6" style="font-family:sans;font-size:13px;font-style:italic;height:auto;overflow-x:visible;overflow-y:visible;width:auto;perspective-origin:0px 0px;transform-origin:0px 0px;fill:none;stroke:rgb(0, 0, 0);stroke-width:1.25px;text-anchor:middle;"/><text fill="#000" y="9" dy="0.71em" style="display:block;font-family:sans;font-size:13px;font-style:italic;height:auto;overflow-x:visible;overflow-y:visible;white-space:nowrap;width:auto;perspective-origin:-0.125px 0px;transform-origin:0px 0px;stroke-width:1.25px;text-anchor:middle;">50</text></g><g class="tick" opacity="1" transform="translate(170.82967032967034,0)" style="font-family:sans;font-size:13px;font-style:italic;height:auto;overflow-x:visible;overflow-y:visible;width:auto;perspective-origin:0px 0px;transform:matrix(1, 0, 0, 1, 170.83, 0);transform-origin:0px 0px;fill:none;stroke-width:1.25px;text-anchor:middle;"><line stroke="#000" y2="6" style="font-family:sans;font-size:13px;font-style:italic;height:auto;overflow-x:visible;overflow-y:visible;width:auto;perspective-origin:0px 0px;transform-origin:0px 0px;fill:none;stroke:rgb(0, 0, 0);stroke-width:1.25px;text-anchor:middle;"/><text fill="#000" y="9" dy="0.71em" style="display:block;font-family:sans;font-size:13px;font-style:italic;height:auto;overflow-x:visible;overflow-y:visible;white-space:nowrap;width:auto;perspective-origin:-0.140625px 0px;transform-origin:0px 0px;stroke-width:1.25px;text-anchor:middle;">100</text></g><g class="tick" opacity="1" transform="translate(255.9945054945055,0)" style="font-family:sans;font-size:13px;font-style:italic;height:auto;overflow-x:visible;overflow-y:visible;width:auto;perspective-origin:0px 0px;transform:matrix(1, 0, 0, 1, 255.995, 0);transform-origin:0px 0px;fill:none;stroke-width:1.25px;text-anchor:middle;"><line stroke="#000" y2="6" style="font-family:sans;font-size:13px;font-style:italic;height:auto;overflow-x:visible;overflow-y:visible;width:auto;perspective-origin:0px 0px;transform-origin:0px 0px;fill:none;stroke:rgb(0, 0, 0);stroke-width:1.25px;text-anchor:middle;"/><text fill="#000" y="9" dy="0.71em" style="display:block;font-family:sans;font-size:13px;font-style:italic;height:auto;overflow-x:visible;overflow-y:visible;white-space:nowrap;width:auto;perspective-origin:-0.140625px 0px;transform-origin:0px 0px;stroke-width:1.25px;text-anchor:middle;">150</text></g><g class="tick" opacity="1" transform="translate(341.15934065934067,0)" style="font-family:sans;font-size:13px;font-style:italic;height:auto;overflow-x:visible;overflow-y:visible;width:auto;perspective-origin:0px 0px;transform:matrix(1, 0, 0, 1, 341.159, 0);transform-origin:0px 0px;fill:none;stroke-width:1.25px;text-anchor:middle;"><line stroke="#000" y2="6" style="font-family:sans;font-size:13px;font-style:italic;height:auto;overflow-x:visible;overflow-y:visible;width:auto;perspective-origin:0px 0px;transform-origin:0px 0px;fill:none;stroke:rgb(0, 0, 0);stroke-width:1.25px;text-anchor:middle;"/><text fill="#000" y="9" dy="0.71em" style="display:block;font-family:sans;font-size:13px;font-style:italic;height:auto;overflow-x:visible;overflow-y:visible;white-space:nowrap;width:auto;perspective-origin:-0.140625px 0px;transform-origin:0px 0px;stroke-width:1.25px;text-anchor:middle;">200</text></g><g class="tick" opacity="1" transform="translate(426.3241758241758,0)" style="font-family:sans;font-size:13px;font-style:italic;height:auto;overflow-x:visible;overflow-y:visible;width:auto;perspective-origin:0px 0px;transform:matrix(1, 0, 0, 1, 426.324, 0);transform-origin:0px 0px;fill:none;stroke-width:1.25px;text-anchor:middle;"><line stroke="#000" y2="6" style="font-family:sans;font-size:13px;font-style:italic;height:auto;overflow-x:visible;overflow-y:visible;width:auto;perspective-origin:0px 0px;transform-origin:0px 0px;fill:none;stroke:rgb(0, 0, 0);stroke-width:1.25px;text-anchor:middle;"/><text fill="#000" y="9" dy="0.71em" style="display:block;font-family:sans;font-size:13px;font-style:italic;height:auto;overflow-x:visible;overflow-y:visible;white-space:nowrap;width:auto;perspective-origin:-0.140625px 0px;transform-origin:0px 0px;stroke-width:1.25px;text-anchor:middle;">250</text></g><g class="tick" opacity="1" transform="translate(511.489010989011,0)" style="font-family:sans;font-size:13px;font-style:italic;height:auto;overflow-x:visible;overflow-y:visible;width:auto;perspective-origin:0px 0px;transform:matrix(1, 0, 0, 1, 511.489, 0);transform-origin:0px 0px;fill:none;stroke-width:1.25px;text-anchor:middle;"><line stroke="#000" y2="6" style="font-family:sans;font-size:13px;font-style:italic;height:auto;overflow-x:visible;overflow-y:visible;width:auto;perspective-origin:0px 0px;transform-origin:0px 0px;fill:none;stroke:rgb(0, 0, 0);stroke-width:1.25px;text-anchor:middle;"/><text fill="#000" y="9" dy="0.71em" style="display:block;font-family:sans;font-size:13px;font-style:italic;height:auto;overflow-x:visible;overflow-y:visible;white-space:nowrap;width:auto;perspective-origin:-0.140625px 0px;transform-origin:0px 0px;stroke-width:1.25px;text-anchor:middle;">300</text></g><g class="tick" opacity="1" transform="translate(596.6538461538462,0)" style="font-family:sans;font-size:13px;font-style:italic;height:auto;overflow-x:visible;overflow-y:visible;width:auto;perspective-origin:0px 0px;transform:matrix(1, 0, 0, 1, 596.654, 0);transform-origin:0px 0px;fill:none;stroke-width:1.25px;text-anchor:middle;"><line stroke="#000" y2="6" style="font-family:sans;font-size:13px;font-style:italic;height:auto;overflow-x:visible;overflow-y:visible;width:auto;perspective-origin:0px 0px;transform-origin:0px 0px;fill:none;stroke:rgb(0, 0, 0);stroke-width:1.25px;text-anchor:middle;"/><text fill="#000" y="9" dy="0.71em" style="display:block;font-family:sans;font-size:13px;font-style:italic;height:auto;overflow-x:visible;overflow-y:visible;white-space:nowrap;width:auto;perspective-origin:-0.140625px 0px;transform-origin:0px 0px;stroke-width:1.25px;text-anchor:middle;">350</text></g></g><g class="label" transform="translate(370,380)" style="font-family:sans;font-size:14px;font-style:italic;height:auto;overflow-x:visible;overflow-y:visible;width:auto;perspective-origin:0px 0px;transform:matrix(1, 0, 0, 1, 370, 380);transform-origin:0px 0px;stroke-width:1.25px;"><text dx="-40" style="display:block;font-family:sans;font-size:14px;font-style:italic;height:auto;overflow-x:visible;overflow-y:visible;white-space:nowrap;width:auto;perspective-origin:0.71875px 0px;transform-origin:0px 0px;stroke-width:1.25px;">, </text></g><g class="y" fill="none" font-size="10" font-family="sans-serif" text-anchor="end" transform="translate(59,30)" style="font-family:sans-serif;font-size:10px;font-style:italic;height:auto;overflow-x:visible;overflow-y:visible;width:auto;perspective-origin:0px 0px;transform:matrix(1, 0, 0, 1, 59, 30);transform-origin:0px 0px;fill:none;stroke-width:1.25px;text-anchor:end;"><path class="domain" stroke="#000" d="M-6,310.5H0.5V0.5H-6" style="font-family:sans-serif;font-size:10px;font-style:italic;height:auto;overflow-x:visible;overflow-y:visible;width:auto;perspective-origin:0px 0px;transform-origin:0px 0px;fill:none;stroke:rgb(0, 0, 0);stroke-width:1.25px;text-anchor:end;d:path('M -6 310.5 H 0.5 V 0.5 H -6');"/><g class="tick" opacity="1" transform="translate(0,185.32946442427465)" style="font-family:sans;font-size:13px;font-style:italic;height:auto;overflow-x:visible;overflow-y:visible;width:auto;perspective-origin:0px 0px;transform:matrix(1, 0, 0, 1, 0, 185.329);transform-origin:0px 0px;fill:none;stroke-width:1.25px;text-anchor:end;"><line stroke="#000" x2="-6" style="font-family:sans;font-size:13px;font-style:italic;height:auto;overflow-x:visible;overflow-y:visible;width:auto;perspective-origin:0px 0px;transform-origin:0px 0px;fill:none;stroke:rgb(0, 0, 0);stroke-width:1.25px;text-anchor:end;"/><text fill="#000" x="-9" dy="0.32em" style="display:block;font-family:sans;font-size:13px;font-style:italic;height:auto;overflow-x:visible;overflow-y:visible;white-space:nowrap;width:auto;perspective-origin:-13.2656px 0px;transform-origin:0px 0px;stroke-width:1.25px;text-anchor:end;">0</text></g></g><g class="label" transform="translate(12,185)" style="font-family:sans;font-size:14px;font-style:italic;height:auto;overflow-x:visible;overflow-y:visible;width:auto;perspective-origin:0px 0px;transform:matrix(1, 0, 0, 1, 12, 185);transform-origin:0px 0px;stroke-width:1.25px;"><text dx="-104" transform="rotate(-90)" style="display:block;font-family:sans;font-size:14px;font-style:italic;height:auto;overflow-x:visible;overflow-y:visible;white-space:nowrap;width:auto;perspective-origin:0.234375px 0px;transform:matrix(6.12323e-17, -1, 1, 6.12323e-17, 0, 0);transform-origin:0px 0px;stroke-width:1.25px;"> " "</text></g></g></g></svg>