<svg id="fig1" width="700" height="400"><g class="deadline"><g class="paper" width="625" height="310" transform="translate(60,30)"><g class="histogram"><rect x="126.56249999999999" width="59.375" y="92.721" height="217.279"></rect><rect x="314.06250000000006" width="59.375" y="252.58025" height="57.41974999999999"></rect><rect x="251.56250000000003" width="59.375" y="154.318" height="155.682"></rect><rect x="64.0625" width="59.375" y="231.39175" height="78.60825"></rect><rect x="189.0625" width="59.375" y="59.39600000000004" height="250.60399999999996"></rect><rect x="376.5625" width="59.375" y="296.7165" height="13.283500000000004"></rect><rect x="439.0625" width="59.375" y="308.0935" height="1.906499999999994"></rect><rect x="501.5625" width="59.375" y="309.7985" height="0.20150000000001"></rect><rect x="564.0625" width="59.375" y="309.9845" height="0.015499999999974534"></rect></g><g class="label" transform="translate(187.5,20.646000000000015)"><text class="month" transform="rotate(-0)">N = 10</text></g></g><g class="axis"><g class="x" fill="none" font-size="10" font-family="sans-serif" text-anchor="middle" transform="translate(60,341)"><path class="domain" stroke="#000" d="M0.5,6V0.5H625.5V6"></path><g class="tick" opacity="1" transform="translate(0.5,0)"><line stroke="#000" y2="6"></line><text fill="#000" y="9" dy="0.71em">0</text></g><g class="tick" opacity="1" transform="translate(63,0)"><line stroke="#000" y2="6"></line><text fill="#000" y="9" dy="0.71em">1</text></g><g class="tick" opacity="1" transform="translate(125.5,0)"><line stroke="#000" y2="6"></line><text fill="#000" y="9" dy="0.71em">2</text></g><g class="tick" opacity="1" transform="translate(188,0)"><line stroke="#000" y2="6"></line><text fill="#000" y="9" dy="0.71em">3</text></g><g class="tick" opacity="1" transform="translate(250.5,0)"><line stroke="#000" y2="6"></line><text fill="#000" y="9" dy="0.71em">4</text></g><g class="tick" opacity="1" transform="translate(313,0)"><line stroke="#000" y2="6"></line><text fill="#000" y="9" dy="0.71em">5</text></g><g class="tick" opacity="1" transform="translate(375.5,0)"><line stroke="#000" y2="6"></line><text fill="#000" y="9" dy="0.71em">6</text></g><g class="tick" opacity="1" transform="translate(438,0)"><line stroke="#000" y2="6"></line><text fill="#000" y="9" dy="0.71em">7</text></g><g class="tick" opacity="1" transform="translate(500.5,0)"><line stroke="#000" y2="6"></line><text fill="#000" y="9" dy="0.71em">8</text></g><g class="tick" opacity="1" transform="translate(563,0)"><line stroke="#000" y2="6"></line><text fill="#000" y="9" dy="0.71em">9</text></g><g class="tick" opacity="1" transform="translate(625.5,0)"><line stroke="#000" y2="6"></line><text fill="#000" y="9" dy="0.71em">10</text></g></g><g class="label" transform="translate(372.5,380)"><text dx="-60">4;8=0 F5?>G:8 M</text></g><g class="y" fill="none" font-size="10" font-family="sans-serif" text-anchor="end" transform="translate(59,30)"><path class="domain" stroke="#000" d="M-6,310.5H0.5V0.5H-6"></path><g class="tick" opacity="1" transform="translate(0,310.5)"><line stroke="#000" x2="-6"></line><text fill="#000" x="-9" dy="0.32em">0</text></g><g class="tick" opacity="1" transform="translate(0,271.75)"><line stroke="#000" x2="-6"></line><text fill="#000" x="-9" dy="0.32em">0.05</text></g><g class="tick" opacity="1" transform="translate(0,233)"><line stroke="#000" x2="-6"></line><text fill="#000" x="-9" dy="0.32em">0.1</text></g><g class="tick" opacity="1" transform="translate(0,194.25)"><line stroke="#000" x2="-6"></line><text fill="#000" x="-9" dy="0.32em">0.15</text></g><g class="tick" opacity="1" transform="translate(0,155.5)"><line stroke="#000" x2="-6"></line><text fill="#000" x="-9" dy="0.32em">0.2</text></g><g class="tick" opacity="1" transform="translate(0,116.75)"><line stroke="#000" x2="-6"></line><text fill="#000" x="-9" dy="0.32em">0.25</text></g><g class="tick" opacity="1" transform="translate(0,78.00000000000003)"><line stroke="#000" x2="-6"></line><text fill="#000" x="-9" dy="0.32em">0.3</text></g><g class="tick" opacity="1" transform="translate(0,39.25000000000006)"><line stroke="#000" x2="-6"></line><text fill="#000" x="-9" dy="0.32em">0.35</text></g><g class="tick" opacity="1" transform="translate(0,0.5)"><line stroke="#000" x2="-6"></line><text fill="#000" x="-9" dy="0.32em">0.4</text></g></g><g class="label" transform="translate(20,185)"><text dx="-84" transform="rotate(-90)">4>;O CA?5H=KE F5?>G5:</text></g></g></g></svg>