<?xml version="1.0" standalone="no"?><!DOCTYPE svg PUBLIC "-//W3C//DTD SVG 1.1//EN" "http://www.w3.org/Graphics/SVG/1.1/DTD/svg11.dtd"><svg id="fig1" width="500" height="500" version="1.1" xmlns="http://www.w3.org/2000/svg" xmlns:xlink="http://www.w3.org/1999/xlink" style="height:500px;width:500px;perspective-origin:250px 250px;transform-origin:250px 250px;"><g class="graphics" style="height:auto;overflow-x:visible;overflow-y:visible;width:auto;perspective-origin:0px 0px;transform-origin:0px 0px;"><g class="paper" width="420" height="410" transform="translate(60,30)" style="font-family:sans;font-style:italic;height:auto;overflow-x:visible;overflow-y:visible;width:auto;perspective-origin:0px 0px;transform:matrix(1, 0, 0, 1, 60, 30);transform-origin:0px 0px;stroke-linecap:round;stroke-linejoin:round;stroke-width:1.5px;"><g class="ideal" style="font-family:sans;font-style:italic;height:auto;overflow-x:visible;overflow-y:visible;width:auto;perspective-origin:0px 0px;transform-origin:0px 0px;stroke-linecap:round;stroke-linejoin:round;stroke-width:1.5px;"><path class="line" fill="none" d="M0,410L420.42042042042044,0" style="font-family:sans;font-style:italic;height:auto;overflow-x:visible;overflow-y:visible;width:auto;perspective-origin:0px 0px;transform-origin:0px 0px;fill:none;stroke:rgb(0, 0, 255);stroke-dasharray:2px, 3px;stroke-linecap:round;stroke-linejoin:round;stroke-width:1.5px;d:path('M 0 410 L 420.42 0');"/><g class="points" style="font-family:sans;font-style:italic;height:auto;overflow-x:visible;overflow-y:visible;width:auto;perspective-origin:0px 0px;transform-origin:0px 0px;stroke-linecap:round;stroke-linejoin:round;stroke-width:1.5px;"><circle cx="0" cy="410" r="2" style="font-family:sans;font-style:italic;height:auto;overflow-x:visible;overflow-y:visible;width:auto;perspective-origin:0px 0px;transform-origin:0px 0px;stroke-linecap:round;stroke-linejoin:round;stroke-width:1.5px;cy:410px;r:2px;"/><circle cx="420.42042042042044" cy="0" r="2" style="font-family:sans;font-style:italic;height:auto;overflow-x:visible;overflow-y:visible;width:auto;perspective-origin:0px 0px;transform-origin:0px 0px;stroke-linecap:round;stroke-linejoin:round;stroke-width:1.5px;cx:420.42px;r:2px;"/></g></g><g class="week" style="font-family:sans;font-style:italic;height:auto;overflow-x:visible;overflow-y:visible;width:auto;perspective-origin:0px 0px;transform-origin:0px 0px;fill:rgb(0, 100, 0);stroke:rgb(0, 100, 0);stroke-linecap:round;stroke-linejoin:round;stroke-width:1.5px;"><path class="line" fill="none" d="M0,410L1.05,409.48477719221245L2.1,408.96852976960264L3.1500000000000004,408.4512536487805L4.2,407.93294472189706L5.25,407.4135988564486L6.3,406.8932118950788L7.3500000000000005,406.3717796553795L8.4,405.84929792968865L9.450000000000001,405.3257624848865L10.5,404.80116906219024L11.55,404.27551337694575L12.6,403.74879111841784L13.65,403.22099794957796L14.700000000000001,402.69212950689007L15.750000000000002,402.1621814000943L16.8,401.631149211988L17.85,401.0990284982048L18.900000000000002,400.56581478699195L19.95,400.0315035789842L21,399.4960903469764L22.05,398.95957053569316L23.1,398.4219395615564L24.150000000000002,397.8831928124505L25.2,397.34332564748445L26.25,396.80233339675254L27.3,396.26021136109176L28.35,395.71695481183684L29.400000000000002,395.1725589905727L30.450000000000003,394.62701910888467L31.500000000000004,394.0803303481054L32.55,393.5324878590598L33.6,392.98348676180683L34.65,392.43332214537855L35.7,391.8819890675168L36.75,391.3294825544067L37.800000000000004,390.77579760040726L38.85,390.2209291677796L39.9,389.66487218641157L40.95,389.10762155354007L42,388.54917213347L43.050000000000004,387.98951875729L44.1,387.42865622258597L45.15,386.86657929315027L46.2,386.30328269868886L47.25,385.7387611345245L48.300000000000004,385.17300926129735L49.35,384.60602170466154L50.4,384.03779305497915L51.449999999999996,383.46831786701046L52.5,382.8975906596007L53.550000000000004,382.32560591536384L54.6,381.75235808036217L55.65000000000001,381.1778415637831L56.70000000000002,380.6020507376116L57.75000000000003,380.0249799362998L58.800000000000026,379.4466234564323L59.85000000000003,378.8669755563877L60.90000000000004,378.2860304559972L61.950000000000045,377.7037823361982L63.00000000000006,377.12022533868486L64.05000000000005,376.5353535655544L65.10000000000005,375.9491610789494L66.15000000000008,375.36164190069593L67.20000000000007,374.7727900119382L68.25000000000009,374.182599352768L69.30000000000008,373.5910638218511L70.35000000000008,372.99817727604824L71.4000000000001,372.4039335300328L72.4500000000001,371.8083263559034L73.50000000000011,371.2113494827921L74.55000000000011,370.6129965964688L75.60000000000012,370.01326133893986L76.65000000000012,369.4121373080432L77.70000000000013,368.8096180570381L78.75000000000014,368.2056970941903L79.80000000000014,367.60036788235243L80.85000000000015,366.99362383853924L81.90000000000015,366.38545833349843L82.95000000000016,365.7758646912756L84.00000000000017,365.164836188775L85.05000000000017,364.5523660553141L86.10000000000018,363.93844747217395L87.15000000000018,363.3230735721434L88.20000000000019,362.7062374390583L89.2500000000002,362.0879321073352L90.3000000000002,361.4681505614989L91.35000000000021,360.8468857357055L92.4000000000002,360.22413051325873L93.45000000000022,359.5998777261209L94.50000000000023,358.9741201544176L95.55000000000022,358.34685052593716L96.60000000000024,357.7180615156231L97.65000000000023,357.087745745061L98.70000000000024,356.45589578195927L99.75000000000026,355.82250413962305L100.80000000000025,355.1875632764218L101.85000000000026,354.5510655952511L102.90000000000026,353.91300344298656L103.95000000000027,353.27336910993205L105.00000000000028,352.63215482926074L106.05000000000028,351.9893527764493L107.10000000000028,351.34495506870473L108.15000000000028,350.6989537643846L109.20000000000026,350.0513408624096L110.25000000000026,349.40210830166916L111.30000000000027,348.75124796041916L112.35000000000024,348.0987516556726L113.40000000000025,347.4446111425819L114.45000000000024,346.7888181138143L115.50000000000024,346.1313641989183L116.55000000000022,345.4722409636831L117.60000000000022,344.8114399094891L118.65000000000022,344.14895247265054L119.7000000000002,343.4847700237495L120.7500000000002,342.8188838669615L121.8000000000002,342.15128523937244L122.85000000000018,341.4819653102865L123.90000000000018,340.8109151805255L124.95000000000019,340.1381258817189L126.00000000000018,339.46358837558444L127.05000000000015,338.7872935531998L128.10000000000016,338.1092322342645L129.15000000000015,337.42939516635204L130.20000000000013,336.74777302415265L131.25000000000014,336.0643564087056L132.30000000000015,335.37913584662135L133.35000000000014,334.6921017892942L134.40000000000012,334.00324461210334L135.45000000000013,333.312554613604L136.5000000000001,332.62002201470784L137.5500000000001,331.9256369578522L138.6000000000001,331.22938950615776L139.6500000000001,330.5312696425758L140.70000000000007,329.83126726902344L141.75000000000009,329.1293722055068L142.80000000000007,328.42557418923315L143.85000000000008,327.71986287371044L144.90000000000006,327.0122278278345L145.95000000000005,326.30265853496417L147.00000000000006,325.5911443919832L148.05000000000004,324.8776747083498L149.10000000000005,324.16223870513284L150.15000000000003,323.4448255140346L151.20000000000005,322.7254241764005L152.25000000000003,322.0040236422141L153.3,321.2806127690793L154.35000000000002,320.5551803211873L155.4,319.8277149682699L156.45,319.0982052845371L157.5,318.3666397476009L158.54999999999998,317.6330067373832L159.59999999999997,316.89729453500803L160.64999999999998,316.1594913216787L161.7,315.41958517753835L162.74999999999997,314.6775640805147L163.79999999999995,313.9334159051478L164.84999999999997,313.18712842140127L165.89999999999995,312.43868929345615L166.94999999999993,311.6880860784876L167.99999999999994,310.93530622542335L169.04999999999995,310.180337073685L170.0999999999999,309.42316585190986L171.14999999999992,308.66377967665477L172.19999999999993,307.90216555108117L173.2499999999999,307.13831036361984L174.2999999999999,306.3722008866169L175.3499999999999,305.6038237749594L176.39999999999986,304.83316556468003L177.44999999999987,304.06021267154233L178.4999999999999,303.28495138960335L179.54999999999987,302.5073678897555L180.59999999999985,301.7274482182467L181.64999999999986,300.94517829517764L182.69999999999985,300.16054391297666L183.74999999999983,299.37353073485167L184.79999999999984,298.5841242932181L185.84999999999985,297.7923099881033L186.8999999999998,296.9980730855262L187.94999999999982,296.2013987158523L188.99999999999983,295.4022718721234L190.0499999999998,294.6006774083612L191.0999999999998,293.7966000378452L192.1499999999998,292.99002433136303L193.1999999999998,292.1809347154344L194.24999999999977,291.36931547050676L195.29999999999978,290.5551507291227L196.34999999999977,289.73842447405866L197.39999999999978,288.91912053643426L198.44999999999976,288.09722259379134L199.49999999999974,287.27271416814335L200.54999999999976,286.44557862399273L201.59999999999974,285.6157991663169L202.64999999999975,284.7833588385224L203.69999999999973,283.9482405203656L204.74999999999972,283.1104269258399L205.79999999999973,282.2699006010289L206.8499999999997,281.4266439219248L207.89999999999972,280.5806390922112L208.9499999999997,279.731868141009L209.9999999999997,278.88031292058645L211.0499999999997,278.0259551040308L212.0999999999997,277.1687761828814L213.14999999999975,276.3087574647243L214.19999999999976,275.44588007074594L215.2499999999998,274.5801249332471L216.2999999999998,273.7114727931139L217.3499999999998,272.83990419724796L218.3999999999998,271.9653994959519L219.44999999999985,271.0879388402714L220.49999999999986,270.2075021792921L221.5499999999999,269.32406925738997L222.5999999999999,268.43761961143565L223.64999999999995,267.54813256795006L224.69999999999993,266.6555872402115L225.74999999999994,265.7599625253131L226.79999999999995,264.8612371011685L227.85,263.9593894234665L228.9,263.0543977225718L229.95000000000005,262.14624000037236L231.00000000000006,261.23489402707037L232.05000000000004,260.3203373379177L233.10000000000008,259.4025472298931L234.1500000000001,258.48150075832086L235.2000000000001,257.55717473342816L236.25000000000014,256.6295457168427L237.30000000000015,255.6985900180259L238.3500000000002,254.76428369064283L239.40000000000018,253.82660252886646L240.4500000000002,252.88552206361447L241.50000000000023,251.9410175587181L242.55000000000024,250.99306400702073L243.60000000000025,250.04163612640534L244.6500000000003,249.08670835574821L245.70000000000027,248.128254850799L246.75000000000028,247.1662494799834L247.80000000000032,246.2006658201282L248.85000000000034,245.23147715210663L249.90000000000038,244.2586564564021L250.9500000000004,243.28217640858827L252.0000000000004,242.302009374724L253.05000000000038,241.31812740666086L254.10000000000042,240.33050223726178L255.15000000000043,239.33910527552757L256.20000000000044,238.34390760163106L257.2500000000005,237.34487996185484L258.3000000000005,236.34199276343182L259.35000000000053,235.3352160692852L260.4000000000005,234.32451959266646L261.45000000000056,233.3098726916884L262.50000000000057,232.2912443637509L263.5500000000006,231.26860323985682L264.6000000000006,230.2419175788159L265.65000000000066,229.21115526133298L266.70000000000067,228.17628378397856L267.7500000000006,227.13727025303936L268.80000000000064,226.0940813782442L269.8500000000007,225.0466834663641L270.9000000000007,223.99504241468267L271.9500000000007,222.9391237043333L273.00000000000074,221.87889239350062L274.0500000000008,220.81431311048277L275.10000000000076,219.74535004660996L276.1500000000008,218.6719669490176L277.2000000000008,217.59412711326908L278.25000000000085,216.5117933758243L279.30000000000086,215.4249281063512L280.3500000000009,214.33349319987536L281.40000000000083,213.2374500687637L282.4500000000009,212.13675963453846L283.5000000000009,211.03138231951712L284.5500000000009,209.92127803827293L285.60000000000093,208.80640618891246L286.650000000001,207.6867256441654L287.700000000001,206.56219474228038L288.75000000000097,205.43277127772387L289.800000000001,204.29841249167498L290.85000000000105,203.1590750623123L291.90000000000106,202.01471509488576L292.95000000000107,200.86528811157032L294.0000000000011,199.7107490410919L295.05000000000115,198.5510522081234L296.1000000000011,197.3861513224417L297.1500000000011,196.215999467841L298.2000000000011,195.04054909079449L299.2500000000012,193.85975198885845L300.3000000000012,192.6735592988119L301.3500000000012,191.4819214845229L302.4000000000012,190.28478832453604L303.45000000000124,189.08210889937232L304.50000000000125,187.87383157853267L305.55000000000126,186.65990400719863L306.6000000000013,185.44027309262003L307.65000000000134,184.21488499018108L308.70000000000135,182.98368508913697L309.75000000000136,181.74661799800984L310.8000000000014,180.50362752963528L311.8500000000014,179.25465668584917L312.9000000000014,177.9996476418045L313.9500000000014,176.7385417299069L315.0000000000014,175.47127942335823L316.0500000000015,174.19780031929693L317.10000000000144,172.91804312152172L318.15000000000146,171.63194562278844L319.2000000000015,170.33944468666576L320.25000000000153,169.04047622893674L321.30000000000155,167.7349751985326L322.35000000000156,166.4228755579858L323.40000000000157,165.10411026338468L324.4500000000016,163.77861124381798L325.5000000000016,162.4463093802913L326.5500000000016,161.10713448409928L327.60000000000167,159.76101527463794L328.6500000000017,158.4078793566377L329.7000000000017,157.04765319680115L330.7500000000017,155.68026209982418L331.8000000000017,154.30563018378302L332.8500000000017,152.92368035486646L333.90000000000174,151.53433428143063L334.95000000000175,150.13751236735692L336.0000000000018,148.7331337246892L337.05000000000183,147.32111614552576L338.10000000000184,145.90137607314364L339.1500000000018,144.47382857232918L340.20000000000186,143.03838729888673L341.2500000000019,141.5949644683016L342.3000000000019,140.1434708235256L343.3500000000019,138.68381560185708L344.4000000000019,137.215906500885L345.450000000002,135.7396496434646L346.50000000000193,134.25494954169028L347.55000000000194,132.76170905983452L348.600000000002,131.25982937621245L349.650000000002,129.74920994393807L350.70000000000203,128.2297484505317L351.75000000000205,126.7013407763385L352.80000000000206,125.16388095171482L353.85000000000207,123.61726111294007L354.9000000000021,122.06137145680714L355.9500000000021,120.49610019384312L357.00000000000216,118.92133350011198L358.05000000000217,117.33695546754586L359.1000000000022,115.7428480527517L360.15000000000214,114.13889102423548L361.2000000000022,112.52496190798746L362.2500000000022,110.900935931363L363.3000000000022,109.26668596519914L364.35000000000224,107.62208246409614L365.4000000000023,105.96699340479603L366.4500000000023,104.30128422258326L367.5000000000023,102.6248177456327L368.5500000000023,100.93745412722342L369.60000000000235,99.23905077573454L370.65000000000236,97.52946228233651L371.7000000000024,95.80854034628584L372.7500000000024,94.0761336977256L373.80000000000246,92.33208801789425L374.8500000000024,90.57624585663552L375.9000000000024,88.80844654709836L376.95000000000243,87.02852611751376L378.0000000000025,85.2363171999263L379.0500000000025,83.43164893575147L380.1000000000025,81.61434687802893L381.15000000000254,79.78423289022953L382.20000000000255,77.94112504146949L383.25000000000256,76.08483749797841L384.30000000000257,74.21518041065912L385.3500000000026,72.3319597985681L386.40000000000265,70.43497742813929L387.45000000000266,68.52403068796224L388.5000000000026,66.59891245891617L389.5500000000026,64.65941097945398L390.6000000000027,62.70530970581444L391.6500000000027,60.73638716693398L392.7000000000027,58.75241681381317L393.75000000000273,56.75316686308366L394.8000000000028,54.738400134503365L395.85000000000275,52.70787388209641L396.90000000000276,50.661339618636475L397.9500000000028,48.59854293315749L399.00000000000284,46.519223301153886L400.05000000000285,44.42311388711829L401.10000000000286,42.30994133904392L402.1500000000029,40.17942557449044L403.2000000000029,38.031279557801156L404.2500000000029,35.86520906802406L405.3000000000029,33.68091245706779L406.3500000000029,31.478080397597978L407.400000000003,29.256395620144417L408.450000000003,27.015532638860293L409.500000000003,24.75515746534296L410.550000000003,22.47492730988523L411.60000000000304,20.174490269487535L412.65000000000305,17.853485001924412L413.70000000000306,15.511540385107253L414.75000000000307,13.148275160940784L415.80000000000314,10.763297562819673L416.85000000000315,8.356204925853945L417.9000000000031,5.926583278853116L418.9500000000032,3.4740069170358083L420.0000000000032,0.9980379543617914" style="font-family:sans;font-style:italic;height:auto;overflow-x:visible;overflow-y:visible;width:auto;perspective-origin:0px 0px;transform-origin:0px 0px;fill:none;stroke:rgb(0, 100, 0);stroke-linecap:round;stroke-linejoin:round;stroke-width:1.5px;d:path('M 0 410 L 1.05 409.485 L 2.1 408.969 L 3.15 408.451 L 4.2 407.933 L 5.25 407.414 L 6.3 406.893 L 7.35 406.372 L 8.4 405.849 L 9.45 405.326 L 10.5 404.801 L 11.55 404.276 L 12.6 403.749 L 13.65 403.221 L 14.7 402.692 L 15.75 402.162 L 16.8 401.631 L 17.85 401.099 L 18.9 400.566 L 19.95 400.031 L 21 399.496 L 22.05 398.96 L 23.1 398.422 L 24.15 397.883 L 25.2 397.343 L 26.25 396.802 L 27.3 396.26 L 28.35 395.717 L 29.4 395.173 L 30.45 394.627 L 31.5 394.08 L 32.55 393.533 L 33.6 392.983 L 34.65 392.433 L 35.7 391.882 L 36.75 391.329 L 37.8 390.776 L 38.85 390.221 L 39.9 389.665 L 40.95 389.108 L 42 388.549 L 43.05 387.99 L 44.1 387.429 L 45.15 386.867 L 46.2 386.303 L 47.25 385.739 L 48.3 385.173 L 49.35 384.606 L 50.4 384.038 L 51.45 383.468 L 52.5 382.898 L 53.55 382.326 L 54.6 381.752 L 55.65 381.178 L 56.7 380.602 L 57.75 380.025 L 58.8 379.447 L 59.85 378.867 L 60.9 378.286 L 61.95 377.704 L 63 377.12 L 64.05 376.535 L 65.1 375.949 L 66.15 375.362 L 67.2 374.773 L 68.25 374.183 L 69.3 373.591 L 70.35 372.998 L 71.4 372.404 L 72.45 371.808 L 73.5 371.211 L 74.55 370.613 L 75.6 370.013 L 76.65 369.412 L 77.7 368.81 L 78.75 368.206 L 79.8 367.6 L 80.85 366.994 L 81.9 366.385 L 82.95 365.776 L 84 365.165 L 85.05 364.552 L 86.1 363.938 L 87.15 363.323 L 88.2 362.706 L 89.25 362.088 L 90.3 361.468 L 91.35 360.847 L 92.4 360.224 L 93.45 359.6 L 94.5 358.974 L 95.55 358.347 L 96.6 357.718 L 97.65 357.088 L 98.7 356.456 L 99.75 355.823 L 100.8 355.188 L 101.85 354.551 L 102.9 353.913 L 103.95 353.273 L 105 352.632 L 106.05 351.989 L 107.1 351.345 L 108.15 350.699 L 109.2 350.051 L 110.25 349.402 L 111.3 348.751 L 112.35 348.099 L 113.4 347.445 L 114.45 346.789 L 115.5 346.131 L 116.55 345.472 L 117.6 344.811 L 118.65 344.149 L 119.7 343.485 L 120.75 342.819 L 121.8 342.151 L 122.85 341.482 L 123.9 340.811 L 124.95 340.138 L 126 339.464 L 127.05 338.787 L 128.1 338.109 L 129.15 337.429 L 130.2 336.748 L 131.25 336.064 L 132.3 335.379 L 133.35 334.692 L 134.4 334.003 L 135.45 333.313 L 136.5 332.62 L 137.55 331.926 L 138.6 331.229 L 139.65 330.531 L 140.7 329.831 L 141.75 329.129 L 142.8 328.426 L 143.85 327.72 L 144.9 327.012 L 145.95 326.303 L 147 325.591 L 148.05 324.878 L 149.1 324.162 L 150.15 323.445 L 151.2 322.725 L 152.25 322.004 L 153.3 321.281 L 154.35 320.555 L 155.4 319.828 L 156.45 319.098 L 157.5 318.367 L 158.55 317.633 L 159.6 316.897 L 160.65 316.159 L 161.7 315.42 L 162.75 314.678 L 163.8 313.933 L 164.85 313.187 L 165.9 312.439 L 166.95 311.688 L 168 310.935 L 169.05 310.18 L 170.1 309.423 L 171.15 308.664 L 172.2 307.902 L 173.25 307.138 L 174.3 306.372 L 175.35 305.604 L 176.4 304.833 L 177.45 304.06 L 178.5 303.285 L 179.55 302.507 L 180.6 301.727 L 181.65 300.945 L 182.7 300.161 L 183.75 299.374 L 184.8 298.584 L 185.85 297.792 L 186.9 296.998 L 187.95 296.201 L 189 295.402 L 190.05 294.601 L 191.1 293.797 L 192.15 292.99 L 193.2 292.181 L 194.25 291.369 L 195.3 290.555 L 196.35 289.738 L 197.4 288.919 L 198.45 288.097 L 199.5 287.273 L 200.55 286.446 L 201.6 285.616 L 202.65 284.783 L 203.7 283.948 L 204.75 283.11 L 205.8 282.27 L 206.85 281.427 L 207.9 280.581 L 208.95 279.732 L 210 278.88 L 211.05 278.026 L 212.1 277.169 L 213.15 276.309 L 214.2 275.446 L 215.25 274.58 L 216.3 273.711 L 217.35 272.84 L 218.4 271.965 L 219.45 271.088 L 220.5 270.207 L 221.55 269.324 L 222.6 268.438 L 223.65 267.548 L 224.7 266.656 L 225.75 265.76 L 226.8 264.861 L 227.85 263.959 L 228.9 263.054 L 229.95 262.146 L 231 261.235 L 232.05 260.32 L 233.1 259.403 L 234.15 258.482 L 235.2 257.557 L 236.25 256.63 L 237.3 255.699 L 238.35 254.764 L 239.4 253.827 L 240.45 252.886 L 241.5 251.941 L 242.55 250.993 L 243.6 250.042 L 244.65 249.087 L 245.7 248.128 L 246.75 247.166 L 247.8 246.201 L 248.85 245.231 L 249.9 244.259 L 250.95 243.282 L 252 242.302 L 253.05 241.318 L 254.1 240.331 L 255.15 239.339 L 256.2 238.344 L 257.25 237.345 L 258.3 236.342 L 259.35 235.335 L 260.4 234.325 L 261.45 233.31 L 262.5 232.291 L 263.55 231.269 L 264.6 230.242 L 265.65 229.211 L 266.7 228.176 L 267.75 227.137 L 268.8 226.094 L 269.85 225.047 L 270.9 223.995 L 271.95 222.939 L 273 221.879 L 274.05 220.814 L 275.1 219.745 L 276.15 218.672 L 277.2 217.594 L 278.25 216.512 L 279.3 215.425 L 280.35 214.333 L 281.4 213.237 L 282.45 212.137 L 283.5 211.031 L 284.55 209.921 L 285.6 208.806 L 286.65 207.687 L 287.7 206.562 L 288.75 205.433 L 289.8 204.298 L 290.85 203.159 L 291.9 202.015 L 292.95 200.865 L 294 199.711 L 295.05 198.551 L 296.1 197.386 L 297.15 196.216 L 298.2 195.041 L 299.25 193.86 L 300.3 192.674 L 301.35 191.482 L 302.4 190.285 L 303.45 189.082 L 304.5 187.874 L 305.55 186.66 L 306.6 185.44 L 307.65 184.215 L 308.7 182.984 L 309.75 181.747 L 310.8 180.504 L 311.85 179.255 L 312.9 178 L 313.95 176.739 L 315 175.471 L 316.05 174.198 L 317.1 172.918 L 318.15 171.632 L 319.2 170.339 L 320.25 169.04 L 321.3 167.735 L 322.35 166.423 L 323.4 165.104 L 324.45 163.779 L 325.5 162.446 L 326.55 161.107 L 327.6 159.761 L 328.65 158.408 L 329.7 157.048 L 330.75 155.68 L 331.8 154.306 L 332.85 152.924 L 333.9 151.534 L 334.95 150.138 L 336 148.733 L 337.05 147.321 L 338.1 145.901 L 339.15 144.474 L 340.2 143.038 L 341.25 141.595 L 342.3 140.143 L 343.35 138.684 L 344.4 137.216 L 345.45 135.74 L 346.5 134.255 L 347.55 132.762 L 348.6 131.26 L 349.65 129.749 L 350.7 128.23 L 351.75 126.701 L 352.8 125.164 L 353.85 123.617 L 354.9 122.061 L 355.95 120.496 L 357 118.921 L 358.05 117.337 L 359.1 115.743 L 360.15 114.139 L 361.2 112.525 L 362.25 110.901 L 363.3 109.267 L 364.35 107.622 L 365.4 105.967 L 366.45 104.301 L 367.5 102.625 L 368.55 100.937 L 369.6 99.2391 L 370.65 97.5295 L 371.7 95.8085 L 372.75 94.0761 L 373.8 92.3321 L 374.85 90.5762 L 375.9 88.8084 L 376.95 87.0285 L 378 85.2363 L 379.05 83.4316 L 380.1 81.6143 L 381.15 79.7842 L 382.2 77.9411 L 383.25 76.0848 L 384.3 74.2152 L 385.35 72.332 L 386.4 70.435 L 387.45 68.524 L 388.5 66.5989 L 389.55 64.6594 L 390.6 62.7053 L 391.65 60.7364 L 392.7 58.7524 L 393.75 56.7532 L 394.8 54.7384 L 395.85 52.7079 L 396.9 50.6613 L 397.95 48.5985 L 399 46.5192 L 400.05 44.4231 L 401.1 42.3099 L 402.15 40.1794 L 403.2 38.0313 L 404.25 35.8652 L 405.3 33.6809 L 406.35 31.4781 L 407.4 29.2564 L 408.45 27.0155 L 409.5 24.7552 L 410.55 22.4749 L 411.6 20.1745 L 412.65 17.8535 L 413.7 15.5115 L 414.75 13.1483 L 415.8 10.7633 L 416.85 8.3562 L 417.9 5.92658 L 418.95 3.47401 L 420 0.998038');"/></g><g class="month" style="font-family:sans;font-style:italic;height:auto;overflow-x:visible;overflow-y:visible;width:auto;perspective-origin:0px 0px;transform-origin:0px 0px;fill:rgb(205, 92, 92);stroke:rgb(205, 92, 92);stroke-linecap:round;stroke-linejoin:round;stroke-width:1.5px;"><path class="line" fill="none" d="M0,410L1.05,409.678420367664L2.1,409.3560734764716L3.1500000000000004,409.03295565644936L4.2,408.7090632112294L5.25,408.38439241779537L6.3,408.0589395262259L7.3500000000000005,407.7327007594346L8.4,407.405672312907L9.450000000000001,407.0778503544346L10.5,406.74923102384514L11.55,406.41981043273006L12.6,406.0895846641682L13.65,405.7585497724468L14.700000000000001,405.426701782778L15.750000000000002,405.09403669101306L16.8,404.760550463352L17.85,404.42623903605056L18.900000000000002,404.0910983151227L19.95,403.75512417603994L21,403.4183124634269L22.05,403.0806589907527L23.1,402.7421595400188L24.150000000000002,402.4028098614431L25.2,402.06260567313933L26.25,401.7215426607934L27.3,401.37961647733454L28.35,401.0368227426034L29.400000000000002,400.69315704301516L30.450000000000003,400.3486149312183L31.500000000000004,400.00319192574983L32.55,399.65688351068496L33.6,399.30968513528336L34.65,398.96159221362996L35.7,398.6126001242717L36.75,398.2627042098494L37.800000000000004,397.91189977672474L38.85,397.56018209460257L39.9,397.2075463961481L40.95,396.85398787659915L42,396.4995016933737L43.050000000000004,396.1440829656713L44.1,395.7877267740704L45.15,395.43042816011956L46.2,395.07218212592335L47.25,394.71298363372324L48.300000000000004,394.3528276054722L49.35,393.99170892240414L50.4,393.62962242459724L51.449999999999996,393.2665629105317L52.5,392.90252513664154L53.550000000000004,392.53750381685967L54.6,392.171493622158L55.65000000000001,391.8044891800801L56.70000000000002,391.43648507426843L57.75000000000003,391.06747584398437L58.800000000000026,390.69745598362226L59.85000000000003,390.3264199422165L60.90000000000004,389.95436212294163L61.950000000000045,389.5812768826063L63.00000000000006,389.2071585311391L64.05000000000005,388.8320013310683L65.10000000000005,388.4557994969936L66.15000000000008,388.07854719505116L67.20000000000007,387.70023854237036L68.25000000000009,387.32086760652356L69.30000000000008,386.94042840496815L70.35000000000008,386.55891490447993L71.4000000000001,386.1763210205796L72.4500000000001,385.7926406169501L73.50000000000011,385.4078675048463L74.55000000000011,385.0219954424961L75.60000000000012,384.63501813449255L76.65000000000012,384.246929231178L77.70000000000013,383.8577223280186L78.75000000000014,383.46739096497055L79.80000000000014,383.0759286258362L80.85000000000015,382.6833287376118L81.90000000000015,382.28958466982516L82.95000000000016,381.8946897338636L84.00000000000017,381.4986371822922L85.05000000000017,381.1014202081625L86.10000000000018,380.7030319443098L87.15000000000018,380.30346546264144L88.20000000000019,379.90271377341355L89.2500000000002,379.5007698244975L90.3000000000002,379.09762650063533L91.35000000000021,378.69327662268375L92.4000000000002,378.2877129468474L93.45000000000022,377.8809281639L94.50000000000023,377.472914898394L95.55000000000022,377.0636657078581L96.60000000000024,376.6531730819828L97.65000000000023,376.24142944179357L98.70000000000024,375.82842713881087L99.75000000000026,375.41415845419795L100.80000000000025,374.998615597895L101.85000000000026,374.58179070774077L102.90000000000026,374.16367584857915L103.95000000000027,373.74426301135344L105.00000000000028,373.32354411218563L106.05000000000028,372.90151099144146L107.10000000000028,372.4781554127809L108.15000000000028,372.05346906219376L109.20000000000026,371.6274435470198L110.25000000000026,371.20007039495385L111.30000000000027,370.7713410530347L112.35000000000024,370.34124688661797L113.40000000000025,369.9097791783329L114.45000000000024,369.47692912702183L115.50000000000024,369.0426878466634L116.55000000000022,368.60704636527777L117.60000000000022,368.1699956238142L118.65000000000022,367.73152647502104L119.7000000000002,367.29162968229684L120.7500000000002,366.8502959185229L121.8000000000002,366.40751576487645L122.85000000000018,365.96327970962494L123.90000000000018,365.51757814689967L124.95000000000019,365.0704013754496L126.00000000000018,364.62173959737436L127.05000000000015,364.1715829168361L128.10000000000016,363.7199213387498L129.15000000000015,363.26674476745194L130.20000000000013,362.81204300534597L131.25000000000014,362.35580575152596L132.30000000000015,361.898022600376L133.35000000000014,361.43868304014654L134.40000000000012,360.9777764515057L135.45000000000013,360.51529210606645L136.5000000000001,360.05121916488827L137.5500000000001,359.58554667695273L138.6000000000001,359.11826357761305L139.6500000000001,358.6493586870165L140.70000000000007,358.17882070849976L141.75000000000009,357.7066382269555L142.80000000000007,357.23279970717107L143.85000000000008,356.7572934921375L144.90000000000006,356.28010780132877L145.95000000000005,355.8012307289507L147.00000000000006,355.32065024215837L148.05000000000004,354.8383541792422L149.10000000000005,354.3543302477808L150.15000000000003,353.86856602276185L151.20000000000005,353.38104894466744L152.25000000000003,352.8917663175263L153.3,352.40070530692947L154.35000000000002,351.9078529380106L155.4,351.4131960933886L156.45,350.9167215110731L157.5,350.41841578233084L158.54999999999998,349.91826534951264L159.59999999999997,349.4162565038403L160.64999999999998,348.912375383152L161.7,348.4066079696051L162.74999999999997,347.89894008733677L163.79999999999995,347.3893574000795L164.84999999999997,346.87784540873207L165.89999999999995,346.3643894488843L166.94999999999993,345.84897468829405L167.99999999999994,345.3315861243168L169.04999999999995,344.8122085812852L170.0999999999999,344.2908267078379L171.14999999999992,343.7674249741975L172.19999999999993,343.24198766939463L173.2499999999999,342.71449889843836L174.2999999999999,342.18494257943087L175.3499999999999,341.6533024406257L176.39999999999986,341.1195620174277L177.44999999999987,340.5837046493333L178.4999999999999,340.0457134768101L179.54999999999987,339.50557143811415L180.59999999999985,338.963261266043L181.64999999999986,338.41876548462386L182.69999999999985,337.8720664057341L183.74999999999983,337.3231461256535L184.79999999999984,336.7719865215465L185.84999999999985,336.2185692478714L186.8999999999998,335.66287573271677L187.94999999999982,335.1048871740616L188.99999999999983,334.54458453595805L190.0499999999998,333.98194854463475L191.0999999999998,333.41695968451853L192.1499999999998,332.849598194173L193.1999999999998,332.2798440621505L194.24999999999977,331.7076770227578L195.29999999999978,331.1330765517301L196.34999999999977,330.5560218618135L197.39999999999978,329.9764918982533L198.44999999999976,329.3944653341833L199.49999999999974,328.8099205659174L200.54999999999976,328.2228357081379L201.59999999999974,327.6331885889781L202.64999999999975,327.04095674499916L203.69999999999973,326.4461174160539L204.74999999999972,325.8486475400391L205.79999999999973,325.24852374753016L206.8499999999997,324.6457223562961L207.89999999999972,324.0402193656922L208.9499999999997,323.4319904509259L209.9999999999997,322.82101095719315L211.0499999999997,322.207255893682L212.0999999999997,321.59069992743844L213.14999999999975,320.97131737709276L214.19999999999976,320.34908220644064L215.2499999999998,319.7239680178759L216.2999999999998,319.09594804567087L217.3499999999998,318.4649951490996L218.3999999999998,317.8310818053998L219.44999999999985,317.19418010256874L220.49999999999986,316.5542617319892L221.5499999999999,315.9112979808789L222.5999999999999,315.26525972456034L223.64999999999995,314.61611741854415L224.69999999999993,313.96384109042225L225.74999999999994,313.30840033156346L226.79999999999995,312.6497642886072L227.85,311.98790165474855L228.9,311.32278066080926L229.95000000000005,310.6543690660874L231.00000000000006,309.9826341489794L232.05000000000004,309.3075426973686L233.10000000000008,308.62906099877176L234.1500000000001,307.94715483023685L235.2000000000001,307.26178944798517L236.25000000000014,306.5729295767887L237.30000000000015,305.88053939907616L238.3500000000002,305.1845825437574L239.40000000000018,304.48502207475946L240.4500000000002,303.7818204792634L241.50000000000023,303.0749396556342L242.55000000000024,302.3643409010325L243.60000000000025,301.64998489869964L244.6500000000003,300.93183170490386L245.70000000000027,300.2098407355385L246.75000000000028,299.48397075235937L247.80000000000032,298.7541798488515L248.85000000000034,298.02042543571105L249.90000000000038,297.28266422593117L250.9500000000004,296.54085221947884L252.0000000000004,295.7949446875481L253.05000000000038,295.0448961563763L254.10000000000042,294.2906603906092L255.15000000000043,293.5321903761982L256.20000000000044,292.7694383028155L257.2500000000005,292.00235554576966L258.3000000000005,291.23089264740514L259.35000000000053,290.45499929796733L260.4000000000005,289.67462431591537L261.45000000000056,288.8897156276627L262.50000000000057,288.10022024672605L263.5500000000006,287.3060842522613L264.6000000000006,286.5072527669649L265.65000000000066,285.7036699343181L266.70000000000067,284.8952788951502L267.7500000000006,284.08202176349715L268.80000000000064,283.2638396017277L269.8500000000007,282.44067239491324L270.9000000000007,281.61245902441124L271.9500000000007,280.77913724063444L273.00000000000074,279.9406436349743L274.0500000000008,279.0969136108488L275.10000000000076,278.24788135383943L276.1500000000008,277.3934798008848L277.2000000000008,276.5336406084932L278.25000000000085,275.66829411993774L279.30000000000086,274.7973693313939L280.3500000000009,273.9207938569782L281.40000000000083,273.0384938926459L282.4500000000009,272.1503941789017L283.5000000000009,271.2564179622767L284.5500000000009,270.35648695552266L285.60000000000093,269.45052129647104L286.650000000001,268.53843950550413L287.700000000001,267.6201584415801L288.75000000000097,266.69559325675357L289.800000000001,265.7646573491294L290.85000000000105,264.8272623141846L291.90000000000106,263.883317894389L292.95000000000107,262.93273192705385L294.0000000000011,261.97541029033334L295.05000000000115,261.01125684729834L296.1000000000011,260.04017338800065L297.1500000000011,259.06205956944024L298.2000000000011,258.07681285334337L299.2500000000012,257.08432844165475L300.3000000000012,256.0844992096436L301.3500000000012,255.0772156365151L302.4000000000012,254.06236573341664L303.45000000000124,253.03983496871857L304.50000000000125,252.00950619044656L305.55000000000126,250.97125954573326L306.6000000000013,249.92497239715055L307.65000000000134,248.87051923577735L308.70000000000135,247.8077715908476L309.75000000000136,246.73659793581712L310.8000000000014,245.6568635906759L311.8500000000014,244.56843062032627L312.9000000000014,243.4711577288339L313.9500000000014,242.36490014934895L315.0000000000014,241.24950952948353L316.0500000000015,240.1248338119181L317.10000000000144,238.99071710999675L318.15000000000146,237.84699957805597L319.2000000000015,236.69351727621859L320.25000000000153,235.53010202936554L321.30000000000155,234.35658127998306L322.35000000000156,233.17277793456222L323.40000000000157,231.97851020320985L324.4500000000016,230.7735914321074L325.5000000000016,229.55782992843038L326.5500000000016,228.3310287773196L327.60000000000167,227.0929856504656L328.6500000000017,225.8434926058415L329.7000000000017,224.58233587808814L330.7500000000017,223.3092956590237L331.8000000000017,222.02414586771326L332.8500000000017,220.7266539094978L333.90000000000174,219.4165804233386L334.95000000000175,218.09367901679235L336.0000000000018,216.75769598788216L337.05000000000183,215.4083700330788L338.10000000000184,214.04543194055228L339.1500000000018,212.66860426779272L340.20000000000186,211.27760100263458L341.2500000000019,209.87212720664874L342.3000000000019,208.45187863978973L343.3500000000019,207.0165413651043L344.4000000000019,205.56579133221476L345.450000000002,204.09929393819667L346.50000000000193,202.61670356436102L347.55000000000194,201.11766308733777L348.600000000002,199.60180336272893L349.650000000002,198.06874267946594L350.70000000000203,196.5180861828516L351.75000000000205,194.94942526410614L352.80000000000206,193.36233691405562L353.85000000000207,191.75638303840572L354.9000000000021,190.13110973182796L355.9500000000021,188.48604650784833L357.00000000000216,186.8207054812701L358.05000000000217,185.13458049957626L359.1000000000022,183.42714621944256L360.15000000000214,181.69785712414406L361.2000000000022,179.9461464772594L362.2500000000022,178.1714252076492L363.3000000000022,176.37308072022068L364.35000000000224,174.5504756264702L365.4000000000023,172.7029463882219L366.4500000000023,170.82980186734042L367.5000000000023,168.93032177348442L368.5500000000023,167.00375500117855L369.60000000000235,165.04931784659402L370.65000000000236,163.06619209344447L371.7000000000024,161.05352295629487L372.7500000000024,159.0104168683468L373.80000000000246,156.93593909936894L374.8500000000024,154.82911118787948L375.9000000000024,152.68890816992257L376.95000000000243,150.5142555847935L378.0000000000025,148.3040262358153L379.0500000000025,146.0570366817201L380.1000000000025,143.77204343129478L381.15000000000254,141.44773881065692L382.20000000000255,139.08274646877226L383.25000000000256,136.67561648253542L384.30000000000257,134.2248200178248L385.3500000000026,131.72874349730182L386.40000000000265,129.18568221923897L387.45000000000266,126.59383336417653L388.5000000000026,123.95128831755414L389.5500000000026,121.25602422642606L390.6000000000027,118.50589469669671L391.6500000000027,115.69861952370547L392.7000000000027,112.83177333306168L393.75000000000273,109.90277298994926L394.8000000000028,106.90886361311738L395.85000000000275,103.84710300379027L396.90000000000276,100.7143442689142L397.9500000000028,97.50721638149446L399.00000000000284,94.22210237698312L400.05000000000285,90.85511483213423L401.10000000000286,87.40206820947355L402.1500000000029,83.85844757395682L403.2000000000029,80.21937309533041L404.2500000000029,76.47955963601459L405.3000000000029,72.63327058474141L406.3500000000029,68.67426492384004L407.400000000003,64.59573630409506L408.450000000003,60.39024263380878L409.500000000003,56.04962435266714L410.550000000003,51.5649091356924L411.60000000000304,46.92620023033351L412.65000000000305,42.122544933178574L413.70000000000306,37.14177881059976L414.75000000000307,31.970340088987598L415.80000000000314,26.59304708593146L416.85000000000315,20.992829483497076L417.9000000000031,15.150401457598264L418.9500000000032,9.0438608813663L420.0000000000032,2.648193584911837" style="font-family:sans;font-style:italic;height:auto;overflow-x:visible;overflow-y:visible;width:auto;perspective-origin:0px 0px;transform-origin:0px 0px;fill:none;stroke:rgb(205, 92, 92);stroke-linecap:round;stroke-linejoin:round;stroke-width:1.5px;d:path('M 0 410 L 1.05 409.678 L 2.1 409.356 L 3.15 409.033 L 4.2 408.709 L 5.25 408.384 L 6.3 408.059 L 7.35 407.733 L 8.4 407.406 L 9.45 407.078 L 10.5 406.749 L 11.55 406.42 L 12.6 406.09 L 13.65 405.759 L 14.7 405.427 L 15.75 405.094 L 16.8 404.761 L 17.85 404.426 L 18.9 404.091 L 19.95 403.755 L 21 403.418 L 22.05 403.081 L 23.1 402.742 L 24.15 402.403 L 25.2 402.063 L 26.25 401.722 L 27.3 401.38 L 28.35 401.037 L 29.4 400.693 L 30.45 400.349 L 31.5 400.003 L 32.55 399.657 L 33.6 399.31 L 34.65 398.962 L 35.7 398.613 L 36.75 398.263 L 37.8 397.912 L 38.85 397.56 L 39.9 397.208 L 40.95 396.854 L 42 396.5 L 43.05 396.144 L 44.1 395.788 L 45.15 395.43 L 46.2 395.072 L 47.25 394.713 L 48.3 394.353 L 49.35 393.992 L 50.4 393.63 L 51.45 393.267 L 52.5 392.903 L 53.55 392.538 L 54.6 392.172 L 55.65 391.805 L 56.7 391.436 L 57.75 391.067 L 58.8 390.697 L 59.85 390.326 L 60.9 389.954 L 61.95 389.581 L 63 389.207 L 64.05 388.832 L 65.1 388.456 L 66.15 388.079 L 67.2 387.7 L 68.25 387.321 L 69.3 386.94 L 70.35 386.559 L 71.4 386.176 L 72.45 385.793 L 73.5 385.408 L 74.55 385.022 L 75.6 384.635 L 76.65 384.247 L 77.7 383.858 L 78.75 383.467 L 79.8 383.076 L 80.85 382.683 L 81.9 382.29 L 82.95 381.895 L 84 381.499 L 85.05 381.101 L 86.1 380.703 L 87.15 380.303 L 88.2 379.903 L 89.25 379.501 L 90.3 379.098 L 91.35 378.693 L 92.4 378.288 L 93.45 377.881 L 94.5 377.473 L 95.55 377.064 L 96.6 376.653 L 97.65 376.241 L 98.7 375.828 L 99.75 375.414 L 100.8 374.999 L 101.85 374.582 L 102.9 374.164 L 103.95 373.744 L 105 373.324 L 106.05 372.902 L 107.1 372.478 L 108.15 372.053 L 109.2 371.627 L 110.25 371.2 L 111.3 370.771 L 112.35 370.341 L 113.4 369.91 L 114.45 369.477 L 115.5 369.043 L 116.55 368.607 L 117.6 368.17 L 118.65 367.732 L 119.7 367.292 L 120.75 366.85 L 121.8 366.408 L 122.85 365.963 L 123.9 365.518 L 124.95 365.07 L 126 364.622 L 127.05 364.172 L 128.1 363.72 L 129.15 363.267 L 130.2 362.812 L 131.25 362.356 L 132.3 361.898 L 133.35 361.439 L 134.4 360.978 L 135.45 360.515 L 136.5 360.051 L 137.55 359.586 L 138.6 359.118 L 139.65 358.649 L 140.7 358.179 L 141.75 357.707 L 142.8 357.233 L 143.85 356.757 L 144.9 356.28 L 145.95 355.801 L 147 355.321 L 148.05 354.838 L 149.1 354.354 L 150.15 353.869 L 151.2 353.381 L 152.25 352.892 L 153.3 352.401 L 154.35 351.908 L 155.4 351.413 L 156.45 350.917 L 157.5 350.418 L 158.55 349.918 L 159.6 349.416 L 160.65 348.912 L 161.7 348.407 L 162.75 347.899 L 163.8 347.389 L 164.85 346.878 L 165.9 346.364 L 166.95 345.849 L 168 345.332 L 169.05 344.812 L 170.1 344.291 L 171.15 343.767 L 172.2 343.242 L 173.25 342.715 L 174.3 342.185 L 175.35 341.653 L 176.4 341.12 L 177.45 340.584 L 178.5 340.046 L 179.55 339.506 L 180.6 338.963 L 181.65 338.419 L 182.7 337.872 L 183.75 337.323 L 184.8 336.772 L 185.85 336.219 L 186.9 335.663 L 187.95 335.105 L 189 334.545 L 190.05 333.982 L 191.1 333.417 L 192.15 332.85 L 193.2 332.28 L 194.25 331.708 L 195.3 331.133 L 196.35 330.556 L 197.4 329.977 L 198.45 329.394 L 199.5 328.81 L 200.55 328.223 L 201.6 327.633 L 202.65 327.041 L 203.7 326.446 L 204.75 325.849 L 205.8 325.249 L 206.85 324.646 L 207.9 324.04 L 208.95 323.432 L 210 322.821 L 211.05 322.207 L 212.1 321.591 L 213.15 320.971 L 214.2 320.349 L 215.25 319.724 L 216.3 319.096 L 217.35 318.465 L 218.4 317.831 L 219.45 317.194 L 220.5 316.554 L 221.55 315.911 L 222.6 315.265 L 223.65 314.616 L 224.7 313.964 L 225.75 313.308 L 226.8 312.65 L 227.85 311.988 L 228.9 311.323 L 229.95 310.654 L 231 309.983 L 232.05 309.308 L 233.1 308.629 L 234.15 307.947 L 235.2 307.262 L 236.25 306.573 L 237.3 305.881 L 238.35 305.185 L 239.4 304.485 L 240.45 303.782 L 241.5 303.075 L 242.55 302.364 L 243.6 301.65 L 244.65 300.932 L 245.7 300.21 L 246.75 299.484 L 247.8 298.754 L 248.85 298.02 L 249.9 297.283 L 250.95 296.541 L 252 295.795 L 253.05 295.045 L 254.1 294.291 L 255.15 293.532 L 256.2 292.769 L 257.25 292.002 L 258.3 291.231 L 259.35 290.455 L 260.4 289.675 L 261.45 288.89 L 262.5 288.1 L 263.55 287.306 L 264.6 286.507 L 265.65 285.704 L 266.7 284.895 L 267.75 284.082 L 268.8 283.264 L 269.85 282.441 L 270.9 281.612 L 271.95 280.779 L 273 279.941 L 274.05 279.097 L 275.1 278.248 L 276.15 277.393 L 277.2 276.534 L 278.25 275.668 L 279.3 274.797 L 280.35 273.921 L 281.4 273.038 L 282.45 272.15 L 283.5 271.256 L 284.55 270.356 L 285.6 269.451 L 286.65 268.538 L 287.7 267.62 L 288.75 266.696 L 289.8 265.765 L 290.85 264.827 L 291.9 263.883 L 292.95 262.933 L 294 261.975 L 295.05 261.011 L 296.1 260.04 L 297.15 259.062 L 298.2 258.077 L 299.25 257.084 L 300.3 256.085 L 301.35 255.077 L 302.4 254.062 L 303.45 253.04 L 304.5 252.01 L 305.55 250.971 L 306.6 249.925 L 307.65 248.871 L 308.7 247.808 L 309.75 246.737 L 310.8 245.657 L 311.85 244.568 L 312.9 243.471 L 313.95 242.365 L 315 241.25 L 316.05 240.125 L 317.1 238.991 L 318.15 237.847 L 319.2 236.694 L 320.25 235.53 L 321.3 234.357 L 322.35 233.173 L 323.4 231.979 L 324.45 230.774 L 325.5 229.558 L 326.55 228.331 L 327.6 227.093 L 328.65 225.843 L 329.7 224.582 L 330.75 223.309 L 331.8 222.024 L 332.85 220.727 L 333.9 219.417 L 334.95 218.094 L 336 216.758 L 337.05 215.408 L 338.1 214.045 L 339.15 212.669 L 340.2 211.278 L 341.25 209.872 L 342.3 208.452 L 343.35 207.017 L 344.4 205.566 L 345.45 204.099 L 346.5 202.617 L 347.55 201.118 L 348.6 199.602 L 349.65 198.069 L 350.7 196.518 L 351.75 194.949 L 352.8 193.362 L 353.85 191.756 L 354.9 190.131 L 355.95 188.486 L 357 186.821 L 358.05 185.135 L 359.1 183.427 L 360.15 181.698 L 361.2 179.946 L 362.25 178.171 L 363.3 176.373 L 364.35 174.55 L 365.4 172.703 L 366.45 170.83 L 367.5 168.93 L 368.55 167.004 L 369.6 165.049 L 370.65 163.066 L 371.7 161.054 L 372.75 159.01 L 373.8 156.936 L 374.85 154.829 L 375.9 152.689 L 376.95 150.514 L 378 148.304 L 379.05 146.057 L 380.1 143.772 L 381.15 141.448 L 382.2 139.083 L 383.25 136.676 L 384.3 134.225 L 385.35 131.729 L 386.4 129.186 L 387.45 126.594 L 388.5 123.951 L 389.55 121.256 L 390.6 118.506 L 391.65 115.699 L 392.7 112.832 L 393.75 109.903 L 394.8 106.909 L 395.85 103.847 L 396.9 100.714 L 397.95 97.5072 L 399 94.2221 L 400.05 90.8551 L 401.1 87.4021 L 402.15 83.8584 L 403.2 80.2194 L 404.25 76.4796 L 405.3 72.6333 L 406.35 68.6743 L 407.4 64.5957 L 408.45 60.3902 L 409.5 56.0496 L 410.55 51.5649 L 411.6 46.9262 L 412.65 42.1225 L 413.7 37.1418 L 414.75 31.9703 L 415.8 26.593 L 416.85 20.9928 L 417.9 15.1504 L 418.95 9.04386 L 420 2.64819');"/></g><g class="year" style="font-family:sans;font-style:italic;height:auto;overflow-x:visible;overflow-y:visible;width:auto;perspective-origin:0px 0px;transform-origin:0px 0px;fill:rgb(0, 0, 255);stroke:rgb(0, 0, 255);stroke-linecap:round;stroke-linejoin:round;stroke-width:1.5px;"><path class="line" fill="none" d="M0,410L1.05,409.81544778459073L2.1,409.6304347518577L3.1500000000000004,409.4449585947651L4.2,409.2590169889089L5.25,409.07260759234174L6.3,408.8857280453961L7.3500000000000005,408.69837597050514L8.4,408.5105489720211L9.450000000000001,408.32224463603154L10.5,408.1334605301732L11.55,407.9441942034434L12.6,407.75444318600927L13.65,407.56420498901423L14.700000000000001,407.3734771043822L15.750000000000002,407.18225700461903L16.8,406.9905421426119L17.85,406.7983299514252L18.900000000000002,406.60561784409487L19.95,406.4124032134191L21,406.2186834317468L22.05,406.0244558507634L23.1,405.8297178012731L24.150000000000002,405.6344665929794L25.2,405.43869951426154L26.25,405.2424138319491L27.3,405.0456067910924L28.35,404.848275614731L29.400000000000002,404.65041750365856L30.450000000000003,404.45202963618414L31.500000000000004,404.25310916789135L32.55,404.05365323139324L33.6,403.85365893608446L34.65,403.65312336788975L35.7,403.4520435890095L36.75,403.25041663766115L37.800000000000004,403.04823952781766L38.85,402.845509248942L39.9,402.6422227657184L40.95,402.43837701777943L42,402.23396891942974L43.050000000000004,402.02899535936575L44.1,401.8234532003913L45.15,401.61733927912996L46.2,401.41065040573255L47.25,401.20338336358105L48.300000000000004,400.99553490898825L49.35,400.7871017708931L50.4,400.57808065055207L51.449999999999996,400.36846822122556L52.5,400.1582611278603L53.550000000000004,399.9474559867674L54.6,399.7360493852952L55.65000000000001,399.5240378814978L56.70000000000002,399.31141800379925L57.75000000000003,399.0981862506518L58.800000000000026,398.8843390901905L59.85000000000003,398.6698729598819L60.90000000000004,398.4547842661679L61.950000000000045,398.23906938410454L63.00000000000006,398.0227246569956L64.05000000000005,397.80574639602037L65.10000000000005,397.58813087985635L66.15000000000008,397.3698743542966L67.20000000000007,397.15097303186064L68.25000000000009,396.9314230914005L69.30000000000008,396.71122067770017L70.35000000000008,396.4903619010697L71.4000000000001,396.2688428369327L72.4500000000001,396.04665952540824L73.50000000000011,395.82380797088547L74.55000000000011,395.6002841415933L75.60000000000012,395.3760839691621L76.65000000000012,395.1512033481797L77.70000000000013,394.92563813574026L78.75000000000014,394.69938415098613L79.80000000000014,394.47243717464335L80.85000000000015,394.244792948549L81.90000000000015,394.0164471751722L82.95000000000016,393.787395517127L84.00000000000017,393.55763359667833L85.05000000000017,393.3271569952399L86.10000000000018,393.09596125286413L87.15000000000018,392.86404186772455L88.20000000000019,392.6313942955898L89.2500000000002,392.39801394928924L90.3000000000002,392.16389619817016L91.35000000000021,391.92903636754704L92.4000000000002,391.6934297381407L93.45000000000022,391.4570715455099L94.50000000000023,391.21995697947307L95.55000000000022,390.9820811835208L96.60000000000024,390.74343925421914L97.65000000000023,390.50402624060314L98.70000000000024,390.2638371435604L99.75000000000026,390.02286691520493L100.80000000000025,389.78111045824033L101.85000000000026,389.53856262531315L102.90000000000026,389.29521821835505L103.95000000000027,389.05107198791444L105.00000000000028,388.80611863247714L106.05000000000028,388.5603527977754L107.10000000000028,388.3137690760858L108.15000000000028,388.0663620055153L109.20000000000026,387.81812606927537L110.25000000000026,387.56905569494353L111.30000000000027,387.3191452537134L112.35000000000024,387.0683890596307L113.40000000000025,386.81678136881766L114.45000000000024,386.5643163786832L115.50000000000024,386.31098822712005L116.55000000000022,386.05679099168816L117.60000000000022,385.8017186887837L118.65000000000022,385.54576527279403L119.7000000000002,385.28892463523806L120.7500000000002,385.03119060389133L121.8000000000002,384.77255694189614L122.85000000000018,384.51301734685575L123.90000000000018,384.25256544991316L124.95000000000019,383.9911948148133L126.00000000000018,383.72889893694844L127.05000000000015,383.46567124238726L128.10000000000016,383.20150508688585L129.15000000000015,382.9363937548817L130.20000000000013,382.67033045846915L131.25000000000014,382.4033083363567L132.30000000000015,382.1353204528053L133.35000000000014,381.86635979654716L134.40000000000012,381.5964192796854L135.45000000000013,381.32549173657327L136.5000000000001,381.0535699226725L137.5500000000001,380.7806465133914L138.6000000000001,380.5067141029005L139.6500000000001,380.2317652029273L140.70000000000007,379.95579224152755L141.75000000000009,379.67878756183427L142.80000000000007,379.40074342078293L143.85000000000008,379.121651987813L144.90000000000006,378.8415053435442L145.95000000000005,378.5602954784287L147.00000000000006,378.27801429137673L148.05000000000004,377.99465358835624L149.10000000000005,377.71020508096586L150.15000000000003,377.42466038498026L151.20000000000005,377.13801101886685L152.25000000000003,376.8502484022748L153.3,376.5613638544935L154.35000000000002,376.2713485928813L155.4,375.9801937312635L156.45,375.68789027829877L157.5,375.39442913581263L158.54999999999998,375.0998010970987L159.59999999999997,374.80399684518517L160.64999999999998,374.50700695106724L161.7,374.2088218719034L162.74999999999997,373.909431949176L163.79999999999995,373.60882740681336L164.84999999999997,373.3069983492751L165.89999999999995,373.003934759597L166.94999999999993,372.6996264973964L167.99999999999994,372.3940632968365L169.04999999999995,372.0872347645481L170.0999999999999,371.7791303775085L171.14999999999992,371.469739480876L172.19999999999993,371.1590512857789L173.2499999999999,370.847054867058L174.2999999999999,370.5337391609616L175.3499999999999,370.21909296279125L176.39999999999986,369.9031049244972L177.44999999999987,369.58576355222306L178.4999999999999,369.26705720379675L179.54999999999987,368.9469740861677L180.59999999999985,368.6255022527887L181.64999999999986,368.3026296009402L182.69999999999985,367.97834386899626L183.74999999999983,367.65263263363073L184.79999999999984,367.3254833069611L185.84999999999985,366.9968831336294L186.8999999999998,366.66681918781865L187.94999999999982,366.33527837020097L188.99999999999983,366.0022474048191L190.0499999999998,365.6677128358958L191.0999999999998,365.33166102457204L192.1499999999998,364.99407814557026L193.1999999999998,364.65495018378147L194.24999999999977,364.31426293077413L195.29999999999978,363.972001981222L196.34999999999977,363.62815272924894L197.39999999999978,363.2827003646897L198.44999999999976,362.9356298692612L199.49999999999974,362.5869260126457L200.54999999999976,362.23657334847974L201.59999999999974,361.8845562102491L202.64999999999975,361.53085870708475L203.69999999999973,361.17546471945866L204.74999999999972,360.8183578947755L205.79999999999973,360.45952164285785L206.8499999999997,360.09893913132146L207.89999999999972,359.73659328083727L208.9499999999997,359.37246676027735L209.9999999999997,359.0065419817405L211.0499999999997,358.63880109545516L212.0999999999997,358.2692259845541L213.14999999999975,357.8977982597194L214.19999999999976,357.52449925369154L215.2499999999998,357.14931001563974L216.2999999999998,356.77221130538965L217.3499999999998,356.3931835875022L218.3999999999998,356.01220702520163L219.44999999999985,355.62926147414527L220.49999999999986,355.2443264760325L221.5499999999999,354.85738125204637L222.5999999999999,354.468404696123L223.64999999999995,354.07737536804376L224.69999999999993,353.6842714863436L225.74999999999994,353.28907092103117L226.79999999999995,352.89175118611263L227.85,352.4922894319149L228.9,352.09066243720036L229.95000000000005,351.6868466010667L231.00000000000006,351.2808179346249L232.05000000000004,350.87255205244827L233.10000000000008,350.4620241637838L234.1500000000001,350.04920906351936L235.2000000000001,349.6340811228979L236.25000000000014,349.2166142799695L237.30000000000015,348.7967820297734L238.3500000000002,348.37455741424L239.40000000000018,347.9499130118038L240.4500000000002,347.5228209267168L241.50000000000023,347.093252778052L242.55000000000024,346.6611796883864L243.60000000000025,346.22657227215245L244.6500000000003,345.78940062364484L245.70000000000027,345.34963430467286L246.75000000000028,344.9072423318426L247.80000000000032,344.4621931634585L248.85000000000034,344.01445468602816L249.90000000000038,343.5639942003577L250.9500000000004,343.1107784072212L252.0000000000004,342.6547733925897L253.05000000000038,342.19594461240246L254.10000000000042,341.73425687686426L255.15000000000043,341.26967433424954L256.20000000000044,340.80216045419667L257.2500000000005,340.331678010471L258.3000000000005,339.8581890631775L259.35000000000053,339.38165494040146L260.4000000000005,338.90203621925457L261.45000000000056,338.4192927063044L262.50000000000057,337.93338341736114L263.5500000000006,337.444266556598L264.6000000000006,336.9518994949772L265.65000000000066,336.4562387479552L266.70000000000067,335.957239952436L267.7500000000006,335.4548578429444L268.80000000000064,334.94904622698533L269.8500000000007,334.4397579595559L270.9000000000007,333.92694491677645L271.9500000000007,333.41055796860206L273.00000000000074,332.8905469505765L274.0500000000008,332.3668606345883L275.10000000000076,331.8394466985856L276.1500000000008,331.3082516952059L277.2000000000008,330.77322101927246L278.25000000000085,330.2342988741096L279.30000000000086,329.6914282366231L280.3500000000009,329.1445508210925L281.40000000000083,328.5936070416168L282.4500000000009,328.0385359731541L283.5000000000009,327.47927531109013L284.5500000000009,326.9157613292698L285.60000000000093,326.34792883642046L286.650000000001,325.7757111308924L287.700000000001,325.19903995363825L288.75000000000097,324.617845439348L289.800000000001,324.0320560656525L290.85000000000105,323.441598600303L291.90000000000106,322.8463980462291L292.95000000000107,322.2463775843719L294.0000000000011,321.6414585141838L295.05000000000115,321.03156019167926L296.1000000000011,320.416599964915L297.1500000000011,319.7964931067695L298.2000000000011,319.1711527448872L299.2500000000012,318.5404897886398L300.3000000000012,317.9044128529533L301.3500000000012,317.26282817883714L302.4000000000012,316.6156395504418L303.45000000000124,315.9627482084629L304.50000000000125,315.30405275969565L305.55000000000126,314.6394490825327L306.6000000000013,313.968830228186L307.65000000000134,313.2920863173969L308.70000000000135,312.60910443238595L309.75000000000136,311.9197685037765L310.8000000000014,311.22395919220855L311.8500000000014,310.5215537643415L312.9000000000014,309.8124259629225L313.9500000000014,309.09644587057744L315.0000000000014,308.3734797669565L316.0500000000015,307.6433899788417L317.10000000000144,306.9060347227951L318.15000000000146,306.16126793989963L319.2000000000015,305.4089391221096L320.25000000000153,304.64889312969376L321.30000000000155,303.8809699992195L322.35000000000156,303.1050047414805L323.40000000000157,302.3208271287325L324.4500000000016,301.52826147054793L325.5000000000016,300.72712637755353L326.5500000000016,299.9172345122548L327.60000000000167,299.0983923260917L328.6500000000017,298.2703997818009L329.7000000000017,297.43305006009143L330.7500000000017,296.586129249554L331.8000000000017,295.72941601864363L332.8500000000017,294.8626812684758L333.90000000000174,293.9856877650744L334.95000000000175,293.0981897495937L336.0000000000018,292.1999325249136L337.05000000000183,291.2906520168662L338.10000000000184,290.3700743082047L339.1500000000018,289.4379151432554L340.20000000000186,288.49387940101246L341.2500000000019,287.5376605342312L342.3000000000019,286.5689399718523L343.3500000000019,285.58738648184317L344.4000000000019,284.59265549126667L345.450000000002,283.5843883600852L346.50000000000193,282.5622116048701L347.55000000000194,281.5257360682122L348.600000000002,280.47455602921036L349.650000000002,279.4082482499503L350.70000000000203,278.32637095236464L351.75000000000205,277.228462719286L352.80000000000206,276.1140413128487L353.85000000000207,274.98260240266893L354.9000000000021,273.8336181954046L355.9500000000021,272.6665359563773L357.00000000000216,271.48077641288717L358.05000000000217,270.2757320276793L359.1000000000022,269.05076512967486L360.15000000000214,267.80520588757327L361.2000000000022,266.5383501102009L362.2500000000022,265.24945685552245L363.3000000000022,263.9377458279894L364.35000000000224,262.60239454133216L365.4000000000023,261.2425352209665L366.4500000000023,259.8572514167974L367.5000000000023,258.4455742933127L368.5500000000023,257.0064785593502L369.60000000000235,255.53887799471207L370.65000000000236,254.04162052473538L371.7000000000024,252.51348278687243L372.7500000000024,250.95316412508183L373.80000000000246,249.35927993816534L374.8500000000024,247.7303542968122L375.9000000000024,246.06481173070048L376.95000000000243,244.36096807111767L378.0000000000025,242.61702021568962L379.0500000000025,240.8310346592869L380.1000000000025,239.00093460821284L381.15000000000254,237.12448546234043L382.20000000000255,235.19927841068997L383.25000000000256,233.22271183839507L384.30000000000257,231.1919701850327L385.3500000000026,229.10399982324944L386.40000000000265,226.95548143907715L387.45000000000266,224.74279828687654L388.5000000000026,222.46199955666188L389.5500000000026,220.10875792201634L390.6000000000027,217.67832012273374L391.6500000000027,215.1654491641451L392.7000000000027,212.56435636640134L393.75000000000273,209.86862104675055L394.8000000000028,207.0710950314955L395.85000000000275,204.16378842376756L396.90000000000276,201.13773203069246L397.9500000000028,197.9828104823116L399.00000000000284,194.68755821499386L400.05000000000285,191.238907939213L401.10000000000286,187.62187766041262L402.1500000000029,183.81917731045573L403.2000000000029,179.8107088636726L404.2500000000029,175.5729233355135L405.3000000000029,171.07798249176423L406.3500000000029,166.29264946417948L407.400000000003,161.17679575101738L408.450000000003,155.68135351706232L409.500000000003,149.74544589075248L410.550000000003,143.29226445252783L411.60000000000304,136.22297426771723L412.65000000000305,128.4073929846815L413.70000000000306,119.66914989700365L414.75000000000307,109.76086842651824L415.80000000000314,98.32005575857579L416.85000000000315,84.78433011837598L417.9000000000031,68.21061139598294L418.9500000000032,46.828324419487785L420.0000000000032,16.652360601298255" style="font-family:sans;font-style:italic;height:auto;overflow-x:visible;overflow-y:visible;width:auto;perspective-origin:0px 0px;transform-origin:0px 0px;fill:none;stroke:rgb(0, 0, 255);stroke-linecap:round;stroke-linejoin:round;stroke-width:1.5px;d:path('M 0 410 L 1.05 409.815 L 2.1 409.63 L 3.15 409.445 L 4.2 409.259 L 5.25 409.073 L 6.3 408.886 L 7.35 408.698 L 8.4 408.511 L 9.45 408.322 L 10.5 408.133 L 11.55 407.944 L 12.6 407.754 L 13.65 407.564 L 14.7 407.373 L 15.75 407.182 L 16.8 406.991 L 17.85 406.798 L 18.9 406.606 L 19.95 406.412 L 21 406.219 L 22.05 406.024 L 23.1 405.83 L 24.15 405.634 L 25.2 405.439 L 26.25 405.242 L 27.3 405.046 L 28.35 404.848 L 29.4 404.65 L 30.45 404.452 L 31.5 404.253 L 32.55 404.054 L 33.6 403.854 L 34.65 403.653 L 35.7 403.452 L 36.75 403.25 L 37.8 403.048 L 38.85 402.846 L 39.9 402.642 L 40.95 402.438 L 42 402.234 L 43.05 402.029 L 44.1 401.823 L 45.15 401.617 L 46.2 401.411 L 47.25 401.203 L 48.3 400.996 L 49.35 400.787 L 50.4 400.578 L 51.45 400.368 L 52.5 400.158 L 53.55 399.947 L 54.6 399.736 L 55.65 399.524 L 56.7 399.311 L 57.75 399.098 L 58.8 398.884 L 59.85 398.67 L 60.9 398.455 L 61.95 398.239 L 63 398.023 L 64.05 397.806 L 65.1 397.588 L 66.15 397.37 L 67.2 397.151 L 68.25 396.931 L 69.3 396.711 L 70.35 396.49 L 71.4 396.269 L 72.45 396.047 L 73.5 395.824 L 74.55 395.6 L 75.6 395.376 L 76.65 395.151 L 77.7 394.926 L 78.75 394.699 L 79.8 394.472 L 80.85 394.245 L 81.9 394.016 L 82.95 393.787 L 84 393.558 L 85.05 393.327 L 86.1 393.096 L 87.15 392.864 L 88.2 392.631 L 89.25 392.398 L 90.3 392.164 L 91.35 391.929 L 92.4 391.693 L 93.45 391.457 L 94.5 391.22 L 95.55 390.982 L 96.6 390.743 L 97.65 390.504 L 98.7 390.264 L 99.75 390.023 L 100.8 389.781 L 101.85 389.539 L 102.9 389.295 L 103.95 389.051 L 105 388.806 L 106.05 388.56 L 107.1 388.314 L 108.15 388.066 L 109.2 387.818 L 110.25 387.569 L 111.3 387.319 L 112.35 387.068 L 113.4 386.817 L 114.45 386.564 L 115.5 386.311 L 116.55 386.057 L 117.6 385.802 L 118.65 385.546 L 119.7 385.289 L 120.75 385.031 L 121.8 384.773 L 122.85 384.513 L 123.9 384.253 L 124.95 383.991 L 126 383.729 L 127.05 383.466 L 128.1 383.202 L 129.15 382.936 L 130.2 382.67 L 131.25 382.403 L 132.3 382.135 L 133.35 381.866 L 134.4 381.596 L 135.45 381.326 L 136.5 381.054 L 137.55 380.781 L 138.6 380.507 L 139.65 380.232 L 140.7 379.956 L 141.75 379.679 L 142.8 379.401 L 143.85 379.122 L 144.9 378.841 L 145.95 378.56 L 147 378.278 L 148.05 377.995 L 149.1 377.71 L 150.15 377.425 L 151.2 377.138 L 152.25 376.85 L 153.3 376.561 L 154.35 376.271 L 155.4 375.98 L 156.45 375.688 L 157.5 375.394 L 158.55 375.1 L 159.6 374.804 L 160.65 374.507 L 161.7 374.209 L 162.75 373.909 L 163.8 373.609 L 164.85 373.307 L 165.9 373.004 L 166.95 372.7 L 168 372.394 L 169.05 372.087 L 170.1 371.779 L 171.15 371.47 L 172.2 371.159 L 173.25 370.847 L 174.3 370.534 L 175.35 370.219 L 176.4 369.903 L 177.45 369.586 L 178.5 369.267 L 179.55 368.947 L 180.6 368.625 L 181.65 368.303 L 182.7 367.978 L 183.75 367.653 L 184.8 367.325 L 185.85 366.997 L 186.9 366.667 L 187.95 366.335 L 189 366.002 L 190.05 365.668 L 191.1 365.332 L 192.15 364.994 L 193.2 364.655 L 194.25 364.314 L 195.3 363.972 L 196.35 363.628 L 197.4 363.283 L 198.45 362.936 L 199.5 362.587 L 200.55 362.237 L 201.6 361.885 L 202.65 361.531 L 203.7 361.175 L 204.75 360.818 L 205.8 360.46 L 206.85 360.099 L 207.9 359.737 L 208.95 359.372 L 210 359.007 L 211.05 358.639 L 212.1 358.269 L 213.15 357.898 L 214.2 357.525 L 215.25 357.149 L 216.3 356.772 L 217.35 356.393 L 218.4 356.012 L 219.45 355.629 L 220.5 355.244 L 221.55 354.857 L 222.6 354.468 L 223.65 354.077 L 224.7 353.684 L 225.75 353.289 L 226.8 352.892 L 227.85 352.492 L 228.9 352.091 L 229.95 351.687 L 231 351.281 L 232.05 350.873 L 233.1 350.462 L 234.15 350.049 L 235.2 349.634 L 236.25 349.217 L 237.3 348.797 L 238.35 348.375 L 239.4 347.95 L 240.45 347.523 L 241.5 347.093 L 242.55 346.661 L 243.6 346.227 L 244.65 345.789 L 245.7 345.35 L 246.75 344.907 L 247.8 344.462 L 248.85 344.014 L 249.9 343.564 L 250.95 343.111 L 252 342.655 L 253.05 342.196 L 254.1 341.734 L 255.15 341.27 L 256.2 340.802 L 257.25 340.332 L 258.3 339.858 L 259.35 339.382 L 260.4 338.902 L 261.45 338.419 L 262.5 337.933 L 263.55 337.444 L 264.6 336.952 L 265.65 336.456 L 266.7 335.957 L 267.75 335.455 L 268.8 334.949 L 269.85 334.44 L 270.9 333.927 L 271.95 333.411 L 273 332.891 L 274.05 332.367 L 275.1 331.839 L 276.15 331.308 L 277.2 330.773 L 278.25 330.234 L 279.3 329.691 L 280.35 329.145 L 281.4 328.594 L 282.45 328.039 L 283.5 327.479 L 284.55 326.916 L 285.6 326.348 L 286.65 325.776 L 287.7 325.199 L 288.75 324.618 L 289.8 324.032 L 290.85 323.442 L 291.9 322.846 L 292.95 322.246 L 294 321.641 L 295.05 321.032 L 296.1 320.417 L 297.15 319.796 L 298.2 319.171 L 299.25 318.54 L 300.3 317.904 L 301.35 317.263 L 302.4 316.616 L 303.45 315.963 L 304.5 315.304 L 305.55 314.639 L 306.6 313.969 L 307.65 313.292 L 308.7 312.609 L 309.75 311.92 L 310.8 311.224 L 311.85 310.522 L 312.9 309.812 L 313.95 309.096 L 315 308.373 L 316.05 307.643 L 317.1 306.906 L 318.15 306.161 L 319.2 305.409 L 320.25 304.649 L 321.3 303.881 L 322.35 303.105 L 323.4 302.321 L 324.45 301.528 L 325.5 300.727 L 326.55 299.917 L 327.6 299.098 L 328.65 298.27 L 329.7 297.433 L 330.75 296.586 L 331.8 295.729 L 332.85 294.863 L 333.9 293.986 L 334.95 293.098 L 336 292.2 L 337.05 291.291 L 338.1 290.37 L 339.15 289.438 L 340.2 288.494 L 341.25 287.538 L 342.3 286.569 L 343.35 285.587 L 344.4 284.593 L 345.45 283.584 L 346.5 282.562 L 347.55 281.526 L 348.6 280.475 L 349.65 279.408 L 350.7 278.326 L 351.75 277.228 L 352.8 276.114 L 353.85 274.983 L 354.9 273.834 L 355.95 272.667 L 357 271.481 L 358.05 270.276 L 359.1 269.051 L 360.15 267.805 L 361.2 266.538 L 362.25 265.249 L 363.3 263.938 L 364.35 262.602 L 365.4 261.243 L 366.45 259.857 L 367.5 258.446 L 368.55 257.006 L 369.6 255.539 L 370.65 254.042 L 371.7 252.513 L 372.75 250.953 L 373.8 249.359 L 374.85 247.73 L 375.9 246.065 L 376.95 244.361 L 378 242.617 L 379.05 240.831 L 380.1 239.001 L 381.15 237.124 L 382.2 235.199 L 383.25 233.223 L 384.3 231.192 L 385.35 229.104 L 386.4 226.955 L 387.45 224.743 L 388.5 222.462 L 389.55 220.109 L 390.6 217.678 L 391.65 215.165 L 392.7 212.564 L 393.75 209.869 L 394.8 207.071 L 395.85 204.164 L 396.9 201.138 L 397.95 197.983 L 399 194.688 L 400.05 191.239 L 401.1 187.622 L 402.15 183.819 L 403.2 179.811 L 404.25 175.573 L 405.3 171.078 L 406.35 166.293 L 407.4 161.177 L 408.45 155.681 L 409.5 149.745 L 410.55 143.292 L 411.6 136.223 L 412.65 128.407 L 413.7 119.669 L 414.75 109.761 L 415.8 98.3201 L 416.85 84.7843 L 417.9 68.2106 L 418.95 46.8283 L 420 16.6524');"/></g><g class="gridLine" style="font-family:sans;font-style:italic;height:auto;overflow-x:visible;overflow-y:visible;width:auto;perspective-origin:0px 0px;transform-origin:0px 0px;stroke:rgb(0, 0, 255);stroke-linecap:round;stroke-linejoin:round;stroke-opacity:0.25;stroke-width:1.5px;"><g class="x" style="font-family:sans;font-style:italic;height:auto;overflow-x:visible;overflow-y:visible;width:auto;perspective-origin:0px 0px;transform-origin:0px 0px;stroke:rgb(0, 0, 255);stroke-linecap:round;stroke-linejoin:round;stroke-opacity:0.25;stroke-width:1.5px;"><line x1="420.42042042042044" y1="0" x2="420.42042042042044" y2="410" style="font-family:sans;font-style:italic;height:auto;overflow-x:visible;overflow-y:visible;width:auto;perspective-origin:0px 0px;transform-origin:0px 0px;stroke:rgb(0, 0, 255);stroke-linecap:round;stroke-linejoin:round;stroke-opacity:0.25;stroke-width:1.5px;"/></g></g><g class="label" transform="translate(273.2732732732733,246)" style="font-family:sans;font-style:italic;height:auto;overflow-x:visible;overflow-y:visible;width:auto;perspective-origin:0px 0px;transform:matrix(1, 0, 0, 1, 273.273, 246);transform-origin:0px 0px;fill:rgb(0, 0, 128);stroke-linecap:round;stroke-linejoin:round;stroke-width:0px;"><text class="week" transform="rotate(-45)" style="display:block;font-family:sans;font-style:italic;height:auto;overflow-x:visible;overflow-y:visible;white-space:nowrap;width:auto;perspective-origin:30.7188px 0px;transform:matrix(0.707107, -0.707107, 0.707107, 0.707107, 0, 0);transform-origin:0px 0px;fill:rgb(0, 100, 0);stroke:rgb(0, 100, 0);stroke-linecap:round;stroke-linejoin:round;stroke-width:0px;"></text></g><g class="label" transform="translate(294.2942942942943,287)" style="font-family:sans;font-style:italic;height:auto;overflow-x:visible;overflow-y:visible;width:auto;perspective-origin:0px 0px;transform:matrix(1, 0, 0, 1, 294.294, 287);transform-origin:0px 0px;fill:rgb(0, 0, 128);stroke-linecap:round;stroke-linejoin:round;stroke-width:0px;"><text class="month" transform="rotate(-45)" style="display:block;font-family:sans;font-style:italic;height:auto;overflow-x:visible;overflow-y:visible;white-space:nowrap;width:auto;perspective-origin:25.6562px 0px;transform:matrix(0.707107, -0.707107, 0.707107, 0.707107, 0, 0);transform-origin:0px 0px;fill:rgb(205, 92, 92);stroke:rgb(205, 92, 92);stroke-linecap:round;stroke-linejoin:round;stroke-width:0px;"></text></g><g class="label" transform="translate(346.8468468468468,307.5)" style="font-family:sans;font-style:italic;height:auto;overflow-x:visible;overflow-y:visible;width:auto;perspective-origin:0px 0px;transform:matrix(1, 0, 0, 1, 346.847, 307.5);transform-origin:0px 0px;fill:rgb(0, 0, 128);stroke-linecap:round;stroke-linejoin:round;stroke-width:0px;"><text class="year" transform="rotate(-45)" style="display:block;font-family:sans;font-style:italic;height:auto;overflow-x:visible;overflow-y:visible;white-space:nowrap;width:auto;perspective-origin:14.5938px 0px;transform:matrix(0.707107, -0.707107, 0.707107, 0.707107, 0, 0);transform-origin:0px 0px;fill:rgb(0, 0, 255);stroke:rgb(0, 0, 255);stroke-linecap:round;stroke-linejoin:round;stroke-width:0px;"></text></g><g class="label" transform="translate(416.2162162162162,369)" style="font-family:sans;font-style:italic;height:auto;overflow-x:visible;overflow-y:visible;width:auto;perspective-origin:0px 0px;transform:matrix(1, 0, 0, 1, 416.216, 369);transform-origin:0px 0px;fill:rgb(0, 0, 128);stroke-linecap:round;stroke-linejoin:round;stroke-width:0px;"><text class="gridLineLabel" transform="rotate(-90)" style="display:block;font-family:sans;font-style:italic;height:auto;overflow-x:visible;overflow-y:visible;white-space:nowrap;width:auto;perspective-origin:35.6875px 0px;transform:matrix(6.12323e-17, -1, 1, 6.12323e-17, 0, 0);transform-origin:0px 0px;fill:rgb(135, 206, 235);stroke-linecap:round;stroke-linejoin:round;stroke-width:0px;"></text></g></g><g class="axis" style="font-family:sans;font-size:14px;font-style:italic;height:auto;overflow-x:visible;overflow-y:visible;width:auto;perspective-origin:0px 0px;transform-origin:0px 0px;stroke-width:1.25px;"><g class="x" fill="none" font-size="10" font-family="sans-serif" text-anchor="middle" transform="translate(60,441)" style="font-family:sans-serif;font-size:10px;font-style:italic;height:auto;overflow-x:visible;overflow-y:visible;width:auto;perspective-origin:0px 0px;transform:matrix(1, 0, 0, 1, 60, 441);transform-origin:0px 0px;fill:none;stroke-width:1.25px;text-anchor:middle;"><path class="domain" stroke="#000" d="M0.5,6V0.5H420.5V6" style="font-family:sans-serif;font-size:10px;font-style:italic;height:auto;overflow-x:visible;overflow-y:visible;width:auto;perspective-origin:0px 0px;transform-origin:0px 0px;fill:none;stroke:rgb(0, 0, 0);stroke-width:1.25px;text-anchor:middle;d:path('M 0.5 6 V 0.5 H 420.5 V 6');"/><g class="tick" opacity="1" transform="translate(0.5,0)" style="font-family:sans;font-size:13px;font-style:italic;height:auto;overflow-x:visible;overflow-y:visible;width:auto;perspective-origin:0px 0px;transform:matrix(1, 0, 0, 1, 0.5, 0);transform-origin:0px 0px;fill:none;stroke-width:1.25px;text-anchor:middle;"><line stroke="#000" y2="6" style="font-family:sans;font-size:13px;font-style:italic;height:auto;overflow-x:visible;overflow-y:visible;width:auto;perspective-origin:0px 0px;transform-origin:0px 0px;fill:none;stroke:rgb(0, 0, 0);stroke-width:1.25px;text-anchor:middle;"/><text fill="#000" y="9" dy="0.71em" style="display:block;font-family:sans;font-size:13px;font-style:italic;height:auto;overflow-x:visible;overflow-y:visible;white-space:nowrap;width:auto;perspective-origin:-0.15625px 0px;transform-origin:0px 0px;stroke-width:1.25px;text-anchor:middle;">0%</text></g><g class="tick" opacity="1" transform="translate(42.54204204204204,0)" style="font-family:sans;font-size:13px;font-style:italic;height:auto;overflow-x:visible;overflow-y:visible;width:auto;perspective-origin:0px 0px;transform:matrix(1, 0, 0, 1, 42.542, 0);transform-origin:0px 0px;fill:none;stroke-width:1.25px;text-anchor:middle;"><line stroke="#000" y2="6" style="font-family:sans;font-size:13px;font-style:italic;height:auto;overflow-x:visible;overflow-y:visible;width:auto;perspective-origin:0px 0px;transform-origin:0px 0px;fill:none;stroke:rgb(0, 0, 0);stroke-width:1.25px;text-anchor:middle;"/><text fill="#000" y="9" dy="0.71em" style="display:block;font-family:sans;font-size:13px;font-style:italic;height:auto;overflow-x:visible;overflow-y:visible;white-space:nowrap;width:auto;perspective-origin:-0.171875px 0px;transform-origin:0px 0px;stroke-width:1.25px;text-anchor:middle;">10%</text></g><g class="tick" opacity="1" transform="translate(84.58408408408408,0)" style="font-family:sans;font-size:13px;font-style:italic;height:auto;overflow-x:visible;overflow-y:visible;width:auto;perspective-origin:0px 0px;transform:matrix(1, 0, 0, 1, 84.5841, 0);transform-origin:0px 0px;fill:none;stroke-width:1.25px;text-anchor:middle;"><line stroke="#000" y2="6" style="font-family:sans;font-size:13px;font-style:italic;height:auto;overflow-x:visible;overflow-y:visible;width:auto;perspective-origin:0px 0px;transform-origin:0px 0px;fill:none;stroke:rgb(0, 0, 0);stroke-width:1.25px;text-anchor:middle;"/><text fill="#000" y="9" dy="0.71em" style="display:block;font-family:sans;font-size:13px;font-style:italic;height:auto;overflow-x:visible;overflow-y:visible;white-space:nowrap;width:auto;perspective-origin:-0.171875px 0px;transform-origin:0px 0px;stroke-width:1.25px;text-anchor:middle;">20%</text></g><g class="tick" opacity="1" transform="translate(126.62612612612612,0)" style="font-family:sans;font-size:13px;font-style:italic;height:auto;overflow-x:visible;overflow-y:visible;width:auto;perspective-origin:0px 0px;transform:matrix(1, 0, 0, 1, 126.626, 0);transform-origin:0px 0px;fill:none;stroke-width:1.25px;text-anchor:middle;"><line stroke="#000" y2="6" style="font-family:sans;font-size:13px;font-style:italic;height:auto;overflow-x:visible;overflow-y:visible;width:auto;perspective-origin:0px 0px;transform-origin:0px 0px;fill:none;stroke:rgb(0, 0, 0);stroke-width:1.25px;text-anchor:middle;"/><text fill="#000" y="9" dy="0.71em" style="display:block;font-family:sans;font-size:13px;font-style:italic;height:auto;overflow-x:visible;overflow-y:visible;white-space:nowrap;width:auto;perspective-origin:-0.171875px 0px;transform-origin:0px 0px;stroke-width:1.25px;text-anchor:middle;">30%</text></g><g class="tick" opacity="1" transform="translate(168.66816816816817,0)" style="font-family:sans;font-size:13px;font-style:italic;height:auto;overflow-x:visible;overflow-y:visible;width:auto;perspective-origin:0px 0px;transform:matrix(1, 0, 0, 1, 168.668, 0);transform-origin:0px 0px;fill:none;stroke-width:1.25px;text-anchor:middle;"><line stroke="#000" y2="6" style="font-family:sans;font-size:13px;font-style:italic;height:auto;overflow-x:visible;overflow-y:visible;width:auto;perspective-origin:0px 0px;transform-origin:0px 0px;fill:none;stroke:rgb(0, 0, 0);stroke-width:1.25px;text-anchor:middle;"/><text fill="#000" y="9" dy="0.71em" style="display:block;font-family:sans;font-size:13px;font-style:italic;height:auto;overflow-x:visible;overflow-y:visible;white-space:nowrap;width:auto;perspective-origin:-0.171875px 0px;transform-origin:0px 0px;stroke-width:1.25px;text-anchor:middle;">40%</text></g><g class="tick" opacity="1" transform="translate(210.71021021021022,0)" style="font-family:sans;font-size:13px;font-style:italic;height:auto;overflow-x:visible;overflow-y:visible;width:auto;perspective-origin:0px 0px;transform:matrix(1, 0, 0, 1, 210.71, 0);transform-origin:0px 0px;fill:none;stroke-width:1.25px;text-anchor:middle;"><line stroke="#000" y2="6" style="font-family:sans;font-size:13px;font-style:italic;height:auto;overflow-x:visible;overflow-y:visible;width:auto;perspective-origin:0px 0px;transform-origin:0px 0px;fill:none;stroke:rgb(0, 0, 0);stroke-width:1.25px;text-anchor:middle;"/><text fill="#000" y="9" dy="0.71em" style="display:block;font-family:sans;font-size:13px;font-style:italic;height:auto;overflow-x:visible;overflow-y:visible;white-space:nowrap;width:auto;perspective-origin:-0.171875px 0px;transform-origin:0px 0px;stroke-width:1.25px;text-anchor:middle;">50%</text></g><g class="tick" opacity="1" transform="translate(252.75225225225225,0)" style="font-family:sans;font-size:13px;font-style:italic;height:auto;overflow-x:visible;overflow-y:visible;width:auto;perspective-origin:0px 0px;transform:matrix(1, 0, 0, 1, 252.752, 0);transform-origin:0px 0px;fill:none;stroke-width:1.25px;text-anchor:middle;"><line stroke="#000" y2="6" style="font-family:sans;font-size:13px;font-style:italic;height:auto;overflow-x:visible;overflow-y:visible;width:auto;perspective-origin:0px 0px;transform-origin:0px 0px;fill:none;stroke:rgb(0, 0, 0);stroke-width:1.25px;text-anchor:middle;"/><text fill="#000" y="9" dy="0.71em" style="display:block;font-family:sans;font-size:13px;font-style:italic;height:auto;overflow-x:visible;overflow-y:visible;white-space:nowrap;width:auto;perspective-origin:-0.171875px 0px;transform-origin:0px 0px;stroke-width:1.25px;text-anchor:middle;">60%</text></g><g class="tick" opacity="1" transform="translate(294.7942942942943,0)" style="font-family:sans;font-size:13px;font-style:italic;height:auto;overflow-x:visible;overflow-y:visible;width:auto;perspective-origin:0px 0px;transform:matrix(1, 0, 0, 1, 294.794, 0);transform-origin:0px 0px;fill:none;stroke-width:1.25px;text-anchor:middle;"><line stroke="#000" y2="6" style="font-family:sans;font-size:13px;font-style:italic;height:auto;overflow-x:visible;overflow-y:visible;width:auto;perspective-origin:0px 0px;transform-origin:0px 0px;fill:none;stroke:rgb(0, 0, 0);stroke-width:1.25px;text-anchor:middle;"/><text fill="#000" y="9" dy="0.71em" style="display:block;font-family:sans;font-size:13px;font-style:italic;height:auto;overflow-x:visible;overflow-y:visible;white-space:nowrap;width:auto;perspective-origin:0.328125px 0px;transform-origin:0px 0px;stroke-width:1.25px;text-anchor:middle;">70%</text></g><g class="tick" opacity="1" transform="translate(336.83633633633633,0)" style="font-family:sans;font-size:13px;font-style:italic;height:auto;overflow-x:visible;overflow-y:visible;width:auto;perspective-origin:0px 0px;transform:matrix(1, 0, 0, 1, 336.836, 0);transform-origin:0px 0px;fill:none;stroke-width:1.25px;text-anchor:middle;"><line stroke="#000" y2="6" style="font-family:sans;font-size:13px;font-style:italic;height:auto;overflow-x:visible;overflow-y:visible;width:auto;perspective-origin:0px 0px;transform-origin:0px 0px;fill:none;stroke:rgb(0, 0, 0);stroke-width:1.25px;text-anchor:middle;"/><text fill="#000" y="9" dy="0.71em" style="display:block;font-family:sans;font-size:13px;font-style:italic;height:auto;overflow-x:visible;overflow-y:visible;white-space:nowrap;width:auto;perspective-origin:-0.171875px 0px;transform-origin:0px 0px;stroke-width:1.25px;text-anchor:middle;">80%</text></g><g class="tick" opacity="1" transform="translate(378.8783783783784,0)" style="font-family:sans;font-size:13px;font-style:italic;height:auto;overflow-x:visible;overflow-y:visible;width:auto;perspective-origin:0px 0px;transform:matrix(1, 0, 0, 1, 378.878, 0);transform-origin:0px 0px;fill:none;stroke-width:1.25px;text-anchor:middle;"><line stroke="#000" y2="6" style="font-family:sans;font-size:13px;font-style:italic;height:auto;overflow-x:visible;overflow-y:visible;width:auto;perspective-origin:0px 0px;transform-origin:0px 0px;fill:none;stroke:rgb(0, 0, 0);stroke-width:1.25px;text-anchor:middle;"/><text fill="#000" y="9" dy="0.71em" style="display:block;font-family:sans;font-size:13px;font-style:italic;height:auto;overflow-x:visible;overflow-y:visible;white-space:nowrap;width:auto;perspective-origin:-0.171875px 0px;transform-origin:0px 0px;stroke-width:1.25px;text-anchor:middle;">90%</text></g></g><g class="label" transform="translate(270,480)" style="font-family:sans;font-size:14px;font-style:italic;height:auto;overflow-x:visible;overflow-y:visible;width:auto;perspective-origin:0px 0px;transform:matrix(1, 0, 0, 1, 270, 480);transform-origin:0px 0px;stroke-width:0px;"><text dx="-152" style="display:block;font-family:sans;font-size:14px;font-style:italic;height:auto;overflow-x:visible;overflow-y:visible;white-space:nowrap;width:auto;perspective-origin:8.28125px 0px;transform-origin:0px 0px;stroke-width:0px;">,    </text></g><g class="y" fill="none" font-size="10" font-family="sans-serif" text-anchor="end" transform="translate(59,30)" style="font-family:sans-serif;font-size:10px;font-style:italic;height:auto;overflow-x:visible;overflow-y:visible;width:auto;perspective-origin:0px 0px;transform:matrix(1, 0, 0, 1, 59, 30);transform-origin:0px 0px;fill:none;stroke-width:1.25px;text-anchor:end;"><path class="domain" stroke="#000" d="M-6,410.5H0.5V0.5H-6" style="font-family:sans-serif;font-size:10px;font-style:italic;height:auto;overflow-x:visible;overflow-y:visible;width:auto;perspective-origin:0px 0px;transform-origin:0px 0px;fill:none;stroke:rgb(0, 0, 0);stroke-width:1.25px;text-anchor:end;d:path('M -6 410.5 H 0.5 V 0.5 H -6');"/><g class="tick" opacity="1" transform="translate(0,410.5)" style="font-family:sans;font-size:13px;font-style:italic;height:auto;overflow-x:visible;overflow-y:visible;width:auto;perspective-origin:0px 0px;transform:matrix(1, 0, 0, 1, 0, 410.5);transform-origin:0px 0px;fill:none;stroke-width:1.25px;text-anchor:end;"><line stroke="#000" x2="-6" style="font-family:sans;font-size:13px;font-style:italic;height:auto;overflow-x:visible;overflow-y:visible;width:auto;perspective-origin:0px 0px;transform-origin:0px 0px;fill:none;stroke:rgb(0, 0, 0);stroke-width:1.25px;text-anchor:end;"/><text fill="#000" x="-9" dy="0.32em" style="display:block;font-family:sans;font-size:13px;font-style:italic;height:auto;overflow-x:visible;overflow-y:visible;white-space:nowrap;width:auto;perspective-origin:-19.4688px 0px;transform-origin:0px 0px;stroke-width:1.25px;text-anchor:end;">0%</text></g><g class="tick" opacity="1" transform="translate(0,369.5)" style="font-family:sans;font-size:13px;font-style:italic;height:auto;overflow-x:visible;overflow-y:visible;width:auto;perspective-origin:0px 0px;transform:matrix(1, 0, 0, 1, 0, 369.5);transform-origin:0px 0px;fill:none;stroke-width:1.25px;text-anchor:end;"><line stroke="#000" x2="-6" style="font-family:sans;font-size:13px;font-style:italic;height:auto;overflow-x:visible;overflow-y:visible;width:auto;perspective-origin:0px 0px;transform-origin:0px 0px;fill:none;stroke:rgb(0, 0, 0);stroke-width:1.25px;text-anchor:end;"/><text fill="#000" x="-9" dy="0.32em" style="display:block;font-family:sans;font-size:13px;font-style:italic;height:auto;overflow-x:visible;overflow-y:visible;white-space:nowrap;width:auto;perspective-origin:-23.625px 0px;transform-origin:0px 0px;stroke-width:1.25px;text-anchor:end;">10%</text></g><g class="tick" opacity="1" transform="translate(0,328.5)" style="font-family:sans;font-size:13px;font-style:italic;height:auto;overflow-x:visible;overflow-y:visible;width:auto;perspective-origin:0px 0px;transform:matrix(1, 0, 0, 1, 0, 328.5);transform-origin:0px 0px;fill:none;stroke-width:1.25px;text-anchor:end;"><line stroke="#000" x2="-6" style="font-family:sans;font-size:13px;font-style:italic;height:auto;overflow-x:visible;overflow-y:visible;width:auto;perspective-origin:0px 0px;transform-origin:0px 0px;fill:none;stroke:rgb(0, 0, 0);stroke-width:1.25px;text-anchor:end;"/><text fill="#000" x="-9" dy="0.32em" style="display:block;font-family:sans;font-size:13px;font-style:italic;height:auto;overflow-x:visible;overflow-y:visible;white-space:nowrap;width:auto;perspective-origin:-23.625px 0px;transform-origin:0px 0px;stroke-width:1.25px;text-anchor:end;">20%</text></g><g class="tick" opacity="1" transform="translate(0,287.5)" style="font-family:sans;font-size:13px;font-style:italic;height:auto;overflow-x:visible;overflow-y:visible;width:auto;perspective-origin:0px 0px;transform:matrix(1, 0, 0, 1, 0, 287.5);transform-origin:0px 0px;fill:none;stroke-width:1.25px;text-anchor:end;"><line stroke="#000" x2="-6" style="font-family:sans;font-size:13px;font-style:italic;height:auto;overflow-x:visible;overflow-y:visible;width:auto;perspective-origin:0px 0px;transform-origin:0px 0px;fill:none;stroke:rgb(0, 0, 0);stroke-width:1.25px;text-anchor:end;"/><text fill="#000" x="-9" dy="0.32em" style="display:block;font-family:sans;font-size:13px;font-style:italic;height:auto;overflow-x:visible;overflow-y:visible;white-space:nowrap;width:auto;perspective-origin:-23.625px 0px;transform-origin:0px 0px;stroke-width:1.25px;text-anchor:end;">30%</text></g><g class="tick" opacity="1" transform="translate(0,246.5)" style="font-family:sans;font-size:13px;font-style:italic;height:auto;overflow-x:visible;overflow-y:visible;width:auto;perspective-origin:0px 0px;transform:matrix(1, 0, 0, 1, 0, 246.5);transform-origin:0px 0px;fill:none;stroke-width:1.25px;text-anchor:end;"><line stroke="#000" x2="-6" style="font-family:sans;font-size:13px;font-style:italic;height:auto;overflow-x:visible;overflow-y:visible;width:auto;perspective-origin:0px 0px;transform-origin:0px 0px;fill:none;stroke:rgb(0, 0, 0);stroke-width:1.25px;text-anchor:end;"/><text fill="#000" x="-9" dy="0.32em" style="display:block;font-family:sans;font-size:13px;font-style:italic;height:auto;overflow-x:visible;overflow-y:visible;white-space:nowrap;width:auto;perspective-origin:-23.625px 0px;transform-origin:0px 0px;stroke-width:1.25px;text-anchor:end;">40%</text></g><g class="tick" opacity="1" transform="translate(0,205.5)" style="font-family:sans;font-size:13px;font-style:italic;height:auto;overflow-x:visible;overflow-y:visible;width:auto;perspective-origin:0px 0px;transform:matrix(1, 0, 0, 1, 0, 205.5);transform-origin:0px 0px;fill:none;stroke-width:1.25px;text-anchor:end;"><line stroke="#000" x2="-6" style="font-family:sans;font-size:13px;font-style:italic;height:auto;overflow-x:visible;overflow-y:visible;width:auto;perspective-origin:0px 0px;transform-origin:0px 0px;fill:none;stroke:rgb(0, 0, 0);stroke-width:1.25px;text-anchor:end;"/><text fill="#000" x="-9" dy="0.32em" style="display:block;font-family:sans;font-size:13px;font-style:italic;height:auto;overflow-x:visible;overflow-y:visible;white-space:nowrap;width:auto;perspective-origin:-23.625px 0px;transform-origin:0px 0px;stroke-width:1.25px;text-anchor:end;">50%</text></g><g class="tick" opacity="1" transform="translate(0,164.5)" style="font-family:sans;font-size:13px;font-style:italic;height:auto;overflow-x:visible;overflow-y:visible;width:auto;perspective-origin:0px 0px;transform:matrix(1, 0, 0, 1, 0, 164.5);transform-origin:0px 0px;fill:none;stroke-width:1.25px;text-anchor:end;"><line stroke="#000" x2="-6" style="font-family:sans;font-size:13px;font-style:italic;height:auto;overflow-x:visible;overflow-y:visible;width:auto;perspective-origin:0px 0px;transform-origin:0px 0px;fill:none;stroke:rgb(0, 0, 0);stroke-width:1.25px;text-anchor:end;"/><text fill="#000" x="-9" dy="0.32em" style="display:block;font-family:sans;font-size:13px;font-style:italic;height:auto;overflow-x:visible;overflow-y:visible;white-space:nowrap;width:auto;perspective-origin:-23.625px 0px;transform-origin:0px 0px;stroke-width:1.25px;text-anchor:end;">60%</text></g><g class="tick" opacity="1" transform="translate(0,123.5)" style="font-family:sans;font-size:13px;font-style:italic;height:auto;overflow-x:visible;overflow-y:visible;width:auto;perspective-origin:0px 0px;transform:matrix(1, 0, 0, 1, 0, 123.5);transform-origin:0px 0px;fill:none;stroke-width:1.25px;text-anchor:end;"><line stroke="#000" x2="-6" style="font-family:sans;font-size:13px;font-style:italic;height:auto;overflow-x:visible;overflow-y:visible;width:auto;perspective-origin:0px 0px;transform-origin:0px 0px;fill:none;stroke:rgb(0, 0, 0);stroke-width:1.25px;text-anchor:end;"/><text fill="#000" x="-9" dy="0.32em" style="display:block;font-family:sans;font-size:13px;font-style:italic;height:auto;overflow-x:visible;overflow-y:visible;white-space:nowrap;width:auto;perspective-origin:-23.125px 0px;transform-origin:0px 0px;stroke-width:1.25px;text-anchor:end;">70%</text></g><g class="tick" opacity="1" transform="translate(0,82.5)" style="font-family:sans;font-size:13px;font-style:italic;height:auto;overflow-x:visible;overflow-y:visible;width:auto;perspective-origin:0px 0px;transform:matrix(1, 0, 0, 1, 0, 82.5);transform-origin:0px 0px;fill:none;stroke-width:1.25px;text-anchor:end;"><line stroke="#000" x2="-6" style="font-family:sans;font-size:13px;font-style:italic;height:auto;overflow-x:visible;overflow-y:visible;width:auto;perspective-origin:0px 0px;transform-origin:0px 0px;fill:none;stroke:rgb(0, 0, 0);stroke-width:1.25px;text-anchor:end;"/><text fill="#000" x="-9" dy="0.32em" style="display:block;font-family:sans;font-size:13px;font-style:italic;height:auto;overflow-x:visible;overflow-y:visible;white-space:nowrap;width:auto;perspective-origin:-23.625px 0px;transform-origin:0px 0px;stroke-width:1.25px;text-anchor:end;">80%</text></g><g class="tick" opacity="1" transform="translate(0,41.5)" style="font-family:sans;font-size:13px;font-style:italic;height:auto;overflow-x:visible;overflow-y:visible;width:auto;perspective-origin:0px 0px;transform:matrix(1, 0, 0, 1, 0, 41.5);transform-origin:0px 0px;fill:none;stroke-width:1.25px;text-anchor:end;"><line stroke="#000" x2="-6" style="font-family:sans;font-size:13px;font-style:italic;height:auto;overflow-x:visible;overflow-y:visible;width:auto;perspective-origin:0px 0px;transform-origin:0px 0px;fill:none;stroke:rgb(0, 0, 0);stroke-width:1.25px;text-anchor:end;"/><text fill="#000" x="-9" dy="0.32em" style="display:block;font-family:sans;font-size:13px;font-style:italic;height:auto;overflow-x:visible;overflow-y:visible;white-space:nowrap;width:auto;perspective-origin:-23.625px 0px;transform-origin:0px 0px;stroke-width:1.25px;text-anchor:end;">90%</text></g><g class="tick" opacity="1" transform="translate(0,0.5)" style="font-family:sans;font-size:13px;font-style:italic;height:auto;overflow-x:visible;overflow-y:visible;width:auto;perspective-origin:0px 0px;transform:matrix(1, 0, 0, 1, 0, 0.5);transform-origin:0px 0px;fill:none;stroke-width:1.25px;text-anchor:end;"><line stroke="#000" x2="-6" style="font-family:sans;font-size:13px;font-style:italic;height:auto;overflow-x:visible;overflow-y:visible;width:auto;perspective-origin:0px 0px;transform-origin:0px 0px;fill:none;stroke:rgb(0, 0, 0);stroke-width:1.25px;text-anchor:end;"/><text fill="#000" x="-9" dy="0.32em" style="display:block;font-family:sans;font-size:13px;font-style:italic;height:auto;overflow-x:visible;overflow-y:visible;white-space:nowrap;width:auto;perspective-origin:-27.75px 0px;transform-origin:0px 0px;stroke-width:1.25px;text-anchor:end;">100%</text></g></g><g class="label" transform="translate(12,235)" style="font-family:sans;font-size:14px;font-style:italic;height:auto;overflow-x:visible;overflow-y:visible;width:auto;perspective-origin:0px 0px;transform:matrix(1, 0, 0, 1, 12, 235);transform-origin:0px 0px;stroke-width:0px;"><text dx="-92" transform="rotate(-90)" style="display:block;font-family:sans;font-size:14px;font-style:italic;height:auto;overflow-x:visible;overflow-y:visible;white-space:nowrap;width:auto;perspective-origin:4.28125px 0px;transform:matrix(6.12323e-17, -1, 1, 6.12323e-17, 0, 0);transform-origin:0px 0px;stroke-width:0px;">  </text></g></g></g></svg>