<?xml version="1.0" standalone="no"?><!DOCTYPE svg PUBLIC "-//W3C//DTD SVG 1.1//EN" "http://www.w3.org/Graphics/SVG/1.1/DTD/svg11.dtd"><svg id="fig1" width="500" height="500" version="1.1" xmlns="http://www.w3.org/2000/svg" xmlns:xlink="http://www.w3.org/1999/xlink" style="height:500px;width:500px;perspective-origin:250px 250px;transform-origin:250px 250px;"><g class="meanLine" style="height:auto;overflow-x:visible;overflow-y:visible;width:auto;perspective-origin:0px 0px;transform-origin:0px 0px;"><g class="paper" width="420" height="410" transform="translate(60,30)" style="font-family:sans;font-style:italic;height:auto;overflow-x:visible;overflow-y:visible;width:auto;perspective-origin:0px 0px;transform:matrix(1, 0, 0, 1, 60, 30);transform-origin:0px 0px;stroke-linecap:round;stroke-linejoin:round;stroke-width:1.5px;"><g class="plot" style="font-family:sans;font-style:italic;height:auto;overflow-x:visible;overflow-y:visible;width:auto;perspective-origin:0px 0px;transform-origin:0px 0px;stroke-linecap:round;stroke-linejoin:round;stroke-width:1.5px;"><path class="line" fill="none" d="M0,410L1.05,409.8152628171517L2.1,409.63006389165236L3.15,409.4444009095054L4.2,409.25827153927554L5.25,409.07167343191355L6.300000000000001,408.88460422057824L7.3500000000000005,408.69706152045643L8.4,408.50904292858036L9.45,408.320546023643L10.5,408.131568365811L11.549999999999999,407.9421074965354L12.599999999999998,407.7521609383593L13.649999999999997,407.5617261947237L14.7,407.3708007497707L15.75,407.17938206814404L16.8,406.98746759478684L17.85,406.79505475473735L18.900000000000002,406.6021409529212L19.950000000000003,406.40872357394204L21.000000000000004,406.214799981868L22.050000000000004,406.02036752001686L23.100000000000005,405.82542351073715L24.150000000000006,405.62996525518724L25.200000000000006,405.43399003311094L26.250000000000007,405.23749510261047L27.300000000000008,405.04047769991615L28.35000000000001,404.84293503915336L29.40000000000001,404.644864312106L30.45000000000001,404.44626268797697L31.50000000000001,404.2471273131455L32.55000000000001,404.04745531092107L33.600000000000016,403.8472437812942L34.65000000000001,403.6464898006834L35.70000000000002,403.4451904216795L36.750000000000014,403.2433426727855L37.80000000000002,403.0409435581537L38.850000000000016,402.8379900573189L39.90000000000002,402.63447912492774L40.95000000000002,402.43040769046473L42.00000000000002,402.2257726579741L43.05000000000002,402.0205709057782L44.10000000000002,401.81479928619154L45.15000000000002,401.6084546252312L46.200000000000024,401.40153372232305L47.25000000000002,401.1940333500039L48.300000000000026,400.9859502536195L49.35000000000003,400.777281151018L50.40000000000003,400.5680227322396L51.45000000000003,400.35817165920145L52.50000000000002,400.14772456537804L53.550000000000026,399.9366780554772L54.60000000000002,399.7250287051116L55.65000000000003,399.51277306046484L56.700000000000024,399.29990763795405L57.75000000000003,399.08642892388616L58.800000000000026,398.8723333741102L59.85000000000003,398.65761741366424L60.900000000000034,398.44227743641716L61.95000000000003,398.22630980470535L63.000000000000036,398.0097108489638L64.05000000000004,397.7924768673521L65.10000000000004,397.57460412537495L66.15000000000003,397.35608885549686L67.20000000000003,397.136927256751L68.25000000000004,396.9171154943429L69.30000000000004,396.69664969924764L70.35000000000004,396.4755259678011L71.40000000000003,396.2537403612855L72.45000000000005,396.0312889055083L73.50000000000004,395.8081675903748L74.55000000000004,395.5843723694546L75.60000000000004,395.3598991595413L76.65000000000005,395.13474384020515L77.70000000000005,394.9089022533395L78.75000000000004,394.68237020270016L79.80000000000005,394.4551434534373L80.85000000000005,394.2272177316205L81.90000000000005,393.99858872375654L82.95000000000005,393.76925207629944L84.00000000000006,393.53920339515315L85.05000000000005,393.30843824516626L86.10000000000005,393.0769521496191L87.15000000000005,392.8447405897025L88.20000000000006,392.61179900398866L89.25000000000006,392.3781227878933L90.30000000000005,392.14370729312986L91.35000000000005,391.9085478271543L92.40000000000006,391.6726396526018L93.45000000000006,391.43597798671397L94.50000000000006,391.1985580007571L95.55000000000007,390.96037481943074L96.60000000000007,390.72142352026765L97.65000000000006,390.48169913302263L98.70000000000006,390.24119663905265L99.75000000000007,389.9999109706864L100.80000000000007,389.7578370105835L101.85000000000007,389.5149695910832L102.90000000000006,389.27130349354263L103.95000000000007,389.02683344766393L105.00000000000007,388.7815541308102L106.05000000000007,388.5354601673101L107.10000000000007,388.28854612775115L108.15000000000008,388.04080652826076L109.20000000000007,387.7922358297756L110.25000000000007,387.54282843729845L111.30000000000008,387.29257869914244L112.35000000000008,387.04148090616286L113.40000000000008,386.78952929097534L114.45000000000007,386.5367180271612L115.50000000000009,386.28304122845907L116.55000000000008,386.02849294794225L117.60000000000008,385.77306717718255L118.65000000000008,385.51675784539907L119.70000000000009,385.25955881859244L120.75000000000009,385.00146389866427L121.80000000000008,384.7424668225205L122.85000000000008,384.48256126115984L123.90000000000009,384.2217408187457L124.95000000000009,383.95999903166137L126.00000000000009,383.69732936754974L127.0500000000001,383.43372522433424L128.10000000000008,383.1691799292237L129.1500000000001,382.9036867376986L130.2000000000001,382.6372388324792L131.25000000000009,382.3698293224758L132.3000000000001,382.10145124171845L133.3500000000001,381.83209754826873L134.4000000000001,381.5617611231111L135.4500000000001,381.2904347690235L136.50000000000009,381.018111209428L137.5500000000001,380.74478308721973L138.6000000000001,380.47044296357416L139.6500000000001,380.19508331673256L140.7000000000001,379.9186965407643L141.7500000000001,379.6412749443066L142.8000000000001,379.3628107492798L143.8500000000001,379.0832960895793L144.90000000000012,378.8027230097419L145.9500000000001,378.5210834635875L147.0000000000001,378.2383693128343L148.0500000000001,377.95457232568805L149.1000000000001,377.6696841754034L150.15000000000012,377.38369643881845L151.2000000000001,377.0966005948601L152.2500000000001,376.80838802302077L153.30000000000013,376.51905000180534L154.3500000000001,376.2285777071473L155.40000000000012,375.93696221079426L156.4500000000001,375.6441944786612L157.5000000000001,375.35026536915103L158.55000000000013,375.0551656314422L159.6000000000001,374.75888590374126L160.65000000000012,374.46141671150116L161.70000000000013,374.16274846560293L162.7500000000001,373.8628714605012L163.80000000000013,373.5617758723317L164.85000000000014,373.2594517569799L165.90000000000012,372.955889048111L166.95000000000013,372.651077555158L168.0000000000001,372.3450069612697L169.05000000000013,372.037666821215L170.10000000000014,371.7290465592441L171.15000000000012,371.4191354669051L172.20000000000013,371.10792270081413L173.25000000000014,370.7953972803791L174.30000000000013,370.481548085475L175.35000000000014,370.1663638540695L176.40000000000012,369.8498331797984L177.45000000000013,369.5319445094883L178.50000000000014,369.2126861406269L179.55000000000013,368.89204621877747L180.60000000000014,368.57001273493796L181.65000000000015,368.2465735228422L182.70000000000013,367.92171625620176L183.75000000000014,367.59542844588725L184.80000000000015,367.2676974370475L185.85000000000014,366.93851040616414L186.90000000000015,366.60785435804115L187.95000000000013,366.27571612272646L189.00000000000014,365.9420823523645L190.05000000000015,365.6069395179773L191.10000000000014,365.2702739061729L192.15000000000015,364.9320716157782L193.20000000000016,364.59231855439464L194.25000000000014,364.2510004348751L195.30000000000015,363.9081027717184L196.35000000000016,363.5636108773809L197.40000000000015,363.21750985850116L198.45000000000016,362.86978461203654L199.50000000000014,362.52041982130856L200.55000000000015,362.16939995195446L201.60000000000016,361.8167092477826L202.65000000000015,361.46233172652865L203.70000000000016,361.1062511755098L204.75000000000017,360.7484511471739L205.80000000000015,360.3889149545414L206.85000000000016,360.02762566653456L207.90000000000015,359.66456610319415L208.95000000000016,359.29971883077684L210.00000000000014,358.9330661567321L211.05000000000013,358.56459012455394L212.1000000000001,358.1942725085042L213.15000000000006,357.822094808203L214.20000000000005,357.4480382430829L215.25000000000003,357.0720837467021L216.3,356.694211960913L217.35,356.3144032298812L218.39999999999995,355.93263759394995L219.44999999999993,355.5488947833464L220.49999999999991,355.1631542117236L221.5499999999999,354.7753949695337L222.59999999999988,354.38559581722666L223.64999999999984,353.9937351782693L224.69999999999982,353.5997911319786L225.7499999999998,353.20374140616366L226.79999999999978,352.80556336957L227.84999999999977,352.40523402411907L228.89999999999975,352.0027299969381L229.9499999999997,351.59802753217133L230.9999999999997,351.1911024825667L232.04999999999967,350.78193030083054L233.09999999999965,350.37048603074174L234.14999999999964,349.9567442980182L235.1999999999996,349.54067930092634L236.24999999999957,349.12226480062634L237.29999999999956,348.70147411124225L238.34999999999954,348.2782800896493L239.39999999999952,347.85265512496727L240.44999999999948,347.42457112775094L241.49999999999946,346.9939995188658L242.54999999999944,346.5609112180394L243.59999999999943,346.1252766320756L244.6499999999994,345.68706564272026L245.6999999999994,345.24624759416656L246.74999999999935,344.8027912801857L247.79999999999933,344.35666493087064L248.8499999999993,343.9078361989781L249.8999999999993,343.45627214585454L250.94999999999928,343.0019392269307L251.99999999999923,342.5448032767682L253.04999999999922,342.0848294936427L254.0999999999992,341.6219824236449L255.14999999999918,341.15622594428226L256.19999999999914,340.6875232475619L257.24999999999915,340.2158368225349L258.2999999999991,339.74112843728176L259.3499999999991,339.2633591203168L260.39999999999907,338.78248914138914L261.449999999999,338.2984779916566L262.49999999999903,337.8112843632082L263.549999999999,337.3208661279081L264.599999999999,336.82718031553577L265.64999999999895,336.3301830911922L266.6999999999989,335.8298297319436L267.7499999999989,335.32607460267116L268.7999999999989,334.81887113109406L269.8499999999989,334.3081717819318L270.89999999999884,333.7939280301699L271.9499999999988,333.27609033339144L272.9999999999988,332.75460810313456L274.04999999999876,332.22942967523574L275.0999999999988,331.7005022791133L276.1499999999987,331.167772005948L277.1999999999987,330.63118377571016L278.2499999999987,330.09068130298533L279.29999999999865,329.5462070615434L280.34999999999866,328.99770224759675L281.3999999999986,328.4451067416883L282.44999999999857,327.8883590691471L283.4999999999986,327.32739635904795L284.54999999999853,326.7621543016049L285.59999999999854,326.192567103927L286.6499999999985,325.61856744406066L287.6999999999985,325.0400864232382L288.74999999999847,324.4570535162466L289.7999999999984,323.86939651982925L290.84999999999843,323.27704149902445L291.8999999999984,322.6799127313416L292.9499999999984,322.0779326486703L293.99999999999835,321.4710217768094L295.0499999999983,320.8590986724995L296.0999999999983,320.2420798578338L297.1499999999983,319.61987975191437L298.1999999999983,318.99241059961514L299.24999999999824,318.3595823973026L300.2999999999982,317.7213028153568L301.3499999999982,317.07747711732657L302.39999999999816,316.42800807554113L303.44999999999817,315.7727958829905L304.4999999999981,315.11173806127545L305.5499999999981,314.4447293644129L306.5999999999981,313.77166167827386L307.64999999999804,313.0924239154103L308.69999999999806,312.4069019050175L309.749999999998,311.7149782777584L310.79999999999797,311.01653234515913L311.849999999998,310.311439973266L312.89999999999793,309.59957345023327L313.94999999999794,308.8808013474884L314.9999999999979,308.1549883740966L316.04999999999785,307.4219952239223L317.09999999999786,306.6816784151546L318.1499999999978,305.93389012173475L319.19999999999783,305.1784779961904L320.2499999999978,304.41528498334475L321.2999999999978,303.64414912433216L322.34999999999775,302.86490335030715L323.3999999999977,302.07737526518997L324.4499999999977,301.2813869167432L325.49999999999767,300.47675455521596L326.5499999999977,299.66328837874084L327.59999999999764,298.84079226459755L328.6499999999976,298.00906348539394L329.6999999999976,297.16789240913505L330.74999999999756,296.3170621820715L331.79999999999757,295.4563483931263L332.8499999999975,294.58551871860067L333.8999999999975,293.704332545752L334.9499999999975,292.8125405737183L335.99999999999744,291.9098843901328L337.04999999999745,290.99609602162946L338.0999999999974,290.0708974562839L339.14999999999736,289.1340001358605L340.1999999999974,288.18510441554434L341.2499999999973,287.22389898862775L342.29999999999734,286.2500602733882L343.3499999999973,285.26325175913485L344.39999999999725,284.26312330811726L345.44999999999726,283.24931040967255L346.4999999999972,282.2214333826354L347.5499999999972,281.1790965216426L348.5999999999972,280.12188718253014L349.64999999999714,279.0493748015317L350.69999999999715,277.96110984244353L351.7499999999971,276.85662266531426L352.7999999999971,275.73542230953313L353.84999999999707,274.59699518342416L354.8999999999971,273.44080365159215L355.94999999999703,272.2662845102958L356.999999999997,271.0728473400241L358.049999999997,269.8598727232131L359.09999999999695,268.62671031363607L360.14999999999696,267.3726767424015L361.1999999999969,266.0970533436797L362.2499999999969,264.7990836812068L363.2999999999969,263.4779708542518L364.34999999999684,262.1328745590213L365.39999999999685,260.7629078783656L366.4499999999968,259.36713376907574L367.49999999999676,257.94456121192513L368.54999999999677,256.49414098484283L369.5999999999967,255.01476101405842L370.64999999999674,253.50524125162565L371.6999999999967,251.96432802021394L372.74999999999665,250.39068775726753L373.79999999999666,248.78290008031982L374.8499999999966,247.1394500830987L375.8999999999966,245.45871975771044L376.9499999999966,243.7389784211704L377.99999999999653,241.97837200429575L379.04999999999654,240.17491103677696L380.0999999999965,238.32645713321423L381.1499999999965,236.43070774993222L382.19999999999646,234.4851789400619L383.2499999999964,232.4871857829201L384.29999999999643,230.43382010084892L385.3499999999964,228.3219249994603L386.3999999999964,226.14806567188913L387.44999999999635,223.9084957892419L388.49999999999636,221.59911865147748L389.5499999999963,219.215442086899L390.59999999999627,216.7525258528726L391.6499999999963,214.20491998999083L392.69999999999624,211.5665921958622L393.74999999999625,208.8308417845591L394.7999999999962,205.9901971440842L395.84999999999616,203.03629274187915L396.89999999999617,199.95972057933923L397.9499999999961,196.7498494485907L398.99999999999613,193.39460323577603L400.0499999999961,189.88018660481563L401.09999999999604,186.1907423244759L402.14999999999606,182.30791872117499L403.199999999996,178.21031739801973L404.249999999996,173.87277910482496L405.299999999996,169.2654472791184L406.34999999999593,164.35252064971326L407.39999999999594,159.09056214421966L408.4499999999959,153.42616011090752L409.4999999999959,147.29261930334786L410.54999999999586,140.60515457095403L411.5999999999958,133.25369261832287L412.6499999999958,125.09169389043018L413.6999999999958,115.91802198660952L414.7499999999958,105.44592455041385L415.79999999999575,93.24628030627969L416.8499999999957,78.6342988024918L417.8999999999957,60.41481795662054L418.94999999999567,36.20153346685407L419.64999999999566,14.124083950687975L419.883333333329,5.013190402089947L419.96111111110673,1.7090289977488737L419.98703703703274,0.5740673836406813L419.99983996341587,0.0071144360821335795L419.9999999999957,1.9389290173421614e-10L420.00016003657555,410L420.00048010973507,410L420.0014403292138,410L420.00432098765,410L420.00864197530433,410L420.0129629629587,410L420.01728395061303,410L421.0499999999957,410" style="font-family:sans;font-style:italic;height:auto;overflow-x:visible;overflow-y:visible;width:auto;perspective-origin:0px 0px;transform-origin:0px 0px;fill:none;stroke:rgb(205, 92, 92);stroke-dasharray:5px, 5px;stroke-linecap:round;stroke-linejoin:round;stroke-opacity:0.75;stroke-width:2px;d:path('M 0 410 L 1.05 409.815 L 2.1 409.63 L 3.15 409.444 L 4.2 409.258 L 5.25 409.072 L 6.3 408.885 L 7.35 408.697 L 8.4 408.509 L 9.45 408.321 L 10.5 408.132 L 11.55 407.942 L 12.6 407.752 L 13.65 407.562 L 14.7 407.371 L 15.75 407.179 L 16.8 406.987 L 17.85 406.795 L 18.9 406.602 L 19.95 406.409 L 21 406.215 L 22.05 406.02 L 23.1 405.825 L 24.15 405.63 L 25.2 405.434 L 26.25 405.237 L 27.3 405.04 L 28.35 404.843 L 29.4 404.645 L 30.45 404.446 L 31.5 404.247 L 32.55 404.047 L 33.6 403.847 L 34.65 403.646 L 35.7 403.445 L 36.75 403.243 L 37.8 403.041 L 38.85 402.838 L 39.9 402.634 L 40.95 402.43 L 42 402.226 L 43.05 402.021 L 44.1 401.815 L 45.15 401.608 L 46.2 401.402 L 47.25 401.194 L 48.3 400.986 L 49.35 400.777 L 50.4 400.568 L 51.45 400.358 L 52.5 400.148 L 53.55 399.937 L 54.6 399.725 L 55.65 399.513 L 56.7 399.3 L 57.75 399.086 L 58.8 398.872 L 59.85 398.658 L 60.9 398.442 L 61.95 398.226 L 63 398.01 L 64.05 397.792 L 65.1 397.575 L 66.15 397.356 L 67.2 397.137 L 68.25 396.917 L 69.3 396.697 L 70.35 396.476 L 71.4 396.254 L 72.45 396.031 L 73.5 395.808 L 74.55 395.584 L 75.6 395.36 L 76.65 395.135 L 77.7 394.909 L 78.75 394.682 L 79.8 394.455 L 80.85 394.227 L 81.9 393.999 L 82.95 393.769 L 84 393.539 L 85.05 393.308 L 86.1 393.077 L 87.15 392.845 L 88.2 392.612 L 89.25 392.378 L 90.3 392.144 L 91.35 391.909 L 92.4 391.673 L 93.45 391.436 L 94.5 391.199 L 95.55 390.96 L 96.6 390.721 L 97.65 390.482 L 98.7 390.241 L 99.75 390 L 100.8 389.758 L 101.85 389.515 L 102.9 389.271 L 103.95 389.027 L 105 388.782 L 106.05 388.535 L 107.1 388.289 L 108.15 388.041 L 109.2 387.792 L 110.25 387.543 L 111.3 387.293 L 112.35 387.041 L 113.4 386.79 L 114.45 386.537 L 115.5 386.283 L 116.55 386.029 L 117.6 385.773 L 118.65 385.517 L 119.7 385.26 L 120.75 385.001 L 121.8 384.742 L 122.85 384.483 L 123.9 384.222 L 124.95 383.96 L 126 383.697 L 127.05 383.434 L 128.1 383.169 L 129.15 382.904 L 130.2 382.637 L 131.25 382.37 L 132.3 382.101 L 133.35 381.832 L 134.4 381.562 L 135.45 381.29 L 136.5 381.018 L 137.55 380.745 L 138.6 380.47 L 139.65 380.195 L 140.7 379.919 L 141.75 379.641 L 142.8 379.363 L 143.85 379.083 L 144.9 378.803 L 145.95 378.521 L 147 378.238 L 148.05 377.955 L 149.1 377.67 L 150.15 377.384 L 151.2 377.097 L 152.25 376.808 L 153.3 376.519 L 154.35 376.229 L 155.4 375.937 L 156.45 375.644 L 157.5 375.35 L 158.55 375.055 L 159.6 374.759 L 160.65 374.461 L 161.7 374.163 L 162.75 373.863 L 163.8 373.562 L 164.85 373.259 L 165.9 372.956 L 166.95 372.651 L 168 372.345 L 169.05 372.038 L 170.1 371.729 L 171.15 371.419 L 172.2 371.108 L 173.25 370.795 L 174.3 370.482 L 175.35 370.166 L 176.4 369.85 L 177.45 369.532 L 178.5 369.213 L 179.55 368.892 L 180.6 368.57 L 181.65 368.247 L 182.7 367.922 L 183.75 367.595 L 184.8 367.268 L 185.85 366.939 L 186.9 366.608 L 187.95 366.276 L 189 365.942 L 190.05 365.607 L 191.1 365.27 L 192.15 364.932 L 193.2 364.592 L 194.25 364.251 L 195.3 363.908 L 196.35 363.564 L 197.4 363.217 L 198.45 362.87 L 199.5 362.52 L 200.55 362.169 L 201.6 361.817 L 202.65 361.462 L 203.7 361.106 L 204.75 360.748 L 205.8 360.389 L 206.85 360.028 L 207.9 359.665 L 208.95 359.3 L 210 358.933 L 211.05 358.565 L 212.1 358.194 L 213.15 357.822 L 214.2 357.448 L 215.25 357.072 L 216.3 356.694 L 217.35 356.314 L 218.4 355.933 L 219.45 355.549 L 220.5 355.163 L 221.55 354.775 L 222.6 354.386 L 223.65 353.994 L 224.7 353.6 L 225.75 353.204 L 226.8 352.806 L 227.85 352.405 L 228.9 352.003 L 229.95 351.598 L 231 351.191 L 232.05 350.782 L 233.1 350.37 L 234.15 349.957 L 235.2 349.541 L 236.25 349.122 L 237.3 348.701 L 238.35 348.278 L 239.4 347.853 L 240.45 347.425 L 241.5 346.994 L 242.55 346.561 L 243.6 346.125 L 244.65 345.687 L 245.7 345.246 L 246.75 344.803 L 247.8 344.357 L 248.85 343.908 L 249.9 343.456 L 250.95 343.002 L 252 342.545 L 253.05 342.085 L 254.1 341.622 L 255.15 341.156 L 256.2 340.688 L 257.25 340.216 L 258.3 339.741 L 259.35 339.263 L 260.4 338.783 L 261.45 338.298 L 262.5 337.811 L 263.55 337.321 L 264.6 336.827 L 265.65 336.33 L 266.7 335.83 L 267.75 335.326 L 268.8 334.819 L 269.85 334.308 L 270.9 333.794 L 271.95 333.276 L 273 332.755 L 274.05 332.229 L 275.1 331.701 L 276.15 331.168 L 277.2 330.631 L 278.25 330.091 L 279.3 329.546 L 280.35 328.998 L 281.4 328.445 L 282.45 327.888 L 283.5 327.327 L 284.55 326.762 L 285.6 326.193 L 286.65 325.619 L 287.7 325.04 L 288.75 324.457 L 289.8 323.869 L 290.85 323.277 L 291.9 322.68 L 292.95 322.078 L 294 321.471 L 295.05 320.859 L 296.1 320.242 L 297.15 319.62 L 298.2 318.992 L 299.25 318.36 L 300.3 317.721 L 301.35 317.077 L 302.4 316.428 L 303.45 315.773 L 304.5 315.112 L 305.55 314.445 L 306.6 313.772 L 307.65 313.092 L 308.7 312.407 L 309.75 311.715 L 310.8 311.017 L 311.85 310.311 L 312.9 309.6 L 313.95 308.881 L 315 308.155 L 316.05 307.422 L 317.1 306.682 L 318.15 305.934 L 319.2 305.178 L 320.25 304.415 L 321.3 303.644 L 322.35 302.865 L 323.4 302.077 L 324.45 301.281 L 325.5 300.477 L 326.55 299.663 L 327.6 298.841 L 328.65 298.009 L 329.7 297.168 L 330.75 296.317 L 331.8 295.456 L 332.85 294.586 L 333.9 293.704 L 334.95 292.813 L 336 291.91 L 337.05 290.996 L 338.1 290.071 L 339.15 289.134 L 340.2 288.185 L 341.25 287.224 L 342.3 286.25 L 343.35 285.263 L 344.4 284.263 L 345.45 283.249 L 346.5 282.221 L 347.55 281.179 L 348.6 280.122 L 349.65 279.049 L 350.7 277.961 L 351.75 276.857 L 352.8 275.735 L 353.85 274.597 L 354.9 273.441 L 355.95 272.266 L 357 271.073 L 358.05 269.86 L 359.1 268.627 L 360.15 267.373 L 361.2 266.097 L 362.25 264.799 L 363.3 263.478 L 364.35 262.133 L 365.4 260.763 L 366.45 259.367 L 367.5 257.945 L 368.55 256.494 L 369.6 255.015 L 370.65 253.505 L 371.7 251.964 L 372.75 250.391 L 373.8 248.783 L 374.85 247.139 L 375.9 245.459 L 376.95 243.739 L 378 241.978 L 379.05 240.175 L 380.1 238.326 L 381.15 236.431 L 382.2 234.485 L 383.25 232.487 L 384.3 230.434 L 385.35 228.322 L 386.4 226.148 L 387.45 223.908 L 388.5 221.599 L 389.55 219.215 L 390.6 216.753 L 391.65 214.205 L 392.7 211.567 L 393.75 208.831 L 394.8 205.99 L 395.85 203.036 L 396.9 199.96 L 397.95 196.75 L 399 193.395 L 400.05 189.88 L 401.1 186.191 L 402.15 182.308 L 403.2 178.21 L 404.25 173.873 L 405.3 169.265 L 406.35 164.353 L 407.4 159.091 L 408.45 153.426 L 409.5 147.293 L 410.55 140.605 L 411.6 133.254 L 412.65 125.092 L 413.7 115.918 L 414.75 105.446 L 415.8 93.2463 L 416.85 78.6343 L 417.9 60.4148 L 418.95 36.2015 L 419.65 14.1241 L 419.883 5.01319 L 419.961 1.70903 L 419.987 0.574067 L 420 0.00711444 L 420 1.93893e-10 L 420 410 L 420 410 L 420.001 410 L 420.004 410 L 420.009 410 L 420.013 410 L 420.017 410 L 421.05 410');"/></g><g class="plot" style="font-family:sans;font-style:italic;height:auto;overflow-x:visible;overflow-y:visible;width:auto;perspective-origin:0px 0px;transform-origin:0px 0px;stroke-linecap:round;stroke-linejoin:round;stroke-width:1.5px;"><path class="line" fill="none" d="M0,410L1.05,409.78938476421456L2.1,409.57771694066537L3.15,409.36498595548983L4.2,409.1511810746895L5.25,408.9362914008804L6.300000000000001,408.7203058699602L7.3500000000000005,408.50321324768964L8.4,408.2850021261865L9.45,408.0656609203283L10.5,407.8451778640617L11.549999999999999,407.6235410066151L12.599999999999998,407.4007382086117L13.649999999999997,407.17675713807984L14.7,406.95158526635714L15.75,406.7252098638855L16.8,406.49761799589254L17.85,406.2687965179569L18.900000000000002,406.03873207145307L19.950000000000003,405.8074110788713L21.000000000000004,405.57481973900985L22.050000000000004,405.34094402203345L23.100000000000005,405.1057696643956L24.150000000000006,404.86928216361855L25.200000000000006,404.6314667729265L26.250000000000007,404.392308495728L27.300000000000008,404.15179207994106L28.35000000000001,403.90990201215635L29.40000000000001,403.6666225116329L30.45000000000001,403.4219375241205L31.50000000000001,403.17583071550183L32.55000000000001,402.92828546525L33.600000000000016,402.67928485969264L34.65000000000001,402.4288116850775L35.70000000000002,402.17684842043167L36.750000000000014,401.9233772302067L37.80000000000002,401.66837995670284L38.850000000000016,401.4118381122636L39.90000000000002,401.15373287123253L40.95000000000002,400.8940450616633L42.00000000000002,400.63275515677407L43.05000000000002,400.36984326613685L44.10000000000002,400.1052891265916L45.15000000000002,399.83907209287423L46.200000000000024,399.5711711279492L47.25000000000002,399.3015647930335L48.300000000000026,399.03023123730156L49.35000000000003,398.7571481872582L50.40000000000003,398.4822929357666L51.45000000000003,398.2056423307179L52.50000000000002,397.9271727633287L53.550000000000026,397.64686015605065L54.60000000000002,397.36467995007786L55.65000000000003,397.080607092435L56.700000000000024,396.7946160226297L57.75000000000003,396.50668065885094L58.800000000000026,396.2167743836953L59.85000000000003,395.924870029401L60.900000000000034,395.6309398625705L61.95000000000003,395.33495556835754L63.000000000000036,395.03688823409976L64.05000000000004,394.7367083323695L65.10000000000004,394.434385703421L66.15000000000003,394.12988953700574L67.20000000000003,393.82318835352964L68.25000000000004,393.51424998452336L69.30000000000004,393.20304155239444L70.35000000000004,392.8895294494306L71.40000000000003,392.5736793160195L72.45000000000005,392.25545601805084L73.50000000000004,391.9348236234628L74.55000000000004,391.6117453778939L75.60000000000004,391.286183679399L76.65000000000005,390.9581000521862L77.70000000000005,390.62745511932803L78.75000000000004,390.29420857440005L79.80000000000005,389.95831915199363L80.85000000000005,389.6197445970507L81.90000000000005,389.2784416329633L82.95000000000005,388.9343659283759L84.00000000000006,388.58747206262996L85.05000000000005,388.23771348978033L86.10000000000005,387.885042501114L87.15000000000005,387.52941018609494L88.20000000000006,387.1707663916555L89.25000000000006,386.80905967974945L90.30000000000005,386.44423728307675L91.35000000000005,386.07624505888487L92.40000000000006,385.7050274407451L93.45000000000006,385.33052738819754L94.50000000000006,384.9526863341489L95.55000000000007,384.57144412990357L96.60000000000007,384.18673898769754L97.65000000000006,383.798507420599L98.70000000000006,383.406684179628L99.75000000000007,383.0112021879411L100.80000000000007,382.6119924719139L101.85000000000007,382.20898408894396L102.90000000000006,381.80210405178644L103.95000000000007,381.3912772492196L105.00000000000007,380.9764263628246L106.05000000000007,380.55747177964923L107.10000000000007,380.1343315005088L108.15000000000008,379.7069210436596L109.20000000000007,379.2751533435626L110.25000000000007,378.83893864443326L111.30000000000008,378.39818438825216L112.35000000000008,377.95279509688726L113.40000000000008,377.50267224795124L114.45000000000007,377.04771414399187L115.50000000000009,376.58781577457904L116.55000000000008,376.1228686708222L117.60000000000008,375.6527607518127L118.65000000000008,375.1773761624486L119.70000000000009,374.69659510205327L120.75000000000009,374.2102936431554L121.80000000000008,373.7183435397431L122.85000000000008,373.22061202425056L123.90000000000009,372.7169615924736L124.95000000000009,372.2072497755413L126.00000000000009,371.69132889799926L127.0500000000001,371.1690458209749L128.10000000000008,370.64024166930886L129.1500000000001,370.10475154143506L130.2000000000001,369.56240420068417L131.25000000000009,369.0130217465645L132.3000000000001,368.4564192644416L133.3500000000001,367.89240445188994L134.4000000000001,367.3207772198286L135.4500000000001,366.7413292663686L136.50000000000009,366.15384362110376L137.5500000000001,365.5580941573467L138.6000000000001,364.95384506956924L139.6500000000001,364.3408503130227L140.7000000000001,363.71885300220663L141.7500000000001,363.08758476450475L142.8000000000001,362.44676504491815L143.8500000000001,361.79610035738693L144.90000000000012,361.1352834777002L145.9500000000001,360.4639925724389L147.0000000000001,359.7818902577682L148.0500000000001,359.0886225811919L149.1000000000001,358.38381791857165L150.15000000000012,357.66708577781077L151.2000000000001,356.93801549955714L152.2500000000001,356.19617484410406L153.30000000000013,355.44110845231233L154.3500000000001,354.67233616683205L155.40000000000012,353.8893511981259L156.4500000000001,353.09161811775124L157.5000000000001,352.27857065900184L158.55000000000013,351.4496093022818L159.6000000000001,350.6040986194224L160.65000000000012,349.7413643474746L161.70000000000013,348.86069015821863L162.7500000000001,347.9613140846145L163.80000000000013,347.04242455952556L164.85000000000014,346.10315601511155L165.90000000000012,345.1425839830931L166.95000000000013,344.15971962637263L168.0000000000001,343.15350362093227L169.05000000000013,342.122799293114L170.10000000000014,341.0663849008122L171.15000000000012,339.982944927141L172.20000000000013,338.871060230978L173.25000000000014,337.7291968694068L174.30000000000013,336.5556933711912L175.35000000000014,335.34874619633683L176.40000000000012,334.1063930623688L177.45000000000013,332.8264937503634L178.50000000000014,331.5067079193225L179.55000000000013,330.1444693512836L180.60000000000014,328.73695591511677L181.65000000000015,327.2810543655156L182.70000000000013,325.77331887338755L183.75000000000014,324.2099218984367L184.80000000000015,322.58659564173604L185.85000000000014,320.89856182404753L186.90000000000015,319.1404468800568L187.95000000000013,317.30617877571405L189.00000000000014,315.38886045275615L190.05000000000015,313.3806132444167L191.10000000000014,311.2723812843026L192.15000000000015,309.0536846337966L193.20000000000016,306.71230409638656L194.25000000000014,304.2338736993428L195.30000000000015,301.60134635334254L196.35000000000016,298.79428216683226L197.40000000000015,295.78788372948213L198.45000000000016,292.551662090064L199.50000000000014,289.0475496089699L200.55000000000015,285.2271593864566L201.60000000000016,281.02768166549345L202.65000000000015,276.36551296638515L203.70000000000016,271.1259258529593L204.75000000000017,265.1454018615883L205.80000000000015,258.1793230800049L206.85000000000016,249.8375133118006L207.90000000000015,239.4394611986645L208.95000000000016,225.62788175465062L209.65000000000012,213.04418415118107L209.88333333333347,207.85455611168612L209.96111111111125,205.97305306730627L209.98703703703717,205.32684127937924L209.99567901234582,205.10922758196534L210.00000000000014,204.99999999999994L210.0043209876545,204.9991354132859L210.11666666666682,204.97664996154674L210.3500000000001,204.92991122938702L211.05000000000013,204.78938476421456L212.1000000000001,204.57771694066537L213.15000000000006,204.36498595548977L214.20000000000005,204.15118107468942L215.25000000000003,203.93629140088044L216.3,203.7203058699602L217.35,203.5032132476897L218.39999999999995,203.28500212618653L219.44999999999993,203.06566092032833L220.49999999999991,202.84517786406172L221.5499999999999,202.6235410066151L222.59999999999988,202.4007382086117L223.64999999999984,202.17675713807986L224.69999999999982,201.95158526635723L225.7499999999998,201.72520986388554L226.79999999999978,201.4976179958926L227.84999999999977,201.26879651795696L228.89999999999975,201.03873207145313L229.9499999999997,200.80741107887138L230.9999999999997,200.57481973900988L232.04999999999967,200.3409440220335L233.09999999999965,200.1057696643957L234.14999999999964,199.8692821636186L235.1999999999996,199.63146677292661L236.24999999999957,199.39230849572812L237.29999999999956,199.15179207994117L238.34999999999954,198.90990201215646L239.39999999999952,198.66662251163305L240.44999999999948,198.4219375241206L241.49999999999946,198.17583071550195L242.54999999999944,197.92828546525007L243.59999999999943,197.67928485969276L244.6499999999994,197.42881168507768L245.6999999999994,197.17684842043184L246.74999999999935,196.92337723020682L247.79999999999933,196.66837995670298L248.8499999999993,196.41183811226378L249.8999999999993,196.15373287123273L250.94999999999928,195.89404506166343L251.99999999999923,195.63275515677424L253.04999999999922,195.3698432661371L254.0999999999992,195.10528912659177L255.14999999999918,194.83907209287443L256.19999999999914,194.5711711279494L257.24999999999915,194.3015647930337L258.2999999999991,194.03023123730176L259.3499999999991,193.75714818725848L260.39999999999907,193.48229293576685L261.449999999999,193.2056423307182L262.49999999999903,192.927172763329L263.549999999999,192.6468601560509L264.599999999999,192.36467995007814L265.64999999999895,192.08060709243532L266.6999999999989,191.79461602263004L267.7499999999989,191.50668065885125L268.7999999999989,191.2167743836956L269.8499999999989,190.92487002940138L270.89999999999884,190.63093986257078L271.9499999999988,190.3349555683579L272.9999999999988,190.0368882341001L274.04999999999876,189.7367083323699L275.0999999999988,189.4343857034214L276.1499999999987,189.1298895370061L277.1999999999987,188.82318835353L278.2499999999987,188.51424998452376L279.29999999999865,188.2030415523949L280.34999999999866,187.889529449431L281.3999999999986,187.5736793160199L282.44999999999857,187.25545601805123L283.4999999999986,186.93482362346325L284.54999999999853,186.6117453778944L285.59999999999854,186.2861836793995L286.6499999999985,185.95810005218664L287.6999999999985,185.62745511932852L288.74999999999847,185.29420857440056L289.7999999999984,184.95831915199412L290.84999999999843,184.61974459705127L291.8999999999984,184.2784416329638L292.9499999999984,183.9343659283764L293.99999999999835,183.5874720626305L295.0499999999983,183.23771348978093L296.0999999999983,182.8850425011146L297.1499999999983,182.52941018609556L298.1999999999983,182.17076639165612L299.24999999999824,181.80905967975008L300.2999999999982,181.44423728307743L301.3499999999982,181.07624505888552L302.39999999999816,180.7050274407458L303.44999999999817,180.3305273881982L304.4999999999981,179.9526863341496L305.5499999999981,179.57144412990425L306.5999999999981,179.1867389876983L307.64999999999804,178.79850742059972L308.69999999999806,178.4066841796287L309.749999999998,178.01120218794185L310.79999999999797,177.6119924719147L311.849999999998,177.20898408894473L312.89999999999793,176.8021040517873L313.94999999999794,176.39127724922048L314.9999999999979,175.97642636282546L316.04999999999785,175.55747177965011L317.09999999999786,175.13433150050966L318.1499999999978,174.7069210436605L319.19999999999783,174.2751533435635L320.2499999999978,173.8389386444342L321.2999999999978,173.39818438825318L322.34999999999775,172.95279509688825L323.3999999999977,172.50267224795223L324.4499999999977,172.04771414399286L325.49999999999767,171.5878157745801L326.5499999999977,171.12286867082324L327.59999999999764,170.6527607518138L328.6499999999976,170.17737616244966L329.6999999999976,169.69659510205437L330.74999999999756,169.21029364315655L331.79999999999757,168.71834353974427L332.8499999999975,168.22061202425178L333.8999999999975,167.71696159247483L334.9499999999975,167.2072497755426L335.99999999999744,166.69132889800056L337.04999999999745,166.16904582097618L338.0999999999974,165.6402416693102L339.14999999999736,165.10475154143646L340.1999999999974,164.5624042006856L341.2499999999973,164.01302174656598L342.29999999999734,163.45641926444304L343.3499999999973,162.89240445189145L344.39999999999725,162.3207772198301L345.44999999999726,161.74132926637017L346.4999999999972,161.15384362110535L347.5499999999972,160.55809415734836L348.5999999999972,159.95384506957095L349.64999999999714,159.34085031302445L350.69999999999715,158.7188530022084L351.7499999999971,158.0875847645066L352.7999999999971,157.44676504492003L353.84999999999707,156.79610035738884L354.8999999999971,156.1352834777022L355.94999999999703,155.46399257244084L356.999999999997,154.7818902577703L358.049999999997,154.08862258119396L359.09999999999695,153.3838179185738L360.14999999999696,152.66708577781293L361.1999999999969,151.93801549955936L362.2499999999969,151.19617484410634L363.2999999999969,150.44110845231472L364.34999999999684,149.6723361668345L365.39999999999685,148.8893511981284L366.4499999999968,148.0916181177538L367.49999999999676,147.27857065900446L368.54999999999677,146.44960930228444L369.5999999999967,145.6040986194252L370.64999999999674,144.74136434747743L371.6999999999967,143.86069015822153L372.74999999999665,142.96131408461753L373.79999999999666,142.04242455952863L374.8499999999966,141.10315601511473L375.8999999999966,140.14258398309636L376.9499999999966,139.159719626376L377.99999999999653,138.15350362093574L379.04999999999654,137.12279929311757L380.0999999999965,136.06638490081582L381.1499999999965,134.98294492714473L382.19999999999646,133.87106023098193L383.2499999999964,132.72919686941083L384.29999999999643,131.5556933711954L385.3499999999964,130.3487461963412L386.3999999999964,129.10639306237334L387.44999999999635,127.82649375036812L388.49999999999636,126.50670791932737L389.5499999999963,125.14446935128859L390.59999999999627,123.736955915122L391.6499999999963,122.28105436552107L392.69999999999624,120.77331887339324L393.74999999999625,119.20992189844264L394.7999999999962,117.58659564174229L395.84999999999616,115.89856182405396L396.89999999999617,114.14044688006356L397.9499999999961,112.30617877572126L398.99999999999613,110.38886045276365L400.0499999999961,108.38061324442464L401.09999999999604,106.27238128431094L402.14999999999606,104.05368463380546L403.199999999996,101.712304096396L404.249999999996,99.2338736993529L405.299999999996,96.60134635335339L406.34999999999593,93.79428216684391L407.39999999999594,90.7878837294947L408.4499999999959,87.55166209007751L409.4999999999959,84.04754960898475L410.54999999999586,80.22715938647298L411.5999999999958,76.02768166551164L412.6499999999958,71.36551296640556L413.6999999999958,66.12592585298256L414.7499999999958,60.14540186161503L415.79999999999575,53.179323080036625L416.8499999999957,44.837513311839416L417.8999999999957,34.43946119871464L418.94999999999567,20.62788175472042L419.64999999999566,8.044184151274521L419.883333333329,2.8545561117923057L419.96111111110673,0.9730530674178794L419.98703703703274,0.32684127949136155L419.9956790123414,0.10922758207811967L419.99983996341587,0.004050493458180426L419.9999999999957,1.1021938917110674e-10L420.00016003657555,410L420.00048010973507,410L420.0014403292138,410L420.00432098765,410L420.00864197530433,410L420.0129629629587,410L420.01728395061303,410L421.0499999999957,410" style="font-family:sans;font-style:italic;height:auto;overflow-x:visible;overflow-y:visible;width:auto;perspective-origin:0px 0px;transform-origin:0px 0px;fill:none;stroke:rgb(205, 92, 92);stroke-dasharray:5px, 5px;stroke-linecap:round;stroke-linejoin:round;stroke-opacity:0.75;stroke-width:2px;d:path('M 0 410 L 1.05 409.789 L 2.1 409.578 L 3.15 409.365 L 4.2 409.151 L 5.25 408.936 L 6.3 408.72 L 7.35 408.503 L 8.4 408.285 L 9.45 408.066 L 10.5 407.845 L 11.55 407.624 L 12.6 407.401 L 13.65 407.177 L 14.7 406.952 L 15.75 406.725 L 16.8 406.498 L 17.85 406.269 L 18.9 406.039 L 19.95 405.807 L 21 405.575 L 22.05 405.341 L 23.1 405.106 L 24.15 404.869 L 25.2 404.631 L 26.25 404.392 L 27.3 404.152 L 28.35 403.91 L 29.4 403.667 L 30.45 403.422 L 31.5 403.176 L 32.55 402.928 L 33.6 402.679 L 34.65 402.429 L 35.7 402.177 L 36.75 401.923 L 37.8 401.668 L 38.85 401.412 L 39.9 401.154 L 40.95 400.894 L 42 400.633 L 43.05 400.37 L 44.1 400.105 L 45.15 399.839 L 46.2 399.571 L 47.25 399.302 L 48.3 399.03 L 49.35 398.757 L 50.4 398.482 L 51.45 398.206 L 52.5 397.927 L 53.55 397.647 L 54.6 397.365 L 55.65 397.081 L 56.7 396.795 L 57.75 396.507 L 58.8 396.217 L 59.85 395.925 L 60.9 395.631 L 61.95 395.335 L 63 395.037 L 64.05 394.737 L 65.1 394.434 L 66.15 394.13 L 67.2 393.823 L 68.25 393.514 L 69.3 393.203 L 70.35 392.89 L 71.4 392.574 L 72.45 392.255 L 73.5 391.935 L 74.55 391.612 L 75.6 391.286 L 76.65 390.958 L 77.7 390.627 L 78.75 390.294 L 79.8 389.958 L 80.85 389.62 L 81.9 389.278 L 82.95 388.934 L 84 388.587 L 85.05 388.238 L 86.1 387.885 L 87.15 387.529 L 88.2 387.171 L 89.25 386.809 L 90.3 386.444 L 91.35 386.076 L 92.4 385.705 L 93.45 385.331 L 94.5 384.953 L 95.55 384.571 L 96.6 384.187 L 97.65 383.798 L 98.7 383.407 L 99.75 383.011 L 100.8 382.612 L 101.85 382.209 L 102.9 381.802 L 103.95 381.391 L 105 380.976 L 106.05 380.557 L 107.1 380.134 L 108.15 379.707 L 109.2 379.275 L 110.25 378.839 L 111.3 378.398 L 112.35 377.953 L 113.4 377.503 L 114.45 377.048 L 115.5 376.588 L 116.55 376.123 L 117.6 375.653 L 118.65 375.177 L 119.7 374.697 L 120.75 374.21 L 121.8 373.718 L 122.85 373.221 L 123.9 372.717 L 124.95 372.207 L 126 371.691 L 127.05 371.169 L 128.1 370.64 L 129.15 370.105 L 130.2 369.562 L 131.25 369.013 L 132.3 368.456 L 133.35 367.892 L 134.4 367.321 L 135.45 366.741 L 136.5 366.154 L 137.55 365.558 L 138.6 364.954 L 139.65 364.341 L 140.7 363.719 L 141.75 363.088 L 142.8 362.447 L 143.85 361.796 L 144.9 361.135 L 145.95 360.464 L 147 359.782 L 148.05 359.089 L 149.1 358.384 L 150.15 357.667 L 151.2 356.938 L 152.25 356.196 L 153.3 355.441 L 154.35 354.672 L 155.4 353.889 L 156.45 353.092 L 157.5 352.279 L 158.55 351.45 L 159.6 350.604 L 160.65 349.741 L 161.7 348.861 L 162.75 347.961 L 163.8 347.042 L 164.85 346.103 L 165.9 345.143 L 166.95 344.16 L 168 343.154 L 169.05 342.123 L 170.1 341.066 L 171.15 339.983 L 172.2 338.871 L 173.25 337.729 L 174.3 336.556 L 175.35 335.349 L 176.4 334.106 L 177.45 332.827 L 178.5 331.507 L 179.55 330.144 L 180.6 328.737 L 181.65 327.281 L 182.7 325.773 L 183.75 324.21 L 184.8 322.587 L 185.85 320.899 L 186.9 319.14 L 187.95 317.306 L 189 315.389 L 190.05 313.381 L 191.1 311.272 L 192.15 309.054 L 193.2 306.712 L 194.25 304.234 L 195.3 301.601 L 196.35 298.794 L 197.4 295.788 L 198.45 292.552 L 199.5 289.048 L 200.55 285.227 L 201.6 281.028 L 202.65 276.366 L 203.7 271.126 L 204.75 265.145 L 205.8 258.179 L 206.85 249.838 L 207.9 239.439 L 208.95 225.628 L 209.65 213.044 L 209.883 207.855 L 209.961 205.973 L 209.987 205.327 L 209.996 205.109 L 210 205 L 210.004 204.999 L 210.117 204.977 L 210.35 204.93 L 211.05 204.789 L 212.1 204.578 L 213.15 204.365 L 214.2 204.151 L 215.25 203.936 L 216.3 203.72 L 217.35 203.503 L 218.4 203.285 L 219.45 203.066 L 220.5 202.845 L 221.55 202.624 L 222.6 202.401 L 223.65 202.177 L 224.7 201.952 L 225.75 201.725 L 226.8 201.498 L 227.85 201.269 L 228.9 201.039 L 229.95 200.807 L 231 200.575 L 232.05 200.341 L 233.1 200.106 L 234.15 199.869 L 235.2 199.631 L 236.25 199.392 L 237.3 199.152 L 238.35 198.91 L 239.4 198.667 L 240.45 198.422 L 241.5 198.176 L 242.55 197.928 L 243.6 197.679 L 244.65 197.429 L 245.7 197.177 L 246.75 196.923 L 247.8 196.668 L 248.85 196.412 L 249.9 196.154 L 250.95 195.894 L 252 195.633 L 253.05 195.37 L 254.1 195.105 L 255.15 194.839 L 256.2 194.571 L 257.25 194.302 L 258.3 194.03 L 259.35 193.757 L 260.4 193.482 L 261.45 193.206 L 262.5 192.927 L 263.55 192.647 L 264.6 192.365 L 265.65 192.081 L 266.7 191.795 L 267.75 191.507 L 268.8 191.217 L 269.85 190.925 L 270.9 190.631 L 271.95 190.335 L 273 190.037 L 274.05 189.737 L 275.1 189.434 L 276.15 189.13 L 277.2 188.823 L 278.25 188.514 L 279.3 188.203 L 280.35 187.89 L 281.4 187.574 L 282.45 187.255 L 283.5 186.935 L 284.55 186.612 L 285.6 186.286 L 286.65 185.958 L 287.7 185.627 L 288.75 185.294 L 289.8 184.958 L 290.85 184.62 L 291.9 184.278 L 292.95 183.934 L 294 183.587 L 295.05 183.238 L 296.1 182.885 L 297.15 182.529 L 298.2 182.171 L 299.25 181.809 L 300.3 181.444 L 301.35 181.076 L 302.4 180.705 L 303.45 180.331 L 304.5 179.953 L 305.55 179.571 L 306.6 179.187 L 307.65 178.799 L 308.7 178.407 L 309.75 178.011 L 310.8 177.612 L 311.85 177.209 L 312.9 176.802 L 313.95 176.391 L 315 175.976 L 316.05 175.557 L 317.1 175.134 L 318.15 174.707 L 319.2 174.275 L 320.25 173.839 L 321.3 173.398 L 322.35 172.953 L 323.4 172.503 L 324.45 172.048 L 325.5 171.588 L 326.55 171.123 L 327.6 170.653 L 328.65 170.177 L 329.7 169.697 L 330.75 169.21 L 331.8 168.718 L 332.85 168.221 L 333.9 167.717 L 334.95 167.207 L 336 166.691 L 337.05 166.169 L 338.1 165.64 L 339.15 165.105 L 340.2 164.562 L 341.25 164.013 L 342.3 163.456 L 343.35 162.892 L 344.4 162.321 L 345.45 161.741 L 346.5 161.154 L 347.55 160.558 L 348.6 159.954 L 349.65 159.341 L 350.7 158.719 L 351.75 158.088 L 352.8 157.447 L 353.85 156.796 L 354.9 156.135 L 355.95 155.464 L 357 154.782 L 358.05 154.089 L 359.1 153.384 L 360.15 152.667 L 361.2 151.938 L 362.25 151.196 L 363.3 150.441 L 364.35 149.672 L 365.4 148.889 L 366.45 148.092 L 367.5 147.279 L 368.55 146.45 L 369.6 145.604 L 370.65 144.741 L 371.7 143.861 L 372.75 142.961 L 373.8 142.042 L 374.85 141.103 L 375.9 140.143 L 376.95 139.16 L 378 138.154 L 379.05 137.123 L 380.1 136.066 L 381.15 134.983 L 382.2 133.871 L 383.25 132.729 L 384.3 131.556 L 385.35 130.349 L 386.4 129.106 L 387.45 127.826 L 388.5 126.507 L 389.55 125.144 L 390.6 123.737 L 391.65 122.281 L 392.7 120.773 L 393.75 119.21 L 394.8 117.587 L 395.85 115.899 L 396.9 114.14 L 397.95 112.306 L 399 110.389 L 400.05 108.381 L 401.1 106.272 L 402.15 104.054 L 403.2 101.712 L 404.25 99.2339 L 405.3 96.6013 L 406.35 93.7943 L 407.4 90.7879 L 408.45 87.5517 L 409.5 84.0475 L 410.55 80.2272 L 411.6 76.0277 L 412.65 71.3655 L 413.7 66.1259 L 414.75 60.1454 L 415.8 53.1793 L 416.85 44.8375 L 417.9 34.4395 L 418.95 20.6279 L 419.65 8.04418 L 419.883 2.85456 L 419.961 0.973053 L 419.987 0.326841 L 419.996 0.109228 L 420 0.00405049 L 420 1.10219e-10 L 420 410 L 420 410 L 420.001 410 L 420.004 410 L 420.009 410 L 420.013 410 L 420.017 410 L 421.05 410');"/></g><g class="plot" style="font-family:sans;font-style:italic;height:auto;overflow-x:visible;overflow-y:visible;width:auto;perspective-origin:0px 0px;transform-origin:0px 0px;stroke-linecap:round;stroke-linejoin:round;stroke-width:1.5px;"><path class="line" fill="none" d="M0,410L1.05,409.75554149879724L2.1,409.5086409712714L3.15,409.2592491352967L4.2,409.0073152016965L5.25,408.75278681216156L6.300000000000001,408.4956099739396L7.3500000000000005,408.2357289910904L8.4,407.9730863920882L9.45,407.7076228535364L10.5,407.4392771197403L11.549999999999999,407.16798591786636L12.599999999999998,406.8936838683926L13.649999999999997,406.6163033905344L14.7,406.3357746023028L15.75,406.0520252148255L16.8,405.764980420531L17.85,405.4745627747633L18.900000000000002,405.18069207035785L19.950000000000003,404.8832852046717L21.000000000000004,404.58225603851497L22.050000000000004,404.2775152463853L23.100000000000005,403.96897015735414L24.150000000000006,403.65652458589483L25.200000000000006,403.34007865188033L26.250000000000007,403.01952858890803L27.300000000000008,402.69476654003023L28.35000000000001,402.36568033988567L29.40000000000001,402.03215328212934L30.45000000000001,401.6940638709549L31.50000000000001,401.3512855553855L32.55000000000001,401.00368644487895L33.600000000000016,400.6511290046478L34.65000000000001,400.29346972893313L35.70000000000002,399.9305587902888L36.750000000000014,399.5622396627322L37.80000000000002,399.1883487163888L38.850000000000016,398.80871478100204L39.90000000000002,398.4231586753958L40.95000000000002,398.0314926996512L42.00000000000002,397.63352008639424L43.05000000000002,397.22903440718034L44.10000000000002,396.8178189294916L45.15000000000002,396.399645919333L46.200000000000024,395.97427588380924L47.25000000000002,395.5414567473748L48.300000000000026,395.10092295466376L49.35000000000003,394.6523944919027L50.40000000000003,394.1955758178778L51.45000000000003,393.7301546942344L52.50000000000002,393.2558009035154L53.550000000000026,392.77216484175653L54.60000000000002,392.27887597061243L55.65000000000003,391.77554111184867L56.700000000000024,391.26174256453237L57.75000000000003,390.73703602233445L58.800000000000026,390.2009482649235L59.85000000000003,389.6529745933932L60.900000000000034,389.09257597489403L61.95000000000003,388.51917585598034L63.000000000000036,387.9321565974523L64.05000000000004,387.33085547542714L65.10000000000004,386.7145601837241L66.15000000000003,386.08250376102524L67.20000000000003,385.43385885220573L68.25000000000004,384.76773119612903L69.30000000000004,384.0831522113113L70.35000000000004,383.37907052520563L71.40000000000003,382.654342261181L72.45000000000005,381.90771985794L73.50000000000004,381.13783914697495L74.55000000000004,380.3432043518793L75.60000000000004,379.5221705951093L76.65000000000005,378.6729233980611L77.70000000000005,377.7934545321828L78.75000000000004,376.8815334128447L79.80000000000005,375.9346730107763L80.85000000000005,374.9500889697754L81.90000000000005,373.92465023823866L82.95000000000005,372.85481900878034L84.00000000000006,371.7365770609328L85.05000000000005,370.56533463722235L86.10000000000005,369.33581663377373L87.15000000000005,368.04191897159524L88.20000000000006,366.6765252519733L89.25000000000006,365.23126974194525L90.30000000000005,363.6962266582893L91.35000000000005,362.05949641390646L92.40000000000006,360.3066448933124L93.45000000000006,358.41992828636916L94.50000000000006,356.3771968565962L95.55000000000007,354.15030353577464L96.60000000000007,351.7027220417044L97.65000000000006,348.9858508542705L98.70000000000006,345.9330238510175L99.75000000000007,342.44927488527634L100.80000000000007,338.392637988341L101.85000000000007,333.53688698375436L102.90000000000006,327.48799700194354L103.95000000000007,319.46176945984894L104.65000000000008,312.16025577080893L104.88333333333341,309.15299463588497L104.96111111111118,308.0633713697074L104.9870370370371,307.68922086102987L104.99567901234575,307.5632347159451L105.00000000000007,307.5L105.00432098765437,307.4989989363096L105.03888888888896,307.4909889668118L105.11666666666676,307.47295703868457L105.35000000000008,307.41878218730125L106.05000000000007,307.25554149879724L107.10000000000007,307.00864097127135L108.15000000000008,306.7592491352967L109.20000000000007,306.5073152016965L110.25000000000007,306.2527868121615L111.30000000000008,305.99560997393957L112.35000000000008,305.73572899109035L113.40000000000008,305.4730863920882L114.45000000000007,305.2076228535364L115.50000000000009,304.9392771197403L116.55000000000008,304.66798591786636L117.60000000000008,304.3936838683926L118.65000000000008,304.1163033905344L119.70000000000009,303.8357746023028L120.75000000000009,303.5520252148255L121.80000000000008,303.264980420531L122.85000000000008,302.9745627747633L123.90000000000009,302.6806920703578L124.95000000000009,302.38328520467167L126.00000000000009,302.08225603851497L127.0500000000001,301.7775152463853L128.10000000000008,301.46897015735414L129.1500000000001,301.1565245858948L130.2000000000001,300.84007865188033L131.25000000000009,300.519528588908L132.3000000000001,300.19476654003023L133.3500000000001,299.86568033988567L134.4000000000001,299.53215328212934L135.4500000000001,299.1940638709549L136.50000000000009,298.85128555538546L137.5500000000001,298.50368644487895L138.6000000000001,298.1511290046478L139.6500000000001,297.79346972893313L140.7000000000001,297.4305587902887L141.7500000000001,297.06223966273217L142.8000000000001,296.68834871638876L143.8500000000001,296.308714781002L144.90000000000012,295.9231586753958L145.9500000000001,295.53149269965115L147.0000000000001,295.1335200863942L148.0500000000001,294.7290344071803L149.1000000000001,294.3178189294916L150.15000000000012,293.89964591933295L151.2000000000001,293.4742758838092L152.2500000000001,293.0414567473748L153.30000000000013,292.60092295466376L154.3500000000001,292.15239449190267L155.40000000000012,291.6955758178778L156.4500000000001,291.23015469423433L157.5000000000001,290.75580090351536L158.55000000000013,290.2721648417565L159.6000000000001,289.7788759706124L160.65000000000012,289.2755411118486L161.70000000000013,288.7617425645323L162.7500000000001,288.2370360223344L163.80000000000013,287.70094826492345L164.85000000000014,287.15297459339314L165.90000000000012,286.592575974894L166.95000000000013,286.0191758559803L168.0000000000001,285.43215659745226L169.05000000000013,284.8308554754271L170.10000000000014,284.214560183724L171.15000000000012,283.5825037610252L172.20000000000013,282.9338588522056L173.25000000000014,282.2677311961289L174.30000000000013,281.58315221131124L175.35000000000014,280.8790705252055L176.40000000000012,280.15434226118094L177.45000000000013,279.4077198579399L178.50000000000014,278.6378391469749L179.55000000000013,277.8432043518792L180.60000000000014,277.02217059510923L181.65000000000015,276.172923398061L182.70000000000013,275.2934545321827L183.75000000000014,274.38153341284465L184.80000000000015,273.43467301077624L185.85000000000014,272.4500889697753L186.90000000000015,271.42465023823854L187.95000000000013,270.3548190087802L189.00000000000014,269.2365770609327L190.05000000000015,268.06533463722224L191.10000000000014,266.8358166337736L192.15000000000015,265.5419189715951L193.20000000000016,264.1765252519732L194.25000000000014,262.7312697419451L195.30000000000015,261.1962266582891L196.35000000000016,259.5594964139063L197.40000000000015,257.80664489331224L198.45000000000016,255.91992828636896L199.50000000000014,253.877196856596L200.55000000000015,251.65030353577444L201.60000000000016,249.2027220417042L202.65000000000015,246.48585085427024L203.70000000000016,243.4330238510172L204.75000000000017,239.949274885276L205.80000000000015,235.8926379883406L206.85000000000016,231.03688698375387L207.90000000000015,224.987997001943L208.95000000000016,216.96176945984806L209.65000000000012,209.66025577080822L209.88333333333347,206.652994635884L209.96111111111125,205.56337136970637L209.98703703703717,205.189220861029L209.99567901234582,205.06323471594402L210.00000000000014,204.99999999999994L210.0043209876545,204.9989989363095L210.038888888889,204.99098896681178L210.11666666666682,204.97295703868457L210.3500000000001,204.91878218730122L211.05000000000013,204.75554149879724L212.1000000000001,204.50864097127135L213.15000000000006,204.2592491352967L214.20000000000005,204.00731520169649L215.25000000000003,203.75278681216153L216.3,203.4956099739396L217.35,203.2357289910904L218.39999999999995,202.97308639208822L219.44999999999993,202.7076228535364L220.49999999999991,202.43927711974035L221.5499999999999,202.16798591786642L222.59999999999988,201.89368386839266L223.64999999999984,201.61630339053445L224.69999999999982,201.33577460230288L225.7499999999998,201.0520252148256L226.79999999999978,200.76498042053106L227.84999999999977,200.4745627747633L228.89999999999975,200.1806920703579L229.9499999999997,199.8832852046718L230.9999999999997,199.58225603851503L232.04999999999967,199.27751524638538L233.09999999999965,198.96897015735428L234.14999999999964,198.65652458589494L235.1999999999996,198.34007865188048L236.24999999999957,198.01952858890812L237.29999999999956,197.69476654003034L238.34999999999954,197.36568033988584L239.39999999999952,197.0321532821295L240.44999999999948,196.69406387095506L241.49999999999946,196.35128555538566L242.54999999999944,196.00368644487915L243.59999999999943,195.65112900464806L244.6499999999994,195.2934697289334L245.6999999999994,194.93055879028898L246.74999999999935,194.56223966273245L247.79999999999933,194.18834871638907L248.8499999999993,193.8087147810023L249.8999999999993,193.4231586753961L250.94999999999928,193.0314926996515L251.99999999999923,192.63352008639453L253.04999999999922,192.22903440718062L254.0999999999992,191.8178189294919L255.14999999999918,191.39964591933332L256.19999999999914,190.97427588380958L257.24999999999915,190.54145674737518L258.2999999999991,190.10092295466418L259.3499999999991,189.6523944919031L260.39999999999907,189.19557581787822L261.449999999999,188.73015469423478L262.49999999999903,188.25580090351588L263.549999999999,187.77216484175702L264.599999999999,187.27887597061297L265.64999999999895,186.77554111184918L266.6999999999989,186.2617425645329L267.7499999999989,185.73703602233502L268.7999999999989,185.20094826492408L269.8499999999989,184.65297459339382L270.89999999999884,184.09257597489466L271.9499999999988,183.51917585598102L272.9999999999988,182.932156597453L274.04999999999876,182.33085547542788L275.0999999999988,181.7145601837248L276.1499999999987,181.08250376102603L277.1999999999987,180.43385885220655L278.2499999999987,179.7677311961299L279.29999999999865,179.0831522113122L280.34999999999866,178.37907052520657L281.3999999999986,177.65434226118202L282.44999999999857,176.90771985794103L283.4999999999986,176.13783914697606L284.54999999999853,175.34320435188047L285.59999999999854,174.5221705951105L286.6499999999985,173.67292339806235L287.6999999999985,172.79345453218411L288.74999999999847,171.88153341284612L289.7999999999984,170.93467301077774L290.84999999999843,169.95008896977697L291.8999999999984,168.9246502382403L292.9499999999984,167.85481900878204L293.99999999999835,166.73657706093465L295.0499999999983,165.5653346372243L296.0999999999983,164.33581663377583L297.1499999999983,163.04191897159748L298.1999999999983,161.67652525197568L299.24999999999824,160.23126974194784L300.2999999999982,158.6962266582921L301.3499999999982,157.05949641390944L302.39999999999816,155.30664489331565L303.44999999999817,153.41992828637274L304.4999999999981,151.37719685660016L305.5499999999981,149.15030353577896L306.5999999999981,146.7027220417093L307.64999999999804,143.98585085427595L308.69999999999806,140.9330238510238L309.749999999998,137.44927488528367L310.79999999999797,133.3926379883497L311.849999999998,128.5368869837651L312.89999999999793,122.48799700195747L313.94999999999794,114.46176945986832L314.6499999999979,107.16025577083542L314.8833333333312,104.15299463591498L314.961111111109,103.06337136973877L314.98703703703495,102.68922086106124L314.9956790123436,102.56323471597636L314.9999999999979,102.5000000000307L315.00432098765225,102.49899893631004L315.0388888888868,102.49098896681232L315.11666666666457,102.47295703868508L315.34999999999786,102.41878218730176L316.04999999999785,102.25554149879775L317.09999999999786,102.00864097127192L318.1499999999978,101.75924913529724L319.19999999999783,101.507315201697L320.2499999999978,101.25278681216207L321.2999999999978,100.99560997394013L322.34999999999775,100.73572899109092L323.3999999999977,100.47308639208882L324.4499999999977,100.20762285353698L325.49999999999767,99.93927711974095L326.5499999999977,99.66798591786699L327.59999999999764,99.39368386839323L328.6499999999976,99.11630339053505L329.6999999999976,98.8357746023035L330.74999999999756,98.55202521482619L331.79999999999757,98.26498042053169L332.8499999999975,97.97456277476397L333.8999999999975,97.68069207035853L334.9499999999975,97.38328520467246L335.99999999999744,97.08225603851571L337.04999999999745,96.77751524638603L338.0999999999974,96.46897015735493L339.14999999999736,96.15652458589562L340.1999999999974,95.84007865188113L341.2499999999973,95.51952858890883L342.29999999999734,95.19476654003108L343.3499999999973,94.86568033988658L344.39999999999725,94.53215328213025L345.44999999999726,94.1940638709558L346.4999999999972,93.85128555538637L347.5499999999972,93.50368644487992L348.5999999999972,93.15112900464885L349.64999999999714,92.7934697289341L350.69999999999715,92.43055879028975L351.7499999999971,92.06223966273325L352.7999999999971,91.6883487163899L353.84999999999707,91.30871478100312L354.8999999999971,90.9231586753969L355.94999999999703,90.53149269965235L356.999999999997,90.13352008639538L358.049999999997,89.72903440718147L359.09999999999695,89.31781892949283L360.14999999999696,88.89964591933426L361.1999999999969,88.47427588381049L362.2499999999969,88.04145674737612L363.2999999999969,87.60092295466507L364.34999999999684,87.15239449190409L365.39999999999685,86.69557581787922L366.4499999999968,86.23015469423581L367.49999999999676,85.7558009035169L368.54999999999677,85.27216484175807L369.5999999999967,84.77887597061402L370.64999999999674,84.27554111185026L371.6999999999967,83.76174256453402L372.74999999999665,83.23703602233616L373.79999999999666,82.70094826492522L374.8499999999966,82.15297459339502L375.8999999999966,81.59257597489591L376.9499999999966,81.01917585598227L377.99999999999653,80.43215659745425L379.04999999999654,79.83085547542913L380.0999999999965,79.21456018372612L381.1499999999965,78.5825037610274L382.19999999999646,77.93385885220795L383.2499999999964,77.26773119613136L384.29999999999643,76.58315221131375L385.3499999999964,75.87907052520814L386.3999999999964,75.15434226118361L387.44999999999635,74.40771985794265L388.49999999999636,73.63783914697774L389.5499999999963,72.84320435188215L390.59999999999627,72.0221705951123L391.6499999999963,71.1729233980642L392.69999999999624,70.29345453218599L393.74999999999625,69.38153341284806L394.7999999999962,68.43467301077982L395.84999999999616,67.45008896977907L396.89999999999617,66.42465023824252L397.9499999999961,65.35481900878438L398.99999999999613,64.23657706093712L400.0499999999961,63.06533463722684L401.09999999999604,61.83581663377851L402.14999999999606,60.541918971600296L403.199999999996,59.17652525197866L404.249999999996,57.731269741950996L405.299999999996,56.19622665829547L406.34999999999593,54.55949641391305L407.39999999999594,52.806644893319515L408.4499999999959,50.919928286376944L409.4999999999959,48.877196856604655L410.54999999999586,46.65030353578396L411.5999999999958,44.202722041714765L412.6499999999958,41.48585085428209L413.6999999999958,38.433023851030725L414.7499999999958,34.94927488529163L415.79999999999575,30.892637988359127L416.8499999999957,26.036886983776526L417.8999999999957,19.987997001971962L418.94999999999567,11.961769459888501L419.64999999999566,4.660255770862591L419.883333333329,1.6529946359457313L419.96111111110673,0.5633713697708345L419.98703703703274,0.18922086109375869L419.9956790123414,0.0632347160091058L419.9995198902563,0.0070340741584118405L419.9999999999957,6.343725544866174e-11L420.00048010973507,410L420.0014403292138,410L420.00432098765,410L420.00864197530433,410L420.0129629629587,410L420.01728395061303,410L421.0499999999957,410" style="font-family:sans;font-style:italic;height:auto;overflow-x:visible;overflow-y:visible;width:auto;perspective-origin:0px 0px;transform-origin:0px 0px;fill:none;stroke:rgb(205, 92, 92);stroke-dasharray:5px, 5px;stroke-linecap:round;stroke-linejoin:round;stroke-opacity:0.75;stroke-width:2px;d:path('M 0 410 L 1.05 409.756 L 2.1 409.509 L 3.15 409.259 L 4.2 409.007 L 5.25 408.753 L 6.3 408.496 L 7.35 408.236 L 8.4 407.973 L 9.45 407.708 L 10.5 407.439 L 11.55 407.168 L 12.6 406.894 L 13.65 406.616 L 14.7 406.336 L 15.75 406.052 L 16.8 405.765 L 17.85 405.475 L 18.9 405.181 L 19.95 404.883 L 21 404.582 L 22.05 404.278 L 23.1 403.969 L 24.15 403.657 L 25.2 403.34 L 26.25 403.02 L 27.3 402.695 L 28.35 402.366 L 29.4 402.032 L 30.45 401.694 L 31.5 401.351 L 32.55 401.004 L 33.6 400.651 L 34.65 400.293 L 35.7 399.931 L 36.75 399.562 L 37.8 399.188 L 38.85 398.809 L 39.9 398.423 L 40.95 398.031 L 42 397.634 L 43.05 397.229 L 44.1 396.818 L 45.15 396.4 L 46.2 395.974 L 47.25 395.541 L 48.3 395.101 L 49.35 394.652 L 50.4 394.196 L 51.45 393.73 L 52.5 393.256 L 53.55 392.772 L 54.6 392.279 L 55.65 391.776 L 56.7 391.262 L 57.75 390.737 L 58.8 390.201 L 59.85 389.653 L 60.9 389.093 L 61.95 388.519 L 63 387.932 L 64.05 387.331 L 65.1 386.715 L 66.15 386.082 L 67.2 385.434 L 68.25 384.768 L 69.3 384.083 L 70.35 383.379 L 71.4 382.654 L 72.45 381.908 L 73.5 381.138 L 74.55 380.343 L 75.6 379.522 L 76.65 378.673 L 77.7 377.793 L 78.75 376.882 L 79.8 375.935 L 80.85 374.95 L 81.9 373.925 L 82.95 372.855 L 84 371.737 L 85.05 370.565 L 86.1 369.336 L 87.15 368.042 L 88.2 366.677 L 89.25 365.231 L 90.3 363.696 L 91.35 362.06 L 92.4 360.307 L 93.45 358.42 L 94.5 356.377 L 95.55 354.15 L 96.6 351.703 L 97.65 348.986 L 98.7 345.933 L 99.75 342.449 L 100.8 338.393 L 101.85 333.537 L 102.9 327.488 L 103.95 319.462 L 104.65 312.16 L 104.883 309.153 L 104.961 308.063 L 104.987 307.689 L 104.996 307.563 L 105 307.5 L 105.004 307.499 L 105.039 307.491 L 105.117 307.473 L 105.35 307.419 L 106.05 307.256 L 107.1 307.009 L 108.15 306.759 L 109.2 306.507 L 110.25 306.253 L 111.3 305.996 L 112.35 305.736 L 113.4 305.473 L 114.45 305.208 L 115.5 304.939 L 116.55 304.668 L 117.6 304.394 L 118.65 304.116 L 119.7 303.836 L 120.75 303.552 L 121.8 303.265 L 122.85 302.975 L 123.9 302.681 L 124.95 302.383 L 126 302.082 L 127.05 301.778 L 128.1 301.469 L 129.15 301.157 L 130.2 300.84 L 131.25 300.52 L 132.3 300.195 L 133.35 299.866 L 134.4 299.532 L 135.45 299.194 L 136.5 298.851 L 137.55 298.504 L 138.6 298.151 L 139.65 297.793 L 140.7 297.431 L 141.75 297.062 L 142.8 296.688 L 143.85 296.309 L 144.9 295.923 L 145.95 295.531 L 147 295.134 L 148.05 294.729 L 149.1 294.318 L 150.15 293.9 L 151.2 293.474 L 152.25 293.041 L 153.3 292.601 L 154.35 292.152 L 155.4 291.696 L 156.45 291.23 L 157.5 290.756 L 158.55 290.272 L 159.6 289.779 L 160.65 289.276 L 161.7 288.762 L 162.75 288.237 L 163.8 287.701 L 164.85 287.153 L 165.9 286.593 L 166.95 286.019 L 168 285.432 L 169.05 284.831 L 170.1 284.215 L 171.15 283.582 L 172.2 282.934 L 173.25 282.268 L 174.3 281.583 L 175.35 280.879 L 176.4 280.154 L 177.45 279.408 L 178.5 278.638 L 179.55 277.843 L 180.6 277.022 L 181.65 276.173 L 182.7 275.293 L 183.75 274.382 L 184.8 273.435 L 185.85 272.45 L 186.9 271.425 L 187.95 270.355 L 189 269.237 L 190.05 268.065 L 191.1 266.836 L 192.15 265.542 L 193.2 264.177 L 194.25 262.731 L 195.3 261.196 L 196.35 259.56 L 197.4 257.807 L 198.45 255.92 L 199.5 253.877 L 200.55 251.65 L 201.6 249.203 L 202.65 246.486 L 203.7 243.433 L 204.75 239.949 L 205.8 235.893 L 206.85 231.037 L 207.9 224.988 L 208.95 216.962 L 209.65 209.66 L 209.883 206.653 L 209.961 205.563 L 209.987 205.189 L 209.996 205.063 L 210 205 L 210.004 204.999 L 210.039 204.991 L 210.117 204.973 L 210.35 204.919 L 211.05 204.756 L 212.1 204.509 L 213.15 204.259 L 214.2 204.007 L 215.25 203.753 L 216.3 203.496 L 217.35 203.236 L 218.4 202.973 L 219.45 202.708 L 220.5 202.439 L 221.55 202.168 L 222.6 201.894 L 223.65 201.616 L 224.7 201.336 L 225.75 201.052 L 226.8 200.765 L 227.85 200.475 L 228.9 200.181 L 229.95 199.883 L 231 199.582 L 232.05 199.278 L 233.1 198.969 L 234.15 198.657 L 235.2 198.34 L 236.25 198.02 L 237.3 197.695 L 238.35 197.366 L 239.4 197.032 L 240.45 196.694 L 241.5 196.351 L 242.55 196.004 L 243.6 195.651 L 244.65 195.293 L 245.7 194.931 L 246.75 194.562 L 247.8 194.188 L 248.85 193.809 L 249.9 193.423 L 250.95 193.031 L 252 192.634 L 253.05 192.229 L 254.1 191.818 L 255.15 191.4 L 256.2 190.974 L 257.25 190.541 L 258.3 190.101 L 259.35 189.652 L 260.4 189.196 L 261.45 188.73 L 262.5 188.256 L 263.55 187.772 L 264.6 187.279 L 265.65 186.776 L 266.7 186.262 L 267.75 185.737 L 268.8 185.201 L 269.85 184.653 L 270.9 184.093 L 271.95 183.519 L 273 182.932 L 274.05 182.331 L 275.1 181.715 L 276.15 181.083 L 277.2 180.434 L 278.25 179.768 L 279.3 179.083 L 280.35 178.379 L 281.4 177.654 L 282.45 176.908 L 283.5 176.138 L 284.55 175.343 L 285.6 174.522 L 286.65 173.673 L 287.7 172.793 L 288.75 171.882 L 289.8 170.935 L 290.85 169.95 L 291.9 168.925 L 292.95 167.855 L 294 166.737 L 295.05 165.565 L 296.1 164.336 L 297.15 163.042 L 298.2 161.677 L 299.25 160.231 L 300.3 158.696 L 301.35 157.059 L 302.4 155.307 L 303.45 153.42 L 304.5 151.377 L 305.55 149.15 L 306.6 146.703 L 307.65 143.986 L 308.7 140.933 L 309.75 137.449 L 310.8 133.393 L 311.85 128.537 L 312.9 122.488 L 313.95 114.462 L 314.65 107.16 L 314.883 104.153 L 314.961 103.063 L 314.987 102.689 L 314.996 102.563 L 315 102.5 L 315.004 102.499 L 315.039 102.491 L 315.117 102.473 L 315.35 102.419 L 316.05 102.256 L 317.1 102.009 L 318.15 101.759 L 319.2 101.507 L 320.25 101.253 L 321.3 100.996 L 322.35 100.736 L 323.4 100.473 L 324.45 100.208 L 325.5 99.9393 L 326.55 99.668 L 327.6 99.3937 L 328.65 99.1163 L 329.7 98.8358 L 330.75 98.552 L 331.8 98.265 L 332.85 97.9746 L 333.9 97.6807 L 334.95 97.3833 L 336 97.0823 L 337.05 96.7775 L 338.1 96.469 L 339.15 96.1565 L 340.2 95.8401 L 341.25 95.5195 L 342.3 95.1948 L 343.35 94.8657 L 344.4 94.5322 L 345.45 94.1941 L 346.5 93.8513 L 347.55 93.5037 L 348.6 93.1511 L 349.65 92.7935 L 350.7 92.4306 L 351.75 92.0622 L 352.8 91.6883 L 353.85 91.3087 L 354.9 90.9232 L 355.95 90.5315 L 357 90.1335 L 358.05 89.729 L 359.1 89.3178 L 360.15 88.8996 L 361.2 88.4743 L 362.25 88.0415 L 363.3 87.6009 L 364.35 87.1524 L 365.4 86.6956 L 366.45 86.2302 L 367.5 85.7558 L 368.55 85.2722 L 369.6 84.7789 L 370.65 84.2755 L 371.7 83.7617 L 372.75 83.237 L 373.8 82.701 L 374.85 82.153 L 375.9 81.5926 L 376.95 81.0192 L 378 80.4322 L 379.05 79.8309 L 380.1 79.2146 L 381.15 78.5825 L 382.2 77.9339 L 383.25 77.2677 L 384.3 76.5832 L 385.35 75.8791 L 386.4 75.1543 L 387.45 74.4077 L 388.5 73.6378 L 389.55 72.8432 L 390.6 72.0222 L 391.65 71.1729 L 392.7 70.2935 L 393.75 69.3815 L 394.8 68.4347 L 395.85 67.4501 L 396.9 66.4247 L 397.95 65.3548 L 399 64.2366 L 400.05 63.0653 L 401.1 61.8358 L 402.15 60.5419 L 403.2 59.1765 L 404.25 57.7313 L 405.3 56.1962 L 406.35 54.5595 L 407.4 52.8066 L 408.45 50.9199 L 409.5 48.8772 L 410.55 46.6503 L 411.6 44.2027 L 412.65 41.4859 L 413.7 38.433 L 414.75 34.9493 L 415.8 30.8926 L 416.85 26.0369 L 417.9 19.988 L 418.95 11.9618 L 419.65 4.66026 L 419.883 1.65299 L 419.961 0.563371 L 419.987 0.189221 L 419.996 0.0632347 L 420 0.00703407 L 420 6.34373e-11 L 420 410 L 420.001 410 L 420.004 410 L 420.009 410 L 420.013 410 L 420.017 410 L 421.05 410');"/></g><g class="ideal" style="font-family:sans;font-style:italic;height:auto;overflow-x:visible;overflow-y:visible;width:auto;perspective-origin:0px 0px;transform-origin:0px 0px;stroke-linecap:round;stroke-linejoin:round;stroke-width:1.5px;"><path class="line" fill="none" d="M0,410L420,0" style="font-family:sans;font-style:italic;height:auto;overflow-x:visible;overflow-y:visible;width:auto;perspective-origin:0px 0px;transform-origin:0px 0px;fill:none;stroke:rgb(0, 0, 255);stroke-dasharray:2px, 3px;stroke-linecap:round;stroke-linejoin:round;stroke-opacity:0.75;stroke-width:2px;d:path('M 0 410 L 420 0');"/><g class="points" style="font-family:sans;font-style:italic;height:auto;overflow-x:visible;overflow-y:visible;width:auto;perspective-origin:0px 0px;transform-origin:0px 0px;stroke-linecap:round;stroke-linejoin:round;stroke-width:1.5px;"><circle cx="0" cy="410" r="2" style="font-family:sans;font-style:italic;height:auto;overflow-x:visible;overflow-y:visible;width:auto;perspective-origin:0px 0px;transform-origin:0px 0px;stroke-linecap:round;stroke-linejoin:round;stroke-width:1.5px;cy:410px;r:2px;"/><circle cx="420" cy="0" r="2" style="font-family:sans;font-style:italic;height:auto;overflow-x:visible;overflow-y:visible;width:auto;perspective-origin:0px 0px;transform-origin:0px 0px;stroke-linecap:round;stroke-linejoin:round;stroke-width:1.5px;cx:420px;r:2px;"/></g></g><g class="gridLine" style="font-family:sans;font-style:italic;height:auto;overflow-x:visible;overflow-y:visible;width:auto;perspective-origin:0px 0px;transform-origin:0px 0px;stroke:rgb(0, 0, 255);stroke-linecap:round;stroke-linejoin:round;stroke-opacity:0.25;stroke-width:1.5px;"><g class="x" style="font-family:sans;font-style:italic;height:auto;overflow-x:visible;overflow-y:visible;width:auto;perspective-origin:0px 0px;transform-origin:0px 0px;stroke:rgb(0, 0, 255);stroke-linecap:round;stroke-linejoin:round;stroke-opacity:0.25;stroke-width:1.5px;"><line x1="0" y1="0" x2="0" y2="410" style="font-family:sans;font-style:italic;height:auto;overflow-x:visible;overflow-y:visible;width:auto;perspective-origin:0px 0px;transform-origin:0px 0px;stroke:rgb(0, 0, 255);stroke-linecap:round;stroke-linejoin:round;stroke-opacity:0.25;stroke-width:1.5px;"/><line x1="105" y1="0" x2="105" y2="410" style="font-family:sans;font-style:italic;height:auto;overflow-x:visible;overflow-y:visible;width:auto;perspective-origin:0px 0px;transform-origin:0px 0px;stroke:rgb(0, 0, 255);stroke-linecap:round;stroke-linejoin:round;stroke-opacity:0.25;stroke-width:1.5px;"/><line x1="210" y1="0" x2="210" y2="410" style="font-family:sans;font-style:italic;height:auto;overflow-x:visible;overflow-y:visible;width:auto;perspective-origin:0px 0px;transform-origin:0px 0px;stroke:rgb(0, 0, 255);stroke-linecap:round;stroke-linejoin:round;stroke-opacity:0.25;stroke-width:1.5px;"/><line x1="315" y1="0" x2="315" y2="410" style="font-family:sans;font-style:italic;height:auto;overflow-x:visible;overflow-y:visible;width:auto;perspective-origin:0px 0px;transform-origin:0px 0px;stroke:rgb(0, 0, 255);stroke-linecap:round;stroke-linejoin:round;stroke-opacity:0.25;stroke-width:1.5px;"/></g></g><g class="label" transform="translate(100.8,287)" style="font-family:sans;font-style:italic;height:auto;overflow-x:visible;overflow-y:visible;width:auto;perspective-origin:0px 0px;transform:matrix(1, 0, 0, 1, 100.8, 287);transform-origin:0px 0px;fill:rgb(0, 0, 128);stroke-linecap:round;stroke-linejoin:round;stroke-width:0px;"><text class="gridLineLabel" transform="rotate(-90)" style="display:block;font-family:sans;font-style:italic;height:auto;overflow-x:visible;overflow-y:visible;white-space:nowrap;width:auto;perspective-origin:82.4062px 0px;transform:matrix(6.12323e-17, -1, 1, 6.12323e-17, 0, 0);transform-origin:0px 0px;fill:rgb(135, 206, 235);stroke-linecap:round;stroke-linejoin:round;stroke-width:0px;"> </text></g><g class="label" transform="translate(205.79999999999998,184.49999999999997)" style="font-family:sans;font-style:italic;height:auto;overflow-x:visible;overflow-y:visible;width:auto;perspective-origin:0px 0px;transform:matrix(1, 0, 0, 1, 205.8, 184.5);transform-origin:0px 0px;fill:rgb(0, 0, 128);stroke-linecap:round;stroke-linejoin:round;stroke-width:0px;"><text class="gridLineLabel" transform="rotate(-90)" style="display:block;font-family:sans;font-style:italic;height:auto;overflow-x:visible;overflow-y:visible;white-space:nowrap;width:auto;perspective-origin:54.0938px 0px;transform:matrix(6.12323e-17, -1, 1, 6.12323e-17, 0, 0);transform-origin:0px 0px;fill:rgb(135, 206, 235);stroke-linecap:round;stroke-linejoin:round;stroke-width:0px;"></text></g><g class="label" transform="translate(310.8,94.30000000000001)" style="font-family:sans;font-style:italic;height:auto;overflow-x:visible;overflow-y:visible;width:auto;perspective-origin:0px 0px;transform:matrix(1, 0, 0, 1, 310.8, 94.3);transform-origin:0px 0px;fill:rgb(0, 0, 128);stroke-linecap:round;stroke-linejoin:round;stroke-width:0px;"><text class="gridLineLabel" transform="rotate(-90)" style="display:block;font-family:sans;font-style:italic;height:auto;overflow-x:visible;overflow-y:visible;white-space:nowrap;width:auto;perspective-origin:40.5469px 0px;transform:matrix(6.12323e-17, -1, 1, 6.12323e-17, 0, 0);transform-origin:0px 0px;fill:rgb(135, 206, 235);stroke-linecap:round;stroke-linejoin:round;stroke-width:0px;"> </text></g><g class="label" transform="translate(415.8,369)" style="font-family:sans;font-style:italic;height:auto;overflow-x:visible;overflow-y:visible;width:auto;perspective-origin:0px 0px;transform:matrix(1, 0, 0, 1, 415.8, 369);transform-origin:0px 0px;fill:rgb(0, 0, 128);stroke-linecap:round;stroke-linejoin:round;stroke-width:0px;"><text class="gridLineLabel" transform="rotate(-90)" style="display:block;font-family:sans;font-style:italic;height:auto;overflow-x:visible;overflow-y:visible;white-space:nowrap;width:auto;perspective-origin:35.6875px 0px;transform:matrix(6.12323e-17, -1, 1, 6.12323e-17, 0, 0);transform-origin:0px 0px;fill:rgb(135, 206, 235);stroke-linecap:round;stroke-linejoin:round;stroke-width:0px;"></text></g></g><g class="axis" style="font-family:sans;font-size:14px;font-style:italic;height:auto;overflow-x:visible;overflow-y:visible;width:auto;perspective-origin:0px 0px;transform-origin:0px 0px;stroke-width:1.25px;"><g class="x" fill="none" font-size="10" font-family="sans-serif" text-anchor="middle" transform="translate(60,441)" style="font-family:sans-serif;font-size:10px;font-style:italic;height:auto;overflow-x:visible;overflow-y:visible;width:auto;perspective-origin:0px 0px;transform:matrix(1, 0, 0, 1, 60, 441);transform-origin:0px 0px;fill:none;stroke-width:1.25px;text-anchor:middle;"><path class="domain" stroke="#000" d="M0.5,6V0.5H420.5V6" style="font-family:sans-serif;font-size:10px;font-style:italic;height:auto;overflow-x:visible;overflow-y:visible;width:auto;perspective-origin:0px 0px;transform-origin:0px 0px;fill:none;stroke:rgb(0, 0, 0);stroke-width:1.25px;text-anchor:middle;d:path('M 0.5 6 V 0.5 H 420.5 V 6');"/><g class="tick" opacity="1" transform="translate(0.5,0)" style="font-family:sans;font-size:13px;font-style:italic;height:auto;overflow-x:visible;overflow-y:visible;width:auto;perspective-origin:0px 0px;transform:matrix(1, 0, 0, 1, 0.5, 0);transform-origin:0px 0px;fill:none;stroke-width:1.25px;text-anchor:middle;"><line stroke="#000" y2="6" style="font-family:sans;font-size:13px;font-style:italic;height:auto;overflow-x:visible;overflow-y:visible;width:auto;perspective-origin:0px 0px;transform-origin:0px 0px;fill:none;stroke:rgb(0, 0, 0);stroke-width:1.25px;text-anchor:middle;"/><text fill="#000" y="9" dy="0.71em" style="display:block;font-family:sans;font-size:13px;font-style:italic;height:auto;overflow-x:visible;overflow-y:visible;white-space:nowrap;width:auto;perspective-origin:-0.15625px 0px;transform-origin:0px 0px;stroke-width:1.25px;text-anchor:middle;">0%</text></g><g class="tick" opacity="1" transform="translate(42.5,0)" style="font-family:sans;font-size:13px;font-style:italic;height:auto;overflow-x:visible;overflow-y:visible;width:auto;perspective-origin:0px 0px;transform:matrix(1, 0, 0, 1, 42.5, 0);transform-origin:0px 0px;fill:none;stroke-width:1.25px;text-anchor:middle;"><line stroke="#000" y2="6" style="font-family:sans;font-size:13px;font-style:italic;height:auto;overflow-x:visible;overflow-y:visible;width:auto;perspective-origin:0px 0px;transform-origin:0px 0px;fill:none;stroke:rgb(0, 0, 0);stroke-width:1.25px;text-anchor:middle;"/><text fill="#000" y="9" dy="0.71em" style="display:block;font-family:sans;font-size:13px;font-style:italic;height:auto;overflow-x:visible;overflow-y:visible;white-space:nowrap;width:auto;perspective-origin:-0.171875px 0px;transform-origin:0px 0px;stroke-width:1.25px;text-anchor:middle;">10%</text></g><g class="tick" opacity="1" transform="translate(84.5,0)" style="font-family:sans;font-size:13px;font-style:italic;height:auto;overflow-x:visible;overflow-y:visible;width:auto;perspective-origin:0px 0px;transform:matrix(1, 0, 0, 1, 84.5, 0);transform-origin:0px 0px;fill:none;stroke-width:1.25px;text-anchor:middle;"><line stroke="#000" y2="6" style="font-family:sans;font-size:13px;font-style:italic;height:auto;overflow-x:visible;overflow-y:visible;width:auto;perspective-origin:0px 0px;transform-origin:0px 0px;fill:none;stroke:rgb(0, 0, 0);stroke-width:1.25px;text-anchor:middle;"/><text fill="#000" y="9" dy="0.71em" style="display:block;font-family:sans;font-size:13px;font-style:italic;height:auto;overflow-x:visible;overflow-y:visible;white-space:nowrap;width:auto;perspective-origin:-0.171875px 0px;transform-origin:0px 0px;stroke-width:1.25px;text-anchor:middle;">20%</text></g><g class="tick" opacity="1" transform="translate(126.5,0)" style="font-family:sans;font-size:13px;font-style:italic;height:auto;overflow-x:visible;overflow-y:visible;width:auto;perspective-origin:0px 0px;transform:matrix(1, 0, 0, 1, 126.5, 0);transform-origin:0px 0px;fill:none;stroke-width:1.25px;text-anchor:middle;"><line stroke="#000" y2="6" style="font-family:sans;font-size:13px;font-style:italic;height:auto;overflow-x:visible;overflow-y:visible;width:auto;perspective-origin:0px 0px;transform-origin:0px 0px;fill:none;stroke:rgb(0, 0, 0);stroke-width:1.25px;text-anchor:middle;"/><text fill="#000" y="9" dy="0.71em" style="display:block;font-family:sans;font-size:13px;font-style:italic;height:auto;overflow-x:visible;overflow-y:visible;white-space:nowrap;width:auto;perspective-origin:-0.171875px 0px;transform-origin:0px 0px;stroke-width:1.25px;text-anchor:middle;">30%</text></g><g class="tick" opacity="1" transform="translate(168.5,0)" style="font-family:sans;font-size:13px;font-style:italic;height:auto;overflow-x:visible;overflow-y:visible;width:auto;perspective-origin:0px 0px;transform:matrix(1, 0, 0, 1, 168.5, 0);transform-origin:0px 0px;fill:none;stroke-width:1.25px;text-anchor:middle;"><line stroke="#000" y2="6" style="font-family:sans;font-size:13px;font-style:italic;height:auto;overflow-x:visible;overflow-y:visible;width:auto;perspective-origin:0px 0px;transform-origin:0px 0px;fill:none;stroke:rgb(0, 0, 0);stroke-width:1.25px;text-anchor:middle;"/><text fill="#000" y="9" dy="0.71em" style="display:block;font-family:sans;font-size:13px;font-style:italic;height:auto;overflow-x:visible;overflow-y:visible;white-space:nowrap;width:auto;perspective-origin:-0.171875px 0px;transform-origin:0px 0px;stroke-width:1.25px;text-anchor:middle;">40%</text></g><g class="tick" opacity="1" transform="translate(210.5,0)" style="font-family:sans;font-size:13px;font-style:italic;height:auto;overflow-x:visible;overflow-y:visible;width:auto;perspective-origin:0px 0px;transform:matrix(1, 0, 0, 1, 210.5, 0);transform-origin:0px 0px;fill:none;stroke-width:1.25px;text-anchor:middle;"><line stroke="#000" y2="6" style="font-family:sans;font-size:13px;font-style:italic;height:auto;overflow-x:visible;overflow-y:visible;width:auto;perspective-origin:0px 0px;transform-origin:0px 0px;fill:none;stroke:rgb(0, 0, 0);stroke-width:1.25px;text-anchor:middle;"/><text fill="#000" y="9" dy="0.71em" style="display:block;font-family:sans;font-size:13px;font-style:italic;height:auto;overflow-x:visible;overflow-y:visible;white-space:nowrap;width:auto;perspective-origin:-0.171875px 0px;transform-origin:0px 0px;stroke-width:1.25px;text-anchor:middle;">50%</text></g><g class="tick" opacity="1" transform="translate(252.5,0)" style="font-family:sans;font-size:13px;font-style:italic;height:auto;overflow-x:visible;overflow-y:visible;width:auto;perspective-origin:0px 0px;transform:matrix(1, 0, 0, 1, 252.5, 0);transform-origin:0px 0px;fill:none;stroke-width:1.25px;text-anchor:middle;"><line stroke="#000" y2="6" style="font-family:sans;font-size:13px;font-style:italic;height:auto;overflow-x:visible;overflow-y:visible;width:auto;perspective-origin:0px 0px;transform-origin:0px 0px;fill:none;stroke:rgb(0, 0, 0);stroke-width:1.25px;text-anchor:middle;"/><text fill="#000" y="9" dy="0.71em" style="display:block;font-family:sans;font-size:13px;font-style:italic;height:auto;overflow-x:visible;overflow-y:visible;white-space:nowrap;width:auto;perspective-origin:-0.171875px 0px;transform-origin:0px 0px;stroke-width:1.25px;text-anchor:middle;">60%</text></g><g class="tick" opacity="1" transform="translate(294.5,0)" style="font-family:sans;font-size:13px;font-style:italic;height:auto;overflow-x:visible;overflow-y:visible;width:auto;perspective-origin:0px 0px;transform:matrix(1, 0, 0, 1, 294.5, 0);transform-origin:0px 0px;fill:none;stroke-width:1.25px;text-anchor:middle;"><line stroke="#000" y2="6" style="font-family:sans;font-size:13px;font-style:italic;height:auto;overflow-x:visible;overflow-y:visible;width:auto;perspective-origin:0px 0px;transform-origin:0px 0px;fill:none;stroke:rgb(0, 0, 0);stroke-width:1.25px;text-anchor:middle;"/><text fill="#000" y="9" dy="0.71em" style="display:block;font-family:sans;font-size:13px;font-style:italic;height:auto;overflow-x:visible;overflow-y:visible;white-space:nowrap;width:auto;perspective-origin:0.328125px 0px;transform-origin:0px 0px;stroke-width:1.25px;text-anchor:middle;">70%</text></g><g class="tick" opacity="1" transform="translate(336.5,0)" style="font-family:sans;font-size:13px;font-style:italic;height:auto;overflow-x:visible;overflow-y:visible;width:auto;perspective-origin:0px 0px;transform:matrix(1, 0, 0, 1, 336.5, 0);transform-origin:0px 0px;fill:none;stroke-width:1.25px;text-anchor:middle;"><line stroke="#000" y2="6" style="font-family:sans;font-size:13px;font-style:italic;height:auto;overflow-x:visible;overflow-y:visible;width:auto;perspective-origin:0px 0px;transform-origin:0px 0px;fill:none;stroke:rgb(0, 0, 0);stroke-width:1.25px;text-anchor:middle;"/><text fill="#000" y="9" dy="0.71em" style="display:block;font-family:sans;font-size:13px;font-style:italic;height:auto;overflow-x:visible;overflow-y:visible;white-space:nowrap;width:auto;perspective-origin:-0.171875px 0px;transform-origin:0px 0px;stroke-width:1.25px;text-anchor:middle;">80%</text></g><g class="tick" opacity="1" transform="translate(378.5,0)" style="font-family:sans;font-size:13px;font-style:italic;height:auto;overflow-x:visible;overflow-y:visible;width:auto;perspective-origin:0px 0px;transform:matrix(1, 0, 0, 1, 378.5, 0);transform-origin:0px 0px;fill:none;stroke-width:1.25px;text-anchor:middle;"><line stroke="#000" y2="6" style="font-family:sans;font-size:13px;font-style:italic;height:auto;overflow-x:visible;overflow-y:visible;width:auto;perspective-origin:0px 0px;transform-origin:0px 0px;fill:none;stroke:rgb(0, 0, 0);stroke-width:1.25px;text-anchor:middle;"/><text fill="#000" y="9" dy="0.71em" style="display:block;font-family:sans;font-size:13px;font-style:italic;height:auto;overflow-x:visible;overflow-y:visible;white-space:nowrap;width:auto;perspective-origin:-0.171875px 0px;transform-origin:0px 0px;stroke-width:1.25px;text-anchor:middle;">90%</text></g><g class="tick" opacity="1" transform="translate(420.5,0)" style="font-family:sans;font-size:13px;font-style:italic;height:auto;overflow-x:visible;overflow-y:visible;width:auto;perspective-origin:0px 0px;transform:matrix(1, 0, 0, 1, 420.5, 0);transform-origin:0px 0px;fill:none;stroke-width:1.25px;text-anchor:middle;"><line stroke="#000" y2="6" style="font-family:sans;font-size:13px;font-style:italic;height:auto;overflow-x:visible;overflow-y:visible;width:auto;perspective-origin:0px 0px;transform-origin:0px 0px;fill:none;stroke:rgb(0, 0, 0);stroke-width:1.25px;text-anchor:middle;"/><text fill="#000" y="9" dy="0.71em" style="display:block;font-family:sans;font-size:13px;font-style:italic;height:auto;overflow-x:visible;overflow-y:visible;white-space:nowrap;width:auto;perspective-origin:-0.171875px 0px;transform-origin:0px 0px;stroke-width:1.25px;text-anchor:middle;">100%</text></g></g><g class="label" transform="translate(270,480)" style="font-family:sans;font-size:14px;font-style:italic;height:auto;overflow-x:visible;overflow-y:visible;width:auto;perspective-origin:0px 0px;transform:matrix(1, 0, 0, 1, 270, 480);transform-origin:0px 0px;stroke-width:0px;"><text dx="-152" style="display:block;font-family:sans;font-size:14px;font-style:italic;height:auto;overflow-x:visible;overflow-y:visible;white-space:nowrap;width:auto;perspective-origin:8.28125px 0px;transform-origin:0px 0px;stroke-width:0px;">,    </text></g><g class="y" fill="none" font-size="10" font-family="sans-serif" text-anchor="end" transform="translate(59,30)" style="font-family:sans-serif;font-size:10px;font-style:italic;height:auto;overflow-x:visible;overflow-y:visible;width:auto;perspective-origin:0px 0px;transform:matrix(1, 0, 0, 1, 59, 30);transform-origin:0px 0px;fill:none;stroke-width:1.25px;text-anchor:end;"><path class="domain" stroke="#000" d="M-6,410.5H0.5V0.5H-6" style="font-family:sans-serif;font-size:10px;font-style:italic;height:auto;overflow-x:visible;overflow-y:visible;width:auto;perspective-origin:0px 0px;transform-origin:0px 0px;fill:none;stroke:rgb(0, 0, 0);stroke-width:1.25px;text-anchor:end;d:path('M -6 410.5 H 0.5 V 0.5 H -6');"/><g class="tick" opacity="1" transform="translate(0,410.5)" style="font-family:sans;font-size:13px;font-style:italic;height:auto;overflow-x:visible;overflow-y:visible;width:auto;perspective-origin:0px 0px;transform:matrix(1, 0, 0, 1, 0, 410.5);transform-origin:0px 0px;fill:none;stroke-width:1.25px;text-anchor:end;"><line stroke="#000" x2="-6" style="font-family:sans;font-size:13px;font-style:italic;height:auto;overflow-x:visible;overflow-y:visible;width:auto;perspective-origin:0px 0px;transform-origin:0px 0px;fill:none;stroke:rgb(0, 0, 0);stroke-width:1.25px;text-anchor:end;"/><text fill="#000" x="-9" dy="0.32em" style="display:block;font-family:sans;font-size:13px;font-style:italic;height:auto;overflow-x:visible;overflow-y:visible;white-space:nowrap;width:auto;perspective-origin:-19.4688px 0px;transform-origin:0px 0px;stroke-width:1.25px;text-anchor:end;">0%</text></g><g class="tick" opacity="1" transform="translate(0,369.5)" style="font-family:sans;font-size:13px;font-style:italic;height:auto;overflow-x:visible;overflow-y:visible;width:auto;perspective-origin:0px 0px;transform:matrix(1, 0, 0, 1, 0, 369.5);transform-origin:0px 0px;fill:none;stroke-width:1.25px;text-anchor:end;"><line stroke="#000" x2="-6" style="font-family:sans;font-size:13px;font-style:italic;height:auto;overflow-x:visible;overflow-y:visible;width:auto;perspective-origin:0px 0px;transform-origin:0px 0px;fill:none;stroke:rgb(0, 0, 0);stroke-width:1.25px;text-anchor:end;"/><text fill="#000" x="-9" dy="0.32em" style="display:block;font-family:sans;font-size:13px;font-style:italic;height:auto;overflow-x:visible;overflow-y:visible;white-space:nowrap;width:auto;perspective-origin:-23.625px 0px;transform-origin:0px 0px;stroke-width:1.25px;text-anchor:end;">10%</text></g><g class="tick" opacity="1" transform="translate(0,328.5)" style="font-family:sans;font-size:13px;font-style:italic;height:auto;overflow-x:visible;overflow-y:visible;width:auto;perspective-origin:0px 0px;transform:matrix(1, 0, 0, 1, 0, 328.5);transform-origin:0px 0px;fill:none;stroke-width:1.25px;text-anchor:end;"><line stroke="#000" x2="-6" style="font-family:sans;font-size:13px;font-style:italic;height:auto;overflow-x:visible;overflow-y:visible;width:auto;perspective-origin:0px 0px;transform-origin:0px 0px;fill:none;stroke:rgb(0, 0, 0);stroke-width:1.25px;text-anchor:end;"/><text fill="#000" x="-9" dy="0.32em" style="display:block;font-family:sans;font-size:13px;font-style:italic;height:auto;overflow-x:visible;overflow-y:visible;white-space:nowrap;width:auto;perspective-origin:-23.625px 0px;transform-origin:0px 0px;stroke-width:1.25px;text-anchor:end;">20%</text></g><g class="tick" opacity="1" transform="translate(0,287.5)" style="font-family:sans;font-size:13px;font-style:italic;height:auto;overflow-x:visible;overflow-y:visible;width:auto;perspective-origin:0px 0px;transform:matrix(1, 0, 0, 1, 0, 287.5);transform-origin:0px 0px;fill:none;stroke-width:1.25px;text-anchor:end;"><line stroke="#000" x2="-6" style="font-family:sans;font-size:13px;font-style:italic;height:auto;overflow-x:visible;overflow-y:visible;width:auto;perspective-origin:0px 0px;transform-origin:0px 0px;fill:none;stroke:rgb(0, 0, 0);stroke-width:1.25px;text-anchor:end;"/><text fill="#000" x="-9" dy="0.32em" style="display:block;font-family:sans;font-size:13px;font-style:italic;height:auto;overflow-x:visible;overflow-y:visible;white-space:nowrap;width:auto;perspective-origin:-23.625px 0px;transform-origin:0px 0px;stroke-width:1.25px;text-anchor:end;">30%</text></g><g class="tick" opacity="1" transform="translate(0,246.5)" style="font-family:sans;font-size:13px;font-style:italic;height:auto;overflow-x:visible;overflow-y:visible;width:auto;perspective-origin:0px 0px;transform:matrix(1, 0, 0, 1, 0, 246.5);transform-origin:0px 0px;fill:none;stroke-width:1.25px;text-anchor:end;"><line stroke="#000" x2="-6" style="font-family:sans;font-size:13px;font-style:italic;height:auto;overflow-x:visible;overflow-y:visible;width:auto;perspective-origin:0px 0px;transform-origin:0px 0px;fill:none;stroke:rgb(0, 0, 0);stroke-width:1.25px;text-anchor:end;"/><text fill="#000" x="-9" dy="0.32em" style="display:block;font-family:sans;font-size:13px;font-style:italic;height:auto;overflow-x:visible;overflow-y:visible;white-space:nowrap;width:auto;perspective-origin:-23.625px 0px;transform-origin:0px 0px;stroke-width:1.25px;text-anchor:end;">40%</text></g><g class="tick" opacity="1" transform="translate(0,205.5)" style="font-family:sans;font-size:13px;font-style:italic;height:auto;overflow-x:visible;overflow-y:visible;width:auto;perspective-origin:0px 0px;transform:matrix(1, 0, 0, 1, 0, 205.5);transform-origin:0px 0px;fill:none;stroke-width:1.25px;text-anchor:end;"><line stroke="#000" x2="-6" style="font-family:sans;font-size:13px;font-style:italic;height:auto;overflow-x:visible;overflow-y:visible;width:auto;perspective-origin:0px 0px;transform-origin:0px 0px;fill:none;stroke:rgb(0, 0, 0);stroke-width:1.25px;text-anchor:end;"/><text fill="#000" x="-9" dy="0.32em" style="display:block;font-family:sans;font-size:13px;font-style:italic;height:auto;overflow-x:visible;overflow-y:visible;white-space:nowrap;width:auto;perspective-origin:-23.625px 0px;transform-origin:0px 0px;stroke-width:1.25px;text-anchor:end;">50%</text></g><g class="tick" opacity="1" transform="translate(0,164.5)" style="font-family:sans;font-size:13px;font-style:italic;height:auto;overflow-x:visible;overflow-y:visible;width:auto;perspective-origin:0px 0px;transform:matrix(1, 0, 0, 1, 0, 164.5);transform-origin:0px 0px;fill:none;stroke-width:1.25px;text-anchor:end;"><line stroke="#000" x2="-6" style="font-family:sans;font-size:13px;font-style:italic;height:auto;overflow-x:visible;overflow-y:visible;width:auto;perspective-origin:0px 0px;transform-origin:0px 0px;fill:none;stroke:rgb(0, 0, 0);stroke-width:1.25px;text-anchor:end;"/><text fill="#000" x="-9" dy="0.32em" style="display:block;font-family:sans;font-size:13px;font-style:italic;height:auto;overflow-x:visible;overflow-y:visible;white-space:nowrap;width:auto;perspective-origin:-23.625px 0px;transform-origin:0px 0px;stroke-width:1.25px;text-anchor:end;">60%</text></g><g class="tick" opacity="1" transform="translate(0,123.5)" style="font-family:sans;font-size:13px;font-style:italic;height:auto;overflow-x:visible;overflow-y:visible;width:auto;perspective-origin:0px 0px;transform:matrix(1, 0, 0, 1, 0, 123.5);transform-origin:0px 0px;fill:none;stroke-width:1.25px;text-anchor:end;"><line stroke="#000" x2="-6" style="font-family:sans;font-size:13px;font-style:italic;height:auto;overflow-x:visible;overflow-y:visible;width:auto;perspective-origin:0px 0px;transform-origin:0px 0px;fill:none;stroke:rgb(0, 0, 0);stroke-width:1.25px;text-anchor:end;"/><text fill="#000" x="-9" dy="0.32em" style="display:block;font-family:sans;font-size:13px;font-style:italic;height:auto;overflow-x:visible;overflow-y:visible;white-space:nowrap;width:auto;perspective-origin:-23.125px 0px;transform-origin:0px 0px;stroke-width:1.25px;text-anchor:end;">70%</text></g><g class="tick" opacity="1" transform="translate(0,82.5)" style="font-family:sans;font-size:13px;font-style:italic;height:auto;overflow-x:visible;overflow-y:visible;width:auto;perspective-origin:0px 0px;transform:matrix(1, 0, 0, 1, 0, 82.5);transform-origin:0px 0px;fill:none;stroke-width:1.25px;text-anchor:end;"><line stroke="#000" x2="-6" style="font-family:sans;font-size:13px;font-style:italic;height:auto;overflow-x:visible;overflow-y:visible;width:auto;perspective-origin:0px 0px;transform-origin:0px 0px;fill:none;stroke:rgb(0, 0, 0);stroke-width:1.25px;text-anchor:end;"/><text fill="#000" x="-9" dy="0.32em" style="display:block;font-family:sans;font-size:13px;font-style:italic;height:auto;overflow-x:visible;overflow-y:visible;white-space:nowrap;width:auto;perspective-origin:-23.625px 0px;transform-origin:0px 0px;stroke-width:1.25px;text-anchor:end;">80%</text></g><g class="tick" opacity="1" transform="translate(0,41.5)" style="font-family:sans;font-size:13px;font-style:italic;height:auto;overflow-x:visible;overflow-y:visible;width:auto;perspective-origin:0px 0px;transform:matrix(1, 0, 0, 1, 0, 41.5);transform-origin:0px 0px;fill:none;stroke-width:1.25px;text-anchor:end;"><line stroke="#000" x2="-6" style="font-family:sans;font-size:13px;font-style:italic;height:auto;overflow-x:visible;overflow-y:visible;width:auto;perspective-origin:0px 0px;transform-origin:0px 0px;fill:none;stroke:rgb(0, 0, 0);stroke-width:1.25px;text-anchor:end;"/><text fill="#000" x="-9" dy="0.32em" style="display:block;font-family:sans;font-size:13px;font-style:italic;height:auto;overflow-x:visible;overflow-y:visible;white-space:nowrap;width:auto;perspective-origin:-23.625px 0px;transform-origin:0px 0px;stroke-width:1.25px;text-anchor:end;">90%</text></g><g class="tick" opacity="1" transform="translate(0,0.5)" style="font-family:sans;font-size:13px;font-style:italic;height:auto;overflow-x:visible;overflow-y:visible;width:auto;perspective-origin:0px 0px;transform:matrix(1, 0, 0, 1, 0, 0.5);transform-origin:0px 0px;fill:none;stroke-width:1.25px;text-anchor:end;"><line stroke="#000" x2="-6" style="font-family:sans;font-size:13px;font-style:italic;height:auto;overflow-x:visible;overflow-y:visible;width:auto;perspective-origin:0px 0px;transform-origin:0px 0px;fill:none;stroke:rgb(0, 0, 0);stroke-width:1.25px;text-anchor:end;"/><text fill="#000" x="-9" dy="0.32em" style="display:block;font-family:sans;font-size:13px;font-style:italic;height:auto;overflow-x:visible;overflow-y:visible;white-space:nowrap;width:auto;perspective-origin:-27.75px 0px;transform-origin:0px 0px;stroke-width:1.25px;text-anchor:end;">100%</text></g></g><g class="label" transform="translate(12,235)" style="font-family:sans;font-size:14px;font-style:italic;height:auto;overflow-x:visible;overflow-y:visible;width:auto;perspective-origin:0px 0px;transform:matrix(1, 0, 0, 1, 12, 235);transform-origin:0px 0px;stroke-width:0px;"><text dx="-92" transform="rotate(-90)" style="display:block;font-family:sans;font-size:14px;font-style:italic;height:auto;overflow-x:visible;overflow-y:visible;white-space:nowrap;width:auto;perspective-origin:4.28125px 0px;transform:matrix(6.12323e-17, -1, 1, 6.12323e-17, 0, 0);transform-origin:0px 0px;stroke-width:0px;">  </text></g></g></g></svg>