<?xml version="1.0" encoding="UTF-8" standalone="no"?>
<!-- Created with Inkscape (http://www.inkscape.org/) -->

<svg
   xmlns:dc="http://purl.org/dc/elements/1.1/"
   xmlns:cc="http://creativecommons.org/ns#"
   xmlns:rdf="http://www.w3.org/1999/02/22-rdf-syntax-ns#"
   xmlns:svg="http://www.w3.org/2000/svg"
   xmlns="http://www.w3.org/2000/svg"
   xmlns:sodipodi="http://sodipodi.sourceforge.net/DTD/sodipodi-0.dtd"
   xmlns:inkscape="http://www.inkscape.org/namespaces/inkscape"
   width="210mm"
   height="297mm"
   viewBox="0 0 210 297"
   version="1.1"
   id="svg8"
   inkscape:version="0.92.2 (5c3e80d, 2017-08-06)"
   sodipodi:docname="braids.svg">
  <defs
     id="defs2" />
  <sodipodi:namedview
     id="base"
     pagecolor="#ffffff"
     bordercolor="#666666"
     borderopacity="1.0"
     inkscape:pageopacity="0.0"
     inkscape:pageshadow="2"
     inkscape:zoom="2.2952612"
     inkscape:cx="149.59123"
     inkscape:cy="211.36585"
     inkscape:document-units="mm"
     inkscape:current-layer="layer1"
     showgrid="false"
     inkscape:window-width="1920"
     inkscape:window-height="1028"
     inkscape:window-x="-8"
     inkscape:window-y="22"
     inkscape:window-maximized="1" />
  <metadata
     id="metadata5">
    <rdf:RDF>
      <cc:Work
         rdf:about="">
        <dc:format>image/svg+xml</dc:format>
        <dc:type
           rdf:resource="http://purl.org/dc/dcmitype/StillImage" />
        <dc:title />
      </cc:Work>
    </rdf:RDF>
  </metadata>
  <g
     inkscape:label="Layer 1"
     inkscape:groupmode="layer"
     id="layer1">
    <path
       style="color:#000000;font-style:normal;font-variant:normal;font-weight:normal;font-stretch:normal;font-size:medium;line-height:normal;font-family:sans-serif;font-variant-ligatures:normal;font-variant-position:normal;font-variant-caps:normal;font-variant-numeric:normal;font-variant-alternates:normal;font-feature-settings:normal;text-indent:0;text-align:start;text-decoration:none;text-decoration-line:none;text-decoration-style:solid;text-decoration-color:#000000;letter-spacing:normal;word-spacing:normal;text-transform:none;writing-mode:lr-tb;direction:ltr;text-orientation:mixed;dominant-baseline:auto;baseline-shift:baseline;text-anchor:start;white-space:normal;shape-padding:0;clip-rule:nonzero;display:inline;overflow:visible;visibility:visible;opacity:1;isolation:auto;mix-blend-mode:normal;color-interpolation:sRGB;color-interpolation-filters:linearRGB;solid-color:#000000;solid-opacity:1;vector-effect:none;fill:#ff7f2a;fill-opacity:1;fill-rule:nonzero;stroke:#000000;stroke-width:0.40000001;stroke-linecap:butt;stroke-linejoin:miter;stroke-miterlimit:4;stroke-dasharray:none;stroke-dashoffset:0;stroke-opacity:1;color-rendering:auto;image-rendering:auto;shape-rendering:auto;text-rendering:auto;enable-background:accumulate"
       d="m 56.681629,21.655933 c -2.2658,-0.191616 -4.70174,0.311736 -6.73632,1.480469 -2.040924,1.172373 -3.691424,3.057997 -4.16602,5.554687 v 0.0059 l -0.002,0.0059 c -1.975926,11.336519 1.754237,22.447924 5.3418,32.789062 1.88605,5.496756 3.73832,10.986383 4.86718,16.617188 -3.51024,3.036651 -7.657175,5.364412 -12.201168,4.988281 -1.45554,-0.183504 -2.98861,-0.652568 -4.185547,-1.429687 -1.202868,-0.780971 -2.062851,-1.826379 -2.347656,-3.273438 l -0.01172,-0.05859 -0.01953,-0.05859 C 34.017943,69.256928 36.023117,59.250341 39.269523,50.327808 L 37.70507,49.757495 c -3.297948,9.064191 -5.434534,19.42736 -2.070312,28.994141 0.389903,1.91649 1.585985,3.356398 3.058593,4.3125 1.48288,0.962771 3.24327,1.484667 4.908203,1.691406 l 0.01563,0.002 0.01758,0.002 c 4.978694,0.417315 9.360815,-1.951605 12.992185,-4.994141 0.8293,1.50954 1.95763,2.944406 3.42188,3.949219 1.64035,1.125661 3.67786,1.724796 5.82031,1.21289 l 0.008,-0.002 0.008,-0.002 c 5.81508,-1.509713 9.45709,-7.11312 10.77734,-12.501953 l 0.002,-0.0098 0.004,-0.0098 c 0.61244,-2.808636 0.21918,-5.492551 0.6543,-7.955078 l 0.008,-0.04102 0.002,-0.04102 c 0.4686,-6.186395 -0.11897,-12.333665 -0.59766,-18.396484 l -1.66015,0.130859 c 0.48008,6.080559 1.05199,12.140537 0.59765,18.138672 l 0.01,-0.08203 c -0.49535,2.80341 -0.11401,5.455565 -0.63867,7.876953 -1.21496,4.950104 -4.58137,9.975887 -9.56836,11.275391 -1.63223,0.387377 -3.13871,-0.04141 -4.48437,-0.964844 -1.31132,-0.89987 -2.41333,-2.287155 -3.13281,-3.71875 0.79283,-0.731186 1.60262,-1.459202 2.31054,-2.210938 3.84444,-3.987081 6.66779,-8.956508 7.77149,-14.445312 2.29475,-10.117538 0.51547,-20.364214 0.92187,-30.263672 l 0.002,-0.04883 -0.004,-0.05078 c -0.23786,-3.065095 -1.96794,-5.533875 -4.26967,-7.216719 -2.29681,-1.679241 -5.16846,-2.620857 -7.90821,-2.732422 z m -0.12304,1.658203 h 0.0195 l 0.0195,0.002 c 2.40405,0.09478 5.00746,0.952092 7.00976,2.416016 2.00231,1.463924 3.39651,3.483857 3.5918,6.001953 v -0.09766 c -0.41649,10.145075 1.31918,20.279169 -0.88477,29.978515 l -0.002,0.0098 -0.002,0.0098 c -1.03345,5.145792 -3.69566,9.845636 -7.34765,13.630859 l -0.004,0.0039 -0.002,0.0039 c -0.49269,0.523186 -1.05916,1.00699 -1.58789,1.515625 -1.17331,-5.417842 -2.90111,-10.66815 -4.67565,-15.839942 v -0.002 -0.002 C 49.111452,50.620172 45.538087,39.798227 47.417961,28.99773 c 0.37317,-1.955092 1.642207,-3.432691 3.357418,-4.417969 1.71654,-0.986038 3.86556,-1.43156 5.78321,-1.265625 z"
       id="path30"
       inkscape:connector-curvature="0"
       sodipodi:nodetypes="ccccccccsccccccsccccccccccccccccccccscccccccccccccccccccccccccccc" />
    <path
       style="fill:none;stroke:#000000;stroke-width:0.365;stroke-linecap:butt;stroke-linejoin:miter;stroke-opacity:1;stroke-miterlimit:4;stroke-dasharray:none"
       d="M 56.626947,79.7654 55.986269,78.109137"
       id="path879"
       inkscape:connector-curvature="0" />
    <path
       style="fill:none;stroke:#000000;stroke-width:0.36500001;stroke-linecap:butt;stroke-linejoin:miter;stroke-miterlimit:4;stroke-dasharray:none;stroke-opacity:1"
       d="m 57.858409,78.624606 -0.48957,-1.835762"
       id="path879-3"
       inkscape:connector-curvature="0"
       sodipodi:nodetypes="cc" />
    <path
       style="color:#000000;font-style:normal;font-variant:normal;font-weight:normal;font-stretch:normal;font-size:medium;line-height:normal;font-family:sans-serif;font-variant-ligatures:normal;font-variant-position:normal;font-variant-caps:normal;font-variant-numeric:normal;font-variant-alternates:normal;font-feature-settings:normal;text-indent:0;text-align:start;text-decoration:none;text-decoration-line:none;text-decoration-style:solid;text-decoration-color:#000000;letter-spacing:normal;word-spacing:normal;text-transform:none;writing-mode:lr-tb;direction:ltr;text-orientation:mixed;dominant-baseline:auto;baseline-shift:baseline;text-anchor:start;white-space:normal;shape-padding:0;clip-rule:nonzero;display:inline;overflow:visible;visibility:visible;opacity:1;isolation:auto;mix-blend-mode:normal;color-interpolation:sRGB;color-interpolation-filters:linearRGB;solid-color:#000000;solid-opacity:1;vector-effect:none;fill:#ff7f2a;fill-opacity:1;fill-rule:nonzero;stroke:#000000;stroke-width:0.40000001;stroke-linecap:butt;stroke-linejoin:miter;stroke-miterlimit:4;stroke-dasharray:none;stroke-dashoffset:0;stroke-opacity:1;color-rendering:auto;image-rendering:auto;shape-rendering:auto;text-rendering:auto;enable-background:accumulate"
       d="m 121.09851,23.41286 c -2.2658,-0.191616 -4.70174,0.311736 -6.73632,1.480469 -2.04093,1.172373 -3.69143,3.057997 -4.16602,5.554687 v 0.0059 l -0.002,0.0059 c -1.97593,11.33652 1.75423,22.447925 5.3418,32.789065 1.88605,5.49675 3.73832,10.98638 4.86718,16.61719 -3.51024,3.03665 -7.65718,5.36441 -12.20117,4.98828 -1.45555,-0.18351 -2.98862,-0.65257 -4.18556,-1.42969 -1.23689,-0.997293 -2.01152,-2.059769 -2.37886,-3.39064 -2.485439,-9.004714 -1.19752,-19.02675 2.04889,-27.949285 L 102.122,51.514422 c -3.297951,9.064189 -4.680983,19.66315 -2.07032,28.994139 0.47484,1.697168 1.58599,3.3564 3.0586,4.3125 1.48288,0.96277 3.24327,1.48467 4.9082,1.69141 l 0.0156,0.002 0.0176,0.002 c 4.97869,0.41731 9.36081,-1.95161 12.99218,-4.99414 0.8293,1.50954 1.95763,2.9444 3.42188,3.94922 1.64035,1.12566 3.67786,1.72479 5.82031,1.21289 l 0.008,-0.002 0.008,-0.002 c 5.81508,-1.50972 9.45709,-7.11312 10.77734,-12.50196 l 0.002,-0.01 0.004,-0.01 c 0.61244,-2.80863 0.21918,-5.49255 0.6543,-7.95507 l 0.008,-0.041 0.002,-0.041 c 0.4686,-6.1864 -0.11897,-12.333667 -0.59766,-18.396487 l -1.66015,0.130859 c 0.48008,6.080559 1.05199,12.140538 0.59765,18.138668 l 0.01,-0.082 c -0.49535,2.80341 -0.11401,5.45557 -0.63867,7.87696 -1.21496,4.9501 -4.58137,9.97588 -9.56836,11.27539 -1.63223,0.38737 -3.13871,-0.0414 -4.48437,-0.96485 -1.31132,-0.89987 -2.41333,-2.28715 -3.13281,-3.71875 0.79283,-0.73118 1.60262,-1.4592 2.31054,-2.21093 3.84444,-3.98709 6.66779,-8.95651 7.77149,-14.44532 2.29475,-10.117534 0.51547,-20.364211 0.92187,-30.263669 l 0.002,-0.04883 -0.004,-0.05078 c -0.23815,-3.065096 -1.96823,-5.533876 -4.26996,-7.21672 -2.29681,-1.679241 -5.16846,-2.620857 -7.90821,-2.732422 z m -0.12304,1.658203 h 0.0195 l 0.0195,0.002 c 2.40405,0.09478 5.00746,0.952092 7.00976,2.416016 2.0023,1.463924 3.39651,3.483857 3.59179,6.001954 v -0.09766 c -0.41648,10.145075 1.31919,20.27917 -0.88476,29.978518 l -0.002,0.01 -0.002,0.01 c -1.03345,5.14579 -3.69567,9.84563 -7.34765,13.63086 l -0.004,0.004 -0.002,0.004 c -0.4927,0.52318 -1.05917,1.00699 -1.58789,1.51562 -1.17332,-5.41784 -2.90112,-10.66815 -4.67566,-15.83994 v -0.002 -0.002 c -3.58149,-10.324453 -7.15485,-21.146399 -5.27498,-31.946897 0.37317,-1.955092 1.64221,-3.432691 3.35742,-4.417969 1.71654,-0.986038 3.86556,-1.43156 5.78321,-1.265625 z"
       id="path30-8"
       inkscape:connector-curvature="0"
       sodipodi:nodetypes="cccccccccaccasccccccccccccccccccccsccccccccccccccccccccccccccccc" />
    <path
       style="fill:none;stroke:#000000;stroke-width:0.36500001;stroke-linecap:butt;stroke-linejoin:miter;stroke-miterlimit:4;stroke-dasharray:none;stroke-opacity:1"
       d="m 121.04382,81.522331 -0.64067,-1.65627"
       id="path879-6"
       inkscape:connector-curvature="0" />
    <path
       style="fill:none;stroke:#000000;stroke-width:0.36500001;stroke-linecap:butt;stroke-linejoin:miter;stroke-miterlimit:4;stroke-dasharray:none;stroke-opacity:1"
       d="m 122.27529,80.381531 -0.48957,-1.83576"
       id="path879-3-6"
       inkscape:connector-curvature="0"
       sodipodi:nodetypes="cc" />
    <path
       style="fill:#ffffff;stroke:#000000;stroke-width:0.36500001;stroke-linecap:butt;stroke-linejoin:miter;stroke-miterlimit:4;stroke-dasharray:0.365, 0.365;stroke-dashoffset:0;stroke-opacity:1"
       d="m 100.6708,74.624401 c 2.40369,-7.519047 16.08955,-15.591121 14.69201,-25.219087 -1.04793,-7.21944 -16.450583,-13.96023 -15.938549,-14.997628 l 0.200452,-1.670435 c -0.51489,1.047565 15.971017,8.097795 17.375247,15.798849 2.03949,11.18494 -17.014292,23.377574 -15.51271,30.376263"
       id="path938-1"
       inkscape:connector-curvature="0"
       sodipodi:nodetypes="caccac" />
    <path
       style="color:#000000;font-style:normal;font-variant:normal;font-weight:normal;font-stretch:normal;font-size:medium;line-height:normal;font-family:sans-serif;font-variant-ligatures:normal;font-variant-position:normal;font-variant-caps:normal;font-variant-numeric:normal;font-variant-alternates:normal;font-feature-settings:normal;text-indent:0;text-align:start;text-decoration:none;text-decoration-line:none;text-decoration-style:solid;text-decoration-color:#000000;letter-spacing:normal;word-spacing:normal;text-transform:none;writing-mode:lr-tb;direction:ltr;text-orientation:mixed;dominant-baseline:auto;baseline-shift:baseline;text-anchor:start;white-space:normal;shape-padding:0;clip-rule:nonzero;display:inline;overflow:visible;visibility:visible;opacity:1;isolation:auto;mix-blend-mode:normal;color-interpolation:sRGB;color-interpolation-filters:linearRGB;solid-color:#000000;solid-opacity:1;vector-effect:none;fill:#ff7f2a;fill-opacity:1;fill-rule:nonzero;stroke:#000000;stroke-width:0.36500001;stroke-linecap:butt;stroke-linejoin:miter;stroke-miterlimit:4;stroke-dasharray:none;stroke-dashoffset:0;stroke-opacity:1;color-rendering:auto;image-rendering:auto;shape-rendering:auto;text-rendering:auto;enable-background:accumulate"
       d="m 183.7207,27.880859 -1.54882,0.22461 c 0.36304,2.484897 -0.23121,5.059779 -0.87696,7.638672 l 0.0137,-0.04687 c -0.67575,2.118038 -0.93179,4.260435 -1.15039,6.376953 -0.63414,-0.06575 -1.26782,-0.154296 -1.9375,0.04687 l -0.0508,0.01367 -0.0469,0.02148 c -4.86743,2.204449 -6.61511,7.827928 -6.61719,12.591797 v 0.03125 l 0.002,0.03125 c 0.10215,1.303146 0.28128,2.614413 0.39258,3.921875 -1.17365,1.06148 -2.35522,2.084076 -3.42773,3.255859 -0.002,0.0017 -0.002,0.0042 -0.004,0.0059 -4.02169,3.854758 -3.98831,10.059717 -1.89648,14.738281 0.48584,1.813554 1.77397,3.122543 3.30664,3.873047 1.52618,0.74733 3.29928,0.979269 4.94336,0.732422 0.22072,-0.0077 0.41999,-0.102867 0.63867,-0.121094 0.14391,0.514618 0.23679,1.038504 0.39258,1.550781 l -0.0274,-0.128906 c 0.19687,1.547603 0.81125,3.109615 1.81836,4.365234 1.00711,1.255619 2.43937,2.20631 4.18945,2.390625 l 0.0586,0.0059 0.0586,-0.002 c 4.04725,-0.182664 7.79992,-1.975834 11.05078,-4.076172 4.00072,-2.16878 5.34345,-6.970005 4.85743,-11.087891 -0.34962,-4.316285 -0.72804,-16.643557 -2.37027,-20.407683 -1.64457,-3.769483 -3.14692,-7.454049 -3.14063,-11.466797 l -1.5664,-0.002 c -0.007,4.402109 1.62039,8.306798 3.27343,12.095703 1.65305,3.788905 1.92977,15.956557 2.24722,19.923308 l 0.002,0.01563 v 0.01367 c 0.43382,3.649038 -0.78082,7.779763 -4.0586,9.548828 l -0.0273,0.01367 -0.0254,0.01758 c -3.11742,2.018888 -6.6293,3.652326 -10.24609,3.833984 -1.26181,-0.149205 -2.29286,-0.811011 -3.08204,-1.794921 -0.80085,-0.998471 -1.32497,-2.315603 -1.48632,-3.583985 l -0.008,-0.06445 -0.0195,-0.06445 c -0.13929,-0.458052 -0.2219,-0.93013 -0.35156,-1.390625 4.95255,-0.991057 9.21203,-4.466227 11.23242,-9.060547 l 0.002,-0.002 v -0.002 c 3.48601,-8.04269 1.54357,-17.187306 -2.14844,-24.621094 -0.54735,-1.498201 -1.54452,-2.995145 -2.89258,-4.041016 -0.43937,-0.340873 -0.97968,-0.521229 -1.49609,-0.740234 0.21813,-2.159553 0.46146,-4.27692 1.10156,-6.283203 l 0.008,-0.02344 0.006,-0.02344 c 0.64885,-2.591292 1.32792,-5.371376 0.9082,-8.244141 z m -3.78711,15.703125 c -0.17984,1.844083 -0.326,3.682186 -0.74023,5.425782 -0.81358,3.420881 -3.21847,5.92967 -5.85742,8.355468 -0.0726,-0.881898 -0.19454,-1.757099 -0.26367,-2.638672 0.007,-4.353914 1.62486,-9.249115 5.64648,-11.109374 0.42351,-0.121035 0.81706,-0.06248 1.21484,-0.0332 z m 1.53516,0.457032 c 0.25337,0.13742 0.52246,0.203482 0.76367,0.390625 1.06754,0.828233 1.94384,2.124056 2.39063,3.353515 l 0.0156,0.04102 0.0195,0.03906 c 3.58121,7.181141 5.37797,15.90017 2.14063,23.369141 -1.83108,4.16032 -5.73988,7.314106 -10.17969,8.181641 -1.68889,-6.528667 -2.48861,-13.270796 -3.08203,-20.042969 3.06909,-2.735316 6.13554,-5.611559 7.17969,-10.001953 0.424,-1.784695 0.5734,-3.562148 0.75195,-5.330078 z m -9.36914,16.683593 c 0.58338,6.375826 1.37534,12.748267 2.98242,18.990235 -0.12175,0.0076 -0.23318,0.06457 -0.35547,0.06836 h -0.0488 l -0.0488,0.0078 c -1.33584,0.208564 -2.8432,0.0053 -4.0625,-0.591797 -1.21931,-0.597059 -2.13947,-1.543707 -2.49219,-2.888672 l -0.0176,-0.06641 -0.0273,-0.06055 c -1.91951,-4.21862 -1.90458,-9.781546 1.52539,-13.064453 l 0.0195,-0.01953 0.0176,-0.01953 c 0.73165,-0.802516 1.66006,-1.58709 2.50781,-2.355469 z"
       id="path987"
       inkscape:connector-curvature="0"
       sodipodi:nodetypes="ccccccccccccccccccccscccccscccccccccccccccccccccccccccccccccccccccccccccccccccccccccc" />
    <path
       style="fill:none;stroke:#000000;stroke-width:0.365;stroke-linecap:butt;stroke-linejoin:miter;stroke-opacity:1;stroke-miterlimit:4;stroke-dasharray:none"
       d="m 175.46088,81.21683 -0.37885,-1.501987"
       id="path1011"
       inkscape:connector-curvature="0" />
    <path
       style="fill:none;stroke:#000000;stroke-width:0.365;stroke-linecap:butt;stroke-linejoin:miter;stroke-opacity:1;stroke-miterlimit:4;stroke-dasharray:none"
       d="m 176.99982,80.921864 -0.38073,-1.505847"
       id="path1013"
       inkscape:connector-curvature="0" />
    <path
       style="fill:none;stroke:#000000;stroke-width:0.365;stroke-linecap:butt;stroke-linejoin:miter;stroke-opacity:1;stroke-miterlimit:4;stroke-dasharray:none"
       d="m 171.90042,58.732414 1.43552,-1.367181"
       id="path1015"
       inkscape:connector-curvature="0" />
    <path
       style="fill:none;stroke:#000000;stroke-width:0.365;stroke-linecap:butt;stroke-linejoin:miter;stroke-opacity:1;stroke-miterlimit:4;stroke-dasharray:none"
       d="m 172.09961,60.724607 1.43745,-1.35156"
       id="path1017"
       inkscape:connector-curvature="0" />
    <path
       style="fill:none;stroke:#000000;stroke-width:0.365;stroke-linecap:butt;stroke-linejoin:miter;stroke-opacity:1;stroke-miterlimit:4;stroke-dasharray:none"
       d="m 179.93359,43.583986 1.53511,0.457031"
       id="path1019"
       inkscape:connector-curvature="0" />
    <path
       style="fill:none;stroke:#000000;stroke-width:0.365;stroke-linecap:butt;stroke-linejoin:miter;stroke-opacity:1;stroke-miterlimit:4;stroke-dasharray:none"
       d="m 180.15823,42.074224 1.5389,0.380748"
       id="path1021"
       inkscape:connector-curvature="0" />
    <path
       style="color:#000000;font-style:normal;font-variant:normal;font-weight:normal;font-stretch:normal;font-size:medium;line-height:normal;font-family:sans-serif;font-variant-ligatures:normal;font-variant-position:normal;font-variant-caps:normal;font-variant-numeric:normal;font-variant-alternates:normal;font-feature-settings:normal;text-indent:0;text-align:start;text-decoration:none;text-decoration-line:none;text-decoration-style:solid;text-decoration-color:#000000;letter-spacing:normal;word-spacing:normal;text-transform:none;writing-mode:lr-tb;direction:ltr;text-orientation:mixed;dominant-baseline:auto;baseline-shift:baseline;text-anchor:start;white-space:normal;shape-padding:0;clip-rule:nonzero;display:inline;overflow:visible;visibility:visible;opacity:1;isolation:auto;mix-blend-mode:normal;color-interpolation:sRGB;color-interpolation-filters:linearRGB;solid-color:#000000;solid-opacity:1;vector-effect:none;fill:#ff7f2a;fill-opacity:1;fill-rule:nonzero;stroke:#000000;stroke-width:0.465;stroke-linecap:butt;stroke-linejoin:miter;stroke-miterlimit:4;stroke-dasharray:none;stroke-dashoffset:0;stroke-opacity:1;color-rendering:auto;image-rendering:auto;shape-rendering:auto;text-rendering:auto;enable-background:accumulate"
       d="m 69.136719,113.28125 c -0.667838,-0.0713 -1.357197,-0.062 -2.064453,0.0352 -3.558794,0.39452 -6.130741,3.03224 -7.357422,6.17187 -4.546167,0.70648 -7.615756,5.2321 -7.232422,9.66797 l -0.0039,-0.0918 c -0.181453,7.15342 0.03099,14.28143 -0.136719,21.37696 v 0.01 0.01 c 0.0053,8.2855 0.103081,17.22684 4.3125,24.90429 0.37332,0.78736 0.951293,1.32579 1.492187,1.90821 -3.199345,2.77316 -8.053296,3.78955 -11.832031,1.77148 -9.055264,-8.43073 -10.932736,-26.91137 -6.544922,-36.42773 l -1.496093,-0.73242 c -4.174298,11.56933 -1.663805,31.52729 7.154299,38.57812 l 0.0293,0.0176 0.0293,0.0156 c 4.532266,2.44713 10.255788,1.34483 13.949219,-1.99609 0.776601,0.53618 1.586111,1.02588 2.474609,1.31055 2.177849,0.69775 4.569745,0.74568 6.746094,0.51562 l 0.0039,-0.002 h 0.0039 c 0.289028,-0.0331 0.690248,-0.025 1.003907,-0.0371 2.335461,2.88785 5.129675,5.37918 8.68164,6.88672 l 0.02148,0.008 0.01953,0.008 c 2.003467,0.72572 4.340738,0.52562 6.255859,-0.43359 1.913425,-0.95836 3.432256,-2.78435 3.46875,-5.19922 2.8e-4,-0.002 0.0017,-0.004 0.002,-0.006 0.784216,-5.63563 -0.179266,-11.41114 2.707031,-15.97656 l 0.0332,-0.0488 0.02344,-0.0547 C 93.078592,160.57495 95.179084,155.62136 97,150.55078 l -1.566406,-0.5625 c -1.799808,5.0118 -3.884048,9.92622 -6.072266,14.80078 l 0.05664,-0.10351 c -3.322419,5.25525 -2.199501,11.4426 -2.957031,16.73437 l -0.0078,0.0527 v 0.0547 c -0.02453,1.75023 -1.053996,2.98957 -2.552734,3.74024 -1.492837,0.74771 -3.420475,0.89654 -4.921875,0.35937 -2.814109,-1.1992 -5.084584,-3.1703 -7.097657,-5.42187 0.703887,-0.006 1.316405,0.005 2.033203,-0.0762 1.847497,-0.20809 3.756267,-0.91832 4.923829,-2.87305 2.614312,-4.07768 2.606177,-8.94372 3.49414,-13.14063 l 0.0059,-0.0312 0.0039,-0.0293 c 1.076919,-7.94183 1.408178,-16.0379 0.734375,-24.03907 l -0.002,-0.0391 -0.0078,-0.0391 c -1.097713,-6.07482 -3.39521,-11.74039 -4.513672,-17.58008 l -0.0078,-0.0391 -0.0098,-0.0391 c -0.709491,-2.42854 -2.126632,-4.82193 -4.09375,-6.55664 -1.475338,-1.30104 -3.289805,-2.22636 -5.304687,-2.44141 z m -1.847657,1.68359 c 2.313558,-0.32105 4.360653,0.51737 6.050782,2.00782 1.690129,1.49044 2.972525,3.64035 3.595703,5.77343 l -0.01758,-0.0762 c 1.157159,6.04174 3.442214,11.69271 4.501953,17.5293 0.657306,7.84812 0.332344,15.80746 -0.728516,23.63086 l 0.01172,-0.0606 c -0.939238,4.43926 -0.986503,9.04507 -3.273437,12.60156 l -0.0078,0.0137 -0.0078,0.0117 c -0.866367,1.45722 -2.088018,1.89798 -3.6875,2.07813 -1.022503,0.11516 -2.20683,0.11203 -3.357421,0.125 -2.309326,-3.03628 -4.098146,-6.57753 -5.541016,-10.08984 l -0.0078,-0.0176 -0.0078,-0.0176 c -0.03638,-0.078 -0.05585,-0.16212 -0.0918,-0.24023 2.009554,-6.74401 2.094152,-13.9117 2.826172,-20.66211 l 0.0039,-0.041 v -0.041 c 0.04807,-6.39664 0.378112,-12.81896 0.53711,-19.24218 l 0.002,-0.0176 -0.002,-0.0195 c -0.04238,-2.06991 -0.721621,-4.3379 -2.025391,-6.10938 -1.040367,-1.41358 -2.562119,-2.46806 -4.396484,-2.71875 1.131922,-2.28116 3.055318,-4.13801 5.599609,-4.41601 h 0.01172 z m -7.041015,4.35547 c -0.0028,2.3e-4 -0.005,0.002 -0.0078,0.002 -0.0048,4.9e-4 -0.0089,-5.1e-4 -0.01367,0 z m 0.75,1.76563 c 1.542612,0.047 2.793315,0.73922 3.722656,2.00195 1.056102,1.43496 1.666776,3.43581 1.703125,5.15234 -0.158084,6.3626 -0.485197,12.76182 -0.535156,19.17579 -0.659458,6.09464 -0.840594,12.31232 -2.189453,18.14453 -3.088298,-7.88708 -4.281266,-16.45673 -3.921875,-24.94532 l -0.0059,0.0723 c 0.771611,-5.95346 0.04009,-11.84535 0.796875,-17.51367 l 0.0039,-0.0332 0.002,-0.0332 c 0.03578,-0.68088 0.237523,-1.35219 0.423828,-2.02148 z m -1.738281,0.26172 c -0.115515,0.55431 -0.313581,1.09776 -0.34375,1.65429 -0.783952,5.93412 -0.06142,11.81129 -0.794922,17.47071 l -0.0059,0.0371 -0.002,0.0351 c -0.398221,9.40574 0.980275,18.98882 4.826172,27.68555 -0.498388,1.59722 -1.008413,3.1902 -1.785156,4.69726 l -0.0332,0.0664 -0.02148,0.0703 c -0.360102,1.16692 -1.003134,2.18279 -1.767578,3.09961 -0.425829,-0.46476 -0.882905,-0.88496 -1.183593,-1.52344 l -0.01172,-0.0234 -0.01172,-0.0234 c -3.962239,-7.20532 -4.111674,-15.83818 -4.117188,-24.11328 v -0.0137 c -10e-7,-0.002 2e-6,-0.004 0,-0.006 0.168261,-7.14827 -0.04497,-14.26785 0.134766,-21.35352 l 0.002,-0.0469 -0.0039,-0.0469 c -0.28749,-3.32678 1.940256,-6.72988 5.119141,-7.66601 z m 4.625,49.07422 c 1.232553,2.83881 2.717558,5.65912 4.550781,8.25 -2.009229,0.20812 -4.175464,0.14292 -6.017578,-0.44727 -0.680557,-0.21804 -1.253274,-0.58632 -1.828125,-0.95117 0.895962,-1.0817 1.64837,-2.29005 2.083984,-3.6836 0.524317,-1.0271 0.814901,-2.10995 1.210938,-3.16796 z"
       id="path1046"
       inkscape:connector-curvature="0"
       sodipodi:nodetypes="cccccccccccccccccccccccccsccccccccccccccccccccccccccccccccccccccccccccccccccccccccccccccccccccccccccccccccccccccccccccccccccc" />
    <path
       style="fill:none;stroke:#000000;stroke-width:0.365;stroke-linecap:butt;stroke-linejoin:miter;stroke-opacity:1;stroke-miterlimit:4;stroke-dasharray:none"
       d="m 58.146489,177.27395 1.289071,1.22656"
       id="path1064"
       inkscape:connector-curvature="0" />
    <path
       style="fill:none;stroke:#000000;stroke-width:0.465;stroke-linecap:butt;stroke-linejoin:miter;stroke-opacity:1;stroke-miterlimit:4;stroke-dasharray:none"
       d="m 59.331952,176.16398 1.257893,1.10946"
       id="path1066"
       inkscape:connector-curvature="0" />
    <path
       style="fill:none;stroke:#000000;stroke-width:0.465;stroke-linecap:butt;stroke-linejoin:miter;stroke-opacity:1;stroke-miterlimit:4;stroke-dasharray:none"
       d="m 68.435547,178.67188 1.232424,1.6157"
       id="path1068"
       inkscape:connector-curvature="0" />
    <path
       style="fill:none;stroke:#000000;stroke-width:0.465;stroke-linecap:butt;stroke-linejoin:miter;stroke-opacity:1;stroke-miterlimit:4;stroke-dasharray:none"
       d="m 70.369165,178.59954 1.511704,1.60552"
       id="path1070"
       inkscape:connector-curvature="0" />
    <path
       style="fill:none;stroke:#000000;stroke-width:0.465;stroke-linecap:butt;stroke-linejoin:miter;stroke-opacity:1;stroke-miterlimit:4;stroke-dasharray:none"
       d="m 62.939366,168.23041 0.945398,2.19147"
       id="path1072"
       inkscape:connector-curvature="0" />
    <path
       style="fill:none;stroke:#000000;stroke-width:0.465;stroke-linecap:butt;stroke-linejoin:miter;stroke-opacity:1;stroke-miterlimit:4;stroke-dasharray:none"
       d="m 63.699217,165.56055 1.021533,2.67372"
       id="path1074"
       inkscape:connector-curvature="0" />
    <path
       style="fill:none;stroke:#000000;stroke-width:0.465;stroke-linecap:butt;stroke-linejoin:miter;stroke-opacity:1;stroke-miterlimit:4;stroke-dasharray:none"
       d="m 59.714844,119.48832 -0.455108,1.85911"
       id="path1076"
       inkscape:connector-curvature="0" />
    <path
       style="fill:none;stroke:#000000;stroke-width:0.465;stroke-linecap:butt;stroke-linejoin:miter;stroke-opacity:1;stroke-miterlimit:4;stroke-dasharray:none"
       d="m 61.666056,119.38275 -0.66801,1.70319"
       id="path1078"
       inkscape:connector-curvature="0" />
    <path
       style="color:#000000;font-style:normal;font-variant:normal;font-weight:normal;font-stretch:normal;font-size:medium;line-height:normal;font-family:sans-serif;font-variant-ligatures:normal;font-variant-position:normal;font-variant-caps:normal;font-variant-numeric:normal;font-variant-alternates:normal;font-feature-settings:normal;text-indent:0;text-align:start;text-decoration:none;text-decoration-line:none;text-decoration-style:solid;text-decoration-color:#000000;letter-spacing:normal;word-spacing:normal;text-transform:none;writing-mode:lr-tb;direction:ltr;text-orientation:mixed;dominant-baseline:auto;baseline-shift:baseline;text-anchor:start;white-space:normal;shape-padding:0;clip-rule:nonzero;display:inline;overflow:visible;visibility:visible;opacity:1;isolation:auto;mix-blend-mode:normal;color-interpolation:sRGB;color-interpolation-filters:linearRGB;solid-color:#000000;solid-opacity:1;vector-effect:none;fill:#ff7f2a;fill-opacity:1;fill-rule:nonzero;stroke:#000000;stroke-width:0.465;stroke-linecap:butt;stroke-linejoin:miter;stroke-miterlimit:4;stroke-dasharray:none;stroke-dashoffset:0;stroke-opacity:1;color-rendering:auto;image-rendering:auto;shape-rendering:auto;text-rendering:auto;enable-background:accumulate"
       d="m 140.97967,114.13992 c -0.66784,-0.0713 -1.3572,-0.062 -2.06445,0.0352 -3.5588,0.39452 -6.13075,3.03224 -7.35743,6.17187 -4.54616,0.70648 -7.61575,5.2321 -7.23242,9.66797 l -0.004,-0.0918 c -0.18145,7.15342 0.031,14.28143 -0.13672,21.37696 v 0.01 0.01 c 0.005,8.28551 0.10308,17.22685 4.3125,24.9043 0.37332,0.78735 0.95129,1.32579 1.49219,1.90821 -3.19935,2.77315 -8.0533,3.78955 -11.83203,1.77148 -9.05527,-8.43073 -10.93274,-26.91137 -6.54493,-36.42774 l -1.49609,-0.73242 c -4.1743,11.56933 -1.6638,31.5273 7.1543,38.57812 l 0.0293,0.0176 0.0293,0.0156 c 4.53227,2.44714 10.25579,1.34483 13.94922,-1.99608 0.7766,0.53617 1.58611,1.02588 2.47461,1.31055 2.17785,0.69774 4.56974,0.74567 6.74609,0.51562 l 0.004,-0.002 h 0.004 c 0.28903,-0.0331 0.69025,-0.025 1.00391,-0.0371 2.33546,2.88784 5.12968,5.37917 8.68164,6.88671 l 0.0215,0.008 0.0195,0.008 c 2.00347,0.72572 4.34074,0.52562 6.25586,-0.43359 1.91342,-0.95836 3.43225,-2.78435 3.46875,-5.19922 2.6e-4,-0.002 0.002,-0.004 0.002,-0.006 0.78422,-5.63563 -0.17927,-11.41114 2.70703,-15.97656 l 0.0332,-0.0488 0.0234,-0.0547 c 2.19769,-4.89648 4.29818,-9.85007 6.1191,-14.92065 l -1.56641,-0.56254 c -1.79981,5.0118 -3.88405,9.92622 -6.07227,14.80078 l 0.0566,-0.10351 c -3.32241,5.25525 -2.1995,11.4426 -2.95703,16.73437 l -0.008,0.0527 v 0.0547 c -0.0245,1.75023 -1.05399,2.98957 -2.55273,3.74024 -1.49284,0.74771 -3.42047,0.89654 -4.92188,0.35937 -2.8141,-1.1992 -5.08458,-3.1703 -7.09765,-5.42187 0.70388,-0.006 1.3164,0.005 2.0332,-0.0762 1.8475,-0.20809 3.75627,-0.91832 4.92383,-2.87305 2.61431,-4.07768 2.60618,-8.94372 3.49414,-13.14063 l 0.006,-0.0312 0.004,-0.0293 c 1.07692,-7.94183 1.40818,-16.0379 0.73437,-24.03907 l -0.002,-0.0391 -0.008,-0.0391 c -1.09771,-6.07468 -3.3952,-11.74026 -4.51366,-17.57994 l -0.008,-0.0391 -0.01,-0.0391 c -0.7095,-2.42854 -2.12664,-4.82194 -4.09375,-6.55665 -1.47534,-1.30104 -3.28981,-2.22636 -5.30469,-2.44141 z m -1.84766,1.68359 c 2.31356,-0.32105 4.36065,0.51737 6.05078,2.00782 1.69013,1.49044 2.97253,3.64035 3.59571,5.77344 l -0.0176,-0.0762 c 1.15715,6.04173 3.44221,11.6927 4.50195,17.5293 0.6573,7.84812 0.33234,15.80746 -0.72852,23.63086 l 0.0117,-0.0606 c -0.93924,4.43925 -0.9865,9.04507 -3.27344,12.60156 l -0.008,0.0137 -0.008,0.0117 c -0.86636,1.45721 -2.08801,1.89798 -3.68749,2.07813 -1.02251,0.11516 -2.20684,0.11203 -3.35743,0.12499 -2.30932,-3.03627 -4.09814,-6.57752 -5.54101,-10.08984 l -0.008,-0.0176 -0.008,-0.0176 c -0.0364,-0.078 -0.0558,-0.16211 -0.0918,-0.24022 2.00955,-6.74401 2.09415,-13.91171 2.82617,-20.66212 l 0.004,-0.041 v -0.041 c 0.0481,-6.39664 0.37811,-12.81896 0.53711,-19.24218 l 0.002,-0.0176 -0.002,-0.0195 c -0.0424,-2.06992 -0.7216,-4.33791 -2.02538,-6.10939 -1.04039,-1.41357 -2.56214,-2.46806 -4.3965,-2.71874 1.13192,-2.28117 3.05531,-4.13802 5.59961,-4.41602 h 0.0117 z m -7.04101,4.35548 c -0.003,2.2e-4 -0.005,0.002 -0.008,0.002 -0.005,5e-4 -0.009,-5.1e-4 -0.0137,0 z m 0.75,1.76562 c 1.54261,0.047 2.79331,0.73923 3.72265,2.00195 1.0561,1.43496 1.66678,3.43581 1.70313,5.15234 -0.15809,6.3626 -0.4852,12.76182 -0.53516,19.1758 -0.65946,6.09464 -0.84059,12.31232 -2.18945,18.14453 -3.0883,-7.88709 -4.28127,-16.45674 -3.92188,-24.94533 l -0.006,0.0723 c 0.77161,-5.95346 0.0401,-11.84535 0.79688,-17.51367 l 0.004,-0.0332 0.002,-0.0332 c 0.0358,-0.68088 0.23753,-1.35219 0.42384,-2.02148 z m -1.73829,0.26172 c -0.11551,0.55431 -0.31358,1.09776 -0.34375,1.6543 -0.78395,5.93411 -0.0614,11.81128 -0.79492,17.47071 l -0.006,0.0371 -0.002,0.0351 c -0.39822,9.40573 0.98028,18.98882 4.82618,27.68555 -0.49839,1.59722 -1.00842,3.1902 -1.78516,4.69725 l -0.0332,0.0664 -0.0215,0.0703 c -0.3601,1.16693 -1.00314,2.1828 -1.76758,3.09962 -0.42583,-0.46477 -0.8829,-0.88497 -1.18359,-1.52345 l -0.0117,-0.0234 -0.0117,-0.0234 c -3.96224,-7.20534 -4.11168,-15.8382 -4.11719,-24.1133 v -0.0137 c 0,-0.002 0,-0.004 0,-0.006 0.16826,-7.14827 -0.045,-14.26785 0.13477,-21.35352 l 0.002,-0.0469 -0.004,-0.0469 c -0.28751,-3.32676 1.94024,-6.72986 5.11913,-7.66599 z m 4.625,49.07423 c 1.23256,2.83881 2.71756,5.65912 4.55078,8.24999 -2.00922,0.20813 -4.17546,0.14292 -6.01757,-0.44727 -0.68056,-0.21803 -1.25328,-0.58631 -1.82813,-0.95116 0.89596,-1.0817 1.64837,-2.29006 2.08399,-3.68361 0.52431,-1.02709 0.8149,-2.10994 1.21093,-3.16795 z"
       id="path1046-6"
       inkscape:connector-curvature="0"
       sodipodi:nodetypes="cccccccccccccccccccccccccsccccccccccccccccccccccccccccccccccccccccccccccccccccccccccccccccccccccccccccccccccccccccccccccccccc" />
    <path
       style="fill:none;stroke:#000000;stroke-width:0.36500001;stroke-linecap:butt;stroke-linejoin:miter;stroke-miterlimit:4;stroke-dasharray:none;stroke-opacity:1"
       d="m 129.98944,178.13263 1.28907,1.22656"
       id="path1064-8"
       inkscape:connector-curvature="0" />
    <path
       style="fill:none;stroke:#000000;stroke-width:0.465;stroke-linecap:butt;stroke-linejoin:miter;stroke-miterlimit:4;stroke-dasharray:none;stroke-opacity:1"
       d="m 131.1749,177.02266 1.25789,1.10946"
       id="path1066-6"
       inkscape:connector-curvature="0" />
    <path
       style="fill:none;stroke:#000000;stroke-width:0.465;stroke-linecap:butt;stroke-linejoin:miter;stroke-miterlimit:4;stroke-dasharray:none;stroke-opacity:1"
       d="m 140.27849,179.53055 1.23243,1.61571"
       id="path1068-0"
       inkscape:connector-curvature="0" />
    <path
       style="fill:none;stroke:#000000;stroke-width:0.465;stroke-linecap:butt;stroke-linejoin:miter;stroke-miterlimit:4;stroke-dasharray:none;stroke-opacity:1"
       d="m 142.21211,179.45821 1.51171,1.60553"
       id="path1070-3"
       inkscape:connector-curvature="0" />
    <path
       style="fill:none;stroke:#000000;stroke-width:0.465;stroke-linecap:butt;stroke-linejoin:miter;stroke-miterlimit:4;stroke-dasharray:none;stroke-opacity:1"
       d="m 134.78232,169.08909 0.94539,2.19147"
       id="path1072-9"
       inkscape:connector-curvature="0" />
    <path
       style="fill:none;stroke:#000000;stroke-width:0.465;stroke-linecap:butt;stroke-linejoin:miter;stroke-miterlimit:4;stroke-dasharray:none;stroke-opacity:1"
       d="m 135.54216,166.41923 1.02154,2.67372"
       id="path1074-3"
       inkscape:connector-curvature="0" />
    <path
       style="fill:none;stroke:#000000;stroke-width:0.465;stroke-linecap:butt;stroke-linejoin:miter;stroke-miterlimit:4;stroke-dasharray:none;stroke-opacity:1"
       d="m 131.55779,120.34699 -0.45511,1.85912"
       id="path1076-1"
       inkscape:connector-curvature="0" />
    <path
       style="fill:none;stroke:#000000;stroke-width:0.465;stroke-linecap:butt;stroke-linejoin:miter;stroke-miterlimit:4;stroke-dasharray:none;stroke-opacity:1"
       d="m 133.509,120.24143 -0.66801,1.70318"
       id="path1078-4"
       inkscape:connector-curvature="0" />
    <path
       style="fill:#ff7f2a;stroke:#000000;stroke-width:0;stroke-linecap:butt;stroke-linejoin:miter;stroke-miterlimit:4;stroke-dasharray:none;stroke-opacity:1"
       d="m 130.98338,123.95513 -0.27449,3.00678 1.13393,2.07491 0.15355,-3.31031 z"
       id="path1260"
       inkscape:connector-curvature="0"
       sodipodi:nodetypes="ccccc" />
    <path
       style="fill:none;stroke:#000000;stroke-width:0.465;stroke-linecap:butt;stroke-linejoin:miter;stroke-miterlimit:4;stroke-dasharray:none;stroke-opacity:1"
       d="m 130.7944,123.51809 -0.28631,3.03827"
       id="path1262"
       inkscape:connector-curvature="0"
       sodipodi:nodetypes="cc" />
    <path
       style="fill:none;stroke:#000000;stroke-width:0.465;stroke-linecap:butt;stroke-linejoin:miter;stroke-miterlimit:4;stroke-dasharray:none;stroke-opacity:1"
       d="m 132.21181,125.99855 -0.14457,3.369"
       id="path1262-6"
       inkscape:connector-curvature="0"
       sodipodi:nodetypes="cc" />
    <path
       style="fill:#ffffff;stroke:#000000;stroke-width:0.36500001;stroke-linecap:butt;stroke-linejoin:miter;stroke-miterlimit:4;stroke-dasharray:0.365, 0.365;stroke-dashoffset:0;stroke-opacity:1"
       d="m 111.29538,168.89821 c 0.26816,-8.3444 16.15123,-6.66911 23.92552,-10.63545 8.32577,-4.2477 23.96122,-13.45347 24.26052,-14.05986 l 0.94994,1.86309 c -0.27626,0.56206 -15.78213,8.87419 -23.79726,13.08032 -7.92584,4.15926 -26.2315,1.96597 -24.01401,12.01635"
       id="path938-1-4-7-4-1"
       inkscape:connector-curvature="0"
       sodipodi:nodetypes="caccac" />
    <path
       style="fill:#ff7f2a;stroke:#000000;stroke-width:0;stroke-linecap:butt;stroke-linejoin:miter;stroke-miterlimit:4;stroke-dasharray:none;stroke-opacity:1"
       d="m 109.89167,39.041761 0.44012,4.075744 1.37017,1.112251 -0.48146,-4.065893 z"
       id="path1260-0"
       inkscape:connector-curvature="0"
       sodipodi:nodetypes="ccccc" />
    <path
       style="fill:none;stroke:#000000;stroke-width:0.465;stroke-linecap:butt;stroke-linejoin:miter;stroke-miterlimit:4;stroke-dasharray:none;stroke-opacity:1"
       d="m 109.68497,39.301614 0.44602,3.888717"
       id="path1262-9"
       inkscape:connector-curvature="0"
       sodipodi:nodetypes="cc" />
    <path
       style="fill:none;stroke:#000000;stroke-width:0.465;stroke-linecap:butt;stroke-linejoin:miter;stroke-miterlimit:4;stroke-dasharray:none;stroke-opacity:1"
       d="M 111.45674,40.128428 111.95,44.324251"
       id="path1262-6-9"
       inkscape:connector-curvature="0"
       sodipodi:nodetypes="cc" />
    <circle
       style="opacity:1;fill:none;fill-opacity:1;stroke:#0000ff;stroke-width:0.38936517;stroke-linecap:round;stroke-linejoin:round;stroke-miterlimit:4;stroke-dasharray:none;stroke-dashoffset:0;stroke-opacity:1"
       id="path1315"
       cx="125.4723"
       cy="161.4836"
       r="3.2450519" />
    <circle
       style="opacity:1;fill:none;fill-opacity:1;stroke:#0000ff;stroke-width:0.38936517;stroke-linecap:round;stroke-linejoin:round;stroke-miterlimit:4;stroke-dasharray:none;stroke-dashoffset:0;stroke-opacity:1"
       id="path1315-5"
       cx="132.36523"
       cy="160.158"
       r="3.2450519" />
    <circle
       style="opacity:1;fill:none;fill-opacity:1;stroke:#0000ff;stroke-width:0.38936517;stroke-linecap:round;stroke-linejoin:round;stroke-miterlimit:4;stroke-dasharray:none;stroke-dashoffset:0;stroke-opacity:1"
       id="path1315-2"
       cx="137.51016"
       cy="157.8194"
       r="3.2450519" />
    <circle
       style="opacity:1;fill:none;fill-opacity:1;stroke:#0000ff;stroke-width:0.38936517;stroke-linecap:round;stroke-linejoin:round;stroke-miterlimit:4;stroke-dasharray:none;stroke-dashoffset:0;stroke-opacity:1"
       id="path1315-7"
       cx="154.68224"
       cy="148.5986"
       r="3.2450519" />
    <circle
       style="opacity:1;fill:none;fill-opacity:1;stroke:#0000ff;stroke-width:0.38936517;stroke-linecap:round;stroke-linejoin:round;stroke-miterlimit:4;stroke-dasharray:none;stroke-dashoffset:0;stroke-opacity:1"
       id="path1315-3"
       cx="130.96875"
       cy="177.9375"
       r="3.2450519" />
    <circle
       style="opacity:1;fill:none;fill-opacity:1;stroke:#0000ff;stroke-width:0.38936517;stroke-linecap:round;stroke-linejoin:round;stroke-miterlimit:4;stroke-dasharray:none;stroke-dashoffset:0;stroke-opacity:1"
       id="path1315-8"
       cx="141.3631"
       cy="180.01636"
       r="3.2450519" />
    <circle
       style="opacity:1;fill:none;fill-opacity:1;stroke:#0000ff;stroke-width:0.38936517;stroke-linecap:round;stroke-linejoin:round;stroke-miterlimit:4;stroke-dasharray:none;stroke-dashoffset:0;stroke-opacity:1"
       id="path1315-1"
       cx="132.29167"
       cy="121.24107"
       r="3.2450519" />
    <path
       style="color:#000000;font-style:normal;font-variant:normal;font-weight:normal;font-stretch:normal;font-size:medium;line-height:normal;font-family:sans-serif;font-variant-ligatures:normal;font-variant-position:normal;font-variant-caps:normal;font-variant-numeric:normal;font-variant-alternates:normal;font-feature-settings:normal;text-indent:0;text-align:start;text-decoration:none;text-decoration-line:none;text-decoration-style:solid;text-decoration-color:#000000;letter-spacing:normal;word-spacing:normal;text-transform:none;writing-mode:lr-tb;direction:ltr;text-orientation:mixed;dominant-baseline:auto;baseline-shift:baseline;text-anchor:start;white-space:normal;shape-padding:0;clip-rule:nonzero;display:inline;overflow:visible;visibility:visible;opacity:1;isolation:auto;mix-blend-mode:normal;color-interpolation:sRGB;color-interpolation-filters:linearRGB;solid-color:#000000;solid-opacity:1;vector-effect:none;fill:#ff6600;fill-opacity:1;fill-rule:nonzero;stroke:#000000;stroke-width:0.465;stroke-linecap:butt;stroke-linejoin:miter;stroke-miterlimit:4;stroke-dasharray:none;stroke-dashoffset:0;stroke-opacity:1;color-rendering:auto;image-rendering:auto;shape-rendering:auto;text-rendering:auto;enable-background:accumulate"
       d="m 67.505859,198.82617 c -2.587297,-0.30466 -5.181504,0.21176 -7.634765,1.10547 -0.761719,-0.28779 -1.523701,-0.58349 -2.384766,-0.61914 -1.86792,-0.241 -4.001915,-0.24425 -5.978516,0.31836 -2.000862,0.56951 -3.869051,1.76887 -4.875,3.86328 l -0.04492,0.0937 -0.02148,0.0996 c -1.723947,7.89463 -0.546537,16.3491 2.884766,23.62109 l 0.01172,0.0254 0.01367,0.0234 c 0.986857,1.79553 1.950503,3.63804 2.88086,5.49414 -1.649858,1.30201 -3.196716,2.74666 -4.365234,4.63867 l -0.01367,0.0215 -0.01367,0.0234 c -2.207624,4.09328 -1.419465,8.74135 -1.265625,12.75976 0.08027,4.67933 1.633834,9.50347 5.185547,12.84766 -8.34e-4,2e-4 -0.0011,0.002 -0.002,0.002 0.0031,0.003 0.0067,0.006 0.0098,0.01 0.0051,0.005 0.0085,0.0108 0.01367,0.0156 l -0.02539,-0.0254 c -0.02149,0.005 -0.03901,0.0224 -0.06055,0.0274 -4.537835,0.41905 -8.399347,-3.08922 -11.138671,-6.7168 l -0.002,-0.002 c -4.117943,-5.59522 -3.20498,-13.324 -0.748047,-19.6621 0.82527,-1.82259 1.402415,-3.83193 2.228515,-5.52735 0.833139,-1.70986 1.857208,-3.05484 3.591797,-3.76367 l -0.667969,-1.63477 c -2.246704,0.91811 -3.581622,2.72212 -4.509765,4.62696 -0.928144,1.90484 -1.513535,3.95521 -2.269531,5.61328 l -0.0098,0.0234 -0.0098,0.0254 c -2.577944,6.65027 -3.6723,15.03631 0.97461,21.34765 l 0.0039,0.004 0.002,0.004 c 2.898214,3.84036 7.245223,7.97499 12.785156,7.42382 l 0.05078,-0.006 0.05078,-0.01 c 0.432871,-0.0958 0.796554,-0.36737 1.208984,-0.52539 0.718587,0.50536 1.491302,0.93162 2.339844,1.17187 1.47415,0.41739 3.138122,0.30391 4.617187,-0.63086 1.535412,-0.80929 2.611944,-2.04482 3.466797,-3.41992 0.149446,0.035 0.310509,0.0386 0.462891,0.0664 0.466919,0.62944 0.931039,1.26644 1.533203,1.76562 1.632901,1.35364 3.762852,2.14483 6.044922,1.80469 l -0.166016,0.008 c 6.008191,0.2473 13.467455,0.23956 17.970703,-5.11328 l 0.0098,-0.0117 0.0078,-0.0117 c 4.440859,-5.66486 3.251739,-13.43829 0.86914,-19.41992 -0.611629,-1.61683 -1.270341,-3.19174 -1.851562,-4.77148 l -1.65625,0.60937 c 0.600524,1.63221 1.262531,3.21694 1.861328,4.80078 l 0.0039,0.008 0.002,0.006 c 2.259781,5.67329 3.231463,12.75042 -0.611328,17.66601 -3.877987,4.59432 -10.601002,4.72073 -16.533203,4.47656 l -0.08203,-0.004 -0.08398,0.0117 c -1.735443,0.25866 -3.338423,-0.32391 -4.658203,-1.41797 -0.121787,-0.10096 -0.19841,-0.25387 -0.314453,-0.36328 2.296344,-0.20753 4.31347,-1.22215 5.814453,-2.79688 1.684977,-1.76776 2.838963,-4.05707 3.4375,-6.29687 1.748464,-5.99044 0.01157,-11.899 -2.470703,-17.23633 4.050088,-3.44847 8.408456,-6.79969 11.777344,-11.1875 4.422007,-5.4297 3.577893,-13.31029 0.04883,-18.8125 l -0.002,-0.004 c -1.873623,-2.96563 -4.976248,-4.48293 -8.208985,-4.83789 -1.34528,-0.14771 -2.709234,0.007 -4.050781,0.22656 -0.09015,-0.0769 -0.126988,-0.18515 -0.220703,-0.25976 l -0.07227,-0.0586 -0.08398,-0.041 c -1.584311,-0.79308 -3.301359,-1.2855 -5.056641,-1.49219 z m -0.201171,1.77344 c 1.029526,0.11566 1.978666,0.51674 2.945312,0.85547 -0.870242,0.31368 -1.785556,0.54165 -2.564453,1.00195 -1.102412,0.52302 -2.085876,1.21962 -2.931641,2.04883 -0.653518,-1.37997 -1.655662,-2.52172 -2.859375,-3.43359 1.777187,-0.44806 3.604924,-0.67546 5.410157,-0.47266 z m -12.660157,0.33398 c 0.832253,-0.0314 1.658797,0.0275 2.447266,0.1211 -1.454707,0.86495 -2.792048,1.93366 -3.882813,3.25781 l -0.02539,0.0312 -0.02344,0.0332 c -1.810593,2.66456 -2.236981,5.75828 -1.880859,8.75196 0.356121,2.99367 1.477922,5.91842 2.818359,8.41601 l 0.01563,0.0274 0.01758,0.0273 c 1.43419,2.25958 2.768619,4.6181 4.001953,7.02734 -0.678497,0.49189 -1.305628,1.01141 -2.015624,1.49414 -0.777135,0.52838 -1.536,1.12417 -2.3125,1.67969 -0.903242,-1.7837 -1.826898,-3.55505 -2.763672,-5.25976 -3.247458,-6.8906 -4.356874,-14.91281 -2.767578,-22.34375 0.762669,-1.52774 2.077456,-2.40198 3.71875,-2.86915 0.834002,-0.23738 1.740383,-0.3601 2.652343,-0.39453 z m 5.322266,0.85157 c 1.68321,0.8907 2.917147,2.53944 3.542969,4.39257 -1.666943,2.37774 -2.55313,5.29561 -2.173828,8.22266 l 0.0039,0.0234 0.0039,0.0215 c 0.491447,2.69429 1.528053,5.1443 2.716797,7.50781 -0.175874,0.38761 -0.233082,0.80661 -0.462891,1.17969 l -0.0078,0.0137 -0.0078,0.0117 c -1.001515,1.75793 -2.440949,3.13511 -4.021484,4.40821 -1.217526,-2.35301 -2.515522,-4.66038 -3.908203,-6.85743 -1.261928,-2.3513 -2.300821,-5.09674 -2.621094,-7.78906 -0.318622,-2.67843 0.06554,-5.27244 1.574219,-7.51367 1.396865,-1.6831 3.310418,-2.7956 5.361328,-3.62109 z m 16.830078,0.42187 c 2.822228,0.30988 5.360678,1.56933 6.912109,4.02735 l 0.002,0.004 0.002,0.002 c 3.186793,4.96442 3.889647,12.07382 0.06641,16.75977 l -0.0078,0.01 -0.0078,0.01 c -3.097091,4.03815 -7.211499,7.26246 -11.205078,10.64844 -0.46111,-0.91947 -0.902919,-1.86788 -1.378906,-2.74414 l -0.002,-0.002 v -0.002 c -0.665911,-1.21442 -1.368873,-2.38558 -2.078125,-3.57226 3.760109,-3.21141 7.131667,-7.01268 8.021485,-12.18946 l 0.0059,-0.0351 0.002,-0.0371 c 0.371617,-4.17891 0.0017,-9.12629 -2.765625,-12.73828 0.816827,-0.0658 1.63475,-0.22834 2.433594,-0.14063 z m -4.544922,0.34375 c 3.024697,3.05519 3.504841,7.9537 3.121094,12.33203 -0.774335,4.4547 -3.727339,7.88342 -7.185547,10.89649 -0.773303,-1.29863 -1.514741,-2.62004 -2.205078,-3.9336 1.687288,-4.55812 0.70754,-9.55589 -0.257813,-13.89648 l 0.01953,0.14258 c -0.02878,-0.51771 -0.238249,-1.00292 -0.351563,-1.50977 0.853175,-1.04238 1.838012,-1.96958 3.074219,-2.55078 l 0.03906,-0.0176 0.03711,-0.0215 c 1.107678,-0.65995 2.388749,-1.12662 3.708984,-1.44141 z m -8.205078,6.07031 c 0.820896,3.70101 1.635908,7.57263 0.900391,11.07422 -0.809066,-1.79002 -1.505061,-3.61282 -1.859375,-5.53906 -0.241714,-1.89352 0.147244,-3.81917 0.958984,-5.53516 z m 1.0625,15.41211 c 7.2e-4,0.001 0.0012,0.003 0.002,0.004 2.79e-4,5e-4 -2.78e-4,10e-4 0,0.002 0.566415,1.01181 1.138,1.97561 1.730469,2.96094 -1.330624,1.07812 -2.71107,2.10462 -4.058594,3.10156 l -0.0059,0.004 -0.0039,0.004 c -0.459337,0.35171 -1.013193,0.7905 -1.53125,1.15624 -0.31031,-0.69247 -0.548555,-1.41415 -0.88086,-2.0957 1.812479,-1.41712 3.521152,-2.98356 4.742188,-5.11914 0.0034,-0.006 0.0025,-0.0121 0.0059,-0.0176 z m 2.634766,4.50977 c 0.640025,1.06555 1.301214,2.16234 1.884765,3.22656 v -0.004 c 0.533871,0.98282 1.019838,2.01563 1.521485,3.03516 -2.262704,1.73847 -4.65084,3.52397 -6.699219,5.75391 -0.657156,-2.59732 -1.473146,-5.13018 -2.503906,-7.61328 0.65039,-0.46422 1.25539,-0.93904 1.886718,-1.42188 l 0.01172,-0.008 c 1.268547,-0.93849 2.594196,-1.92715 3.898438,-2.96875 z m -8.84375,1.70898 c 0.332418,0.691 0.580338,1.41238 0.888671,2.11328 -0.402667,0.3096 -0.793236,0.54009 -1.173828,0.88672 -1.111923,1.0127 -1.965346,2.33332 -2.408203,3.90039 -0.522933,-1.2571 -1.006737,-2.53149 -1.597656,-3.7539 0.829584,-0.60474 1.626329,-1.22435 2.5,-1.81836 0.606837,-0.41259 1.185269,-0.8974 1.791016,-1.32813 z m 1.591797,3.78516 c 1.094977,2.69811 1.939991,5.44803 2.564453,8.25781 -2.391646,5.06838 -1.209145,10.72221 -0.597657,15.64453 l 0.0059,0.0488 0.01172,0.0488 c 0.110307,0.45541 0.289765,0.97336 0.465365,1.41091 -0.01172,-0.0506 -0.142644,0.0509 -0.142644,0.0509 -1.4267,-0.58634 -2.453663,-1.65727 -3.443809,-2.91689 0.05548,-0.69362 0.204043,-1.37474 0.07227,-2.08594 l 0.0098,0.25586 c 0.54864,-5.03421 -0.363486,-9.86357 -1.957031,-14.48437 0.05214,-0.625 0.02491,-1.28374 0.136719,-1.89063 l 0.0059,-0.0312 0.0039,-0.0293 c 0.175772,-1.5414 0.997543,-2.68667 2.175781,-3.75977 0.200966,-0.18303 0.471513,-0.34326 0.689454,-0.51953 z m -7.351563,0.42969 c 0.941286,1.97263 1.832522,3.9677 2.552734,6.00195 -0.214761,2.8539 -0.138051,5.65408 -0.634765,8.25 l -0.01367,0.0664 -0.002,0.0664 c -0.108386,2.88812 0.854542,5.85024 2.544922,8.25586 -0.423613,2.16788 -1.881839,4.0857 -3.826172,5.20703 -0.186119,-0.16459 -0.43752,-0.20828 -0.605469,-0.38867 l -0.02148,-0.0234 -0.02148,-0.0195 c -3.138482,-2.94072 -4.579963,-7.31121 -4.65039,-11.63672 v -0.01 -0.008 c -0.159423,-4.16425 -0.78643,-8.406 1.048828,-11.83204 0.948629,-1.52771 2.217593,-2.78073 3.628906,-3.92968 z m 18.814453,1.9414 c 2.278404,5.02749 3.730292,10.38719 2.195313,15.63477 l -0.002,0.01 -0.0039,0.01 c -0.527493,1.98015 -1.577784,4.03849 -3.013672,5.54492 -1.435887,1.50643 -3.208417,2.46168 -5.326171,2.42774 -0.218924,-0.003 -0.414236,-0.0691 -0.626954,-0.0899 -0.129142,-0.21219 -0.177195,-0.45393 -0.287109,-0.67578 0.571948,-1.59752 0.9195,-3.28094 0.951172,-4.91015 0.373973,-4.02884 -0.111218,-7.95782 -0.914063,-11.82422 1.865877,-2.35317 4.467351,-4.17052 7.027344,-6.12696 z m -16.072266,1.64844 c -0.0026,0.0139 -0.0014,0.0271 -0.0039,0.041 -8.5e-4,0.007 -0.005,0.0123 -0.0059,0.0195 z m 7.947266,7.44922 c 0.411551,2.87856 0.528397,5.7958 0.251953,8.73437 l -0.0039,0.0332 v 0.0332 c -0.0064,0.35291 -0.08545,0.70554 -0.117187,1.06055 -0.450102,-3.37492 -0.832517,-6.75522 -0.13086,-9.86133 z m -6.767578,0.24609 c 0.521899,2.51795 0.755098,5.07083 0.591797,7.66602 -0.550314,-1.46934 -0.903947,-3.00003 -0.847656,-4.5 l -0.01563,0.13281 c 0.213647,-1.11656 0.21352,-2.20218 0.271484,-3.29883 z m 1.958984,12.84766 c 0.915966,0.91865 1.870813,1.78148 3.0625,2.31445 -0.689291,1.00455 -1.506224,1.90459 -2.617187,2.48242 l -0.03516,0.0176 -0.0332,0.0215 c -1.048218,0.67213 -2.11804,0.74218 -3.214844,0.43164 -0.25908,-0.0734 -0.459644,-0.34218 -0.714844,-0.45899 1.672424,-1.17405 2.905233,-2.88638 3.552734,-4.80859 z"
       id="path975"
       inkscape:connector-curvature="0"
       sodipodi:nodetypes="cccccccccccccccccccccccccccsccccccccccccccccccccccccccccccccccccccccccccccccccccccccsccccccccccccccccccccccscccccccccccccccccccccccccccccccccccccccccccccccccccccccccccccsccsccccccccccccccccccccccccccccccccccccccsccccccccccccccccccccccccccccccccc" />
    <path
       style="fill:none;stroke:#000000;stroke-width:0.465;stroke-linecap:butt;stroke-linejoin:miter;stroke-miterlimit:4;stroke-dasharray:none;stroke-opacity:1"
       d="m 64.247963,261.57998 c -0.847541,-1.35338 -1.231576,-1.60629 -1.78308,-3.59173"
       id="path996"
       inkscape:connector-curvature="0"
       sodipodi:nodetypes="cc" />
    <path
       style="fill:none;stroke:#000000;stroke-width:0.465;stroke-linecap:butt;stroke-linejoin:miter;stroke-miterlimit:4;stroke-dasharray:none;stroke-opacity:1"
       d="m 66.888051,262.02427 c -1.092074,-1.31262 -2.885046,-2.18557 -2.927107,-6.65709"
       id="path996-7"
       inkscape:connector-curvature="0"
       sodipodi:nodetypes="cc" />
    <path
       style="fill:none;stroke:#000000;stroke-width:0.465;stroke-linecap:butt;stroke-linejoin:miter;stroke-miterlimit:4;stroke-dasharray:none;stroke-opacity:1"
       d="m 64.451171,240.5546 c -0.464844,0.44497 -0.929687,1.0812 -1.394531,1.74032"
       id="path1014"
       inkscape:connector-curvature="0"
       sodipodi:nodetypes="cc" />
    <path
       style="fill:none;stroke:#000000;stroke-width:0.465;stroke-linecap:butt;stroke-linejoin:miter;stroke-miterlimit:4;stroke-dasharray:none;stroke-opacity:1"
       d="m 64.927694,242.53558 c -0.383886,0.93005 -0.860155,1.55215 -1.097616,2.97028"
       id="path1014-5"
       inkscape:connector-curvature="0"
       inkscape:transform-center-x="1.3245512"
       inkscape:transform-center-y="-1.8136162"
       sodipodi:nodetypes="cc" />
    <path
       style="fill:none;stroke:#000000;stroke-width:0.465;stroke-linecap:butt;stroke-linejoin:miter;stroke-opacity:1;stroke-miterlimit:4;stroke-dasharray:none"
       d="m 71.955037,236.40862 1.419948,-1.11532"
       id="path1031"
       inkscape:connector-curvature="0" />
    <path
       style="fill:none;stroke:#000000;stroke-width:0.465;stroke-linecap:butt;stroke-linejoin:miter;stroke-opacity:1;stroke-miterlimit:4;stroke-dasharray:none"
       d="m 71.150389,234.80069 1.408327,-1.1321"
       id="path1033"
       inkscape:connector-curvature="0" />
    <path
       style="fill:none;stroke:#000000;stroke-width:0.465;stroke-linecap:butt;stroke-linejoin:miter;stroke-opacity:1;stroke-miterlimit:4;stroke-dasharray:none"
       d="m 72.939393,200.67797 -2.689394,0.77711"
       id="path1035"
       inkscape:connector-curvature="0" />
    <path
       style="fill:none;stroke:#000000;stroke-width:0.465;stroke-linecap:butt;stroke-linejoin:miter;stroke-miterlimit:4;stroke-dasharray:none;stroke-opacity:1"
       d="m 74.363445,202.34825 -2.111496,0.20249"
       id="path1035-7"
       inkscape:connector-curvature="0"
       sodipodi:nodetypes="cc" />
    <path
       style="fill:none;stroke:#000000;stroke-width:0.465;stroke-linecap:butt;stroke-linejoin:miter;stroke-opacity:1;stroke-miterlimit:4;stroke-dasharray:none"
       d="m 64.753905,204.50586 -1.24414,1.67187"
       id="path1052"
       inkscape:connector-curvature="0" />
    <path
       style="fill:none;stroke:#000000;stroke-width:0.465;stroke-linecap:butt;stroke-linejoin:miter;stroke-miterlimit:4;stroke-dasharray:none;stroke-opacity:1"
       d="m 65.392574,206.58203 c -0.551523,0.54884 -0.952646,1.13732 -1.345699,2.03906"
       id="path1054"
       inkscape:connector-curvature="0"
       sodipodi:nodetypes="cc" />
    <path
       style="fill:none;stroke:#000000;stroke-width:0.465;stroke-linecap:butt;stroke-linejoin:miter;stroke-opacity:1;stroke-miterlimit:4;stroke-dasharray:none"
       d="m 64.060535,221.9531 1.04884,2.0801"
       id="path1056"
       inkscape:connector-curvature="0" />
    <path
       style="fill:none;stroke:#000000;stroke-width:0.465;stroke-linecap:butt;stroke-linejoin:miter;stroke-opacity:1;stroke-miterlimit:4;stroke-dasharray:none"
       d="m 64.947265,219.69531 1.035156,2.15039"
       id="path1058"
       inkscape:connector-curvature="0" />
    <path
       style="fill:none;stroke:#000000;stroke-width:0.465;stroke-linecap:butt;stroke-linejoin:miter;stroke-opacity:1;stroke-miterlimit:4;stroke-dasharray:none"
       d="m 68.1875,225.7793 0.912183,1.56889"
       id="path1060"
       inkscape:connector-curvature="0" />
    <path
       style="fill:none;stroke:#000000;stroke-width:0.465;stroke-linecap:butt;stroke-linejoin:miter;stroke-opacity:1;stroke-miterlimit:4;stroke-dasharray:none"
       d="m 66.841843,227.00014 0.902298,1.54283"
       id="path1062"
       inkscape:connector-curvature="0" />
    <path
       style="fill:none;stroke:#000000;stroke-width:0.465;stroke-linecap:butt;stroke-linejoin:miter;stroke-opacity:1;stroke-miterlimit:4;stroke-dasharray:none"
       d="m 63.785072,261.51358 -1.701088,-0.59952"
       id="path1065"
       inkscape:connector-curvature="0" />
    <path
       style="fill:none;stroke:#000000;stroke-width:0.465;stroke-linecap:butt;stroke-linejoin:miter;stroke-opacity:1;stroke-miterlimit:4;stroke-dasharray:none"
       d="m 59.021484,258.59961 -1.433639,-1.4922"
       id="path1067"
       inkscape:connector-curvature="0" />
    <path
       style="fill:none;stroke:#000000;stroke-width:0.465;stroke-linecap:butt;stroke-linejoin:miter;stroke-miterlimit:4;stroke-dasharray:none;stroke-opacity:1"
       d="m 59.355516,256.58197 c -0.585008,-0.94706 -1.254601,-1.38661 -1.701221,-3.164"
       id="path1069"
       inkscape:connector-curvature="0"
       sodipodi:nodetypes="cc" />
    <path
       style="fill:none;stroke:#000000;stroke-width:0.465;stroke-linecap:butt;stroke-linejoin:miter;stroke-opacity:1;stroke-miterlimit:4;stroke-dasharray:none"
       d="m 56.20703,237.15234 -0.51367,3.31641"
       id="path1071"
       inkscape:connector-curvature="0" />
    <path
       style="fill:none;stroke:#000000;stroke-width:0.465;stroke-linecap:butt;stroke-linejoin:miter;stroke-opacity:1;stroke-miterlimit:4;stroke-dasharray:none"
       d="m 57.480554,240.26752 -0.41806,5.48443"
       id="path1073"
       inkscape:connector-curvature="0" />
    <path
       style="fill:none;stroke:#000000;stroke-width:0.465;stroke-linecap:butt;stroke-linejoin:miter;stroke-opacity:1;stroke-miterlimit:4;stroke-dasharray:none"
       d="m 60.492187,234.03711 1.455078,-1.09579"
       id="path1075"
       inkscape:connector-curvature="0" />
    <path
       style="fill:none;stroke:#000000;stroke-width:0.465;stroke-linecap:butt;stroke-linejoin:miter;stroke-opacity:1;stroke-miterlimit:4;stroke-dasharray:none"
       d="m 59.789062,232.36523 1.453137,-1.09929"
       id="path1077"
       inkscape:connector-curvature="0" />
    <path
       style="fill:none;stroke:#000000;stroke-width:0.465;stroke-linecap:butt;stroke-linejoin:miter;stroke-opacity:1;stroke-miterlimit:4;stroke-dasharray:none"
       d="m 59.871093,199.93164 -2.779297,1.12305"
       id="path1079"
       inkscape:connector-curvature="0" />
    <path
       style="fill:none;stroke:#000000;stroke-width:0.465;stroke-linecap:butt;stroke-linejoin:miter;stroke-opacity:1;stroke-miterlimit:4;stroke-dasharray:none"
       d="m 61.894531,201.07227 -1.927722,0.71288"
       id="path1081"
       inkscape:connector-curvature="0" />
    <path
       style="fill:none;stroke:#000000;stroke-width:0.465;stroke-linecap:butt;stroke-linejoin:miter;stroke-opacity:1;stroke-miterlimit:4;stroke-dasharray:none"
       d="m 58.132815,228.62691 0.767575,1.62504"
       id="path1083"
       inkscape:connector-curvature="0" />
    <path
       style="fill:none;stroke:#000000;stroke-width:0.465;stroke-linecap:butt;stroke-linejoin:miter;stroke-opacity:1;stroke-miterlimit:4;stroke-dasharray:none"
       d="m 59.56056,227.5664 0.80078,1.60384"
       id="path1085"
       inkscape:connector-curvature="0" />
    <path
       style="fill:none;stroke:#000000;stroke-width:0.465;stroke-linecap:butt;stroke-linejoin:miter;stroke-opacity:1;stroke-miterlimit:4;stroke-dasharray:none"
       d="m 53.361245,264.39249 -1.540941,-1.22043"
       id="path1087"
       inkscape:connector-curvature="0" />
    <path
       style="fill:none;stroke:#000000;stroke-width:0.465;stroke-linecap:butt;stroke-linejoin:miter;stroke-opacity:1;stroke-miterlimit:4;stroke-dasharray:none"
       d="m 55.468749,263.40823 -1.707075,-1.09379"
       id="path1089"
       inkscape:connector-curvature="0" />
    <path
       style="fill:none;stroke:#000000;stroke-width:0.465;stroke-linecap:butt;stroke-linejoin:miter;stroke-opacity:1;stroke-miterlimit:4;stroke-dasharray:none"
       d="m 53.140625,234.4668 c -3.7e-5,-2.7e-4 1.46875,-1.06836 1.46875,-1.06836"
       id="path1091"
       inkscape:connector-curvature="0" />
    <path
       style="fill:none;stroke:#000000;stroke-width:0.465;stroke-linecap:butt;stroke-linejoin:miter;stroke-opacity:1;stroke-miterlimit:4;stroke-dasharray:none"
       d="m 52.357427,232.85147 1.447265,-1.05073"
       id="path1093"
       inkscape:connector-curvature="0" />
  </g>
</svg>
