<?xml version="1.0" encoding="UTF-8" standalone="no"?>
<svg
   xmlns:dc="http://purl.org/dc/elements/1.1/"
   xmlns:cc="http://creativecommons.org/ns#"
   xmlns:rdf="http://www.w3.org/1999/02/22-rdf-syntax-ns#"
   xmlns:svg="http://www.w3.org/2000/svg"
   xmlns="http://www.w3.org/2000/svg"
   viewBox="0 0 273.48001 251.64"
   height="251.64"
   width="273.48001"
   xml:space="preserve"
   id="svg2"
   version="1.1"><metadata
     id="metadata8"><rdf:RDF><cc:Work
         rdf:about=""><dc:format>image/svg+xml</dc:format><dc:type
           rdf:resource="http://purl.org/dc/dcmitype/StillImage" /><dc:title></dc:title></cc:Work></rdf:RDF></metadata><defs
     id="defs6" /><g
     transform="matrix(1.3333333,0,0,-1.3333333,0,251.64)"
     id="g10"><g
       transform="scale(0.1)"
       id="g12"><path
         id="path14"
         style="fill:#ffffff;fill-opacity:1;fill-rule:nonzero;stroke:none"
         d="M 0,0 H 2141.69 V 2040.88 H 0 Z" /><path
         id="path16"
         style="fill:none;stroke:#000000;stroke-width:15.37940025;stroke-linecap:butt;stroke-linejoin:miter;stroke-miterlimit:4;stroke-dasharray:none;stroke-opacity:1"
         d="M 326.918,232.262 1957.14,1862.48" /><path
         id="path18"
         style="fill:#aaaaaa;fill-opacity:1;fill-rule:nonzero;stroke:none"
         d="m 326.918,232.262 1304.172,815.108 326.05,815.11 V 232.262 H 1631.09 326.918" /><path
         id="path20"
         style="fill:#000000;fill-opacity:1;fill-rule:nonzero;stroke:none"
         d="m 345.375,232.262 c 0,-2.446 -0.469,-4.801 -1.406,-7.063 -0.938,-2.261 -2.27,-4.258 -4,-5.988 -1.731,-1.731 -3.727,-3.063 -5.989,-4 -2.261,-0.938 -4.617,-1.406 -7.062,-1.406 -2.449,0 -4.801,0.468 -7.063,1.406 -2.261,0.937 -4.257,2.269 -5.988,4 -1.73,1.73 -3.062,3.727 -4,5.988 -0.937,2.262 -1.406,4.617 -1.406,7.063 0,2.449 0.469,4.801 1.406,7.062 0.938,2.262 2.27,4.258 4,5.989 1.731,1.73 3.727,3.062 5.988,4 2.262,0.937 4.614,1.406 7.063,1.406 2.445,0 4.801,-0.469 7.062,-1.406 2.262,-0.938 4.258,-2.27 5.989,-4 1.73,-1.731 3.062,-3.727 4,-5.989 0.937,-2.261 1.406,-4.613 1.406,-7.062" /><path
         id="path22"
         style="fill:none;stroke:#ffffff;stroke-width:7.68970013;stroke-linecap:butt;stroke-linejoin:miter;stroke-miterlimit:4;stroke-dasharray:none;stroke-opacity:1"
         d="m 345.375,232.262 c 0,-2.446 -0.469,-4.801 -1.406,-7.063 -0.938,-2.261 -2.27,-4.258 -4,-5.988 -1.731,-1.731 -3.727,-3.063 -5.989,-4 -2.261,-0.938 -4.617,-1.406 -7.062,-1.406 -2.449,0 -4.801,0.468 -7.063,1.406 -2.261,0.937 -4.257,2.269 -5.988,4 -1.73,1.73 -3.062,3.727 -4,5.988 -0.937,2.262 -1.406,4.617 -1.406,7.063 0,2.449 0.469,4.801 1.406,7.062 0.938,2.262 2.27,4.258 4,5.989 1.731,1.73 3.727,3.062 5.988,4 2.262,0.937 4.614,1.406 7.063,1.406 2.445,0 4.801,-0.469 7.062,-1.406 2.262,-0.938 4.258,-2.27 5.989,-4 1.73,-1.731 3.062,-3.727 4,-5.989 0.937,-2.261 1.406,-4.613 1.406,-7.062 z" /><path
         id="path24"
         style="fill:#000000;fill-opacity:1;fill-rule:nonzero;stroke:none"
         d="m 1649.55,1047.37 c 0,-2.45 -0.47,-4.8 -1.41,-7.06 -0.93,-2.26 -2.27,-4.26 -4,-5.99 -1.73,-1.73 -3.72,-3.06 -5.99,-4 -2.25,-0.94 -4.61,-1.41 -7.06,-1.41 -2.44,0 -4.8,0.47 -7.06,1.41 -2.26,0.94 -4.25,2.27 -5.98,4 -1.73,1.73 -3.07,3.73 -4.01,5.99 -0.93,2.26 -1.4,4.61 -1.4,7.06 0,2.45 0.47,4.8 1.4,7.06 0.94,2.27 2.28,4.26 4.01,5.99 1.73,1.73 3.72,3.06 5.98,4 2.26,0.94 4.62,1.4 7.06,1.4 2.45,0 4.81,-0.46 7.06,-1.4 2.27,-0.94 4.26,-2.27 5.99,-4 1.73,-1.73 3.07,-3.72 4,-5.99 0.94,-2.26 1.41,-4.61 1.41,-7.06" /><path
         id="path26"
         style="fill:none;stroke:#ffffff;stroke-width:7.68970013;stroke-linecap:butt;stroke-linejoin:miter;stroke-miterlimit:4;stroke-dasharray:none;stroke-opacity:1"
         d="m 1649.55,1047.37 c 0,-2.45 -0.47,-4.8 -1.41,-7.06 -0.93,-2.26 -2.27,-4.26 -4,-5.99 -1.73,-1.73 -3.72,-3.06 -5.99,-4 -2.25,-0.94 -4.61,-1.41 -7.06,-1.41 -2.44,0 -4.8,0.47 -7.06,1.41 -2.26,0.94 -4.25,2.27 -5.98,4 -1.73,1.73 -3.07,3.73 -4.01,5.99 -0.93,2.26 -1.4,4.61 -1.4,7.06 0,2.45 0.47,4.8 1.4,7.06 0.94,2.27 2.28,4.26 4.01,5.99 1.73,1.73 3.72,3.06 5.98,4 2.26,0.94 4.62,1.4 7.06,1.4 2.45,0 4.81,-0.46 7.06,-1.4 2.27,-0.94 4.26,-2.27 5.99,-4 1.73,-1.73 3.07,-3.72 4,-5.99 0.94,-2.26 1.41,-4.61 1.41,-7.06 z" /><path
         id="path28"
         style="fill:#000000;fill-opacity:1;fill-rule:nonzero;stroke:none"
         d="m 1975.59,1862.48 c 0,-2.45 -0.47,-4.8 -1.4,-7.07 -0.94,-2.25 -2.27,-4.25 -4,-5.98 -1.73,-1.73 -3.73,-3.07 -5.99,-4 -2.26,-0.94 -4.62,-1.41 -7.06,-1.41 -2.45,0 -4.81,0.47 -7.07,1.41 -2.25,0.93 -4.25,2.27 -5.98,4 -1.73,1.73 -3.07,3.73 -4.01,5.98 -0.93,2.27 -1.4,4.62 -1.4,7.07 0,2.45 0.47,4.8 1.4,7.06 0.94,2.26 2.28,4.26 4.01,5.99 1.73,1.73 3.73,3.06 5.98,4 2.26,0.94 4.62,1.4 7.07,1.4 2.44,0 4.8,-0.46 7.06,-1.4 2.26,-0.94 4.26,-2.27 5.99,-4 1.73,-1.73 3.06,-3.73 4,-5.99 0.93,-2.26 1.4,-4.61 1.4,-7.06" /><path
         id="path30"
         style="fill:none;stroke:#ffffff;stroke-width:7.68970013;stroke-linecap:butt;stroke-linejoin:miter;stroke-miterlimit:4;stroke-dasharray:none;stroke-opacity:1"
         d="m 1975.59,1862.48 c 0,-2.45 -0.47,-4.8 -1.4,-7.07 -0.94,-2.25 -2.27,-4.25 -4,-5.98 -1.73,-1.73 -3.73,-3.07 -5.99,-4 -2.26,-0.94 -4.62,-1.41 -7.06,-1.41 -2.45,0 -4.81,0.47 -7.07,1.41 -2.25,0.93 -4.25,2.27 -5.98,4 -1.73,1.73 -3.07,3.73 -4.01,5.98 -0.93,2.27 -1.4,4.62 -1.4,7.07 0,2.45 0.47,4.8 1.4,7.06 0.94,2.26 2.28,4.26 4.01,5.99 1.73,1.73 3.73,3.06 5.98,4 2.26,0.94 4.62,1.4 7.07,1.4 2.44,0 4.8,-0.46 7.06,-1.4 2.26,-0.94 4.26,-2.27 5.99,-4 1.73,-1.73 3.06,-3.73 4,-5.99 0.93,-2.26 1.4,-4.61 1.4,-7.06 z" /><path
         id="path32"
         style="fill:none;stroke:#000000;stroke-width:6.1517601;stroke-linecap:butt;stroke-linejoin:miter;stroke-miterlimit:4;stroke-dasharray:none;stroke-opacity:1"
         d="m 326.918,232.262 1304.172,815.108 326.05,815.11" /><path
         id="path34"
         style="fill:#000000;fill-opacity:1;fill-rule:nonzero;stroke:none"
         d="m 345.375,232.262 c 0,-2.446 -0.469,-4.801 -1.406,-7.063 -0.938,-2.261 -2.27,-4.258 -4,-5.988 -1.731,-1.731 -3.727,-3.063 -5.989,-4 -2.261,-0.938 -4.617,-1.406 -7.062,-1.406 -2.449,0 -4.801,0.468 -7.063,1.406 -2.261,0.937 -4.257,2.269 -5.988,4 -1.73,1.73 -3.062,3.727 -4,5.988 -0.937,2.262 -1.406,4.617 -1.406,7.063 0,2.449 0.469,4.801 1.406,7.062 0.938,2.262 2.27,4.258 4,5.989 1.731,1.73 3.727,3.062 5.988,4 2.262,0.937 4.614,1.406 7.063,1.406 2.445,0 4.801,-0.469 7.062,-1.406 2.262,-0.938 4.258,-2.27 5.989,-4 1.73,-1.731 3.062,-3.727 4,-5.989 0.937,-2.261 1.406,-4.613 1.406,-7.062" /><path
         id="path36"
         style="fill:none;stroke:#ffffff;stroke-width:7.68970013;stroke-linecap:butt;stroke-linejoin:miter;stroke-miterlimit:4;stroke-dasharray:none;stroke-opacity:1"
         d="m 345.375,232.262 c 0,-2.446 -0.469,-4.801 -1.406,-7.063 -0.938,-2.261 -2.27,-4.258 -4,-5.988 -1.731,-1.731 -3.727,-3.063 -5.989,-4 -2.261,-0.938 -4.617,-1.406 -7.062,-1.406 -2.449,0 -4.801,0.468 -7.063,1.406 -2.261,0.937 -4.257,2.269 -5.988,4 -1.73,1.73 -3.062,3.727 -4,5.988 -0.937,2.262 -1.406,4.617 -1.406,7.063 0,2.449 0.469,4.801 1.406,7.062 0.938,2.262 2.27,4.258 4,5.989 1.731,1.73 3.727,3.062 5.988,4 2.262,0.937 4.614,1.406 7.063,1.406 2.445,0 4.801,-0.469 7.062,-1.406 2.262,-0.938 4.258,-2.27 5.989,-4 1.73,-1.731 3.062,-3.727 4,-5.989 0.937,-2.261 1.406,-4.613 1.406,-7.062 z" /><path
         id="path38"
         style="fill:#000000;fill-opacity:1;fill-rule:nonzero;stroke:none"
         d="m 1649.55,1047.37 c 0,-2.45 -0.47,-4.8 -1.41,-7.06 -0.93,-2.26 -2.27,-4.26 -4,-5.99 -1.73,-1.73 -3.72,-3.06 -5.99,-4 -2.25,-0.94 -4.61,-1.41 -7.06,-1.41 -2.44,0 -4.8,0.47 -7.06,1.41 -2.26,0.94 -4.25,2.27 -5.98,4 -1.73,1.73 -3.07,3.73 -4.01,5.99 -0.93,2.26 -1.4,4.61 -1.4,7.06 0,2.45 0.47,4.8 1.4,7.06 0.94,2.27 2.28,4.26 4.01,5.99 1.73,1.73 3.72,3.06 5.98,4 2.26,0.94 4.62,1.4 7.06,1.4 2.45,0 4.81,-0.46 7.06,-1.4 2.27,-0.94 4.26,-2.27 5.99,-4 1.73,-1.73 3.07,-3.72 4,-5.99 0.94,-2.26 1.41,-4.61 1.41,-7.06" /><path
         id="path40"
         style="fill:none;stroke:#ffffff;stroke-width:7.68970013;stroke-linecap:butt;stroke-linejoin:miter;stroke-miterlimit:4;stroke-dasharray:none;stroke-opacity:1"
         d="m 1649.55,1047.37 c 0,-2.45 -0.47,-4.8 -1.41,-7.06 -0.93,-2.26 -2.27,-4.26 -4,-5.99 -1.73,-1.73 -3.72,-3.06 -5.99,-4 -2.25,-0.94 -4.61,-1.41 -7.06,-1.41 -2.44,0 -4.8,0.47 -7.06,1.41 -2.26,0.94 -4.25,2.27 -5.98,4 -1.73,1.73 -3.07,3.73 -4.01,5.99 -0.93,2.26 -1.4,4.61 -1.4,7.06 0,2.45 0.47,4.8 1.4,7.06 0.94,2.27 2.28,4.26 4.01,5.99 1.73,1.73 3.72,3.06 5.98,4 2.26,0.94 4.62,1.4 7.06,1.4 2.45,0 4.81,-0.46 7.06,-1.4 2.27,-0.94 4.26,-2.27 5.99,-4 1.73,-1.73 3.07,-3.72 4,-5.99 0.94,-2.26 1.41,-4.61 1.41,-7.06 z" /><path
         id="path42"
         style="fill:#000000;fill-opacity:1;fill-rule:nonzero;stroke:none"
         d="m 1975.59,1862.48 c 0,-2.45 -0.47,-4.8 -1.4,-7.07 -0.94,-2.25 -2.27,-4.25 -4,-5.98 -1.73,-1.73 -3.73,-3.07 -5.99,-4 -2.26,-0.94 -4.62,-1.41 -7.06,-1.41 -2.45,0 -4.81,0.47 -7.07,1.41 -2.25,0.93 -4.25,2.27 -5.98,4 -1.73,1.73 -3.07,3.73 -4.01,5.98 -0.93,2.27 -1.4,4.62 -1.4,7.07 0,2.45 0.47,4.8 1.4,7.06 0.94,2.26 2.28,4.26 4.01,5.99 1.73,1.73 3.73,3.06 5.98,4 2.26,0.94 4.62,1.4 7.07,1.4 2.44,0 4.8,-0.46 7.06,-1.4 2.26,-0.94 4.26,-2.27 5.99,-4 1.73,-1.73 3.06,-3.73 4,-5.99 0.93,-2.26 1.4,-4.61 1.4,-7.06" /><path
         id="path44"
         style="fill:none;stroke:#ffffff;stroke-width:7.68970013;stroke-linecap:butt;stroke-linejoin:miter;stroke-miterlimit:4;stroke-dasharray:none;stroke-opacity:1"
         d="m 1975.59,1862.48 c 0,-2.45 -0.47,-4.8 -1.4,-7.07 -0.94,-2.25 -2.27,-4.25 -4,-5.98 -1.73,-1.73 -3.73,-3.07 -5.99,-4 -2.26,-0.94 -4.62,-1.41 -7.06,-1.41 -2.45,0 -4.81,0.47 -7.07,1.41 -2.25,0.93 -4.25,2.27 -5.98,4 -1.73,1.73 -3.07,3.73 -4.01,5.98 -0.93,2.27 -1.4,4.62 -1.4,7.07 0,2.45 0.47,4.8 1.4,7.06 0.94,2.26 2.28,4.26 4.01,5.99 1.73,1.73 3.73,3.06 5.98,4 2.26,0.94 4.62,1.4 7.07,1.4 2.44,0 4.8,-0.46 7.06,-1.4 2.26,-0.94 4.26,-2.27 5.99,-4 1.73,-1.73 3.06,-3.73 4,-5.99 0.93,-2.26 1.4,-4.61 1.4,-7.06 z" /><path
         id="path46"
         style="fill:#000000;fill-opacity:1;fill-rule:nonzero;stroke:none"
         d="m 907.129,900.711 c 3.559,4.027 4.269,8.379 1.691,14 l 5.559,2.91 c 3.371,-7.961 2.441,-14.941 -3.5,-20.883 -3.551,-3.168 -7.149,-5.156 -11,-5.039 -3.91,0.449 -7.551,1.973 -11.129,5.539 -3.652,3.782 -6.363,7.672 -8.172,12.114 -2.109,4.546 -2.371,8.468 -1.691,12.109 0.613,3.719 2.601,7.051 5.75,10.199 2.742,3.059 6.25,4.699 9.601,4.93 3.16,0.25 6.469,-0.942 9.371,-3.488 l -4.121,-5.5 c -2.168,1.718 -3.84,2.546 -5.781,2.546 -1.957,0.172 -3.75,-0.828 -5.41,-2.488 -2.477,-2.269 -3.508,-4.738 -3.688,-7.39 -0.492,-2.5 0.668,-5.68 2.559,-9.122 1.742,-3.269 4.152,-6.468 6.742,-9.058 4.789,-4.668 9.27,-5.328 13.219,-1.379" /><path
         id="path48"
         style="fill:#000000;fill-opacity:1;fill-rule:nonzero;stroke:none"
         d="m 941.379,927.238 c -2.469,-2.09 -4.551,-3.59 -6.91,-4.058 -2.621,-0.301 -4.692,-0.141 -6.981,0.98 l -0.129,-0.121 c -0.011,0 0.719,-0.891 1.551,-2.027 0.758,-0.922 4.797,-6.981 11.918,-17.532 l -4.84,-4.851 -28.351,41.851 c -1.918,2.5 -3.297,4.77 -5.09,7 l 4.531,4.532 c 0.371,-0.282 1.199,-1.313 2.082,-2.442 0.727,-1.09 1.5,-1.929 1.84,-2.422 l 0.129,0.122 c -0.551,3.191 -0.262,5.71 0.449,7.968 0.402,2.422 2.141,4.492 4.309,6.672 2.801,3.121 5.961,4.238 9.281,4.129 3.152,0.109 6.469,-1.66 9.469,-4.66 3.371,-3.59 6.711,-7.82 9.051,-12.399 2.339,-4.351 3.332,-8.73 2.972,-12.441 -0.691,-3.66 -2.133,-7.141 -5.281,-10.301 z m -23.102,30.532 c -2,-1.508 -3,-3.731 -3.558,-5.758 -0.571,-1.813 -0.551,-4.242 0.051,-6.633 0.558,-2.27 1.73,-4.93 3.449,-7.668 1.539,-2.422 3.461,-4.992 5.219,-6.75 2.031,-2.039 4.632,-3.481 7.05,-3.582 2.16,0.012 4.672,0.891 6.731,2.961 2.101,2.39 3.398,4.762 3.351,7.449 -0.351,2.981 -1.211,5.902 -3.461,9.641 -2.379,3.832 -4.48,6.742 -6.722,8.98 -2.457,2.32 -4.34,3.481 -6.317,3.75 -2.121,0.449 -3.922,-0.519 -5.793,-2.39" /><path
         id="path50"
         style="fill:#000000;fill-opacity:1;fill-rule:nonzero;stroke:none"
         d="m 950.16,963.121 c 0.367,-0.551 1.449,-1.812 2.778,-3.25 2.292,-2.109 4.8,-3.59 7.281,-3.641 2.301,0.09 4.949,1.149 7.41,3.61 1.469,2.058 2.969,3.808 3.578,6.09 0.441,2.539 0.602,4.55 -0.039,6.8 l 5.43,2.079 c 0.679,-3.368 0.98,-7.047 0,-10.161 -1.301,-3.109 -2.95,-6.128 -5.86,-9.046 -3.691,-3.641 -7.531,-5.5 -11.601,-5.5 -4.207,0.187 -7.918,1.828 -11.567,5.488 -3.953,3.68 -6.293,7.57 -7.902,11.762 -1.938,4.308 -2.039,8.269 -1.289,12.218 0.508,3.989 2.578,7.41 5.508,10.34 3.683,4 7.601,5.699 11.57,5.879 3.703,0.481 7.672,-1.449 11.141,-4.918 1.621,-1.66 3.59,-4.031 5,-6.312 z m 13.367,20.867 -1.89,2.141 c -2.629,2.5 -4.668,3.492 -7.067,3.531 -2.711,0.059 -4.73,-1.019 -6.941,-3.23 -2.77,-2.371 -3.731,-5.321 -3.801,-8.59 -0.129,-2.981 1,-6.699 3.25,-10.301 l 16.449,16.449" /><path
         id="path52"
         style="fill:#000000;fill-opacity:1;fill-rule:nonzero;stroke:none"
         d="m 1000.55,986.41 c -3.882,-3.5 -7.48,-5.328 -11.663,-5.211 -4.239,0.27 -8.067,1.973 -11.68,5.59 -3.047,3.172 -5.059,6.223 -6.547,10.031 -1.812,4.1 -1.91,7.45 -1.25,10.92 0.41,3.79 2.328,6.58 5.047,9.3 1.543,2.02 3.871,3.13 6.203,3.98 2,1.09 4.508,1.12 6.559,0.75 l -1.871,2.04 c -3.688,3.75 -6.918,5.35 -10.348,5.65 -3.543,0.38 -6.602,-0.98 -9.5,-3.87 -1.59,-1.3 -2.363,-2.89 -3.141,-4.68 l -4.48,2.21 c 0.898,2.36 2.32,4.13 4.059,5.87 4.339,4.65 9.14,6.42 14.171,6.02 4.879,-0.17 10.258,-3.32 15.711,-8.77 2.567,-2.47 5.309,-5.89 8.098,-9.83 4.102,-6.15 6.332,-11.79 6.462,-16.672 -0.1,-4.547 -1.81,-9.308 -5.83,-13.328 z m -3.39,3.86 c 2.07,2.371 3.44,4.671 3.66,7.32 0.16,2.67 -0.65,5.6 -2.55,8.87 -2.102,3.35 -3.723,5.76 -5.422,7.47 -4.868,5.06 -9.508,4.93 -14.098,0.34 -2.172,-2.02 -3.352,-4.46 -3.59,-6.93 -0.41,-2.35 0.43,-5.24 2.028,-8.328 1.429,-2.864 3.472,-5.703 5.632,-7.864 2.41,-2.277 4.899,-3.777 7.34,-3.949 2.289,-0.008 4.778,0.86 7,3.071" /><path
         id="path54"
         style="fill:#000000;fill-opacity:1;fill-rule:nonzero;stroke:none"
         d="m 999.738,1045.66 9.812,-14.65 13.09,13.09 -9.82,14.64 4.89,4.89 23.78,-35.15 -4.89,-4.89 -11.11,16.26 -13.1,-13.09 11.11,-16.27 -4.89,-4.89 -23.762,35.17 4.89,4.89" /><path
         id="path56"
         style="fill:#000000;fill-opacity:1;fill-rule:nonzero;stroke:none"
         d="m 1048.99,1061.41 3.01,-22.42 -5.61,-5.61 -2.67,23.49 c -1.14,-0.37 -2.46,-1.01 -3.98,-1.11 -1.54,0.2 -3.05,0.09 -4.6,0.59 -1.7,0.62 -2.96,1.4 -4.23,2.67 -3.06,3.21 -4.17,6.27 -3.55,9.83 0.39,3.85 3.11,7.54 7.47,11.91 l 11.75,11.75 23.77,-35.17 -4.89,-4.89 -10.3,15.14 z m -4.52,22.08 -6.03,-6.03 c -3.05,-2.73 -4.36,-5.24 -4.67,-7.33 -0.35,-1.89 0.47,-4.07 2.39,-5.98 1.15,-1.13 2.81,-1.91 4.51,-1.81 1.39,0.2 3.29,0.86 4.74,2.31 l 7.01,7.01 -7.95,11.83" /><path
         id="path58"
         style="fill:#000000;fill-opacity:1;fill-rule:nonzero;stroke:none"
         d="m 1078.99,1091.41 3.01,-22.42 -5.61,-5.61 -2.67,23.49 c -1.14,-0.37 -2.46,-1.01 -3.98,-1.11 -1.54,0.2 -3.05,0.09 -4.6,0.59 -1.7,0.62 -2.96,1.4 -4.23,2.67 -3.06,3.21 -4.17,6.27 -3.55,9.83 0.39,3.85 3.11,7.54 7.47,11.91 l 11.75,11.75 23.77,-35.17 -4.89,-4.89 -10.3,15.14 z m -4.52,22.08 -6.03,-6.03 c -3.05,-2.73 -4.36,-5.24 -4.67,-7.33 -0.35,-1.89 0.47,-4.07 2.39,-5.98 1.15,-1.13 2.81,-1.91 4.51,-1.81 1.39,0.2 3.29,0.86 4.74,2.31 l 7.01,7.01 -7.95,11.83" /><path
         id="path60"
         style="fill:#000000;fill-opacity:1;fill-rule:nonzero;stroke:none"
         d="m 1132.13,1125.71 c 3.56,4.03 4.27,8.38 1.69,14 l 5.56,2.91 c 3.37,-7.96 2.44,-14.94 -3.5,-20.88 -3.55,-3.17 -7.15,-5.16 -11,-5.04 -3.91,0.45 -7.55,1.97 -11.13,5.54 -3.65,3.78 -6.36,7.67 -8.17,12.11 -2.11,4.55 -2.37,8.47 -1.69,12.11 0.61,3.72 2.6,7.05 5.75,10.2 2.74,3.06 6.25,4.7 9.6,4.93 3.16,0.25 6.47,-0.94 9.37,-3.49 l -4.12,-5.5 c -2.17,1.72 -3.84,2.55 -5.78,2.55 -1.96,0.17 -3.75,-0.83 -5.41,-2.49 -2.48,-2.27 -3.51,-4.74 -3.69,-7.39 -0.49,-2.5 0.67,-5.68 2.56,-9.12 1.74,-3.27 4.15,-6.47 6.74,-9.06 4.79,-4.67 9.27,-5.33 13.22,-1.38" /><path
         id="path62"
         style="fill:#000000;fill-opacity:1;fill-rule:nonzero;stroke:none"
         d="m 1127.85,1173.77 4.89,4.89 10.29,-15.29 c 0.58,0.79 1.22,1.39 1.58,2.12 0.06,0.79 0.63,1.64 0.8,2.74 -0.08,1.25 0.21,2.48 0.16,4.14 -0.35,1.76 -0.6,7.48 -1.65,17.48 l 5.22,5.22 1.47,-16.09 c 0.08,-4.24 0.43,-7.5 0.13,-9.1 l 22.43,-9.72 -5.04,-5.04 -18.8,8.61 c -0.85,-1.09 -1.8,-2.96 -3.48,-4.64 l 10.65,-15.6 -4.89,-4.89 -23.76,35.17" /><path
         id="path64"
         style="fill:#000000;fill-opacity:1;fill-rule:nonzero;stroke:none"
         d="m 1187.42,1211.63 c 2.12,-2.35 4.46,-5.18 6.29,-8.47 1.81,-3.1 2.94,-6.48 3.36,-9.6 0.28,-3.09 0.08,-6.12 -1,-8.97 -1.22,-2.83 -2.89,-5.54 -5.4,-8.05 -3.9,-3.53 -7.47,-5.33 -11.7,-5.27 -4.31,0.21 -8.17,1.96 -11.86,5.64 -3.77,4.06 -6.25,7.77 -7.84,11.91 -1.8,4.43 -2.01,8.08 -1.22,11.81 0.66,3.76 2.84,7.28 6.17,10.61 3.65,3.97 7.74,5.75 11.75,5.78 3.92,0.25 7.83,-1.76 11.45,-5.39 z m -5.06,-5.03 c -5.43,5.24 -10.08,5.55 -14.61,1.02 -2.49,-2.45 -3.81,-5.09 -4.03,-7.85 -0.24,-2.45 0.53,-5.82 2.28,-9.21 1.64,-3.35 3.82,-6.29 6.22,-8.69 2.52,-2.43 5.33,-4.17 7.91,-4.41 2.44,-0.15 4.99,0.77 7.22,3 1.66,1.96 3.08,3.71 3.59,5.47 0.44,2.02 0.54,3.75 0.06,5.95 -0.58,2.46 -1.49,4.6 -3.03,7.22 -1.64,2.81 -3.41,5.12 -5.61,7.5" /><path
         id="path66"
         style="fill:#000000;fill-opacity:1;fill-rule:nonzero;stroke:none"
         d="m 1223.38,1209.24 c -2.47,-2.09 -4.55,-3.59 -6.91,-4.06 -2.62,-0.3 -4.69,-0.14 -6.98,0.98 l -0.13,-0.12 c -0.01,0 0.72,-0.89 1.55,-2.03 0.76,-0.92 4.8,-6.98 11.92,-17.53 l -4.84,-4.85 -28.35,41.85 c -1.92,2.5 -3.3,4.77 -5.09,7 l 4.53,4.53 c 0.37,-0.28 1.2,-1.31 2.08,-2.44 0.73,-1.09 1.5,-1.93 1.84,-2.42 l 0.13,0.12 c -0.55,3.19 -0.26,5.71 0.45,7.97 0.4,2.42 2.14,4.49 4.31,6.67 2.8,3.12 5.96,4.24 9.28,4.13 3.15,0.11 6.47,-1.66 9.47,-4.66 3.37,-3.59 6.71,-7.82 9.05,-12.4 2.34,-4.35 3.33,-8.73 2.97,-12.44 -0.69,-3.66 -2.13,-7.14 -5.28,-10.3 z m -23.1,30.53 c -2,-1.51 -3,-3.73 -3.56,-5.76 -0.57,-1.81 -0.55,-4.24 0.05,-6.63 0.56,-2.27 1.73,-4.93 3.45,-7.67 1.54,-2.42 3.46,-4.99 5.22,-6.75 2.03,-2.04 4.63,-3.48 7.05,-3.58 2.16,0.01 4.67,0.89 6.73,2.96 2.1,2.39 3.4,4.76 3.35,7.45 -0.35,2.98 -1.21,5.9 -3.46,9.64 -2.38,3.83 -4.48,6.74 -6.72,8.98 -2.46,2.32 -4.34,3.48 -6.32,3.75 -2.12,0.45 -3.92,-0.52 -5.79,-2.39" /><path
         id="path68"
         style="fill:#000000;fill-opacity:1;fill-rule:nonzero;stroke:none"
         d="m 1249.42,1273.63 c 2.12,-2.35 4.46,-5.18 6.29,-8.47 1.81,-3.1 2.94,-6.48 3.36,-9.6 0.28,-3.09 0.08,-6.12 -1,-8.97 -1.22,-2.83 -2.89,-5.54 -5.4,-8.05 -3.9,-3.53 -7.47,-5.33 -11.7,-5.27 -4.31,0.21 -8.17,1.96 -11.86,5.64 -3.77,4.06 -6.25,7.77 -7.84,11.91 -1.8,4.43 -2.01,8.08 -1.22,11.81 0.66,3.76 2.84,7.28 6.17,10.61 3.65,3.97 7.74,5.75 11.75,5.78 3.92,0.25 7.83,-1.76 11.45,-5.39 z m -5.06,-5.03 c -5.43,5.24 -10.08,5.55 -14.61,1.02 -2.49,-2.45 -3.81,-5.09 -4.03,-7.85 -0.24,-2.45 0.53,-5.82 2.28,-9.21 1.64,-3.35 3.82,-6.29 6.22,-8.69 2.52,-2.43 5.33,-4.17 7.91,-4.41 2.44,-0.15 4.99,0.77 7.22,3 1.66,1.96 3.08,3.71 3.59,5.47 0.44,2.02 0.54,3.75 0.06,5.95 -0.58,2.46 -1.49,4.6 -3.03,7.22 -1.64,2.81 -3.41,5.12 -5.61,7.5" /><path
         id="path70"
         style="fill:#000000;fill-opacity:1;fill-rule:nonzero;stroke:none"
         d="m 1279.13,1272.71 c 3.56,4.03 4.27,8.38 1.69,14 l 5.56,2.91 c 3.37,-7.96 2.44,-14.94 -3.5,-20.88 -3.55,-3.17 -7.15,-5.16 -11,-5.04 -3.91,0.45 -7.55,1.97 -11.13,5.54 -3.65,3.78 -6.36,7.67 -8.17,12.11 -2.11,4.55 -2.37,8.47 -1.69,12.11 0.61,3.72 2.6,7.05 5.75,10.2 2.74,3.06 6.25,4.7 9.6,4.93 3.16,0.25 6.47,-0.94 9.37,-3.49 l -4.12,-5.5 c -2.17,1.72 -3.84,2.55 -5.78,2.55 -1.96,0.17 -3.75,-0.83 -5.41,-2.49 -2.48,-2.27 -3.51,-4.74 -3.69,-7.39 -0.49,-2.5 0.67,-5.68 2.56,-9.12 1.74,-3.27 4.15,-6.47 6.74,-9.06 4.79,-4.67 9.27,-5.33 13.22,-1.38" /><path
         id="path72"
         style="fill:#000000;fill-opacity:1;fill-rule:nonzero;stroke:none"
         d="m 1315.32,1302.31 -13.91,20.65 c -2.08,2.97 -3.2,4.54 -4.08,5.42 -1.58,1.46 -2.74,2.07 -4.14,2.13 -1.56,0.11 -2.85,-0.69 -4.37,-2.2 -2.11,-1.94 -2.96,-4.77 -2.69,-8.1 0.12,-3.18 1.62,-6.7 4.06,-10.09 l 13.28,-19.66 -4.87,-4.87 -18.69,27.72 c -1.43,2.2 -3.09,4.52 -5.2,7.32 l 4.61,4.61 c -0.01,-0.05 0.8,-0.99 1.81,-2.37 0.86,-1.12 1.83,-2.52 2.45,-3.39 l 0.08,0.08 c -1.1,3.4 -0.93,6.1 -0.44,8.23 0.31,2.42 1.64,4.09 3.45,5.91 1.83,2.48 4.41,3.32 6.75,3.5 2.09,0.34 4.65,-0.63 6.96,-2.43 -1.12,4.13 -1.09,6.91 -0.6,9.25 0.47,2.57 1.68,4.46 3.52,6.3 2.18,2.5 4.88,3.56 7.48,3.52 2.57,0.23 5.16,-1.32 7.68,-3.83 0.91,-0.95 2.46,-2.85 3.89,-5.05 l 14.37,-21.25 -4.83,-4.83 -13.92,20.64 c -1.92,2.79 -3.18,4.55 -4.06,5.44 -1.44,1.6 -2.75,2.07 -4.14,2.13 -1.42,0.25 -2.84,-0.67 -4.35,-2.18 -2.27,-1.77 -2.91,-4.69 -2.65,-7.98 0.24,-3.03 1.62,-6.62 4.05,-10.03 l 13.34,-19.75 -4.84,-4.84" /><path
         id="path74"
         style="fill:#000000;fill-opacity:1;fill-rule:nonzero;stroke:none"
         d="m 1360.61,1366.1 c 2.88,-2.99 4.49,-6.74 3.92,-10.67 -0.85,-3.84 -3.05,-8.09 -7.45,-12.48 -4.25,-3.88 -8.42,-7.67 -12.91,-10.66 l -23.28,34.53 4.94,4.94 9.78,-14.69 5.05,5.05 c 3.63,4.14 7.61,6.27 10.97,6.94 3.04,0.87 6.35,-0.33 8.98,-2.96 z m -14.03,-25.31 c 2.27,2.13 4.91,3.81 7.03,5.94 2.17,2.79 3.97,4.9 4.47,7.26 0.37,2.6 -0.26,4.55 -2.26,6.57 -1.68,1.67 -3.44,2.27 -5.4,1.92 -2.19,-0.28 -4.13,-1.73 -6.54,-4.14 l -5.47,-5.47 8.17,-12.08" /><path
         id="path76"
         style="fill:#000000;fill-opacity:1;fill-rule:nonzero;stroke:none"
         d="m 994.047,736.84 c 1.351,-2.078 1.91,-4.801 1.34,-7.328 -0.789,-2.481 -2.11,-4.922 -4.637,-7.172 l 0.109,-0.25 c 2.371,1.219 4.731,1.25 6.911,0.68 2.16,-0.25 3.92,-1.848 5.2,-3.899 2.23,-3.441 2.72,-7.422 1.19,-11.109 -1.68,-3.383 -4.812,-7.114 -9.84,-10.25 -5.082,-2.992 -9.8,-5.5 -14.793,-7.383 l -8.98,22.75 c -2.469,5.891 -2.789,10.461 -1.809,14.492 0.961,4.141 3.719,7.469 8.231,10.289 3.711,2.379 7.191,3.488 10.16,3.328 2.828,0.082 5.281,-1.527 6.918,-4.148 z M 983.75,697.871 c 2.848,1.438 5.547,2.539 8.047,4.109 2.871,2.051 4.851,3.809 5.84,5.969 0.683,2.41 0.73,4.449 -0.778,6.86 -1.171,2.07 -2.671,2.773 -4.652,2.98 -2.168,0.52 -4.418,-0.57 -7.289,-2.359 l -6.43,-4.032 z m -0.73,22.258 c 6.007,4.012 7.867,7.84 5.25,12.051 -1.09,1.601 -2.11,2.261 -3.633,2.468 -1.817,0.231 -3.25,-0.289 -5.227,-1.527 -2.941,-1.5 -4.273,-3.812 -4.722,-6.351 -0.45,-2.231 0.011,-5.571 1.382,-9.122 l 0.567,-1.5 6.383,3.981" /><path
         id="path78"
         style="fill:#000000;fill-opacity:1;fill-rule:nonzero;stroke:none"
         d="m 1031.77,764.77 c -2.4,-1.18 -3.99,-3 -4.85,-4.54 -0.94,-1.39 -1.09,-3.378 -0.68,-5.5 l -5.85,-1.519 c -1.79,6.41 1.43,11.738 8.97,16.449 3.62,2.399 7.29,3.469 10.33,3.219 3.05,0.031 5.45,-1.758 7.2,-4.559 1.04,-1.64 1.66,-3.511 1.66,-5.23 -0.29,-1.531 -0.55,-3.578 -1.64,-5.578 -1.16,-1.953 -3.11,-4.692 -6.08,-8.063 -3.2,-3.508 -5.13,-6.027 -5.92,-7.328 -0.87,-1.121 -1.24,-2.5 -1.33,-3.601 -0.39,-1.032 0.21,-2.18 0.91,-3.29 1.81,-3.199 5.56,-3.5 10.43,-0.46 2.54,1.941 4.4,3.339 5.33,5.101 0.75,2.027 1.14,3.801 0.61,6.141 l 5.96,1.109 c 1.66,-6.281 -1.36,-12.152 -9.19,-17.031 -4.51,-2.43 -7.93,-3.86 -11.19,-3.68 -3.51,0.27 -5.86,1.82 -7.81,4.93 -1.53,2.07 -1.81,3.93 -1.77,5.922 -0.01,2.136 0.69,4.097 1.94,6.308 1.21,2.25 3.42,5.02 6.52,8.391 1.94,2.551 3.73,4.219 4.75,5.719 0.89,1.5 1.61,2.769 1.79,3.808 0.13,1.121 -0.06,2.141 -0.75,3.25 -1.01,1.692 -2.1,2.063 -3.72,2.051 -1.84,0.301 -3.48,-0.668 -5.62,-2.019" /><path
         id="path80"
         style="fill:#000000;fill-opacity:1;fill-rule:nonzero;stroke:none"
         d="m 1085.94,787.012 c 1.69,-2.614 3.18,-6.063 4.22,-9.672 0.88,-3.5 1.41,-6.981 1.11,-10.129 -0.49,-2.981 -1.29,-5.981 -3,-8.512 -1.89,-2.219 -4.06,-4.75 -7.06,-6.629 -4.46,-2.48 -8.48,-3.511 -12.58,-2.5 -4.41,1.059 -7.52,3.739 -10.28,8.168 -2.92,4.821 -4.36,8.961 -4.99,13.364 -0.85,4.597 -0.13,8.339 1.47,11.796 1.56,3.723 4.41,6.442 8.41,8.942 4.4,3.14 8.83,3.859 12.75,2.98 3.83,-0.59 7.24,-3.48 9.95,-7.808 z m -6.06,-3.782 c -3.97,6.399 -8.58,7.668 -14.02,4.258 -3.01,-1.777 -4.85,-4.09 -5.69,-6.726 -1,-2.332 -0.79,-5.801 0.15,-9.492 0.73,-3.551 2.3,-6.969 4.1,-9.86 1.78,-3.148 4.26,-5.262 6.72,-6.07 2.31,-0.699 5.03,-0.391 7.71,1.289 2.2,1.43 3.83,2.93 4.73,4.531 0.61,1.781 1.37,3.531 1.39,5.77 -0.06,2.5 -0.4,4.82 -1.31,7.718 -1.23,2.911 -2.17,5.75 -3.78,8.582" /><path
         id="path82"
         style="fill:#000000;fill-opacity:1;fill-rule:nonzero;stroke:none"
         d="m 1120.25,776.352 c -2.87,-1.582 -5.23,-2.493 -7.64,-2.422 -2.71,0.332 -4.6,0.929 -6.58,2.531 l -0.15,-0.109 c 0.09,-0.133 0.5,-1.012 1.04,-2.313 0.48,-1.078 3.12,-7.879 7.69,-19.75 l -5.83,-3.641 -18.2,47.161 c -1.3,3.031 -2.14,5.382 -3.39,7.929 l 5.44,3.41 c 0.05,-0.41 0.85,-1.527 1.47,-2.828 0.48,-1.172 1.04,-2.211 1.26,-2.761 l 0.14,0.07 c 0.03,3.09 1.05,5.633 2.24,7.68 1.17,2.171 3.09,3.89 5.7,5.531 3.19,2.422 6.76,2.781 9.97,1.922 2.97,-0.551 5.94,-3.09 8.19,-6.692 2.45,-4.211 4.76,-9.121 6.01,-14.109 0.94,-4.75 1.28,-9.25 0.1,-12.781 -1.2,-3.371 -3.68,-6.481 -7.46,-8.828 z m -15.64,34.937 c -2.48,-1.23 -3.76,-2.98 -4.76,-4.828 -1.05,-1.781 -1.48,-4.012 -1.44,-6.473 -0.2,-2.218 0.59,-5.199 1.64,-8.25 0.93,-2.738 2.24,-5.636 3.56,-7.758 1.4,-2.5 3.73,-4.421 6.06,-5.05 2.02,-0.391 4.76,-0.18 7.24,1.359 2.66,1.84 4.37,3.883 4.92,6.52 0.52,2.921 0.16,6.023 -1.19,10.171 -1.66,4.391 -2.85,7.571 -4.53,10.25 -1.81,2.829 -3.44,4.379 -5.33,5.09 -1.9,0.828 -3.93,0.36 -6.17,-1.031" /><path
         id="path84"
         style="fill:#000000;fill-opacity:1;fill-rule:nonzero;stroke:none"
         d="m 1124.57,828.98 5.84,3.649 6.59,-17.199 c 0.72,0.601 1.5,1.09 2.02,1.699 0.41,0.812 0.98,1.461 1.39,2.5 0.17,1.062 0.78,2.383 1.09,4 0.05,1.641 1.1,7.43 2.35,17.391 l 6.25,3.91 -2.19,-15.981 c -0.71,-4.199 -1.28,-7.41 -1.94,-8.91 l 19.69,-14.5 -6.05,-3.777 -16.37,12.59 c -1.12,-1.114 -2.42,-2.461 -4.44,-3.731 l 6.86,-17.582 -5.86,-3.668 -15.23,39.609" /><path
         id="path86"
         style="fill:#000000;fill-opacity:1;fill-rule:nonzero;stroke:none"
         d="m 1179.96,795.012 c -1.66,-0.762 -3.09,-1.723 -4.58,-2.242 l -1.72,5 c 0.76,0.75 1.97,0.878 2.66,1.32 1.85,1.48 3.45,3.09 4.18,5.43 0.46,2.39 1.05,5.269 0.96,8.82 l -0.07,2.031 -29.14,30.918 5.97,3.723 15.99,-17.473 c 1.25,-1.519 2.89,-3.25 4.42,-5.059 1.2,-1.75 2.47,-3.011 2.87,-3.601 -0.35,0.883 -0.17,1.391 -0.26,2.32 -0.28,1.082 -0.91,13.153 -2.42,36.68 l 6.48,4.051 1.95,-48.45 c -0.02,-5.558 0.03,-9.718 -0.4,-12.281 -0.5,-2.41 -1.2,-4.769 -2.28,-6.578 -1.37,-1.801 -2.61,-3.359 -4.61,-4.609" /><path
         id="path88"
         style="fill:#000000;fill-opacity:1;fill-rule:nonzero;stroke:none"
         d="m 1699.11,1310.13 c 1.82,5.04 0.66,9.37 -3.9,13.53 l 3.96,4.86 c 6.28,-5.89 8.09,-12.81 4.94,-20.59 -1.98,-4.3 -4.56,-7.53 -8.14,-8.92 -3.67,-1.17 -7.72,-1.15 -12.4,0.75 -5.06,2.22 -8.85,4.56 -12.25,7.94 -3.63,3.71 -5.52,6.88 -6.32,10.5 -0.89,3.78 -0.35,7.5 1.32,11.64 1.41,4.28 3.93,6.75 6.92,8.26 2.81,1.71 6.31,1.67 9.97,0.47 l -1.64,-6.67 c -2.71,1.07 -4.52,0.83 -6.32,0.06 -1.99,-0.52 -3.13,-2.22 -4,-4.37 -1.39,-2.96 -1.38,-5.74 -0.51,-8.24 0.84,-2.39 2.83,-4.97 5.92,-7.42 2.77,-2.19 6.34,-4.34 9.75,-5.72 6.14,-2.42 10.61,-1.26 12.7,3.92" /><path
         id="path90"
         style="fill:#000000;fill-opacity:1;fill-rule:nonzero;stroke:none"
         d="m 1693.61,1383.01 c -1.36,-2.38 -1.47,-4.79 -1.25,-6.55 0,-1.68 1.12,-3.37 2.69,-4.84 l -3.84,-4.66 c -5.11,4.38 -5.74,10.35 -2.41,18.6 1.66,4.23 3.85,7.09 6.45,8.68 2.42,1.74 5.45,1.77 8.52,0.53 1.9,-0.48 3.4,-1.87 4.42,-3.26 0.84,-1.34 1.66,-3.23 1.95,-5.49 0.14,-2.04 0.23,-5.63 -0.18,-10.11 -0.54,-4.49 -0.61,-7.88 -0.47,-9.4 -0.14,-1.45 0.47,-2.74 1.03,-3.67 0.29,-0.66 1.45,-1.66 2.67,-2.14 3.48,-1.16 6.54,0.44 8.69,5.78 1.09,2.93 1.59,5.28 1.31,7.25 -0.44,2.28 -1.3,3.74 -3.09,5.31 l 4.15,4.41 c 4.99,-4.16 6.04,-10.63 2.6,-19.19 -1.92,-4.45 -4.17,-7.78 -6.91,-9.55 -2.82,-1.45 -5.81,-1.97 -9.22,-0.59 -2.14,1.05 -3.77,2.11 -4.9,3.75 -1.19,1.9 -1.87,3.72 -2.16,6.25 -0.61,2.72 -0.17,6.06 0.36,10.61 0.28,3.45 0.55,5.6 0.5,7.4 -0.34,2 -0.33,3.2 -0.8,4.16 -0.49,1.1 -1.32,1.69 -2.53,2.19 -1.68,0.67 -2.91,0.42 -4.2,-0.53 -1.4,-0.71 -2.43,-2.6 -3.38,-4.94" /><path
         id="path92"
         style="fill:#000000;fill-opacity:1;fill-rule:nonzero;stroke:none"
         d="m 1724.83,1432.02 c 3.05,-1.03 6.12,-3.03 9.08,-5.34 2.89,-2.31 5.25,-4.83 6.86,-7.55 1.58,-2.52 2.46,-5.59 2.58,-8.64 -0.1,-2.98 -0.48,-6.21 -1.82,-9.51 -2.18,-4.46 -4.79,-7.83 -8.7,-9.41 -3.96,-1.55 -8.3,-1.4 -13.14,0.56 -4.82,2.25 -8.77,4.69 -11.86,7.88 -3.14,3.42 -5.01,6.66 -5.75,10.4 -0.87,3.84 -0.22,7.81 1.55,12.18 1.72,5.05 4.88,8.32 8.56,9.92 3.51,1.65 7.89,1.43 12.64,-0.49 z m -2.69,-6.62 c -6.97,2.85 -11.43,1.17 -13.84,-4.77 -1.5,-3.22 -1.52,-6.17 -0.66,-8.79 0.55,-2.35 2.77,-5.16 5.71,-7.6 2.71,-2.28 5.97,-4.28 9.12,-5.56 3.27,-1.43 6.53,-1.75 9,-0.97 2.21,1.11 4.29,2.65 5.47,5.58 0.91,2.61 1.39,4.63 1.17,6.45 -0.36,2.15 -0.98,3.67 -2.28,5.5 -1.34,1.98 -3.16,3.65 -5.59,5.46 -2.62,2.14 -5.14,3.37 -8.1,4.7" /><path
         id="path94"
         style="fill:#000000;fill-opacity:1;fill-rule:nonzero;stroke:none"
         d="m 1758.44,1444.23 c -1.44,-2.8 -2.78,-5.1 -4.77,-6.46 -2.32,-1.05 -4.25,-1.96 -6.81,-1.81 l -0.06,-0.17 c 0.23,0.19 1.01,-0.52 2.22,-1.25 1.08,-0.68 7.14,-4.56 17.83,-11.48 l -2.58,-6.38 -42.45,27.45 c -2.47,1.81 -4.9,3.11 -7.41,4.46 l 2.41,5.93 c 0.59,-0.21 1.58,-0.73 2.84,-1.42 0.93,-0.49 2.14,-1.18 2.66,-1.48 l 0.04,0.14 c -1.77,2.96 -2.44,5.16 -2.69,7.51 -0.56,2.5 0.22,4.98 1.38,7.83 1.39,3.96 3.82,6.24 6.92,7.42 3,1.24 6.61,0.99 10.55,-0.59 4.55,-1.71 9.21,-4.59 13.15,-7.89 3.62,-3.09 6.48,-6.73 7.6,-10.3 0.92,-3.24 0.83,-7.39 -0.83,-11.51 z m -33.19,19.06 c -1.14,-2.25 -1.29,-4.61 -1.01,-6.7 0.09,-2.06 1.15,-4.11 2.62,-6.08 1.42,-1.9 3.53,-3.87 6.19,-5.72 2.53,-1.55 5.12,-3.23 7.44,-4.17 2.72,-1.19 5.62,-1.39 7.89,-0.53 2.03,1.06 3.94,2.64 5.03,5.36 0.97,3.06 1.26,5.7 0.16,8.15 -1.39,2.49 -3.41,4.97 -6.94,7.55 -3.85,2.75 -6.76,4.44 -9.69,5.62 -3.01,1.49 -5.36,1.52 -7.3,0.99 -2.25,-0.23 -3.4,-2.03 -4.39,-4.47" /><path
         id="path96"
         style="fill:#000000;fill-opacity:1;fill-rule:nonzero;stroke:none"
         d="m 1731.58,1488.98 2.58,6.4 15.44,-10.04 c 0.05,1 0.56,1.75 0.62,2.56 -0.12,1.07 -0.05,1.75 -0.33,2.83 -0.34,1.4 -0.77,2.37 -1.47,3.87 -0.94,1.53 -3.47,6.65 -8.32,15.46 l 2.76,6.84 7.63,-14.24 c 1.83,-3.95 3.32,-6.73 3.67,-8.32 l 24.44,-0.18 -2.68,-6.6 -20.64,0.57 c -0.23,-1.37 -0.5,-3.43 -1.4,-5.64 l 15.89,-10.18 -2.6,-6.43 -35.59,23.1" /><path
         id="path98"
         style="fill:#000000;fill-opacity:1;fill-rule:nonzero;stroke:none"
         d="m 1747.05,1530.09 21.25,-13.82 c 1.73,-1.13 3.63,-2.2 5.11,-2.79 3.74,-1.55 6.83,-0.28 8.58,4.03 1.13,3.08 1.16,6.16 -0.19,9.39 -1.39,3.5 -3.84,6.03 -7.45,8.37 l -19.97,12.97 2.58,6.39 28,-18.17 c 1.97,-1.32 4.62,-2.97 7.68,-4.72 l -2.45,-6.06 c -0.43,0.1 -1.12,0.6 -2.59,1.48 -1.78,1.06 -2.66,1.61 -3.57,2.18 l -0.03,-0.1 c 1.82,-2.97 3.02,-5.88 3.27,-8.31 0.06,-2.18 -0.17,-5.02 -1.28,-7.78 -1.53,-3.37 -3.38,-5.86 -5.85,-6.94 -2.61,-0.93 -5.33,-0.96 -8.62,0.38 -1.8,0.64 -3.38,1.64 -5.56,3.11 l -21.52,13.93 2.61,6.46" /><path
         id="path100"
         style="fill:none;stroke:#000000;stroke-width:7.68970013;stroke-linecap:butt;stroke-linejoin:miter;stroke-miterlimit:4;stroke-dasharray:none;stroke-opacity:1"
         d="m 329.992,189.199 v 33.836 H 1960.21 v -33.836" /><path
         id="path102"
         style="fill:none;stroke:#000000;stroke-width:7.68970013;stroke-linecap:butt;stroke-linejoin:miter;stroke-miterlimit:4;stroke-dasharray:none;stroke-opacity:1"
         d="m 329.992,226.109 v -36.91" /><path
         id="path104"
         style="fill:#000000;fill-opacity:1;fill-rule:nonzero;stroke:none"
         d="m 303.219,170.273 c 4.25,0.133 7.883,-1.48 10.375,-4.437 2.195,-2.68 3.75,-7.086 3.75,-12.375 -0.219,-6.094 -0.946,-12.133 -2.828,-17.891 -2.153,-5.726 -4.543,-10.14 -8,-13.14 -3.735,-2.907 -7.653,-4.485 -12.578,-4.485 -4.461,0.246 -7.809,1.551 -10.297,4.657 -2.809,3.128 -3.735,7.382 -3.735,12.843 -0.074,4.41 0.535,8.735 1.61,13.203 0.804,4.489 2.582,8.352 4.5,11.625 1.804,3.407 4.297,5.754 7.14,7.454 2.688,2.015 6.196,2.546 10.063,2.546 z m -8.75,-47.046 c 3.406,0.148 6.656,1.273 8.969,3.828 2.062,2.758 4.156,6.519 5.531,11.906 1.289,5.625 2.078,10.328 2.078,14.828 -0.121,4.024 -0.727,6.531 -2.172,8.406 -1.5,2.047 -3.465,2.828 -6.078,2.828 -3.703,0.219 -6.656,-1.277 -8.969,-3.828 -2.359,-2.39 -4.164,-6.523 -5.547,-11.906 -1.574,-5.258 -2.062,-10.328 -2.062,-14.828 -0.18,-3.656 0.719,-6.539 2.156,-8.422 1.219,-1.664 3.477,-2.812 6.094,-2.812" /><path
         id="path106"
         style="fill:#000000;fill-opacity:1;fill-rule:nonzero;stroke:none"
         d="m 332.984,118.68 h -5.937 l 42.734,50.859 h 6 z m 4.344,51.593 c 2.785,0.133 5.301,-0.953 6.906,-2.859 1.43,-1.82 2.422,-4.668 2.422,-8.281 -0.324,-2.371 -0.328,-5.227 -0.984,-8.016 -0.977,-2.594 -1.633,-5.179 -2.953,-7.187 -1.324,-1.762 -2.84,-3.532 -4.578,-4.563 -1.891,-0.918 -3.684,-1.531 -5.828,-1.531 -3.188,0.281 -5.29,0.992 -6.922,2.984 -1.86,2.274 -2.438,4.817 -2.438,8.485 -0.09,3.664 0.555,7.023 1.672,10.453 0.801,3.742 2.727,6.047 4.844,7.828 1.851,1.82 4.734,2.687 7.859,2.687 z m -0.047,-3.89 c -1.804,0.097 -2.929,-0.375 -3.968,-1.125 -1.243,-0.61 -1.934,-1.93 -2.704,-3.531 -1.07,-1.289 -1.402,-3.7 -1.921,-6.282 -0.512,-2.507 -0.766,-4.804 -0.766,-6.656 -0.078,-4.289 1.516,-6.875 4.547,-6.875 1.781,0.254 3.719,0.805 5.031,2.422 1.039,1.727 2.328,4.016 3.047,7.203 0.441,3.234 1.094,5.938 1.094,8.25 -0.321,4.691 -1.453,6.594 -4.36,6.594 z m 33.5,-16.016 c 2.977,0.102 5.317,-0.953 6.922,-2.859 1.598,-1.84 2.406,-4.653 2.406,-8.266 -0.14,-2.418 -0.324,-5.234 -0.968,-8.015 -0.797,-2.633 -1.633,-5.18 -2.953,-7.188 -1.493,-1.797 -2.856,-3.531 -4.594,-4.562 -2.043,-0.954 -3.68,-1.532 -5.813,-1.532 -3.011,0.246 -5.289,0.993 -6.922,2.985 -1.683,2.238 -2.437,4.812 -2.437,8.468 -0.246,3.645 0.555,7.04 1.672,10.469 0.976,3.707 2.722,6.047 4.828,7.828 2.035,2.11 4.734,2.672 7.859,2.672 z m -0.031,-3.89 c -1.637,0.066 -2.937,-0.375 -3.969,-1.125 -1.062,-0.641 -1.933,-1.93 -2.703,-3.532 -0.89,-1.32 -1.402,-3.699 -1.922,-6.281 -0.668,-2.539 -0.765,-4.805 -0.765,-6.656 -0.235,-4.32 1.507,-6.875 4.531,-6.875 1.961,0.222 3.719,0.805 5.031,2.422 1.235,1.695 2.344,4.015 3.063,7.203 0.617,3.203 1.093,5.941 1.093,8.265 -0.14,4.645 -1.453,6.579 -4.359,6.579" /><path
         id="path108"
         style="fill:none;stroke:#000000;stroke-width:7.68970013;stroke-linecap:butt;stroke-linejoin:miter;stroke-miterlimit:4;stroke-dasharray:none;stroke-opacity:1"
         d="m 737.547,226.109 v -36.91" /><path
         id="path110"
         style="fill:#000000;fill-opacity:1;fill-rule:nonzero;stroke:none"
         d="m 663.25,118.68 0.879,4.578 c 1.191,2.367 2.82,4.222 4.469,5.984 1.34,1.906 3.359,3.352 5.14,4.781 1.77,1.657 3.61,2.743 5.45,3.922 1.691,1.422 3.64,2.313 5.382,3.407 1.438,1.203 3.36,2.179 4.868,3.265 1.261,1.102 2.832,2.238 3.972,3.469 0.887,1.426 2.028,2.566 2.688,4.016 0.519,1.648 0.98,3.101 0.98,4.937 -0.129,2.566 -0.758,4.258 -2.281,5.719 -1.559,1.765 -3.559,2.187 -6.129,2.187 -2.969,0.243 -4.949,-0.726 -6.918,-2.172 -1.98,-1.148 -3.391,-3.617 -4.293,-6.5 l -6.129,1.344 c 1.102,4.125 3.461,7.238 6.449,9.406 2.973,2.383 6.762,3.25 11.293,3.25 4.258,0.133 7.957,-1.183 10.7,-3.546 2.71,-2.039 4.109,-5.407 4.109,-9.157 -0.059,-2.515 -0.621,-4.996 -1.859,-7.328 -1.34,-2.187 -3.09,-4.574 -5.563,-6.719 -2.738,-2.085 -6.219,-4.773 -11.207,-7.906 -3.742,-2.211 -6.43,-4.262 -8.621,-6.094 -2.5,-1.773 -3.84,-3.605 -4.961,-5.343 h 26.41 l -1.051,-5.5 H 663.25" /><path
         id="path112"
         style="fill:#000000;fill-opacity:1;fill-rule:nonzero;stroke:none"
         d="m 717.109,169.539 h 29.028 l -1.039,-5.516 h -23.129 l -4.141,-16.156 c 1.16,1.281 2.68,1.801 4.422,2.375 1.57,0.719 3.629,0.86 5.629,0.86 4.391,0.191 8.051,-1.282 10.781,-3.844 2.41,-2.422 4.11,-6.012 4.11,-10.344 -0.032,-5.664 -1.743,-10.559 -5.223,-13.922 -3.758,-3.137 -8.317,-5.047 -14.559,-5.047 -9.058,0.246 -14.5,3.91 -16.629,11.735 l 5.86,1.531 c 0.57,-2.543 2.078,-4.703 4,-6.016 1.738,-1.152 4.301,-1.968 7.14,-1.968 3.801,0.148 7.121,1.125 9.301,3.375 1.86,2.285 3.278,5.461 3.278,9.609 -0.09,3.094 -0.84,5.269 -2.5,7 -1.918,1.894 -3.911,2.609 -6.719,2.609 -3.961,0.285 -7.36,-1.187 -10.231,-3.562 h -6.39 l 7.011,27.281" /><path
         id="path114"
         style="fill:#000000;fill-opacity:1;fill-rule:nonzero;stroke:none"
         d="m 760.988,118.68 h -5.941 l 42.73,50.859 h 6 z m 4.34,51.593 c 2.789,0.133 5.301,-0.953 6.91,-2.859 1.43,-1.82 2.422,-4.668 2.422,-8.281 -0.332,-2.371 -0.332,-5.227 -0.992,-8.016 -0.969,-2.594 -1.629,-5.179 -2.949,-7.187 -1.321,-1.762 -2.84,-3.532 -4.582,-4.563 -1.887,-0.918 -3.68,-1.531 -5.817,-1.531 -3.191,0.281 -5.293,0.992 -6.933,2.984 -1.86,2.274 -2.43,4.817 -2.43,8.485 -0.09,3.664 0.551,7.023 1.672,10.453 0.801,3.742 2.719,6.047 4.84,7.828 1.851,1.82 4.738,2.687 7.859,2.687 z m -0.051,-3.89 c -1.797,0.097 -2.929,-0.375 -3.957,-1.125 -1.25,-0.61 -1.941,-1.93 -2.711,-3.531 -1.07,-1.289 -1.402,-3.7 -1.921,-6.282 -0.508,-2.507 -0.77,-4.804 -0.77,-6.656 -0.07,-4.289 1.52,-6.875 4.551,-6.875 1.781,0.254 3.719,0.805 5.031,2.422 1.039,1.727 2.328,4.016 3.047,7.203 0.441,3.234 1.09,5.938 1.09,8.25 -0.317,4.691 -1.449,6.594 -4.36,6.594 z m 33.5,-16.016 c 2.981,0.102 5.321,-0.953 6.93,-2.859 1.59,-1.84 2.402,-4.653 2.402,-8.266 -0.14,-2.418 -0.32,-5.234 -0.972,-8.015 -0.789,-2.633 -1.629,-5.18 -2.949,-7.188 -1.489,-1.797 -2.86,-3.531 -4.59,-4.562 -2.051,-0.954 -3.68,-1.532 -5.821,-1.532 -3.007,0.246 -5.289,0.993 -6.918,2.985 -1.679,2.238 -2.441,4.812 -2.441,8.468 -0.238,3.645 0.562,7.04 1.68,10.469 0.972,3.707 2.722,6.047 4.82,7.828 2.039,2.11 4.742,2.672 7.859,2.672 z m -0.027,-3.89 c -1.633,0.066 -2.93,-0.375 -3.973,-1.125 -1.058,-0.641 -1.929,-1.93 -2.699,-3.532 -0.89,-1.32 -1.398,-3.699 -1.918,-6.281 -0.672,-2.539 -0.773,-4.805 -0.773,-6.656 -0.227,-4.32 1.511,-6.875 4.531,-6.875 1.969,0.222 3.719,0.805 5.039,2.422 1.231,1.695 2.34,4.015 3.063,7.203 0.617,3.203 1.089,5.941 1.089,8.265 -0.14,4.645 -1.449,6.579 -4.359,6.579" /><path
         id="path116"
         style="fill:none;stroke:#000000;stroke-width:7.68970013;stroke-linecap:butt;stroke-linejoin:miter;stroke-miterlimit:4;stroke-dasharray:none;stroke-opacity:1"
         d="m 1145.1,226.109 v -36.91" /><path
         id="path118"
         style="fill:#000000;fill-opacity:1;fill-rule:nonzero;stroke:none"
         d="m 1084.11,169.539 h 29.03 l -1.04,-5.516 h -23.13 l -4.14,-16.156 c 1.16,1.281 2.68,1.801 4.42,2.375 1.57,0.719 3.63,0.86 5.63,0.86 4.39,0.191 8.05,-1.282 10.78,-3.844 2.41,-2.422 4.11,-6.012 4.11,-10.344 -0.03,-5.664 -1.74,-10.559 -5.22,-13.922 -3.76,-3.137 -8.32,-5.047 -14.56,-5.047 -9.06,0.246 -14.5,3.91 -16.63,11.735 l 5.86,1.531 c 0.57,-2.543 2.08,-4.703 4,-6.016 1.74,-1.152 4.3,-1.968 7.14,-1.968 3.8,0.148 7.12,1.125 9.3,3.375 1.86,2.285 3.28,5.461 3.28,9.609 -0.09,3.094 -0.84,5.269 -2.5,7 -1.92,1.894 -3.91,2.609 -6.72,2.609 -3.96,0.285 -7.36,-1.187 -10.23,-3.562 h -6.39 l 7.01,27.281" /><path
         id="path120"
         style="fill:#000000;fill-opacity:1;fill-rule:nonzero;stroke:none"
         d="m 1139.22,170.273 c 4.25,0.133 7.88,-1.48 10.38,-4.437 2.19,-2.68 3.75,-7.086 3.75,-12.375 -0.22,-6.094 -0.95,-12.133 -2.83,-17.891 -2.15,-5.726 -4.54,-10.14 -8,-13.14 -3.74,-2.907 -7.65,-4.485 -12.58,-4.485 -4.46,0.246 -7.81,1.551 -10.3,4.657 -2.81,3.128 -3.73,7.382 -3.73,12.843 -0.08,4.41 0.53,8.735 1.61,13.203 0.8,4.489 2.58,8.352 4.5,11.625 1.8,3.407 4.3,5.754 7.14,7.454 2.69,2.015 6.19,2.546 10.06,2.546 z m -8.75,-47.046 c 3.41,0.148 6.66,1.273 8.97,3.828 2.06,2.758 4.16,6.519 5.53,11.906 1.29,5.625 2.08,10.328 2.08,14.828 -0.12,4.024 -0.73,6.531 -2.17,8.406 -1.5,2.047 -3.47,2.828 -6.08,2.828 -3.7,0.219 -6.66,-1.277 -8.97,-3.828 -2.36,-2.39 -4.16,-6.523 -5.55,-11.906 -1.57,-5.258 -2.06,-10.328 -2.06,-14.828 -0.18,-3.656 0.72,-6.539 2.16,-8.422 1.22,-1.664 3.47,-2.812 6.09,-2.812" /><path
         id="path122"
         style="fill:#000000;fill-opacity:1;fill-rule:nonzero;stroke:none"
         d="m 1168.99,118.68 h -5.94 l 42.73,50.859 h 6 z m 4.34,51.593 c 2.79,0.133 5.3,-0.953 6.91,-2.859 1.43,-1.82 2.42,-4.668 2.42,-8.281 -0.33,-2.371 -0.33,-5.227 -0.99,-8.016 -0.97,-2.594 -1.63,-5.179 -2.95,-7.187 -1.32,-1.762 -2.84,-3.532 -4.58,-4.563 -1.89,-0.918 -3.68,-1.531 -5.82,-1.531 -3.19,0.281 -5.29,0.992 -6.93,2.984 -1.86,2.274 -2.43,4.817 -2.43,8.485 -0.09,3.664 0.55,7.023 1.67,10.453 0.8,3.742 2.72,6.047 4.84,7.828 1.85,1.82 4.74,2.687 7.86,2.687 z m -0.05,-3.89 c -1.8,0.097 -2.93,-0.375 -3.96,-1.125 -1.25,-0.61 -1.94,-1.93 -2.71,-3.531 -1.07,-1.289 -1.4,-3.7 -1.92,-6.282 -0.51,-2.507 -0.77,-4.804 -0.77,-6.656 -0.07,-4.289 1.52,-6.875 4.55,-6.875 1.78,0.254 3.72,0.805 5.03,2.422 1.04,1.727 2.33,4.016 3.05,7.203 0.44,3.234 1.09,5.938 1.09,8.25 -0.32,4.691 -1.45,6.594 -4.36,6.594 z m 33.5,-16.016 c 2.98,0.102 5.32,-0.953 6.93,-2.859 1.59,-1.84 2.4,-4.653 2.4,-8.266 -0.14,-2.418 -0.32,-5.234 -0.97,-8.015 -0.79,-2.633 -1.63,-5.18 -2.95,-7.188 -1.49,-1.797 -2.86,-3.531 -4.59,-4.562 -2.05,-0.954 -3.68,-1.532 -5.82,-1.532 -3.01,0.246 -5.29,0.993 -6.92,2.985 -1.68,2.238 -2.44,4.812 -2.44,8.468 -0.24,3.645 0.56,7.04 1.68,10.469 0.97,3.707 2.72,6.047 4.82,7.828 2.04,2.11 4.74,2.672 7.86,2.672 z m -0.03,-3.89 c -1.63,0.066 -2.93,-0.375 -3.97,-1.125 -1.06,-0.641 -1.93,-1.93 -2.7,-3.532 -0.89,-1.32 -1.4,-3.699 -1.92,-6.281 -0.67,-2.539 -0.77,-4.805 -0.77,-6.656 -0.23,-4.32 1.51,-6.875 4.53,-6.875 1.97,0.222 3.72,0.805 5.04,2.422 1.23,1.695 2.34,4.015 3.06,7.203 0.62,3.203 1.09,5.941 1.09,8.265 -0.14,4.645 -1.45,6.579 -4.36,6.579" /><path
         id="path124"
         style="fill:none;stroke:#000000;stroke-width:7.68970013;stroke-linecap:butt;stroke-linejoin:miter;stroke-miterlimit:4;stroke-dasharray:none;stroke-opacity:1"
         d="m 1552.66,226.109 v -36.91" /><path
         id="path126"
         style="fill:#000000;fill-opacity:1;fill-rule:nonzero;stroke:none"
         d="m 1494.39,118.68 h -6.75 c 0.68,4.914 2.5,9.582 4.52,14 1.86,4.425 4.53,8.816 7.55,13.172 3,4.64 7.92,10.421 14.75,18.171 h -28.08 l 1.04,5.516 h 34.82 l -1.02,-5.25 c -5.57,-6.184 -9.12,-10.793 -11.19,-13.437 -2.16,-2.372 -3.9,-5.227 -5.54,-7.735 -1.92,-2.312 -3.11,-5.031 -4.39,-7.594 -1.42,-2.511 -2.41,-5.242 -3.36,-8.031 -0.97,-2.73 -1.73,-5.73 -2.35,-8.812" /><path
         id="path128"
         style="fill:#000000;fill-opacity:1;fill-rule:nonzero;stroke:none"
         d="m 1532.11,169.539 h 29.03 l -1.04,-5.516 h -23.13 l -4.14,-16.156 c 1.16,1.281 2.68,1.801 4.42,2.375 1.57,0.719 3.63,0.86 5.63,0.86 4.39,0.191 8.05,-1.282 10.78,-3.844 2.41,-2.422 4.11,-6.012 4.11,-10.344 -0.03,-5.664 -1.74,-10.559 -5.22,-13.922 -3.76,-3.137 -8.32,-5.047 -14.56,-5.047 -9.06,0.246 -14.5,3.91 -16.63,11.735 l 5.86,1.531 c 0.57,-2.543 2.08,-4.703 4,-6.016 1.74,-1.152 4.3,-1.968 7.14,-1.968 3.8,0.148 7.12,1.125 9.3,3.375 1.86,2.285 3.28,5.461 3.28,9.609 -0.09,3.094 -0.84,5.269 -2.5,7 -1.92,1.894 -3.91,2.609 -6.72,2.609 -3.96,0.285 -7.36,-1.187 -10.23,-3.562 h -6.39 l 7.01,27.281" /><path
         id="path130"
         style="fill:#000000;fill-opacity:1;fill-rule:nonzero;stroke:none"
         d="m 1575.99,118.68 h -5.94 l 42.73,50.859 h 6 z m 4.34,51.593 c 2.79,0.133 5.3,-0.953 6.91,-2.859 1.43,-1.82 2.42,-4.668 2.42,-8.281 -0.33,-2.371 -0.33,-5.227 -0.99,-8.016 -0.97,-2.594 -1.63,-5.179 -2.95,-7.187 -1.32,-1.762 -2.84,-3.532 -4.58,-4.563 -1.89,-0.918 -3.68,-1.531 -5.82,-1.531 -3.19,0.281 -5.29,0.992 -6.93,2.984 -1.86,2.274 -2.43,4.817 -2.43,8.485 -0.09,3.664 0.55,7.023 1.67,10.453 0.8,3.742 2.72,6.047 4.84,7.828 1.85,1.82 4.74,2.687 7.86,2.687 z m -0.05,-3.89 c -1.8,0.097 -2.93,-0.375 -3.96,-1.125 -1.25,-0.61 -1.94,-1.93 -2.71,-3.531 -1.07,-1.289 -1.4,-3.7 -1.92,-6.282 -0.51,-2.507 -0.77,-4.804 -0.77,-6.656 -0.07,-4.289 1.52,-6.875 4.55,-6.875 1.78,0.254 3.72,0.805 5.03,2.422 1.04,1.727 2.33,4.016 3.05,7.203 0.44,3.234 1.09,5.938 1.09,8.25 -0.32,4.691 -1.45,6.594 -4.36,6.594 z m 33.5,-16.016 c 2.98,0.102 5.32,-0.953 6.93,-2.859 1.59,-1.84 2.4,-4.653 2.4,-8.266 -0.14,-2.418 -0.32,-5.234 -0.97,-8.015 -0.79,-2.633 -1.63,-5.18 -2.95,-7.188 -1.49,-1.797 -2.86,-3.531 -4.59,-4.562 -2.05,-0.954 -3.68,-1.532 -5.82,-1.532 -3.01,0.246 -5.29,0.993 -6.92,2.985 -1.68,2.238 -2.44,4.812 -2.44,8.468 -0.24,3.645 0.56,7.04 1.68,10.469 0.97,3.707 2.72,6.047 4.82,7.828 2.04,2.11 4.74,2.672 7.86,2.672 z m -0.03,-3.89 c -1.63,0.066 -2.93,-0.375 -3.97,-1.125 -1.06,-0.641 -1.93,-1.93 -2.7,-3.532 -0.89,-1.32 -1.4,-3.699 -1.92,-6.281 -0.67,-2.539 -0.77,-4.805 -0.77,-6.656 -0.23,-4.32 1.51,-6.875 4.53,-6.875 1.97,0.222 3.72,0.805 5.04,2.422 1.23,1.695 2.34,4.015 3.06,7.203 0.62,3.203 1.09,5.941 1.09,8.265 -0.14,4.645 -1.45,6.579 -4.36,6.579" /><path
         id="path132"
         style="fill:none;stroke:#000000;stroke-width:7.68970013;stroke-linecap:butt;stroke-linejoin:miter;stroke-miterlimit:4;stroke-dasharray:none;stroke-opacity:1"
         d="m 1960.21,226.109 v -36.91" /><path
         id="path134"
         style="fill:#000000;fill-opacity:1;fill-rule:nonzero;stroke:none"
         d="m 1867.72,118.68 1.06,5.5 h 12.93 l 7.48,38.656 -12.98,-8.047 1.26,6.484 13.56,8.266 h 5.97 l -8.78,-45.359 h 12.35 l -1.08,-5.5 h -31.77" /><path
         id="path136"
         style="fill:#000000;fill-opacity:1;fill-rule:nonzero;stroke:none"
         d="m 1933.22,170.273 c 4.25,0.133 7.88,-1.48 10.38,-4.437 2.19,-2.68 3.75,-7.086 3.75,-12.375 -0.22,-6.094 -0.95,-12.133 -2.83,-17.891 -2.15,-5.726 -4.54,-10.14 -8,-13.14 -3.74,-2.907 -7.65,-4.485 -12.58,-4.485 -4.46,0.246 -7.81,1.551 -10.3,4.657 -2.81,3.128 -3.73,7.382 -3.73,12.843 -0.08,4.41 0.53,8.735 1.61,13.203 0.8,4.489 2.58,8.352 4.5,11.625 1.8,3.407 4.3,5.754 7.14,7.454 2.69,2.015 6.19,2.546 10.06,2.546 z m -8.75,-47.046 c 3.41,0.148 6.66,1.273 8.97,3.828 2.06,2.758 4.16,6.519 5.53,11.906 1.29,5.625 2.08,10.328 2.08,14.828 -0.12,4.024 -0.73,6.531 -2.17,8.406 -1.5,2.047 -3.47,2.828 -6.08,2.828 -3.7,0.219 -6.66,-1.277 -8.97,-3.828 -2.36,-2.39 -4.16,-6.523 -5.55,-11.906 -1.57,-5.258 -2.06,-10.328 -2.06,-14.828 -0.18,-3.656 0.72,-6.539 2.16,-8.422 1.22,-1.664 3.47,-2.812 6.09,-2.812" /><path
         id="path138"
         style="fill:#000000;fill-opacity:1;fill-rule:nonzero;stroke:none"
         d="m 1974.22,170.273 c 4.25,0.133 7.88,-1.48 10.38,-4.437 2.19,-2.68 3.75,-7.086 3.75,-12.375 -0.22,-6.094 -0.95,-12.133 -2.83,-17.891 -2.15,-5.726 -4.54,-10.14 -8,-13.14 -3.74,-2.907 -7.65,-4.485 -12.58,-4.485 -4.46,0.246 -7.81,1.551 -10.3,4.657 -2.81,3.128 -3.73,7.382 -3.73,12.843 -0.08,4.41 0.53,8.735 1.61,13.203 0.8,4.489 2.58,8.352 4.5,11.625 1.8,3.407 4.3,5.754 7.14,7.454 2.69,2.015 6.19,2.546 10.06,2.546 z m -8.75,-47.046 c 3.41,0.148 6.66,1.273 8.97,3.828 2.06,2.758 4.16,6.519 5.53,11.906 1.29,5.625 2.08,10.328 2.08,14.828 -0.12,4.024 -0.73,6.531 -2.17,8.406 -1.5,2.047 -3.47,2.828 -6.08,2.828 -3.7,0.219 -6.66,-1.277 -8.97,-3.828 -2.36,-2.39 -4.16,-6.523 -5.55,-11.906 -1.57,-5.258 -2.06,-10.328 -2.06,-14.828 -0.18,-3.656 0.72,-6.539 2.16,-8.422 1.22,-1.664 3.47,-2.812 6.09,-2.812" /><path
         id="path140"
         style="fill:#000000;fill-opacity:1;fill-rule:nonzero;stroke:none"
         d="m 2003.99,118.68 h -5.94 l 42.73,50.859 h 6 z m 4.34,51.593 c 2.79,0.133 5.3,-0.953 6.91,-2.859 1.43,-1.82 2.42,-4.668 2.42,-8.281 -0.33,-2.371 -0.33,-5.227 -0.99,-8.016 -0.97,-2.594 -1.63,-5.179 -2.95,-7.187 -1.32,-1.762 -2.84,-3.532 -4.58,-4.563 -1.89,-0.918 -3.68,-1.531 -5.82,-1.531 -3.19,0.281 -5.29,0.992 -6.93,2.984 -1.86,2.274 -2.43,4.817 -2.43,8.485 -0.09,3.664 0.55,7.023 1.67,10.453 0.8,3.742 2.72,6.047 4.84,7.828 1.85,1.82 4.74,2.687 7.86,2.687 z m -0.05,-3.89 c -1.8,0.097 -2.93,-0.375 -3.96,-1.125 -1.25,-0.61 -1.94,-1.93 -2.71,-3.531 -1.07,-1.289 -1.4,-3.7 -1.92,-6.282 -0.51,-2.507 -0.77,-4.804 -0.77,-6.656 -0.07,-4.289 1.52,-6.875 4.55,-6.875 1.78,0.254 3.72,0.805 5.03,2.422 1.04,1.727 2.33,4.016 3.05,7.203 0.44,3.234 1.09,5.938 1.09,8.25 -0.32,4.691 -1.45,6.594 -4.36,6.594 z m 33.5,-16.016 c 2.98,0.102 5.32,-0.953 6.93,-2.859 1.59,-1.84 2.4,-4.653 2.4,-8.266 -0.14,-2.418 -0.32,-5.234 -0.97,-8.015 -0.79,-2.633 -1.63,-5.18 -2.95,-7.188 -1.49,-1.797 -2.86,-3.531 -4.59,-4.562 -2.05,-0.954 -3.68,-1.532 -5.82,-1.532 -3.01,0.246 -5.29,0.993 -6.92,2.985 -1.68,2.238 -2.44,4.812 -2.44,8.468 -0.24,3.645 0.56,7.04 1.68,10.469 0.97,3.707 2.72,6.047 4.82,7.828 2.04,2.11 4.74,2.672 7.86,2.672 z m -0.03,-3.89 c -1.63,0.066 -2.93,-0.375 -3.97,-1.125 -1.06,-0.641 -1.93,-1.93 -2.7,-3.532 -0.89,-1.32 -1.4,-3.699 -1.92,-6.281 -0.67,-2.539 -0.77,-4.805 -0.77,-6.656 -0.23,-4.32 1.51,-6.875 4.53,-6.875 1.97,0.222 3.72,0.805 5.04,2.422 1.23,1.695 2.34,4.015 3.06,7.203 0.62,3.203 1.09,5.941 1.09,8.265 -0.14,4.645 -1.45,6.579 -4.36,6.579" /><path
         id="path142"
         style="fill:#000000;fill-opacity:1;fill-rule:nonzero;stroke:none"
         d="m 799.238,49.3984 c -0.191,-2.6992 -0.918,-5.1093 -2.738,-6.9531 -2.09,-1.7656 -4.402,-3.0547 -7.75,-3.625 l -0.031,-0.2656 c 2.578,-0.375 4.668,-1.4453 6.219,-3.0781 1.48,-1.5586 2.339,-3.6524 2.339,-6.0782 -0.199,-4.2734 -1.617,-7.7109 -4.867,-10.0312 -3.492,-2.2109 -7.84,-3.4688 -13.781,-3.4688 -6.059,0.2618 -11.231,0.5274 -16.461,1.5782 l 4.441,24.0468 c 0.821,5.9883 3.168,10.3516 6.141,13.25 2.949,3.2071 7.117,4.3594 12.438,4.3594 4.32,0.1797 7.949,-0.8555 10.39,-2.5625 2.141,-1.664 3.66,-4.0898 3.66,-7.1719 z m -29.39,-27.625 c 3,-0.2109 6.062,-0.7656 9.011,-0.7656 3.371,0.2227 6.129,0.6563 8.11,1.9688 1.898,1.5468 2.988,3.3906 2.988,6.2343 -0.09,2.25 -0.797,3.7579 -2.379,5 -1.871,1.3946 -4.051,1.8594 -7.441,1.8594 h -7.59 z m 11.179,19.2813 c 7.11,0.207 10.832,2.4844 10.832,7.4531 -0.062,1.7422 -0.589,3.0195 -1.761,4 -1.309,1.0469 -2.918,1.4844 -5.25,1.4844 -3.231,0.2266 -5.641,-0.9609 -7.36,-2.875 -2,-1.7305 -2.961,-4.7422 -3.668,-8.4688 l -0.3,-1.5937 h 7.507" /><path
         id="path144"
         style="fill:#000000;fill-opacity:1;fill-rule:nonzero;stroke:none"
         d="m 823.078,15.8984 c -3.308,0.2618 -5.758,0.668 -7.758,2 -2.203,1.5938 -3.41,3.2071 -4.242,5.625 h -0.168 c -0.082,-0.2421 -0.121,-1.1367 -0.34,-2.5312 -0.523,-1.1563 -1.55,-8.3281 -3.972,-20.828137 h -6.86 l 9.559,49.640637 c 0.383,3.1562 1.023,5.7109 1.332,8.5469 h 6.418 c -0.117,-0.5899 -0.09,-1.7618 -0.27,-3.1875 -0.199,-1.2461 -0.289,-2.4219 -0.39,-3.0157 h 0.16 c 1.601,2.625 3.871,4.2227 5.973,5.3282 1.828,1.1718 4.687,1.6562 7.757,1.6562 3.86,0.1797 7.211,-1.2148 9.473,-3.6406 2.25,-2.3672 3.41,-5.7617 3.41,-10 -0.16,-5.1484 -0.793,-10.2656 -2.383,-15.1719 -1.609,-4.7773 -3.82,-8.5273 -6.699,-10.8906 -3.008,-2.2734 -6.539,-3.5313 -11,-3.5313 z m 5.25,37.9063 c -2.781,0.2891 -4.758,-0.5234 -6.59,-1.5625 -1.84,-0.8984 -3.371,-2.6172 -4.64,-4.7188 -1.41,-2.0429 -2.278,-4.7187 -3,-7.875 -0.86,-3.1367 -1.078,-5.9687 -1.078,-8.4687 -0.11,-3.0547 0.82,-5.7188 2.468,-7.5 1.379,-1.7813 3.93,-2.6719 6.86,-2.6719 2.98,0.2227 5.742,0.9688 7.609,2.9063 1.781,2.1914 3.34,5.0195 4.402,9.25 0.84,4.4101 1.598,7.9414 1.598,11.1093 -0.09,3.2891 -0.609,5.5313 -1.828,7.125 -1.371,1.6954 -3.149,2.4063 -5.801,2.4063" /><path
         id="path146"
         style="fill:#000000;fill-opacity:1;fill-rule:nonzero;stroke:none"
         d="m 855.527,35.7578 c -0.429,-0.5781 -0.269,-2.3125 -0.339,-4.2812 -0.168,-3.2891 0.859,-5.9297 2.582,-7.7188 1.687,-1.4844 4.308,-2.6875 7.8,-2.6875 2.207,0.2031 4.778,0.5938 6.817,1.7813 1.82,1.4609 3.652,2.7968 4.801,4.8281 l 5.3,-2.3594 c -2.16,-3.164 -4.281,-5.6719 -7.191,-7.1719 -3.109,-1.3242 -6.418,-2.25 -10.547,-2.25 -5.211,0.2618 -9.223,1.4297 -12.09,4.2969 -3.191,3.0235 -4.301,6.8906 -4.301,12.0781 -0.222,5.3008 0.911,9.7969 2.739,13.8907 1.691,4.2734 4.41,7.289 7.73,9.5625 3.27,2.5859 7.059,3.4062 11.199,3.4062 5.18,0.1797 9.411,-1.3398 12.352,-4.0156 2.699,-2.4922 4.398,-6.4649 4.398,-11.3594 -0.027,-2.4219 -0.308,-5.3984 -0.929,-8 z m 24.223,5.2969 0.16,2.8437 c -0.082,3.5313 -0.84,5.7735 -2.523,7.5157 -1.899,1.8281 -4.059,2.6093 -7.18,2.6093 -3.637,0.2188 -6.387,-1.1328 -8.769,-3.3906 -2.618,-2.2344 -4.028,-5.4453 -4.981,-9.5781 h 23.293" /><path
         id="path148"
         style="fill:#000000;fill-opacity:1;fill-rule:nonzero;stroke:none"
         d="m 941.418,58.3516 -8.07,-41.6719 h -6.629 l 5.359,27.8906 c 0,0.6094 0.289,1.2383 0.449,2 -0.109,0.8047 0.34,1.5664 0.52,2.3906 0.051,1.0625 0.363,1.625 0.551,2.4063 -0.11,0.8945 0.371,1.4687 0.531,2.0312 L 914.688,16.6797 h -5.77 l -5.34,36.6406 c -0.371,-0.5156 -0.308,-2.1328 -0.699,-4.4844 -0.449,-2.0625 -2.449,-13.0625 -6.191,-32.1562 H 890 l 8.078,41.6719 h 10.172 l 3.27,-22.4219 c 0,-1.625 0.5,-4.2774 0.668,-7.2031 0,-2.6094 0.25,-5.2149 0.25,-6.8594 1.191,4.1445 3.082,7.5469 4.921,11.0156 l 13.661,25.4688 h 10.398" /><path
         id="path150"
         style="fill:#000000;fill-opacity:1;fill-rule:nonzero;stroke:none"
         d="m 962.52,34.6797 -13.723,-18 h -7.949 l 14.722,18.5 c -1.55,0.5195 -2.453,1.0312 -3.601,2.0312 -1.239,1.1563 -2.09,2.2227 -2.832,3.6719 -0.879,1.7227 -1.09,3.082 -1.09,4.875 -0.117,4.5235 1.48,7.3672 4.441,9.4531 2.692,2.25 7.52,3.1407 13.7,3.1407 h 16.609 l -8.078,-41.6719 h -6.899 l 3.418,18 z m 12.398,18.7969 h -8.531 c -4.188,0.0664 -6.789,-0.625 -8.477,-1.875 -1.762,-1.2149 -2.531,-3.2149 -2.531,-5.9219 -0.231,-1.8555 0.629,-3.3555 1.898,-4.5 1.09,-0.9688 2.953,-1.7031 4.993,-1.7031 h 9.918 l 2.73,14" /><path
         id="path152"
         style="fill:#000000;fill-opacity:1;fill-rule:nonzero;stroke:none"
         d="m 1048.42,58.3516 -8.04,-41.6719 h -6.92 l 7.06,36.6406 h -18.56 l -7.05,-36.6406 h -6.92 l 8.06,41.6719 h 32.37" /><path
         id="path154"
         style="fill:#000000;fill-opacity:1;fill-rule:nonzero;stroke:none"
         d="m 1050.3,0.164063 c -2.05,0.171875 -3.53,0.183593 -5.06,0.546875 l 1.18,5.140622 c 0.92,0.07813 2.15,-0.29687 2.96,-0.29687 2.2,0.04297 4.58,0.79687 6.44,2.39062 1.81,1.83985 3.67,3.92189 5.46,6.98439 l 1.04,1.75 -8.33,41.6719 h 7.03 l 4.3,-23.2969 c 0.17,-1.875 0.74,-4.2969 1.07,-6.6406 0.1,-2.2578 0.51,-3.8711 0.53,-4.5782 0.18,0.8516 0.58,1.2735 0.99,2.1094 0.34,1.0781 6.22,11.6328 17.41,32.4063 h 7.64 l -24.04,-42.1407 c -2.92,-4.6953 -5.13,-8.25387 -6.85,-10.20309 -1.85,-1.72265 -3.53,-3.40625 -5.41,-4.375 -2.2,-0.960935 -4,-1.468747 -6.36,-1.468747" /><path
         id="path156"
         style="fill:#000000;fill-opacity:1;fill-rule:nonzero;stroke:none"
         d="m 1113.63,16.6797 4.75,24.4375 c 0.4,3.4062 0.95,5.457 0.95,6.7187 -0.21,2.2188 -0.48,3.4141 -1.42,4.4375 -1.02,1.1563 -2.5,1.5313 -4.66,1.5313 -3.09,0.2891 -5.44,-1.2774 -7.61,-3.8281 -2.48,-2.3203 -3.59,-5.8868 -4.26,-10 l -4.52,-23.2969 h -6.87 l 6.37,32.8125 c 0.29,2.4883 1.01,5.3789 1.49,8.8594 h 6.53 c -0.23,-0.1719 -0.14,-1.2735 -0.41,-2.9688 -0.35,-1.6015 -0.48,-3.0703 -0.65,-4.1094 h 0.1 c 1.59,3.0625 3.68,4.9688 5.52,6.125 1.77,1.25 4.06,1.7344 6.63,1.7344 2.75,0.1797 5.46,-0.7656 7.25,-2.2969 1.73,-1.2421 2.84,-3.7343 3.2,-6.6406 1.96,3.4922 4.11,5.6563 6.12,6.9688 1.87,1.4843 4.33,1.9687 6.93,1.9687 3.25,0.1797 5.96,-0.9375 7.78,-2.8125 1.75,-1.7578 2.72,-4.5898 2.72,-8.1406 -0.3,-1.4805 -0.28,-3.75 -0.82,-6.3125 l -4.86,-25.1875 h -6.82 l 4.75,24.4375 c 0.59,3.4062 0.95,5.457 0.95,6.7187 -0.03,2.2188 -0.47,3.4141 -1.41,4.4375 -1.16,1.1563 -2.48,1.5313 -4.62,1.5313 -2.89,0.2891 -5.39,-1.2617 -7.52,-3.7813 -2.3,-2.2929 -3.54,-5.8242 -4.23,-9.9375 l -4.53,-23.4062 h -6.83" /><path
         id="path158"
         style="fill:#000000;fill-opacity:1;fill-rule:nonzero;stroke:none"
         d="m 1164.53,35.7578 c -0.43,-0.5781 -0.27,-2.3125 -0.34,-4.2812 -0.17,-3.2891 0.86,-5.9297 2.58,-7.7188 1.69,-1.4844 4.31,-2.6875 7.8,-2.6875 2.21,0.2031 4.78,0.5938 6.82,1.7813 1.82,1.4609 3.65,2.7968 4.8,4.8281 l 5.3,-2.3594 c -2.16,-3.164 -4.28,-5.6719 -7.19,-7.1719 -3.11,-1.3242 -6.42,-2.25 -10.55,-2.25 -5.21,0.2618 -9.22,1.4297 -12.09,4.2969 -3.19,3.0235 -4.3,6.8906 -4.3,12.0781 -0.22,5.3008 0.91,9.7969 2.74,13.8907 1.69,4.2734 4.41,7.289 7.73,9.5625 3.27,2.5859 7.06,3.4062 11.2,3.4062 5.18,0.1797 9.41,-1.3398 12.35,-4.0156 2.7,-2.4922 4.4,-6.4649 4.4,-11.3594 -0.03,-2.4219 -0.31,-5.3984 -0.93,-8 z m 24.22,5.2969 0.16,2.8437 c -0.08,3.5313 -0.84,5.7735 -2.52,7.5157 -1.9,1.8281 -4.06,2.6093 -7.18,2.6093 -3.64,0.2188 -6.39,-1.1328 -8.77,-3.3906 -2.62,-2.2344 -4.03,-5.4453 -4.98,-9.5781 h 23.29" /><path
         id="path160"
         style="fill:#000000;fill-opacity:1;fill-rule:nonzero;stroke:none"
         d="m 1238.49,58.3516 -4.77,-24.4688 c -0.65,-2.7969 -0.95,-5.3047 -0.95,-6.7187 -0.03,-1.7578 0.48,-3.4024 1.45,-4.4219 0.79,-0.6992 2.56,-1.5156 4.77,-1.5156 2.86,0.1484 5.55,1.2695 7.76,3.8125 2.2,2.7656 3.67,5.8828 4.36,10 l 4.53,23.3125 h 6.88 l -6.38,-32.7813 c -0.67,-2.4023 -1.02,-5.4023 -1.5,-8.8906 h -6.53 c -0.14,0.2812 0.13,1.2656 0.41,2.9531 -0.01,1.711 0.5,3.0703 0.69,4.125 h -0.11 c -2.02,-2.6328 -3.76,-4.9844 -5.64,-6.1406 -2.14,-1.125 -4.13,-1.7188 -6.74,-1.7188 -3.1,0.2618 -5.55,0.7618 -7.37,2.2813 -2.03,1.6953 -2.91,3.75 -3.27,6.6562 -2.17,-2.9921 -4.1,-5.5781 -6.17,-6.9218 -2.15,-1.0899 -4.47,-2.0157 -7.17,-2.0157 -3.47,0.2618 -6.11,0.9375 -7.97,2.8125 -1.88,2.1954 -2.78,4.5821 -2.78,8.125 -0.1,1.9258 0.27,3.7539 0.81,6.3282 l 4.87,25.1875 h 6.85 l -4.77,-24.4688 c -0.67,-2.7969 -0.97,-5.3047 -0.97,-6.7187 -0.03,-1.7578 0.49,-3.4024 1.46,-4.4219 0.79,-0.6992 2.56,-1.5156 4.76,-1.5156 2.87,0.1484 5.55,1.2539 7.75,3.7656 2.19,2.7383 3.67,5.8164 4.38,9.9219 l 4.51,23.4375 h 6.85" /><path
         id="path162"
         style="fill:#000000;fill-opacity:1;fill-rule:nonzero;stroke:none"
         d="m 1273.53,35.7578 c -0.43,-0.5781 -0.27,-2.3125 -0.34,-4.2812 -0.17,-3.2891 0.86,-5.9297 2.58,-7.7188 1.69,-1.4844 4.31,-2.6875 7.8,-2.6875 2.21,0.2031 4.78,0.5938 6.82,1.7813 1.82,1.4609 3.65,2.7968 4.8,4.8281 l 5.3,-2.3594 c -2.16,-3.164 -4.28,-5.6719 -7.19,-7.1719 -3.11,-1.3242 -6.42,-2.25 -10.55,-2.25 -5.21,0.2618 -9.22,1.4297 -12.09,4.2969 -3.19,3.0235 -4.3,6.8906 -4.3,12.0781 -0.22,5.3008 0.91,9.7969 2.74,13.8907 1.69,4.2734 4.41,7.289 7.73,9.5625 3.27,2.5859 7.06,3.4062 11.2,3.4062 5.18,0.1797 9.41,-1.3398 12.35,-4.0156 2.7,-2.4922 4.4,-6.4649 4.4,-11.3594 -0.03,-2.4219 -0.31,-5.3984 -0.93,-8 z m 24.22,5.2969 0.16,2.8437 c -0.08,3.5313 -0.84,5.7735 -2.52,7.5157 -1.9,1.8281 -4.06,2.6093 -7.18,2.6093 -3.64,0.2188 -6.39,-1.1328 -8.77,-3.3906 -2.62,-2.2344 -4.03,-5.4453 -4.98,-9.5781 h 23.29" /><path
         id="path164"
         style="fill:#000000;fill-opacity:1;fill-rule:nonzero;stroke:none"
         d="m 1324.69,21.3516 c 5.25,0.1093 8.95,2.8945 11.09,8.6875 l 5.99,-1.8594 c -3.12,-8.0234 -8.84,-12.2813 -17.24,-12.2813 -5.18,0.2618 -8.68,1.3946 -11.32,4.1875 -2.81,3 -3.96,6.7344 -3.96,11.7969 -0.18,5.3985 0.93,9.9102 2.78,14.3281 1.74,4.5821 4.32,7.6875 7.38,9.7813 2.82,2.3203 6.82,3.1406 11.26,3.1406 4,0.1797 7.75,-1.1055 10.27,-3.3125 2.45,-1.9219 3.92,-5.2344 4.17,-9.0781 l -6.79,-0.9688 c -0.37,2.8438 -0.93,4.5 -2.32,5.875 -1.48,1.3829 -3.23,2.0625 -5.56,2.0625 -3.47,0.3204 -5.83,-0.8711 -7.83,-2.6093 -2.29,-1.5391 -3.54,-4.4844 -4.64,-8.2657 -1.2,-3.5 -1.65,-7.5117 -1.65,-11.1875 -0.22,-6.8554 2.78,-10.2968 8.37,-10.2968" /><path
         id="path166"
         style="fill:#000000;fill-opacity:1;fill-rule:nonzero;stroke:none"
         d="m 1370.63,16.6797 4.75,24.4375 c 0.4,3.4062 0.95,5.457 0.95,6.7187 -0.21,2.2188 -0.48,3.4141 -1.42,4.4375 -1.02,1.1563 -2.5,1.5313 -4.66,1.5313 -3.09,0.2891 -5.44,-1.2774 -7.61,-3.8281 -2.48,-2.3203 -3.59,-5.8868 -4.26,-10 l -4.52,-23.2969 h -6.87 l 6.37,32.8125 c 0.29,2.4883 1.01,5.3789 1.49,8.8594 h 6.53 c -0.23,-0.1719 -0.14,-1.2735 -0.41,-2.9688 -0.35,-1.6015 -0.48,-3.0703 -0.65,-4.1094 h 0.1 c 1.59,3.0625 3.68,4.9688 5.52,6.125 1.77,1.25 4.06,1.7344 6.63,1.7344 2.75,0.1797 5.46,-0.7656 7.25,-2.2969 1.73,-1.2421 2.84,-3.7343 3.2,-6.6406 1.96,3.4922 4.11,5.6563 6.12,6.9688 1.87,1.4843 4.33,1.9687 6.93,1.9687 3.25,0.1797 5.96,-0.9375 7.78,-2.8125 1.75,-1.7578 2.72,-4.5898 2.72,-8.1406 -0.3,-1.4805 -0.28,-3.75 -0.82,-6.3125 l -4.86,-25.1875 h -6.82 l 4.75,24.4375 c 0.59,3.4062 0.95,5.457 0.95,6.7187 -0.03,2.2188 -0.47,3.4141 -1.41,4.4375 -1.16,1.1563 -2.48,1.5313 -4.62,1.5313 -2.89,0.2891 -5.39,-1.2617 -7.52,-3.7813 -2.3,-2.2929 -3.54,-5.8242 -4.23,-9.9375 l -4.53,-23.4062 h -6.83" /><path
         id="path168"
         style="fill:#000000;fill-opacity:1;fill-rule:nonzero;stroke:none"
         d="m 1450.24,49.3984 c -0.19,-2.6992 -0.92,-5.1093 -2.74,-6.9531 -2.09,-1.7656 -4.4,-3.0547 -7.75,-3.625 l -0.03,-0.2656 c 2.58,-0.375 4.67,-1.4453 6.22,-3.0781 1.48,-1.5586 2.34,-3.6524 2.34,-6.0782 -0.2,-4.2734 -1.62,-7.7109 -4.87,-10.0312 -3.49,-2.2109 -7.84,-3.4688 -13.78,-3.4688 -6.06,0.2618 -11.23,0.5274 -16.46,1.5782 l 4.44,24.0468 c 0.82,5.9883 3.17,10.3516 6.14,13.25 2.95,3.2071 7.12,4.3594 12.44,4.3594 4.32,0.1797 7.95,-0.8555 10.39,-2.5625 2.14,-1.664 3.66,-4.0898 3.66,-7.1719 z m -29.39,-27.625 c 3,-0.2109 6.06,-0.7656 9.01,-0.7656 3.37,0.2227 6.13,0.6563 8.11,1.9688 1.9,1.5468 2.99,3.3906 2.99,6.2343 -0.09,2.25 -0.8,3.7579 -2.38,5 -1.87,1.3946 -4.05,1.8594 -7.44,1.8594 h -7.59 z m 11.18,19.2813 c 7.11,0.207 10.83,2.4844 10.83,7.4531 -0.06,1.7422 -0.59,3.0195 -1.76,4 -1.31,1.0469 -2.92,1.4844 -5.25,1.4844 -3.23,0.2266 -5.64,-0.9609 -7.36,-2.875 -2,-1.7305 -2.96,-4.7422 -3.67,-8.4688 l -0.3,-1.5937 h 7.51" /><path
         id="path170"
         style="fill:#000000;fill-opacity:1;fill-rule:nonzero;stroke:none"
         d="m 1468.64,58.3516 -4.84,-24.8907 c -0.5,-2.1992 -0.69,-4.1992 -0.69,-5.7812 -0.14,-4.3047 2.32,-6.4531 6.97,-6.4531 3.14,0.1484 6.15,1.2343 8.64,3.7031 2.48,2.7187 4.15,5.8125 4.97,10.0312 l 4.53,23.3907 h 6.91 l -6.36,-32.7813 c -0.55,-2.4023 -1.03,-5.4023 -1.5,-8.8906 h -6.53 c -0.02,0.2812 0.13,1.2656 0.4,2.9531 0.12,1.711 0.5,3.0703 0.68,4.125 h -0.11 c -2.17,-2.6523 -4.32,-5.0117 -6.47,-6.1562 -2.34,-1.1094 -4.73,-1.7032 -7.71,-1.7032 -4.1,0.2618 -6.7,0.9375 -8.62,2.8125 -2,2.1954 -2.89,4.5821 -2.89,8.125 -0.11,1.9258 0.27,3.7539 0.81,6.3282 l 4.86,25.1875 h 6.95" /><path
         id="path172"
         style="fill:#000000;fill-opacity:1;fill-rule:nonzero;stroke:none"
         d="m 1516.52,34.6797 -13.72,-18 h -7.95 l 14.72,18.5 c -1.55,0.5195 -2.45,1.0312 -3.6,2.0312 -1.24,1.1563 -2.09,2.2227 -2.83,3.6719 -0.88,1.7227 -1.09,3.082 -1.09,4.875 -0.12,4.5235 1.48,7.3672 4.44,9.4531 2.69,2.25 7.52,3.1407 13.7,3.1407 h 16.61 l -8.08,-41.6719 h -6.9 l 3.42,18 z m 12.4,18.7969 h -8.53 c -4.19,0.0664 -6.79,-0.625 -8.48,-1.875 -1.76,-1.2149 -2.53,-3.2149 -2.53,-5.9219 -0.23,-1.8555 0.63,-3.3555 1.9,-4.5 1.09,-0.9688 2.95,-1.7031 4.99,-1.7031 h 9.92 l 2.73,14" /><path
         id="path174"
         style="fill:none;stroke:#000000;stroke-width:7.68970013;stroke-linecap:butt;stroke-linejoin:miter;stroke-miterlimit:4;stroke-dasharray:none;stroke-opacity:1"
         d="m 283.855,229.188 h 39.989 V 1859.4 h -39.989" /><path
         id="path176"
         style="fill:none;stroke:#000000;stroke-width:7.68970013;stroke-linecap:butt;stroke-linejoin:miter;stroke-miterlimit:4;stroke-dasharray:none;stroke-opacity:1"
         d="M 320.766,229.188 H 283.855" /><path
         id="path178"
         style="fill:#000000;fill-opacity:1;fill-rule:nonzero;stroke:none"
         d="m 185.219,257.273 c 4.25,0.133 7.883,-1.48 10.375,-4.437 2.195,-2.68 3.75,-7.086 3.75,-12.375 -0.219,-6.094 -0.946,-12.133 -2.828,-17.891 -2.153,-5.726 -4.543,-10.14 -8,-13.14 -3.735,-2.907 -7.653,-4.485 -12.578,-4.485 -4.461,0.246 -7.809,1.551 -10.297,4.657 -2.809,3.128 -3.735,7.382 -3.735,12.843 -0.074,4.41 0.535,8.735 1.61,13.203 0.804,4.489 2.582,8.352 4.5,11.625 1.804,3.407 4.297,5.754 7.14,7.454 2.688,2.015 6.196,2.546 10.063,2.546 z m -8.75,-47.046 c 3.406,0.148 6.656,1.273 8.969,3.828 2.062,2.758 4.156,6.519 5.531,11.906 1.289,5.625 2.078,10.328 2.078,14.828 -0.121,4.024 -0.727,6.531 -2.172,8.406 -1.5,2.047 -3.465,2.828 -6.078,2.828 -3.703,0.219 -6.656,-1.277 -8.969,-3.828 -2.359,-2.39 -4.164,-6.523 -5.547,-11.906 -1.574,-5.258 -2.062,-10.328 -2.062,-14.828 -0.18,-3.656 0.719,-6.539 2.156,-8.422 1.219,-1.664 3.477,-2.812 6.094,-2.812" /><path
         id="path180"
         style="fill:#000000;fill-opacity:1;fill-rule:nonzero;stroke:none"
         d="m 214.984,205.68 h -5.937 l 42.734,50.859 h 6 z m 4.344,51.593 c 2.785,0.133 5.301,-0.953 6.906,-2.859 1.43,-1.82 2.422,-4.668 2.422,-8.281 -0.324,-2.371 -0.328,-5.227 -0.984,-8.016 -0.977,-2.594 -1.633,-5.179 -2.953,-7.187 -1.324,-1.762 -2.84,-3.532 -4.578,-4.563 -1.891,-0.918 -3.684,-1.531 -5.828,-1.531 -3.188,0.281 -5.29,0.992 -6.922,2.984 -1.86,2.274 -2.438,4.817 -2.438,8.485 -0.09,3.664 0.555,7.023 1.672,10.453 0.801,3.742 2.727,6.047 4.844,7.828 1.851,1.82 4.734,2.687 7.859,2.687 z m -0.047,-3.89 c -1.804,0.097 -2.929,-0.375 -3.968,-1.125 -1.243,-0.61 -1.934,-1.93 -2.704,-3.531 -1.07,-1.289 -1.402,-3.7 -1.921,-6.282 -0.512,-2.507 -0.766,-4.804 -0.766,-6.656 -0.078,-4.289 1.516,-6.875 4.547,-6.875 1.781,0.254 3.719,0.805 5.031,2.422 1.039,1.727 2.328,4.016 3.047,7.203 0.441,3.234 1.094,5.938 1.094,8.25 -0.321,4.691 -1.453,6.594 -4.36,6.594 z m 33.5,-16.016 c 2.977,0.102 5.317,-0.953 6.922,-2.859 1.598,-1.84 2.406,-4.653 2.406,-8.266 -0.14,-2.418 -0.324,-5.234 -0.968,-8.015 -0.797,-2.633 -1.633,-5.18 -2.953,-7.188 -1.493,-1.797 -2.856,-3.531 -4.594,-4.562 -2.043,-0.954 -3.68,-1.532 -5.813,-1.532 -3.011,0.246 -5.289,0.993 -6.922,2.985 -1.683,2.238 -2.437,4.812 -2.437,8.468 -0.246,3.645 0.555,7.04 1.672,10.469 0.976,3.707 2.722,6.047 4.828,7.828 2.035,2.11 4.734,2.672 7.859,2.672 z m -0.031,-3.89 c -1.637,0.066 -2.937,-0.375 -3.969,-1.125 -1.062,-0.641 -1.933,-1.93 -2.703,-3.532 -0.89,-1.32 -1.402,-3.699 -1.922,-6.281 -0.668,-2.539 -0.765,-4.805 -0.765,-6.656 -0.235,-4.32 1.507,-6.875 4.531,-6.875 1.961,0.222 3.719,0.805 5.031,2.422 1.235,1.695 2.344,4.015 3.063,7.203 0.617,3.203 1.093,5.941 1.093,8.265 -0.14,4.645 -1.453,6.579 -4.359,6.579" /><path
         id="path182"
         style="fill:none;stroke:#000000;stroke-width:7.68970013;stroke-linecap:butt;stroke-linejoin:miter;stroke-miterlimit:4;stroke-dasharray:none;stroke-opacity:1"
         d="M 320.766,636.738 H 283.855" /><path
         id="path184"
         style="fill:#000000;fill-opacity:1;fill-rule:nonzero;stroke:none"
         d="m 117.25,612.68 0.875,4.582 c 1.188,2.367 2.82,4.218 4.469,5.976 1.344,1.91 3.359,3.352 5.14,4.782 1.774,1.66 3.61,2.75 5.454,3.929 1.687,1.422 3.644,2.313 5.375,3.403 1.445,1.207 3.363,2.179 4.875,3.269 1.257,1.098 2.832,2.238 3.968,3.469 0.895,1.422 2.032,2.558 2.688,4.012 0.519,1.648 0.984,3.097 0.984,4.937 -0.133,2.57 -0.762,4.262 -2.281,5.723 -1.559,1.758 -3.563,2.187 -6.125,2.187 -2.977,0.242 -4.953,-0.73 -6.922,-2.179 -1.98,-1.141 -3.391,-3.61 -4.297,-6.5 l -6.125,1.351 c 1.098,4.117 3.461,7.238 6.453,9.399 2.969,2.39 6.758,3.25 11.282,3.25 4.269,0.14 7.96,-1.18 10.703,-3.54 2.711,-2.039 4.109,-5.41 4.109,-9.16 -0.062,-2.511 -0.621,-5 -1.859,-7.332 -1.34,-2.179 -3.086,-4.566 -5.563,-6.718 -2.734,-2.079 -6.215,-4.77 -11.203,-7.899 -3.742,-2.211 -6.43,-4.262 -8.625,-6.101 -2.5,-1.77 -3.84,-3.598 -4.953,-5.34 h 26.406 l -1.047,-5.5 H 117.25" /><path
         id="path186"
         style="fill:#000000;fill-opacity:1;fill-rule:nonzero;stroke:none"
         d="m 171.109,663.539 h 29.032 l -1.047,-5.519 h -23.125 l -4.141,-16.149 c 1.16,1.277 2.68,1.801 4.422,2.367 1.563,0.723 3.625,0.864 5.625,0.864 4.395,0.187 8.051,-1.282 10.781,-3.84 2.414,-2.422 4.11,-6.012 4.11,-10.352 -0.028,-5.66 -1.743,-10.551 -5.219,-13.922 -3.758,-3.129 -8.324,-5.039 -14.563,-5.039 -9.058,0.242 -14.5,3.91 -16.625,11.731 l 5.86,1.531 c 0.57,-2.539 2.082,-4.699 4,-6.012 1.738,-1.16 4.297,-1.969 7.14,-1.969 3.797,0.149 7.118,1.122 9.297,3.372 1.864,2.289 3.282,5.457 3.282,9.609 -0.086,3.098 -0.836,5.269 -2.5,7 -1.918,1.898 -3.907,2.609 -6.719,2.609 -3.961,0.289 -7.36,-1.191 -10.235,-3.558 h -6.39 l 7.015,27.277" /><path
         id="path188"
         style="fill:#000000;fill-opacity:1;fill-rule:nonzero;stroke:none"
         d="m 214.984,612.68 h -5.937 l 42.734,50.859 h 6 z m 4.344,51.59 c 2.785,0.14 5.301,-0.95 6.906,-2.86 1.43,-1.82 2.422,-4.66 2.422,-8.281 -0.324,-2.367 -0.328,-5.219 -0.984,-8.008 -0.977,-2.601 -1.633,-5.18 -2.953,-7.191 -1.324,-1.758 -2.84,-3.532 -4.578,-4.559 -1.891,-0.922 -3.684,-1.531 -5.828,-1.531 -3.188,0.281 -5.29,0.992 -6.922,2.98 -1.86,2.27 -2.438,4.821 -2.438,8.489 -0.09,3.66 0.555,7.023 1.672,10.453 0.801,3.738 2.727,6.047 4.844,7.828 1.851,1.82 4.734,2.68 7.859,2.68 z m -0.047,-3.891 c -1.804,0.101 -2.929,-0.367 -3.968,-1.117 -1.243,-0.614 -1.934,-1.93 -2.704,-3.532 -1.07,-1.289 -1.402,-3.699 -1.921,-6.281 -0.512,-2.508 -0.766,-4.808 -0.766,-6.66 -0.078,-4.289 1.516,-6.879 4.547,-6.879 1.781,0.262 3.719,0.809 5.031,2.43 1.039,1.719 2.328,4.012 3.047,7.199 0.441,3.231 1.094,5.941 1.094,8.25 -0.321,4.691 -1.453,6.59 -4.36,6.59 z m 33.5,-16.008 c 2.977,0.098 5.317,-0.961 6.922,-2.859 1.598,-1.84 2.406,-4.653 2.406,-8.274 -0.14,-2.418 -0.324,-5.226 -0.968,-8.008 -0.797,-2.64 -1.633,-5.179 -2.953,-7.191 -1.493,-1.801 -2.856,-3.527 -4.594,-4.559 -2.043,-0.96 -3.68,-1.531 -5.813,-1.531 -3.011,0.242 -5.289,0.992 -6.922,2.981 -1.683,2.242 -2.437,4.808 -2.437,8.468 -0.246,3.641 0.555,7.043 1.672,10.473 0.976,3.699 2.722,6.039 4.828,7.828 2.035,2.11 4.734,2.672 7.859,2.672 z m -0.031,-3.891 c -1.637,0.059 -2.937,-0.378 -3.969,-1.128 -1.062,-0.641 -1.933,-1.93 -2.703,-3.532 -0.89,-1.32 -1.402,-3.699 -1.922,-6.281 -0.668,-2.539 -0.765,-4.809 -0.765,-6.66 -0.235,-4.32 1.507,-6.867 4.531,-6.867 1.961,0.218 3.719,0.797 5.031,2.418 1.235,1.699 2.344,4.019 3.063,7.199 0.617,3.211 1.093,5.941 1.093,8.269 -0.14,4.641 -1.453,6.582 -4.359,6.582" /><path
         id="path190"
         style="fill:none;stroke:#000000;stroke-width:7.68970013;stroke-linecap:butt;stroke-linejoin:miter;stroke-miterlimit:4;stroke-dasharray:none;stroke-opacity:1"
         d="M 320.766,1044.29 H 283.855" /><path
         id="path192"
         style="fill:#000000;fill-opacity:1;fill-rule:nonzero;stroke:none"
         d="m 130.109,1071.54 h 29.032 l -1.047,-5.52 h -23.125 l -4.141,-16.15 c 1.16,1.28 2.68,1.8 4.422,2.37 1.563,0.72 3.625,0.86 5.625,0.86 4.395,0.19 8.051,-1.28 10.781,-3.84 2.414,-2.42 4.11,-6.01 4.11,-10.35 -0.028,-5.66 -1.743,-10.55 -5.219,-13.92 -3.758,-3.13 -8.324,-5.04 -14.563,-5.04 -9.058,0.24 -14.5,3.91 -16.625,11.73 l 5.86,1.53 c 0.57,-2.54 2.082,-4.7 4,-6.01 1.738,-1.16 4.297,-1.97 7.14,-1.97 3.797,0.15 7.118,1.12 9.297,3.37 1.864,2.29 3.282,5.46 3.282,9.61 -0.086,3.1 -0.836,5.27 -2.5,7 -1.918,1.9 -3.907,2.61 -6.719,2.61 -3.961,0.29 -7.36,-1.19 -10.235,-3.56 h -6.39 l 7.015,27.28" /><path
         id="path194"
         style="fill:#000000;fill-opacity:1;fill-rule:nonzero;stroke:none"
         d="m 185.219,1072.27 c 4.25,0.14 7.883,-1.48 10.375,-4.43 2.195,-2.68 3.75,-7.09 3.75,-12.38 -0.219,-6.09 -0.946,-12.13 -2.828,-17.89 -2.153,-5.73 -4.543,-10.14 -8,-13.14 -3.735,-2.91 -7.653,-4.48 -12.578,-4.48 -4.461,0.24 -7.809,1.55 -10.297,4.65 -2.809,3.13 -3.735,7.38 -3.735,12.85 -0.074,4.41 0.535,8.73 1.61,13.2 0.804,4.49 2.582,8.35 4.5,11.62 1.804,3.41 4.297,5.76 7.14,7.46 2.688,2.01 6.196,2.54 10.063,2.54 z m -8.75,-47.04 c 3.406,0.15 6.656,1.27 8.969,3.83 2.062,2.75 4.156,6.51 5.531,11.9 1.289,5.63 2.078,10.33 2.078,14.83 -0.121,4.02 -0.727,6.53 -2.172,8.41 -1.5,2.04 -3.465,2.82 -6.078,2.82 -3.703,0.22 -6.656,-1.27 -8.969,-3.82 -2.359,-2.39 -4.164,-6.53 -5.547,-11.91 -1.574,-5.26 -2.062,-10.33 -2.062,-14.83 -0.18,-3.65 0.719,-6.54 2.156,-8.42 1.219,-1.66 3.477,-2.81 6.094,-2.81" /><path
         id="path196"
         style="fill:#000000;fill-opacity:1;fill-rule:nonzero;stroke:none"
         d="m 214.984,1020.68 h -5.937 l 42.734,50.86 h 6 z m 4.344,51.59 c 2.785,0.14 5.301,-0.95 6.906,-2.86 1.43,-1.82 2.422,-4.66 2.422,-8.28 -0.324,-2.37 -0.328,-5.22 -0.984,-8.01 -0.977,-2.6 -1.633,-5.18 -2.953,-7.19 -1.324,-1.76 -2.84,-3.53 -4.578,-4.56 -1.891,-0.92 -3.684,-1.53 -5.828,-1.53 -3.188,0.28 -5.29,0.99 -6.922,2.98 -1.86,2.27 -2.438,4.82 -2.438,8.49 -0.09,3.66 0.555,7.02 1.672,10.45 0.801,3.74 2.727,6.05 4.844,7.83 1.851,1.82 4.734,2.68 7.859,2.68 z m -0.047,-3.89 c -1.804,0.1 -2.929,-0.37 -3.968,-1.12 -1.243,-0.61 -1.934,-1.93 -2.704,-3.53 -1.07,-1.29 -1.402,-3.7 -1.921,-6.28 -0.512,-2.51 -0.766,-4.81 -0.766,-6.66 -0.078,-4.29 1.516,-6.88 4.547,-6.88 1.781,0.26 3.719,0.81 5.031,2.43 1.039,1.72 2.328,4.01 3.047,7.2 0.441,3.23 1.094,5.94 1.094,8.25 -0.321,4.69 -1.453,6.59 -4.36,6.59 z m 33.5,-16.01 c 2.977,0.1 5.317,-0.96 6.922,-2.86 1.598,-1.84 2.406,-4.65 2.406,-8.27 -0.14,-2.42 -0.324,-5.23 -0.968,-8.01 -0.797,-2.64 -1.633,-5.18 -2.953,-7.19 -1.493,-1.8 -2.856,-3.53 -4.594,-4.56 -2.043,-0.96 -3.68,-1.53 -5.813,-1.53 -3.011,0.24 -5.289,0.99 -6.922,2.98 -1.683,2.24 -2.437,4.81 -2.437,8.47 -0.246,3.64 0.555,7.04 1.672,10.47 0.976,3.7 2.722,6.04 4.828,7.83 2.035,2.11 4.734,2.67 7.859,2.67 z m -0.031,-3.89 c -1.637,0.06 -2.937,-0.38 -3.969,-1.13 -1.062,-0.64 -1.933,-1.93 -2.703,-3.53 -0.89,-1.32 -1.402,-3.7 -1.922,-6.28 -0.668,-2.54 -0.765,-4.81 -0.765,-6.66 -0.235,-4.32 1.507,-6.87 4.531,-6.87 1.961,0.22 3.719,0.8 5.031,2.42 1.235,1.7 2.344,4.02 3.063,7.2 0.617,3.21 1.093,5.94 1.093,8.27 -0.14,4.64 -1.453,6.58 -4.359,6.58" /><path
         id="path198"
         style="fill:none;stroke:#000000;stroke-width:7.68970013;stroke-linecap:butt;stroke-linejoin:miter;stroke-miterlimit:4;stroke-dasharray:none;stroke-opacity:1"
         d="M 320.766,1451.85 H 283.855" /><path
         id="path200"
         style="fill:#000000;fill-opacity:1;fill-rule:nonzero;stroke:none"
         d="m 133.391,1428.68 h -6.75 c 0.672,4.91 2.492,9.58 4.515,14 1.864,4.43 4.535,8.82 7.547,13.17 3.004,4.64 7.926,10.42 14.75,18.17 h -28.078 l 1.047,5.52 h 34.812 l -1.015,-5.25 c -5.574,-6.18 -9.125,-10.79 -11.188,-13.44 -2.168,-2.37 -3.902,-5.22 -5.547,-7.73 -1.914,-2.31 -3.109,-5.03 -4.39,-7.6 -1.418,-2.51 -2.403,-5.24 -3.36,-8.03 -0.964,-2.73 -1.73,-5.73 -2.343,-8.81" /><path
         id="path202"
         style="fill:#000000;fill-opacity:1;fill-rule:nonzero;stroke:none"
         d="m 171.109,1479.54 h 29.032 l -1.047,-5.52 h -23.125 l -4.141,-16.15 c 1.16,1.28 2.68,1.8 4.422,2.37 1.563,0.72 3.625,0.86 5.625,0.86 4.395,0.19 8.051,-1.28 10.781,-3.84 2.414,-2.42 4.11,-6.01 4.11,-10.35 -0.028,-5.66 -1.743,-10.55 -5.219,-13.92 -3.758,-3.13 -8.324,-5.04 -14.563,-5.04 -9.058,0.24 -14.5,3.91 -16.625,11.73 l 5.86,1.53 c 0.57,-2.54 2.082,-4.7 4,-6.01 1.738,-1.16 4.297,-1.97 7.14,-1.97 3.797,0.15 7.118,1.12 9.297,3.37 1.864,2.29 3.282,5.46 3.282,9.61 -0.086,3.1 -0.836,5.27 -2.5,7 -1.918,1.9 -3.907,2.61 -6.719,2.61 -3.961,0.29 -7.36,-1.19 -10.235,-3.56 h -6.39 l 7.015,27.28" /><path
         id="path204"
         style="fill:#000000;fill-opacity:1;fill-rule:nonzero;stroke:none"
         d="m 214.984,1428.68 h -5.937 l 42.734,50.86 h 6 z m 4.344,51.59 c 2.785,0.14 5.301,-0.95 6.906,-2.86 1.43,-1.82 2.422,-4.66 2.422,-8.28 -0.324,-2.37 -0.328,-5.22 -0.984,-8.01 -0.977,-2.6 -1.633,-5.18 -2.953,-7.19 -1.324,-1.76 -2.84,-3.53 -4.578,-4.56 -1.891,-0.92 -3.684,-1.53 -5.828,-1.53 -3.188,0.28 -5.29,0.99 -6.922,2.98 -1.86,2.27 -2.438,4.82 -2.438,8.49 -0.09,3.66 0.555,7.02 1.672,10.45 0.801,3.74 2.727,6.05 4.844,7.83 1.851,1.82 4.734,2.68 7.859,2.68 z m -0.047,-3.89 c -1.804,0.1 -2.929,-0.37 -3.968,-1.12 -1.243,-0.61 -1.934,-1.93 -2.704,-3.53 -1.07,-1.29 -1.402,-3.7 -1.921,-6.28 -0.512,-2.51 -0.766,-4.81 -0.766,-6.66 -0.078,-4.29 1.516,-6.88 4.547,-6.88 1.781,0.26 3.719,0.81 5.031,2.43 1.039,1.72 2.328,4.01 3.047,7.2 0.441,3.23 1.094,5.94 1.094,8.25 -0.321,4.69 -1.453,6.59 -4.36,6.59 z m 33.5,-16.01 c 2.977,0.1 5.317,-0.96 6.922,-2.86 1.598,-1.84 2.406,-4.65 2.406,-8.27 -0.14,-2.42 -0.324,-5.23 -0.968,-8.01 -0.797,-2.64 -1.633,-5.18 -2.953,-7.19 -1.493,-1.8 -2.856,-3.53 -4.594,-4.56 -2.043,-0.96 -3.68,-1.53 -5.813,-1.53 -3.011,0.24 -5.289,0.99 -6.922,2.98 -1.683,2.24 -2.437,4.81 -2.437,8.47 -0.246,3.64 0.555,7.04 1.672,10.47 0.976,3.7 2.722,6.04 4.828,7.83 2.035,2.11 4.734,2.67 7.859,2.67 z m -0.031,-3.89 c -1.637,0.06 -2.937,-0.38 -3.969,-1.13 -1.062,-0.64 -1.933,-1.93 -2.703,-3.53 -0.89,-1.32 -1.402,-3.7 -1.922,-6.28 -0.668,-2.54 -0.765,-4.81 -0.765,-6.66 -0.235,-4.32 1.507,-6.87 4.531,-6.87 1.961,0.22 3.719,0.8 5.031,2.42 1.235,1.7 2.344,4.02 3.063,7.2 0.617,3.21 1.093,5.94 1.093,8.27 -0.14,4.64 -1.453,6.58 -4.359,6.58" /><path
         id="path206"
         style="fill:none;stroke:#000000;stroke-width:7.68970013;stroke-linecap:butt;stroke-linejoin:miter;stroke-miterlimit:4;stroke-dasharray:none;stroke-opacity:1"
         d="M 320.766,1859.4 H 283.855" /><path
         id="path208"
         style="fill:#000000;fill-opacity:1;fill-rule:nonzero;stroke:none"
         d="m 78.7188,1835.68 1.0625,5.5 h 12.9218 l 7.4849,38.66 -12.9849,-8.05 1.2657,6.48 13.5622,8.27 H 108 l -8.7812,-45.36 h 12.3442 l -1.079,-5.5 H 78.7188" /><path
         id="path210"
         style="fill:#000000;fill-opacity:1;fill-rule:nonzero;stroke:none"
         d="m 144.219,1887.27 c 4.25,0.14 7.883,-1.48 10.375,-4.43 2.195,-2.68 3.75,-7.09 3.75,-12.38 -0.219,-6.09 -0.946,-12.13 -2.828,-17.89 -2.153,-5.73 -4.543,-10.14 -8,-13.14 -3.735,-2.91 -7.653,-4.48 -12.578,-4.48 -4.461,0.24 -7.809,1.55 -10.297,4.65 -2.809,3.13 -3.735,7.38 -3.735,12.85 -0.074,4.41 0.535,8.73 1.61,13.2 0.804,4.49 2.582,8.35 4.5,11.62 1.804,3.41 4.297,5.76 7.14,7.46 2.688,2.01 6.196,2.54 10.063,2.54 z m -8.75,-47.04 c 3.406,0.15 6.656,1.27 8.969,3.83 2.062,2.75 4.156,6.51 5.531,11.9 1.289,5.63 2.078,10.33 2.078,14.83 -0.121,4.02 -0.727,6.53 -2.172,8.41 -1.5,2.04 -3.465,2.82 -6.078,2.82 -3.703,0.22 -6.656,-1.27 -8.969,-3.82 -2.359,-2.39 -4.164,-6.53 -5.547,-11.91 -1.574,-5.26 -2.062,-10.33 -2.062,-14.83 -0.18,-3.65 0.719,-6.54 2.156,-8.42 1.219,-1.66 3.477,-2.81 6.094,-2.81" /><path
         id="path212"
         style="fill:#000000;fill-opacity:1;fill-rule:nonzero;stroke:none"
         d="m 185.219,1887.27 c 4.25,0.14 7.883,-1.48 10.375,-4.43 2.195,-2.68 3.75,-7.09 3.75,-12.38 -0.219,-6.09 -0.946,-12.13 -2.828,-17.89 -2.153,-5.73 -4.543,-10.14 -8,-13.14 -3.735,-2.91 -7.653,-4.48 -12.578,-4.48 -4.461,0.24 -7.809,1.55 -10.297,4.65 -2.809,3.13 -3.735,7.38 -3.735,12.85 -0.074,4.41 0.535,8.73 1.61,13.2 0.804,4.49 2.582,8.35 4.5,11.62 1.804,3.41 4.297,5.76 7.14,7.46 2.688,2.01 6.196,2.54 10.063,2.54 z m -8.75,-47.04 c 3.406,0.15 6.656,1.27 8.969,3.83 2.062,2.75 4.156,6.51 5.531,11.9 1.289,5.63 2.078,10.33 2.078,14.83 -0.121,4.02 -0.727,6.53 -2.172,8.41 -1.5,2.04 -3.465,2.82 -6.078,2.82 -3.703,0.22 -6.656,-1.27 -8.969,-3.82 -2.359,-2.39 -4.164,-6.53 -5.547,-11.91 -1.574,-5.26 -2.062,-10.33 -2.062,-14.83 -0.18,-3.65 0.719,-6.54 2.156,-8.42 1.219,-1.66 3.477,-2.81 6.094,-2.81" /><path
         id="path214"
         style="fill:#000000;fill-opacity:1;fill-rule:nonzero;stroke:none"
         d="m 214.984,1835.68 h -5.937 l 42.734,50.86 h 6 z m 4.344,51.59 c 2.785,0.14 5.301,-0.95 6.906,-2.86 1.43,-1.82 2.422,-4.66 2.422,-8.28 -0.324,-2.37 -0.328,-5.22 -0.984,-8.01 -0.977,-2.6 -1.633,-5.18 -2.953,-7.19 -1.324,-1.76 -2.84,-3.53 -4.578,-4.56 -1.891,-0.92 -3.684,-1.53 -5.828,-1.53 -3.188,0.28 -5.29,0.99 -6.922,2.98 -1.86,2.27 -2.438,4.82 -2.438,8.49 -0.09,3.66 0.555,7.02 1.672,10.45 0.801,3.74 2.727,6.05 4.844,7.83 1.851,1.82 4.734,2.68 7.859,2.68 z m -0.047,-3.89 c -1.804,0.1 -2.929,-0.37 -3.968,-1.12 -1.243,-0.61 -1.934,-1.93 -2.704,-3.53 -1.07,-1.29 -1.402,-3.7 -1.921,-6.28 -0.512,-2.51 -0.766,-4.81 -0.766,-6.66 -0.078,-4.29 1.516,-6.88 4.547,-6.88 1.781,0.26 3.719,0.81 5.031,2.43 1.039,1.72 2.328,4.01 3.047,7.2 0.441,3.23 1.094,5.94 1.094,8.25 -0.321,4.69 -1.453,6.59 -4.36,6.59 z m 33.5,-16.01 c 2.977,0.1 5.317,-0.96 6.922,-2.86 1.598,-1.84 2.406,-4.65 2.406,-8.27 -0.14,-2.42 -0.324,-5.23 -0.968,-8.01 -0.797,-2.64 -1.633,-5.18 -2.953,-7.19 -1.493,-1.8 -2.856,-3.53 -4.594,-4.56 -2.043,-0.96 -3.68,-1.53 -5.813,-1.53 -3.011,0.24 -5.289,0.99 -6.922,2.98 -1.683,2.24 -2.437,4.81 -2.437,8.47 -0.246,3.64 0.555,7.04 1.672,10.47 0.976,3.7 2.722,6.04 4.828,7.83 2.035,2.11 4.734,2.67 7.859,2.67 z m -0.031,-3.89 c -1.637,0.06 -2.937,-0.38 -3.969,-1.13 -1.062,-0.64 -1.933,-1.93 -2.703,-3.53 -0.89,-1.32 -1.402,-3.7 -1.922,-6.28 -0.668,-2.54 -0.765,-4.81 -0.765,-6.66 -0.235,-4.32 1.507,-6.87 4.531,-6.87 1.961,0.22 3.719,0.8 5.031,2.42 1.235,1.7 2.344,4.02 3.063,7.2 0.617,3.21 1.093,5.94 1.093,8.27 -0.14,4.64 -1.453,6.58 -4.359,6.58" /><path
         id="path216"
         style="fill:#000000;fill-opacity:1;fill-rule:nonzero;stroke:none"
         d="m 57.4688,849.48 c -0.2618,-5.011 -1.5079,-9.05 -4.5313,-11.921 -3.1133,-2.84 -7.1094,-4.321 -12.2344,-4.321 -4.0664,0.153 -7.9687,0.821 -11.7187,2.461 -3.8477,1.973 -6.6172,3.922 -8.6094,6.84 -2.2266,2.973 -3,6.313 -3,10.16 -0.2266,2.86 0.5234,4.93 1.5625,7.18 0.9492,2.531 2.4063,3.992 4.125,5.18 l -2.7656,0.121 C 15.1875,865.34 11.6172,864.07 8.96875,861.852 6.23047,859.922 5,856.488 5,852.398 4.89844,850.621 5.35938,848.68 6.07813,846.871 L 1.34375,845.27 c -1.0625,2.359 -1.265625,4.57 -1.265625,7.039 C -0.0507813,858.672 2,863.301 5.84375,866.57 c 3.78125,3.309 9.60545,4.91 17.31255,4.91 3.5312,0.059 7.9062,-0.421 12.6562,-1.242 7.3359,-1.297 12.8281,-3.847 16.3594,-7.199 3.3711,-3.129 5.2969,-7.867 5.2969,-13.559 z m -5.1094,0.34 c -0.2227,3.43 -0.8594,5.719 -2.5781,7.739 -1.7579,2.062 -4.4219,3.511 -8.0782,4.48 -3.6718,1.18 -6.707,1.449 -9.125,1.449 -7.0976,0.071 -10.2031,-3.238 -10.2031,-9.718 -0.2266,-2.739 0.7891,-5.52 2.3594,-7.43 1.5469,-1.809 4,-3.41 7.3125,-4.461 3.1953,-0.789 6.4961,-1.57 9.5469,-1.57 3.1679,0.121 6.1328,0.793 7.9843,2.39 1.5586,1.93 2.7813,3.973 2.7813,7.121" /><path
         id="path218"
         style="fill:#000000;fill-opacity:1;fill-rule:nonzero;stroke:none"
         d="m 56.6875,902.102 -36.6406,7.058 v -12.621 c 10.3086,-3.391 17.7656,-5.98 22.0156,-7.609 4.1172,-1.371 7.4141,-3.059 9.5156,-4.309 1.8086,-1.223 3.6172,-2.57 4.5313,-3.992 0.7656,-1.391 1.3594,-3.219 1.3594,-5.43 -0.2618,-1.57 -0.2305,-3.16 -0.6875,-4.289 l -5,1.219 c 0.3554,1.031 0.5781,1.73 0.5781,2.641 -0.2227,1.609 -0.7578,2.492 -2.2813,3.55 -1.6601,1.192 -4.289,2.371 -8.2812,3.891 -4.0352,1.68 -12.9258,4.559 -26.7813,9.109 v 25.782 l 41.6719,-8.043 v -6.957" /><path
         id="path220"
         style="fill:#000000;fill-opacity:1;fill-rule:nonzero;stroke:none"
         d="m 15.0156,934.629 24.8907,-4.84 c 2.1992,-0.16 4.1992,-0.687 5.7812,-0.687 4.3047,0.187 6.4531,2.32 6.4531,6.968 -0.1484,3.469 -1.2343,6.149 -3.7031,8.641 -2.7187,2.809 -5.8125,4.148 -10.0312,4.969 l -23.3907,4.531 v 6.91 l 32.7813,-6.359 c 2.4023,-0.223 5.4023,-1.032 8.8906,-1.5 v -6.532 c -0.2812,0.309 -1.2656,0.129 -2.9531,0.399 -1.711,0.461 -3.0703,0.5 -4.125,0.68 v -0.11 c 2.6523,-1.828 5.0117,-4.32 6.1562,-6.469 1.1094,-2.011 1.7032,-4.73 1.7032,-7.71 -0.2618,-3.77 -0.9375,-6.7 -2.8125,-8.622 -2.1954,-1.668 -4.5821,-2.886 -8.125,-2.886 -1.9258,0.218 -3.754,0.269 -6.3282,0.808 l -25.1875,4.86 v 6.949" /><path
         id="path222"
         style="fill:#000000;fill-opacity:1;fill-rule:nonzero;stroke:none"
         d="m 15.0156,978.961 17.2969,-3.422 v 18.52 l -17.2969,3.402 v 6.919 l 41.6719,-8.06 v -6.91 l -19.3437,3.649 v -18.52 l 19.3437,-3.641 v -6.918 l -41.6719,8.079 v 6.902" /><path
         id="path224"
         style="fill:#000000;fill-opacity:1;fill-rule:nonzero;stroke:none"
         d="m 57.0781,1041.56 c -0.1328,-2.36 -0.4883,-4.14 -1.4687,-5.22 -1.2969,-0.97 -2.4531,-1.63 -4.3906,-1.63 l -2.4375,0.17 v -0.22 c 3.1875,-2.14 5.4765,-4.37 6.7656,-6.67 0.9961,-2.06 1.9219,-5.07 1.9219,-8.33 -0.2618,-3.6 -1.0704,-6.55 -3.2188,-8.81 -2.332,-1.98 -4.8789,-3.39 -8.2031,-3.39 -4.836,0.07 -8.2891,1.71 -10.7188,5.13 -2.6484,3.44 -3.7031,8.86 -3.7968,16.36 l -0.125,8.98 c -2.7813,0.74 -4.1915,0.73 -4.9532,0.73 -2.6289,0.01 -4.125,-0.68 -5.25,-2.06 -1.3047,-1.35 -1.7031,-3.28 -1.7031,-5.72 -0.2695,-2.81 0.5391,-5.4 1.6094,-7 0.9336,-1.32 2.7148,-2.72 4.9219,-3.4 l -1.1094,-6.85 c -3.8164,1.18 -6.4531,3.19 -8.1406,6.07 -1.7266,3.2 -2.5469,6.73 -2.5469,11.57 -0.1797,4.54 1.0312,7.88 3.0937,10.44 1.8399,2.9 4.8125,3.86 8.2813,3.86 1.3398,0.04 3.6679,-0.25 6.0625,-0.73 l 14.5781,-2.85 c 1.043,-0.05 2.3594,-0.42 3.3906,-0.42 1.5586,0.04 2.8125,1.04 2.8125,3.11 -0.2539,0.7 -0.0937,1.47 -0.2812,2.33 l 4.2969,-0.55 c 0.1484,-1.62 0.6093,-3.32 0.6093,-4.9 z m -20.8906,-4.55 0.1406,-7.74 c -0.1406,-2.93 0.3516,-5.49 0.8282,-7.25 0.3242,-1.54 1.0859,-3.13 1.8125,-4.11 0.625,-0.71 1.6367,-1.73 2.75,-2.29 1.0937,-0.53 2.4492,-0.83 4.0312,-0.83 1.8984,0.3 3.4766,0.63 4.6719,1.89 0.9531,1.26 1.7969,2.88 1.7969,4.88 -0.1758,2.55 -0.5313,4.77 -1.5938,6.79 -1.375,2.13 -2.4453,3.69 -4.1562,5 -1.9688,1.43 -3.5391,2.19 -5.5,2.61 l -4.7813,1.05" /><path
         id="path226"
         style="fill:#000000;fill-opacity:1;fill-rule:nonzero;stroke:none"
         d="m 15.0156,1113.41 41.6719,-8.04 v -6.92 l -36.6406,7.06 v -18.56 l 36.6406,-7.05 v -6.92 l -41.6719,8.06 v 32.37" /><path
         id="path228"
         style="fill:#000000;fill-opacity:1;fill-rule:nonzero;stroke:none"
         d="m 73.2031,1115.29 c -0.1718,-1.71 -0.1836,-3.53 -0.5468,-5.06 l -5.1407,1.18 c -0.0781,1.25 0.2969,2.15 0.2969,2.96 -0.043,2.54 -0.7969,4.58 -2.3906,6.44 -1.8399,2.14 -3.9219,3.67 -6.9844,5.46 l -1.75,1.04 -41.6719,-8.33 v 7.03 l 23.2969,4.3 c 1.875,0.5 4.2969,0.74 6.6406,1.07 2.2578,0.43 3.8711,0.51 4.5782,0.53 -0.8516,0.51 -1.2735,0.58 -2.1094,0.99 -1.0781,0.67 -11.6328,6.22 -32.4063,17.41 v 7.64 l 42.1407,-24.04 c 4.6953,-2.59 8.2539,-5.13 10.2031,-6.85 1.7226,-1.52 3.4062,-3.53 4.375,-5.41 0.9609,-1.87 1.4687,-4 1.4687,-6.36" /><path
         id="path230"
         style="fill:#000000;fill-opacity:1;fill-rule:nonzero;stroke:none"
         d="m 56.6875,1179.62 -24.4375,4.75 c -3.4062,0.74 -5.457,0.95 -6.7187,0.95 -2.2188,0.12 -3.4141,-0.48 -4.4375,-1.42 -1.1563,-0.69 -1.5313,-2.5 -1.5313,-4.66 -0.2891,-2.76 1.2773,-5.44 3.8281,-7.61 2.3203,-2.15 5.8867,-3.59 10,-4.26 l 23.2969,-4.52 v -6.87 l -32.8125,6.37 c -2.4883,0.62 -5.3789,1.01 -8.8594,1.49 v 6.53 c 0.1719,0.1 1.2735,-0.14 2.9688,-0.41 1.6015,-0.02 3.0703,-0.48 4.1094,-0.65 v 0.1 c -3.0625,1.93 -4.9688,3.68 -6.125,5.52 -1.25,2.1 -1.7344,4.06 -1.7344,6.63 -0.1797,3.09 0.7656,5.46 2.2969,7.25 1.2421,2.07 3.7343,2.84 6.6406,3.2 -3.4922,2.3 -5.6563,4.11 -6.9688,6.12 -1.4843,2.21 -1.9687,4.33 -1.9687,6.93 -0.1797,3.58 0.9375,5.96 2.8125,7.78 1.7578,2.09 4.5898,2.72 8.1406,2.72 1.4805,0.03 3.75,-0.28 6.3125,-0.82 l 25.1875,-4.86 v -6.82 l -24.4375,4.75 c -3.4062,0.92 -5.457,0.95 -6.7187,0.95 -2.2188,0.3 -3.4141,-0.47 -4.4375,-1.41 -1.1563,-0.83 -1.5313,-2.48 -1.5313,-4.62 -0.2891,-2.56 1.2617,-5.39 3.7813,-7.52 2.2929,-1.97 5.8242,-3.54 9.9375,-4.23 l 23.4062,-4.53 v -6.83" /><path
         id="path232"
         style="fill:#000000;fill-opacity:1;fill-rule:nonzero;stroke:none"
         d="m 15.0156,1235.63 24.8907,-4.84 c 2.1992,-0.16 4.1992,-0.69 5.7812,-0.69 4.3047,0.19 6.4531,2.32 6.4531,6.97 -0.1484,3.47 -1.2343,6.15 -3.7031,8.64 -2.7187,2.81 -5.8125,4.15 -10.0312,4.97 l -23.3907,4.53 v 6.91 l 32.7813,-6.36 c 2.4023,-0.22 5.4023,-1.03 8.8906,-1.5 v -6.53 c -0.2812,0.31 -1.2656,0.13 -2.9531,0.4 -1.711,0.46 -3.0703,0.5 -4.125,0.68 v -0.11 c 2.6523,-1.83 5.0117,-4.32 6.1562,-6.47 1.1094,-2.01 1.7032,-4.73 1.7032,-7.71 -0.2618,-3.77 -0.9375,-6.7 -2.8125,-8.62 -2.1954,-1.67 -4.5821,-2.89 -8.125,-2.89 -1.9258,0.22 -3.754,0.27 -6.3282,0.81 l -25.1875,4.86 v 6.95" /></g></g></svg>