<?xml version="1.0" encoding="utf-8"?>
<!-- Generator: Adobe Illustrator 21.1.0, SVG Export Plug-In . SVG Version: 6.00 Build 0)  -->
<svg version="1.1" id="Layer_1" xmlns="http://www.w3.org/2000/svg" xmlns:xlink="http://www.w3.org/1999/xlink" x="0px" y="0px"
	 viewBox="0 0 30 30" style="enable-background:new 0 0 30 30;" xml:space="preserve">
<style type="text/css">
	.st0{fill:#f26d21;}
</style>
<path class="st0" d="M29,7.3c-1,0.4-2.1,0.7-3.3,0.8c1.2-0.6,2.1-1.6,2.5-2.8c-1.1,0.6-2.3,1-3.6,1.2c-1-1-2.5-1.6-4.2-1.6
	c-3.2,0-5.7,2.3-5.7,5.1c0,0.4,0.1,0.8,0.1,1.2C10,11,5.8,8.9,2.9,5.9C2.5,6.6,2.2,7.5,2.2,8.4c0,1.8,1,3.3,2.6,4.2
	c-0.9,0-1.8-0.3-2.6-0.6v0.1c0,2.5,2,4.5,4.6,5c-0.5,0.1-1,0.2-1.5,0.2c-0.4,0-0.7,0-1.1-0.1c0.7,2,2.9,3.5,5.4,3.5
	c-2,1.4-4.4,2.2-7.1,2.2c-0.5,0-0.9,0-1.4-0.1c2.5,1.4,5.6,2.3,8.8,2.3c10.6,0,16.3-7.7,16.3-14.5c0-0.2,0-0.4,0-0.7
	C27.3,9.2,28.2,8.3,29,7.3"/>
</svg>
